<?xml version="1.0" encoding="utf-8" standalone="no"?>
<!DOCTYPE svg PUBLIC "-//W3C//DTD SVG 1.1//EN"
  "http://www.w3.org/Graphics/SVG/1.1/DTD/svg11.dtd">
<!-- Created with matplotlib (http://matplotlib.org/) -->
<svg height="576pt" version="1.1" viewBox="0 0 1080 576" width="1080pt" xmlns="http://www.w3.org/2000/svg" xmlns:xlink="http://www.w3.org/1999/xlink">
 <defs>
  <style type="text/css">
*{stroke-linecap:butt;stroke-linejoin:round;}
  </style>
 </defs>
 <g id="figure_1">
  <g id="patch_1">
   <path d="M 0 576 
L 1080 576 
L 1080 0 
L 0 0 
z
" style="fill:#ffffff;"/>
  </g>
  <g id="axes_1">
   <g id="patch_2">
    <path d="M 57.215625 480.148273 
L 1063.8 480.148273 
L 1063.8 16.2 
L 57.215625 16.2 
z
" style="fill:#eaeaf2;"/>
   </g>
   <g id="matplotlib.axis_1">
    <g id="xtick_1">
     <g id="line2d_1">
      <path clip-path="url(#pc792500c06)" d="M 102.96946 480.148273 
L 102.96946 16.2 
" style="fill:none;stroke:#ffffff;stroke-linecap:round;"/>
     </g>
     <g id="line2d_2"/>
     <g id="text_1">
      <!-- 2011-03-03 -->
      <defs>
       <path d="M 50.34375 8.453125 
L 50.34375 0 
L 3.03125 0 
Q 2.9375 3.171875 4.046875 6.109375 
Q 5.859375 10.9375 9.828125 15.625 
Q 13.8125 20.3125 21.34375 26.46875 
Q 33.015625 36.03125 37.109375 41.625 
Q 41.21875 47.21875 41.21875 52.203125 
Q 41.21875 57.421875 37.46875 61 
Q 33.734375 64.59375 27.734375 64.59375 
Q 21.390625 64.59375 17.578125 60.78125 
Q 13.765625 56.984375 13.71875 50.25 
L 4.6875 51.171875 
Q 5.609375 61.28125 11.65625 66.578125 
Q 17.71875 71.875 27.9375 71.875 
Q 38.234375 71.875 44.234375 66.15625 
Q 50.25 60.453125 50.25 52 
Q 50.25 47.703125 48.484375 43.546875 
Q 46.734375 39.40625 42.65625 34.8125 
Q 38.578125 30.21875 29.109375 22.21875 
Q 21.1875 15.578125 18.9375 13.203125 
Q 16.703125 10.84375 15.234375 8.453125 
z
" id="ArialMT-32"/>
       <path d="M 4.15625 35.296875 
Q 4.15625 48 6.765625 55.734375 
Q 9.375 63.484375 14.515625 67.671875 
Q 19.671875 71.875 27.484375 71.875 
Q 33.25 71.875 37.59375 69.546875 
Q 41.9375 67.234375 44.765625 62.859375 
Q 47.609375 58.5 49.21875 52.21875 
Q 50.828125 45.953125 50.828125 35.296875 
Q 50.828125 22.703125 48.234375 14.96875 
Q 45.65625 7.234375 40.5 3 
Q 35.359375 -1.21875 27.484375 -1.21875 
Q 17.140625 -1.21875 11.234375 6.203125 
Q 4.15625 15.140625 4.15625 35.296875 
z
M 13.1875 35.296875 
Q 13.1875 17.671875 17.3125 11.828125 
Q 21.4375 6 27.484375 6 
Q 33.546875 6 37.671875 11.859375 
Q 41.796875 17.71875 41.796875 35.296875 
Q 41.796875 52.984375 37.671875 58.78125 
Q 33.546875 64.59375 27.390625 64.59375 
Q 21.34375 64.59375 17.71875 59.46875 
Q 13.1875 52.9375 13.1875 35.296875 
z
" id="ArialMT-30"/>
       <path d="M 37.25 0 
L 28.46875 0 
L 28.46875 56 
Q 25.296875 52.984375 20.140625 49.953125 
Q 14.984375 46.921875 10.890625 45.40625 
L 10.890625 53.90625 
Q 18.265625 57.375 23.78125 62.296875 
Q 29.296875 67.234375 31.59375 71.875 
L 37.25 71.875 
z
" id="ArialMT-31"/>
       <path d="M 3.171875 21.484375 
L 3.171875 30.328125 
L 30.171875 30.328125 
L 30.171875 21.484375 
z
" id="ArialMT-2d"/>
       <path d="M 4.203125 18.890625 
L 12.984375 20.0625 
Q 14.5 12.59375 18.140625 9.296875 
Q 21.78125 6 27 6 
Q 33.203125 6 37.46875 10.296875 
Q 41.75 14.59375 41.75 20.953125 
Q 41.75 27 37.796875 30.921875 
Q 33.84375 34.859375 27.734375 34.859375 
Q 25.25 34.859375 21.53125 33.890625 
L 22.515625 41.609375 
Q 23.390625 41.5 23.921875 41.5 
Q 29.546875 41.5 34.03125 44.421875 
Q 38.53125 47.359375 38.53125 53.46875 
Q 38.53125 58.296875 35.25 61.46875 
Q 31.984375 64.65625 26.8125 64.65625 
Q 21.6875 64.65625 18.265625 61.421875 
Q 14.84375 58.203125 13.875 51.765625 
L 5.078125 53.328125 
Q 6.6875 62.15625 12.390625 67.015625 
Q 18.109375 71.875 26.609375 71.875 
Q 32.46875 71.875 37.390625 69.359375 
Q 42.328125 66.84375 44.9375 62.5 
Q 47.5625 58.15625 47.5625 53.265625 
Q 47.5625 48.640625 45.0625 44.828125 
Q 42.578125 41.015625 37.703125 38.765625 
Q 44.046875 37.3125 47.5625 32.6875 
Q 51.078125 28.078125 51.078125 21.140625 
Q 51.078125 11.765625 44.234375 5.25 
Q 37.40625 -1.265625 26.953125 -1.265625 
Q 17.53125 -1.265625 11.296875 4.34375 
Q 5.078125 9.96875 4.203125 18.890625 
z
" id="ArialMT-33"/>
      </defs>
      <g style="fill:#262626;" transform="translate(82.655332 538.673155)rotate(-45)scale(0.125 -0.125)">
       <use xlink:href="#ArialMT-32"/>
       <use x="55.615234" xlink:href="#ArialMT-30"/>
       <use x="111.230469" xlink:href="#ArialMT-31"/>
       <use x="166.736328" xlink:href="#ArialMT-31"/>
       <use x="222.351562" xlink:href="#ArialMT-2d"/>
       <use x="255.652344" xlink:href="#ArialMT-30"/>
       <use x="311.267578" xlink:href="#ArialMT-33"/>
       <use x="366.882812" xlink:href="#ArialMT-2d"/>
       <use x="400.183594" xlink:href="#ArialMT-30"/>
       <use x="455.798828" xlink:href="#ArialMT-33"/>
      </g>
     </g>
    </g>
    <g id="xtick_2">
     <g id="line2d_3">
      <path clip-path="url(#pc792500c06)" d="M 124.250314 480.148273 
L 124.250314 16.2 
" style="fill:none;stroke:#ffffff;stroke-linecap:round;"/>
     </g>
     <g id="line2d_4"/>
     <g id="text_2">
      <!-- 2011-03-04 -->
      <defs>
       <path d="M 32.328125 0 
L 32.328125 17.140625 
L 1.265625 17.140625 
L 1.265625 25.203125 
L 33.9375 71.578125 
L 41.109375 71.578125 
L 41.109375 25.203125 
L 50.78125 25.203125 
L 50.78125 17.140625 
L 41.109375 17.140625 
L 41.109375 0 
z
M 32.328125 25.203125 
L 32.328125 57.46875 
L 9.90625 25.203125 
z
" id="ArialMT-34"/>
      </defs>
      <g style="fill:#262626;" transform="translate(103.936186 538.673155)rotate(-45)scale(0.125 -0.125)">
       <use xlink:href="#ArialMT-32"/>
       <use x="55.615234" xlink:href="#ArialMT-30"/>
       <use x="111.230469" xlink:href="#ArialMT-31"/>
       <use x="166.736328" xlink:href="#ArialMT-31"/>
       <use x="222.351562" xlink:href="#ArialMT-2d"/>
       <use x="255.652344" xlink:href="#ArialMT-30"/>
       <use x="311.267578" xlink:href="#ArialMT-33"/>
       <use x="366.882812" xlink:href="#ArialMT-2d"/>
       <use x="400.183594" xlink:href="#ArialMT-30"/>
       <use x="455.798828" xlink:href="#ArialMT-34"/>
      </g>
     </g>
    </g>
    <g id="xtick_3">
     <g id="line2d_5">
      <path clip-path="url(#pc792500c06)" d="M 145.531167 480.148273 
L 145.531167 16.2 
" style="fill:none;stroke:#ffffff;stroke-linecap:round;"/>
     </g>
     <g id="line2d_6"/>
     <g id="text_3">
      <!-- 2011-03-05 -->
      <defs>
       <path d="M 4.15625 18.75 
L 13.375 19.53125 
Q 14.40625 12.796875 18.140625 9.390625 
Q 21.875 6 27.15625 6 
Q 33.5 6 37.890625 10.78125 
Q 42.28125 15.578125 42.28125 23.484375 
Q 42.28125 31 38.0625 35.34375 
Q 33.84375 39.703125 27 39.703125 
Q 22.75 39.703125 19.328125 37.765625 
Q 15.921875 35.84375 13.96875 32.765625 
L 5.71875 33.84375 
L 12.640625 70.609375 
L 48.25 70.609375 
L 48.25 62.203125 
L 19.671875 62.203125 
L 15.828125 42.96875 
Q 22.265625 47.46875 29.34375 47.46875 
Q 38.71875 47.46875 45.15625 40.96875 
Q 51.609375 34.46875 51.609375 24.265625 
Q 51.609375 14.546875 45.953125 7.46875 
Q 39.0625 -1.21875 27.15625 -1.21875 
Q 17.390625 -1.21875 11.203125 4.25 
Q 5.03125 9.71875 4.15625 18.75 
z
" id="ArialMT-35"/>
      </defs>
      <g style="fill:#262626;" transform="translate(125.217039 538.673155)rotate(-45)scale(0.125 -0.125)">
       <use xlink:href="#ArialMT-32"/>
       <use x="55.615234" xlink:href="#ArialMT-30"/>
       <use x="111.230469" xlink:href="#ArialMT-31"/>
       <use x="166.736328" xlink:href="#ArialMT-31"/>
       <use x="222.351562" xlink:href="#ArialMT-2d"/>
       <use x="255.652344" xlink:href="#ArialMT-30"/>
       <use x="311.267578" xlink:href="#ArialMT-33"/>
       <use x="366.882812" xlink:href="#ArialMT-2d"/>
       <use x="400.183594" xlink:href="#ArialMT-30"/>
       <use x="455.798828" xlink:href="#ArialMT-35"/>
      </g>
     </g>
    </g>
    <g id="xtick_4">
     <g id="line2d_7">
      <path clip-path="url(#pc792500c06)" d="M 166.812021 480.148273 
L 166.812021 16.2 
" style="fill:none;stroke:#ffffff;stroke-linecap:round;"/>
     </g>
     <g id="line2d_8"/>
     <g id="text_4">
      <!-- 2011-03-06 -->
      <defs>
       <path d="M 49.75 54.046875 
L 41.015625 53.375 
Q 39.84375 58.546875 37.703125 60.890625 
Q 34.125 64.65625 28.90625 64.65625 
Q 24.703125 64.65625 21.53125 62.3125 
Q 17.390625 59.28125 14.984375 53.46875 
Q 12.59375 47.65625 12.5 36.921875 
Q 15.671875 41.75 20.265625 44.09375 
Q 24.859375 46.4375 29.890625 46.4375 
Q 38.671875 46.4375 44.84375 39.96875 
Q 51.03125 33.5 51.03125 23.25 
Q 51.03125 16.5 48.125 10.71875 
Q 45.21875 4.9375 40.140625 1.859375 
Q 35.0625 -1.21875 28.609375 -1.21875 
Q 17.625 -1.21875 10.6875 6.859375 
Q 3.765625 14.9375 3.765625 33.5 
Q 3.765625 54.25 11.421875 63.671875 
Q 18.109375 71.875 29.4375 71.875 
Q 37.890625 71.875 43.28125 67.140625 
Q 48.6875 62.40625 49.75 54.046875 
z
M 13.875 23.1875 
Q 13.875 18.65625 15.796875 14.5 
Q 17.71875 10.359375 21.1875 8.171875 
Q 24.65625 6 28.46875 6 
Q 34.03125 6 38.03125 10.484375 
Q 42.046875 14.984375 42.046875 22.703125 
Q 42.046875 30.125 38.078125 34.390625 
Q 34.125 38.671875 28.125 38.671875 
Q 22.171875 38.671875 18.015625 34.390625 
Q 13.875 30.125 13.875 23.1875 
z
" id="ArialMT-36"/>
      </defs>
      <g style="fill:#262626;" transform="translate(146.497893 538.673155)rotate(-45)scale(0.125 -0.125)">
       <use xlink:href="#ArialMT-32"/>
       <use x="55.615234" xlink:href="#ArialMT-30"/>
       <use x="111.230469" xlink:href="#ArialMT-31"/>
       <use x="166.736328" xlink:href="#ArialMT-31"/>
       <use x="222.351562" xlink:href="#ArialMT-2d"/>
       <use x="255.652344" xlink:href="#ArialMT-30"/>
       <use x="311.267578" xlink:href="#ArialMT-33"/>
       <use x="366.882812" xlink:href="#ArialMT-2d"/>
       <use x="400.183594" xlink:href="#ArialMT-30"/>
       <use x="455.798828" xlink:href="#ArialMT-36"/>
      </g>
     </g>
    </g>
    <g id="xtick_5">
     <g id="line2d_9">
      <path clip-path="url(#pc792500c06)" d="M 188.092875 480.148273 
L 188.092875 16.2 
" style="fill:none;stroke:#ffffff;stroke-linecap:round;"/>
     </g>
     <g id="line2d_10"/>
     <g id="text_5">
      <!-- 2011-03-07 -->
      <defs>
       <path d="M 4.734375 62.203125 
L 4.734375 70.65625 
L 51.078125 70.65625 
L 51.078125 63.8125 
Q 44.234375 56.546875 37.515625 44.484375 
Q 30.8125 32.421875 27.15625 19.671875 
Q 24.515625 10.6875 23.78125 0 
L 14.75 0 
Q 14.890625 8.453125 18.0625 20.40625 
Q 21.234375 32.375 27.171875 43.484375 
Q 33.109375 54.59375 39.796875 62.203125 
z
" id="ArialMT-37"/>
      </defs>
      <g style="fill:#262626;" transform="translate(167.778746 538.673155)rotate(-45)scale(0.125 -0.125)">
       <use xlink:href="#ArialMT-32"/>
       <use x="55.615234" xlink:href="#ArialMT-30"/>
       <use x="111.230469" xlink:href="#ArialMT-31"/>
       <use x="166.736328" xlink:href="#ArialMT-31"/>
       <use x="222.351562" xlink:href="#ArialMT-2d"/>
       <use x="255.652344" xlink:href="#ArialMT-30"/>
       <use x="311.267578" xlink:href="#ArialMT-33"/>
       <use x="366.882812" xlink:href="#ArialMT-2d"/>
       <use x="400.183594" xlink:href="#ArialMT-30"/>
       <use x="455.798828" xlink:href="#ArialMT-37"/>
      </g>
     </g>
    </g>
    <g id="xtick_6">
     <g id="line2d_11">
      <path clip-path="url(#pc792500c06)" d="M 209.373728 480.148273 
L 209.373728 16.2 
" style="fill:none;stroke:#ffffff;stroke-linecap:round;"/>
     </g>
     <g id="line2d_12"/>
     <g id="text_6">
      <!-- 2011-03-08 -->
      <defs>
       <path d="M 17.671875 38.8125 
Q 12.203125 40.828125 9.5625 44.53125 
Q 6.9375 48.25 6.9375 53.421875 
Q 6.9375 61.234375 12.546875 66.546875 
Q 18.171875 71.875 27.484375 71.875 
Q 36.859375 71.875 42.578125 66.421875 
Q 48.296875 60.984375 48.296875 53.171875 
Q 48.296875 48.1875 45.671875 44.5 
Q 43.0625 40.828125 37.75 38.8125 
Q 44.34375 36.671875 47.78125 31.875 
Q 51.21875 27.09375 51.21875 20.453125 
Q 51.21875 11.28125 44.71875 5.03125 
Q 38.234375 -1.21875 27.640625 -1.21875 
Q 17.046875 -1.21875 10.546875 5.046875 
Q 4.046875 11.328125 4.046875 20.703125 
Q 4.046875 27.6875 7.59375 32.390625 
Q 11.140625 37.109375 17.671875 38.8125 
z
M 15.921875 53.71875 
Q 15.921875 48.640625 19.1875 45.40625 
Q 22.46875 42.1875 27.6875 42.1875 
Q 32.765625 42.1875 36.015625 45.375 
Q 39.265625 48.578125 39.265625 53.21875 
Q 39.265625 58.0625 35.90625 61.359375 
Q 32.5625 64.65625 27.59375 64.65625 
Q 22.5625 64.65625 19.234375 61.421875 
Q 15.921875 58.203125 15.921875 53.71875 
z
M 13.09375 20.65625 
Q 13.09375 16.890625 14.875 13.375 
Q 16.65625 9.859375 20.171875 7.921875 
Q 23.6875 6 27.734375 6 
Q 34.03125 6 38.125 10.046875 
Q 42.234375 14.109375 42.234375 20.359375 
Q 42.234375 26.703125 38.015625 30.859375 
Q 33.796875 35.015625 27.4375 35.015625 
Q 21.234375 35.015625 17.15625 30.90625 
Q 13.09375 26.8125 13.09375 20.65625 
z
" id="ArialMT-38"/>
      </defs>
      <g style="fill:#262626;" transform="translate(189.0596 538.673155)rotate(-45)scale(0.125 -0.125)">
       <use xlink:href="#ArialMT-32"/>
       <use x="55.615234" xlink:href="#ArialMT-30"/>
       <use x="111.230469" xlink:href="#ArialMT-31"/>
       <use x="166.736328" xlink:href="#ArialMT-31"/>
       <use x="222.351562" xlink:href="#ArialMT-2d"/>
       <use x="255.652344" xlink:href="#ArialMT-30"/>
       <use x="311.267578" xlink:href="#ArialMT-33"/>
       <use x="366.882812" xlink:href="#ArialMT-2d"/>
       <use x="400.183594" xlink:href="#ArialMT-30"/>
       <use x="455.798828" xlink:href="#ArialMT-38"/>
      </g>
     </g>
    </g>
    <g id="xtick_7">
     <g id="line2d_13">
      <path clip-path="url(#pc792500c06)" d="M 230.654582 480.148273 
L 230.654582 16.2 
" style="fill:none;stroke:#ffffff;stroke-linecap:round;"/>
     </g>
     <g id="line2d_14"/>
     <g id="text_7">
      <!-- 2011-03-09 -->
      <defs>
       <path d="M 5.46875 16.546875 
L 13.921875 17.328125 
Q 14.984375 11.375 18.015625 8.6875 
Q 21.046875 6 25.78125 6 
Q 29.828125 6 32.875 7.859375 
Q 35.9375 9.71875 37.890625 12.8125 
Q 39.84375 15.921875 41.15625 21.1875 
Q 42.484375 26.46875 42.484375 31.9375 
Q 42.484375 32.515625 42.4375 33.6875 
Q 39.796875 29.5 35.234375 26.875 
Q 30.671875 24.265625 25.34375 24.265625 
Q 16.453125 24.265625 10.296875 30.703125 
Q 4.15625 37.15625 4.15625 47.703125 
Q 4.15625 58.59375 10.578125 65.234375 
Q 17 71.875 26.65625 71.875 
Q 33.640625 71.875 39.421875 68.109375 
Q 45.21875 64.359375 48.21875 57.390625 
Q 51.21875 50.4375 51.21875 37.25 
Q 51.21875 23.53125 48.234375 15.40625 
Q 45.265625 7.28125 39.375 3.03125 
Q 33.5 -1.21875 25.59375 -1.21875 
Q 17.1875 -1.21875 11.859375 3.4375 
Q 6.546875 8.109375 5.46875 16.546875 
z
M 41.453125 48.140625 
Q 41.453125 55.71875 37.421875 60.15625 
Q 33.40625 64.59375 27.734375 64.59375 
Q 21.875 64.59375 17.53125 59.8125 
Q 13.1875 55.03125 13.1875 47.40625 
Q 13.1875 40.578125 17.3125 36.296875 
Q 21.4375 32.03125 27.484375 32.03125 
Q 33.59375 32.03125 37.515625 36.296875 
Q 41.453125 40.578125 41.453125 48.140625 
z
" id="ArialMT-39"/>
      </defs>
      <g style="fill:#262626;" transform="translate(210.340454 538.673155)rotate(-45)scale(0.125 -0.125)">
       <use xlink:href="#ArialMT-32"/>
       <use x="55.615234" xlink:href="#ArialMT-30"/>
       <use x="111.230469" xlink:href="#ArialMT-31"/>
       <use x="166.736328" xlink:href="#ArialMT-31"/>
       <use x="222.351562" xlink:href="#ArialMT-2d"/>
       <use x="255.652344" xlink:href="#ArialMT-30"/>
       <use x="311.267578" xlink:href="#ArialMT-33"/>
       <use x="366.882812" xlink:href="#ArialMT-2d"/>
       <use x="400.183594" xlink:href="#ArialMT-30"/>
       <use x="455.798828" xlink:href="#ArialMT-39"/>
      </g>
     </g>
    </g>
    <g id="xtick_8">
     <g id="line2d_15">
      <path clip-path="url(#pc792500c06)" d="M 251.935435 480.148273 
L 251.935435 16.2 
" style="fill:none;stroke:#ffffff;stroke-linecap:round;"/>
     </g>
     <g id="line2d_16"/>
     <g id="text_8">
      <!-- 2011-03-10 -->
      <g style="fill:#262626;" transform="translate(231.621307 538.673155)rotate(-45)scale(0.125 -0.125)">
       <use xlink:href="#ArialMT-32"/>
       <use x="55.615234" xlink:href="#ArialMT-30"/>
       <use x="111.230469" xlink:href="#ArialMT-31"/>
       <use x="166.736328" xlink:href="#ArialMT-31"/>
       <use x="222.351562" xlink:href="#ArialMT-2d"/>
       <use x="255.652344" xlink:href="#ArialMT-30"/>
       <use x="311.267578" xlink:href="#ArialMT-33"/>
       <use x="366.882812" xlink:href="#ArialMT-2d"/>
       <use x="400.183594" xlink:href="#ArialMT-31"/>
       <use x="455.798828" xlink:href="#ArialMT-30"/>
      </g>
     </g>
    </g>
    <g id="xtick_9">
     <g id="line2d_17">
      <path clip-path="url(#pc792500c06)" d="M 273.216289 480.148273 
L 273.216289 16.2 
" style="fill:none;stroke:#ffffff;stroke-linecap:round;"/>
     </g>
     <g id="line2d_18"/>
     <g id="text_9">
      <!-- 2011-03-11 -->
      <g style="fill:#262626;" transform="translate(252.906995 538.663488)rotate(-45)scale(0.125 -0.125)">
       <use xlink:href="#ArialMT-32"/>
       <use x="55.615234" xlink:href="#ArialMT-30"/>
       <use x="111.230469" xlink:href="#ArialMT-31"/>
       <use x="166.736328" xlink:href="#ArialMT-31"/>
       <use x="222.351562" xlink:href="#ArialMT-2d"/>
       <use x="255.652344" xlink:href="#ArialMT-30"/>
       <use x="311.267578" xlink:href="#ArialMT-33"/>
       <use x="366.882812" xlink:href="#ArialMT-2d"/>
       <use x="400.183594" xlink:href="#ArialMT-31"/>
       <use x="455.689453" xlink:href="#ArialMT-31"/>
      </g>
     </g>
    </g>
    <g id="xtick_10">
     <g id="line2d_19">
      <path clip-path="url(#pc792500c06)" d="M 294.497143 480.148273 
L 294.497143 16.2 
" style="fill:none;stroke:#ffffff;stroke-linecap:round;"/>
     </g>
     <g id="line2d_20"/>
     <g id="text_10">
      <!-- 2011-03-12 -->
      <g style="fill:#262626;" transform="translate(274.183014 538.673155)rotate(-45)scale(0.125 -0.125)">
       <use xlink:href="#ArialMT-32"/>
       <use x="55.615234" xlink:href="#ArialMT-30"/>
       <use x="111.230469" xlink:href="#ArialMT-31"/>
       <use x="166.736328" xlink:href="#ArialMT-31"/>
       <use x="222.351562" xlink:href="#ArialMT-2d"/>
       <use x="255.652344" xlink:href="#ArialMT-30"/>
       <use x="311.267578" xlink:href="#ArialMT-33"/>
       <use x="366.882812" xlink:href="#ArialMT-2d"/>
       <use x="400.183594" xlink:href="#ArialMT-31"/>
       <use x="455.798828" xlink:href="#ArialMT-32"/>
      </g>
     </g>
    </g>
    <g id="xtick_11">
     <g id="line2d_21">
      <path clip-path="url(#pc792500c06)" d="M 315.777996 480.148273 
L 315.777996 16.2 
" style="fill:none;stroke:#ffffff;stroke-linecap:round;"/>
     </g>
     <g id="line2d_22"/>
     <g id="text_11">
      <!-- 2011-03-13 -->
      <g style="fill:#262626;" transform="translate(295.463868 538.673155)rotate(-45)scale(0.125 -0.125)">
       <use xlink:href="#ArialMT-32"/>
       <use x="55.615234" xlink:href="#ArialMT-30"/>
       <use x="111.230469" xlink:href="#ArialMT-31"/>
       <use x="166.736328" xlink:href="#ArialMT-31"/>
       <use x="222.351562" xlink:href="#ArialMT-2d"/>
       <use x="255.652344" xlink:href="#ArialMT-30"/>
       <use x="311.267578" xlink:href="#ArialMT-33"/>
       <use x="366.882812" xlink:href="#ArialMT-2d"/>
       <use x="400.183594" xlink:href="#ArialMT-31"/>
       <use x="455.798828" xlink:href="#ArialMT-33"/>
      </g>
     </g>
    </g>
    <g id="xtick_12">
     <g id="line2d_23">
      <path clip-path="url(#pc792500c06)" d="M 337.05885 480.148273 
L 337.05885 16.2 
" style="fill:none;stroke:#ffffff;stroke-linecap:round;"/>
     </g>
     <g id="line2d_24"/>
     <g id="text_12">
      <!-- 2011-03-14 -->
      <g style="fill:#262626;" transform="translate(316.744722 538.673155)rotate(-45)scale(0.125 -0.125)">
       <use xlink:href="#ArialMT-32"/>
       <use x="55.615234" xlink:href="#ArialMT-30"/>
       <use x="111.230469" xlink:href="#ArialMT-31"/>
       <use x="166.736328" xlink:href="#ArialMT-31"/>
       <use x="222.351562" xlink:href="#ArialMT-2d"/>
       <use x="255.652344" xlink:href="#ArialMT-30"/>
       <use x="311.267578" xlink:href="#ArialMT-33"/>
       <use x="366.882812" xlink:href="#ArialMT-2d"/>
       <use x="400.183594" xlink:href="#ArialMT-31"/>
       <use x="455.798828" xlink:href="#ArialMT-34"/>
      </g>
     </g>
    </g>
    <g id="xtick_13">
     <g id="line2d_25">
      <path clip-path="url(#pc792500c06)" d="M 358.339703 480.148273 
L 358.339703 16.2 
" style="fill:none;stroke:#ffffff;stroke-linecap:round;"/>
     </g>
     <g id="line2d_26"/>
     <g id="text_13">
      <!-- 2011-03-15 -->
      <g style="fill:#262626;" transform="translate(338.025575 538.673155)rotate(-45)scale(0.125 -0.125)">
       <use xlink:href="#ArialMT-32"/>
       <use x="55.615234" xlink:href="#ArialMT-30"/>
       <use x="111.230469" xlink:href="#ArialMT-31"/>
       <use x="166.736328" xlink:href="#ArialMT-31"/>
       <use x="222.351562" xlink:href="#ArialMT-2d"/>
       <use x="255.652344" xlink:href="#ArialMT-30"/>
       <use x="311.267578" xlink:href="#ArialMT-33"/>
       <use x="366.882812" xlink:href="#ArialMT-2d"/>
       <use x="400.183594" xlink:href="#ArialMT-31"/>
       <use x="455.798828" xlink:href="#ArialMT-35"/>
      </g>
     </g>
    </g>
    <g id="xtick_14">
     <g id="line2d_27">
      <path clip-path="url(#pc792500c06)" d="M 379.620557 480.148273 
L 379.620557 16.2 
" style="fill:none;stroke:#ffffff;stroke-linecap:round;"/>
     </g>
     <g id="line2d_28"/>
     <g id="text_14">
      <!-- 2011-03-16 -->
      <g style="fill:#262626;" transform="translate(359.306429 538.673155)rotate(-45)scale(0.125 -0.125)">
       <use xlink:href="#ArialMT-32"/>
       <use x="55.615234" xlink:href="#ArialMT-30"/>
       <use x="111.230469" xlink:href="#ArialMT-31"/>
       <use x="166.736328" xlink:href="#ArialMT-31"/>
       <use x="222.351562" xlink:href="#ArialMT-2d"/>
       <use x="255.652344" xlink:href="#ArialMT-30"/>
       <use x="311.267578" xlink:href="#ArialMT-33"/>
       <use x="366.882812" xlink:href="#ArialMT-2d"/>
       <use x="400.183594" xlink:href="#ArialMT-31"/>
       <use x="455.798828" xlink:href="#ArialMT-36"/>
      </g>
     </g>
    </g>
    <g id="xtick_15">
     <g id="line2d_29">
      <path clip-path="url(#pc792500c06)" d="M 400.901411 480.148273 
L 400.901411 16.2 
" style="fill:none;stroke:#ffffff;stroke-linecap:round;"/>
     </g>
     <g id="line2d_30"/>
     <g id="text_15">
      <!-- 2011-03-17 -->
      <g style="fill:#262626;" transform="translate(380.587282 538.673155)rotate(-45)scale(0.125 -0.125)">
       <use xlink:href="#ArialMT-32"/>
       <use x="55.615234" xlink:href="#ArialMT-30"/>
       <use x="111.230469" xlink:href="#ArialMT-31"/>
       <use x="166.736328" xlink:href="#ArialMT-31"/>
       <use x="222.351562" xlink:href="#ArialMT-2d"/>
       <use x="255.652344" xlink:href="#ArialMT-30"/>
       <use x="311.267578" xlink:href="#ArialMT-33"/>
       <use x="366.882812" xlink:href="#ArialMT-2d"/>
       <use x="400.183594" xlink:href="#ArialMT-31"/>
       <use x="455.798828" xlink:href="#ArialMT-37"/>
      </g>
     </g>
    </g>
    <g id="xtick_16">
     <g id="line2d_31">
      <path clip-path="url(#pc792500c06)" d="M 422.182264 480.148273 
L 422.182264 16.2 
" style="fill:none;stroke:#ffffff;stroke-linecap:round;"/>
     </g>
     <g id="line2d_32"/>
     <g id="text_16">
      <!-- 2011-03-18 -->
      <g style="fill:#262626;" transform="translate(401.868136 538.673155)rotate(-45)scale(0.125 -0.125)">
       <use xlink:href="#ArialMT-32"/>
       <use x="55.615234" xlink:href="#ArialMT-30"/>
       <use x="111.230469" xlink:href="#ArialMT-31"/>
       <use x="166.736328" xlink:href="#ArialMT-31"/>
       <use x="222.351562" xlink:href="#ArialMT-2d"/>
       <use x="255.652344" xlink:href="#ArialMT-30"/>
       <use x="311.267578" xlink:href="#ArialMT-33"/>
       <use x="366.882812" xlink:href="#ArialMT-2d"/>
       <use x="400.183594" xlink:href="#ArialMT-31"/>
       <use x="455.798828" xlink:href="#ArialMT-38"/>
      </g>
     </g>
    </g>
    <g id="xtick_17">
     <g id="line2d_33">
      <path clip-path="url(#pc792500c06)" d="M 443.463118 480.148273 
L 443.463118 16.2 
" style="fill:none;stroke:#ffffff;stroke-linecap:round;"/>
     </g>
     <g id="line2d_34"/>
     <g id="text_17">
      <!-- 2011-03-19 -->
      <g style="fill:#262626;" transform="translate(423.14899 538.673155)rotate(-45)scale(0.125 -0.125)">
       <use xlink:href="#ArialMT-32"/>
       <use x="55.615234" xlink:href="#ArialMT-30"/>
       <use x="111.230469" xlink:href="#ArialMT-31"/>
       <use x="166.736328" xlink:href="#ArialMT-31"/>
       <use x="222.351562" xlink:href="#ArialMT-2d"/>
       <use x="255.652344" xlink:href="#ArialMT-30"/>
       <use x="311.267578" xlink:href="#ArialMT-33"/>
       <use x="366.882812" xlink:href="#ArialMT-2d"/>
       <use x="400.183594" xlink:href="#ArialMT-31"/>
       <use x="455.798828" xlink:href="#ArialMT-39"/>
      </g>
     </g>
    </g>
    <g id="xtick_18">
     <g id="line2d_35">
      <path clip-path="url(#pc792500c06)" d="M 464.743971 480.148273 
L 464.743971 16.2 
" style="fill:none;stroke:#ffffff;stroke-linecap:round;"/>
     </g>
     <g id="line2d_36"/>
     <g id="text_18">
      <!-- 2011-03-20 -->
      <g style="fill:#262626;" transform="translate(444.429843 538.673155)rotate(-45)scale(0.125 -0.125)">
       <use xlink:href="#ArialMT-32"/>
       <use x="55.615234" xlink:href="#ArialMT-30"/>
       <use x="111.230469" xlink:href="#ArialMT-31"/>
       <use x="166.736328" xlink:href="#ArialMT-31"/>
       <use x="222.351562" xlink:href="#ArialMT-2d"/>
       <use x="255.652344" xlink:href="#ArialMT-30"/>
       <use x="311.267578" xlink:href="#ArialMT-33"/>
       <use x="366.882812" xlink:href="#ArialMT-2d"/>
       <use x="400.183594" xlink:href="#ArialMT-32"/>
       <use x="455.798828" xlink:href="#ArialMT-30"/>
      </g>
     </g>
    </g>
    <g id="xtick_19">
     <g id="line2d_37">
      <path clip-path="url(#pc792500c06)" d="M 486.024825 480.148273 
L 486.024825 16.2 
" style="fill:none;stroke:#ffffff;stroke-linecap:round;"/>
     </g>
     <g id="line2d_38"/>
     <g id="text_19">
      <!-- 2011-03-21 -->
      <g style="fill:#262626;" transform="translate(465.710697 538.673155)rotate(-45)scale(0.125 -0.125)">
       <use xlink:href="#ArialMT-32"/>
       <use x="55.615234" xlink:href="#ArialMT-30"/>
       <use x="111.230469" xlink:href="#ArialMT-31"/>
       <use x="166.736328" xlink:href="#ArialMT-31"/>
       <use x="222.351562" xlink:href="#ArialMT-2d"/>
       <use x="255.652344" xlink:href="#ArialMT-30"/>
       <use x="311.267578" xlink:href="#ArialMT-33"/>
       <use x="366.882812" xlink:href="#ArialMT-2d"/>
       <use x="400.183594" xlink:href="#ArialMT-32"/>
       <use x="455.798828" xlink:href="#ArialMT-31"/>
      </g>
     </g>
    </g>
    <g id="xtick_20">
     <g id="line2d_39">
      <path clip-path="url(#pc792500c06)" d="M 507.305679 480.148273 
L 507.305679 16.2 
" style="fill:none;stroke:#ffffff;stroke-linecap:round;"/>
     </g>
     <g id="line2d_40"/>
     <g id="text_20">
      <!-- 2011-03-22 -->
      <g style="fill:#262626;" transform="translate(486.99155 538.673155)rotate(-45)scale(0.125 -0.125)">
       <use xlink:href="#ArialMT-32"/>
       <use x="55.615234" xlink:href="#ArialMT-30"/>
       <use x="111.230469" xlink:href="#ArialMT-31"/>
       <use x="166.736328" xlink:href="#ArialMT-31"/>
       <use x="222.351562" xlink:href="#ArialMT-2d"/>
       <use x="255.652344" xlink:href="#ArialMT-30"/>
       <use x="311.267578" xlink:href="#ArialMT-33"/>
       <use x="366.882812" xlink:href="#ArialMT-2d"/>
       <use x="400.183594" xlink:href="#ArialMT-32"/>
       <use x="455.798828" xlink:href="#ArialMT-32"/>
      </g>
     </g>
    </g>
    <g id="xtick_21">
     <g id="line2d_41">
      <path clip-path="url(#pc792500c06)" d="M 528.586532 480.148273 
L 528.586532 16.2 
" style="fill:none;stroke:#ffffff;stroke-linecap:round;"/>
     </g>
     <g id="line2d_42"/>
     <g id="text_21">
      <!-- 2011-03-23 -->
      <g style="fill:#262626;" transform="translate(508.272404 538.673155)rotate(-45)scale(0.125 -0.125)">
       <use xlink:href="#ArialMT-32"/>
       <use x="55.615234" xlink:href="#ArialMT-30"/>
       <use x="111.230469" xlink:href="#ArialMT-31"/>
       <use x="166.736328" xlink:href="#ArialMT-31"/>
       <use x="222.351562" xlink:href="#ArialMT-2d"/>
       <use x="255.652344" xlink:href="#ArialMT-30"/>
       <use x="311.267578" xlink:href="#ArialMT-33"/>
       <use x="366.882812" xlink:href="#ArialMT-2d"/>
       <use x="400.183594" xlink:href="#ArialMT-32"/>
       <use x="455.798828" xlink:href="#ArialMT-33"/>
      </g>
     </g>
    </g>
    <g id="xtick_22">
     <g id="line2d_43">
      <path clip-path="url(#pc792500c06)" d="M 549.867386 480.148273 
L 549.867386 16.2 
" style="fill:none;stroke:#ffffff;stroke-linecap:round;"/>
     </g>
     <g id="line2d_44"/>
     <g id="text_22">
      <!-- 2011-03-24 -->
      <g style="fill:#262626;" transform="translate(529.553257 538.673155)rotate(-45)scale(0.125 -0.125)">
       <use xlink:href="#ArialMT-32"/>
       <use x="55.615234" xlink:href="#ArialMT-30"/>
       <use x="111.230469" xlink:href="#ArialMT-31"/>
       <use x="166.736328" xlink:href="#ArialMT-31"/>
       <use x="222.351562" xlink:href="#ArialMT-2d"/>
       <use x="255.652344" xlink:href="#ArialMT-30"/>
       <use x="311.267578" xlink:href="#ArialMT-33"/>
       <use x="366.882812" xlink:href="#ArialMT-2d"/>
       <use x="400.183594" xlink:href="#ArialMT-32"/>
       <use x="455.798828" xlink:href="#ArialMT-34"/>
      </g>
     </g>
    </g>
    <g id="xtick_23">
     <g id="line2d_45">
      <path clip-path="url(#pc792500c06)" d="M 571.148239 480.148273 
L 571.148239 16.2 
" style="fill:none;stroke:#ffffff;stroke-linecap:round;"/>
     </g>
     <g id="line2d_46"/>
     <g id="text_23">
      <!-- 2011-03-25 -->
      <g style="fill:#262626;" transform="translate(550.834111 538.673155)rotate(-45)scale(0.125 -0.125)">
       <use xlink:href="#ArialMT-32"/>
       <use x="55.615234" xlink:href="#ArialMT-30"/>
       <use x="111.230469" xlink:href="#ArialMT-31"/>
       <use x="166.736328" xlink:href="#ArialMT-31"/>
       <use x="222.351562" xlink:href="#ArialMT-2d"/>
       <use x="255.652344" xlink:href="#ArialMT-30"/>
       <use x="311.267578" xlink:href="#ArialMT-33"/>
       <use x="366.882812" xlink:href="#ArialMT-2d"/>
       <use x="400.183594" xlink:href="#ArialMT-32"/>
       <use x="455.798828" xlink:href="#ArialMT-35"/>
      </g>
     </g>
    </g>
    <g id="xtick_24">
     <g id="line2d_47">
      <path clip-path="url(#pc792500c06)" d="M 592.429093 480.148273 
L 592.429093 16.2 
" style="fill:none;stroke:#ffffff;stroke-linecap:round;"/>
     </g>
     <g id="line2d_48"/>
     <g id="text_24">
      <!-- 2011-03-26 -->
      <g style="fill:#262626;" transform="translate(572.114965 538.673155)rotate(-45)scale(0.125 -0.125)">
       <use xlink:href="#ArialMT-32"/>
       <use x="55.615234" xlink:href="#ArialMT-30"/>
       <use x="111.230469" xlink:href="#ArialMT-31"/>
       <use x="166.736328" xlink:href="#ArialMT-31"/>
       <use x="222.351562" xlink:href="#ArialMT-2d"/>
       <use x="255.652344" xlink:href="#ArialMT-30"/>
       <use x="311.267578" xlink:href="#ArialMT-33"/>
       <use x="366.882812" xlink:href="#ArialMT-2d"/>
       <use x="400.183594" xlink:href="#ArialMT-32"/>
       <use x="455.798828" xlink:href="#ArialMT-36"/>
      </g>
     </g>
    </g>
    <g id="xtick_25">
     <g id="line2d_49">
      <path clip-path="url(#pc792500c06)" d="M 613.709946 480.148273 
L 613.709946 16.2 
" style="fill:none;stroke:#ffffff;stroke-linecap:round;"/>
     </g>
     <g id="line2d_50"/>
     <g id="text_25">
      <!-- 2011-03-27 -->
      <g style="fill:#262626;" transform="translate(593.395818 538.673155)rotate(-45)scale(0.125 -0.125)">
       <use xlink:href="#ArialMT-32"/>
       <use x="55.615234" xlink:href="#ArialMT-30"/>
       <use x="111.230469" xlink:href="#ArialMT-31"/>
       <use x="166.736328" xlink:href="#ArialMT-31"/>
       <use x="222.351562" xlink:href="#ArialMT-2d"/>
       <use x="255.652344" xlink:href="#ArialMT-30"/>
       <use x="311.267578" xlink:href="#ArialMT-33"/>
       <use x="366.882812" xlink:href="#ArialMT-2d"/>
       <use x="400.183594" xlink:href="#ArialMT-32"/>
       <use x="455.798828" xlink:href="#ArialMT-37"/>
      </g>
     </g>
    </g>
    <g id="xtick_26">
     <g id="line2d_51">
      <path clip-path="url(#pc792500c06)" d="M 634.9908 480.148273 
L 634.9908 16.2 
" style="fill:none;stroke:#ffffff;stroke-linecap:round;"/>
     </g>
     <g id="line2d_52"/>
     <g id="text_26">
      <!-- 2011-03-28 -->
      <g style="fill:#262626;" transform="translate(614.676672 538.673155)rotate(-45)scale(0.125 -0.125)">
       <use xlink:href="#ArialMT-32"/>
       <use x="55.615234" xlink:href="#ArialMT-30"/>
       <use x="111.230469" xlink:href="#ArialMT-31"/>
       <use x="166.736328" xlink:href="#ArialMT-31"/>
       <use x="222.351562" xlink:href="#ArialMT-2d"/>
       <use x="255.652344" xlink:href="#ArialMT-30"/>
       <use x="311.267578" xlink:href="#ArialMT-33"/>
       <use x="366.882812" xlink:href="#ArialMT-2d"/>
       <use x="400.183594" xlink:href="#ArialMT-32"/>
       <use x="455.798828" xlink:href="#ArialMT-38"/>
      </g>
     </g>
    </g>
    <g id="xtick_27">
     <g id="line2d_53">
      <path clip-path="url(#pc792500c06)" d="M 656.271654 480.148273 
L 656.271654 16.2 
" style="fill:none;stroke:#ffffff;stroke-linecap:round;"/>
     </g>
     <g id="line2d_54"/>
     <g id="text_27">
      <!-- 2011-03-29 -->
      <g style="fill:#262626;" transform="translate(635.957525 538.673155)rotate(-45)scale(0.125 -0.125)">
       <use xlink:href="#ArialMT-32"/>
       <use x="55.615234" xlink:href="#ArialMT-30"/>
       <use x="111.230469" xlink:href="#ArialMT-31"/>
       <use x="166.736328" xlink:href="#ArialMT-31"/>
       <use x="222.351562" xlink:href="#ArialMT-2d"/>
       <use x="255.652344" xlink:href="#ArialMT-30"/>
       <use x="311.267578" xlink:href="#ArialMT-33"/>
       <use x="366.882812" xlink:href="#ArialMT-2d"/>
       <use x="400.183594" xlink:href="#ArialMT-32"/>
       <use x="455.798828" xlink:href="#ArialMT-39"/>
      </g>
     </g>
    </g>
    <g id="xtick_28">
     <g id="line2d_55">
      <path clip-path="url(#pc792500c06)" d="M 677.552507 480.148273 
L 677.552507 16.2 
" style="fill:none;stroke:#ffffff;stroke-linecap:round;"/>
     </g>
     <g id="line2d_56"/>
     <g id="text_28">
      <!-- 2011-03-30 -->
      <g style="fill:#262626;" transform="translate(657.238379 538.673155)rotate(-45)scale(0.125 -0.125)">
       <use xlink:href="#ArialMT-32"/>
       <use x="55.615234" xlink:href="#ArialMT-30"/>
       <use x="111.230469" xlink:href="#ArialMT-31"/>
       <use x="166.736328" xlink:href="#ArialMT-31"/>
       <use x="222.351562" xlink:href="#ArialMT-2d"/>
       <use x="255.652344" xlink:href="#ArialMT-30"/>
       <use x="311.267578" xlink:href="#ArialMT-33"/>
       <use x="366.882812" xlink:href="#ArialMT-2d"/>
       <use x="400.183594" xlink:href="#ArialMT-33"/>
       <use x="455.798828" xlink:href="#ArialMT-30"/>
      </g>
     </g>
    </g>
    <g id="xtick_29">
     <g id="line2d_57">
      <path clip-path="url(#pc792500c06)" d="M 698.833361 480.148273 
L 698.833361 16.2 
" style="fill:none;stroke:#ffffff;stroke-linecap:round;"/>
     </g>
     <g id="line2d_58"/>
     <g id="text_29">
      <!-- 2011-03-31 -->
      <g style="fill:#262626;" transform="translate(678.519233 538.673155)rotate(-45)scale(0.125 -0.125)">
       <use xlink:href="#ArialMT-32"/>
       <use x="55.615234" xlink:href="#ArialMT-30"/>
       <use x="111.230469" xlink:href="#ArialMT-31"/>
       <use x="166.736328" xlink:href="#ArialMT-31"/>
       <use x="222.351562" xlink:href="#ArialMT-2d"/>
       <use x="255.652344" xlink:href="#ArialMT-30"/>
       <use x="311.267578" xlink:href="#ArialMT-33"/>
       <use x="366.882812" xlink:href="#ArialMT-2d"/>
       <use x="400.183594" xlink:href="#ArialMT-33"/>
       <use x="455.798828" xlink:href="#ArialMT-31"/>
      </g>
     </g>
    </g>
    <g id="xtick_30">
     <g id="line2d_59">
      <path clip-path="url(#pc792500c06)" d="M 720.114214 480.148273 
L 720.114214 16.2 
" style="fill:none;stroke:#ffffff;stroke-linecap:round;"/>
     </g>
     <g id="line2d_60"/>
     <g id="text_30">
      <!-- 2011-04-01 -->
      <g style="fill:#262626;" transform="translate(699.800086 538.673155)rotate(-45)scale(0.125 -0.125)">
       <use xlink:href="#ArialMT-32"/>
       <use x="55.615234" xlink:href="#ArialMT-30"/>
       <use x="111.230469" xlink:href="#ArialMT-31"/>
       <use x="166.736328" xlink:href="#ArialMT-31"/>
       <use x="222.351562" xlink:href="#ArialMT-2d"/>
       <use x="255.652344" xlink:href="#ArialMT-30"/>
       <use x="311.267578" xlink:href="#ArialMT-34"/>
       <use x="366.882812" xlink:href="#ArialMT-2d"/>
       <use x="400.183594" xlink:href="#ArialMT-30"/>
       <use x="455.798828" xlink:href="#ArialMT-31"/>
      </g>
     </g>
    </g>
    <g id="xtick_31">
     <g id="line2d_61">
      <path clip-path="url(#pc792500c06)" d="M 741.395068 480.148273 
L 741.395068 16.2 
" style="fill:none;stroke:#ffffff;stroke-linecap:round;"/>
     </g>
     <g id="line2d_62"/>
     <g id="text_31">
      <!-- 2011-04-02 -->
      <g style="fill:#262626;" transform="translate(721.08094 538.673155)rotate(-45)scale(0.125 -0.125)">
       <use xlink:href="#ArialMT-32"/>
       <use x="55.615234" xlink:href="#ArialMT-30"/>
       <use x="111.230469" xlink:href="#ArialMT-31"/>
       <use x="166.736328" xlink:href="#ArialMT-31"/>
       <use x="222.351562" xlink:href="#ArialMT-2d"/>
       <use x="255.652344" xlink:href="#ArialMT-30"/>
       <use x="311.267578" xlink:href="#ArialMT-34"/>
       <use x="366.882812" xlink:href="#ArialMT-2d"/>
       <use x="400.183594" xlink:href="#ArialMT-30"/>
       <use x="455.798828" xlink:href="#ArialMT-32"/>
      </g>
     </g>
    </g>
    <g id="xtick_32">
     <g id="line2d_63">
      <path clip-path="url(#pc792500c06)" d="M 762.675922 480.148273 
L 762.675922 16.2 
" style="fill:none;stroke:#ffffff;stroke-linecap:round;"/>
     </g>
     <g id="line2d_64"/>
     <g id="text_32">
      <!-- 2011-04-03 -->
      <g style="fill:#262626;" transform="translate(742.361793 538.673155)rotate(-45)scale(0.125 -0.125)">
       <use xlink:href="#ArialMT-32"/>
       <use x="55.615234" xlink:href="#ArialMT-30"/>
       <use x="111.230469" xlink:href="#ArialMT-31"/>
       <use x="166.736328" xlink:href="#ArialMT-31"/>
       <use x="222.351562" xlink:href="#ArialMT-2d"/>
       <use x="255.652344" xlink:href="#ArialMT-30"/>
       <use x="311.267578" xlink:href="#ArialMT-34"/>
       <use x="366.882812" xlink:href="#ArialMT-2d"/>
       <use x="400.183594" xlink:href="#ArialMT-30"/>
       <use x="455.798828" xlink:href="#ArialMT-33"/>
      </g>
     </g>
    </g>
    <g id="xtick_33">
     <g id="line2d_65">
      <path clip-path="url(#pc792500c06)" d="M 783.956775 480.148273 
L 783.956775 16.2 
" style="fill:none;stroke:#ffffff;stroke-linecap:round;"/>
     </g>
     <g id="line2d_66"/>
     <g id="text_33">
      <!-- 2011-04-04 -->
      <g style="fill:#262626;" transform="translate(763.642647 538.673155)rotate(-45)scale(0.125 -0.125)">
       <use xlink:href="#ArialMT-32"/>
       <use x="55.615234" xlink:href="#ArialMT-30"/>
       <use x="111.230469" xlink:href="#ArialMT-31"/>
       <use x="166.736328" xlink:href="#ArialMT-31"/>
       <use x="222.351562" xlink:href="#ArialMT-2d"/>
       <use x="255.652344" xlink:href="#ArialMT-30"/>
       <use x="311.267578" xlink:href="#ArialMT-34"/>
       <use x="366.882812" xlink:href="#ArialMT-2d"/>
       <use x="400.183594" xlink:href="#ArialMT-30"/>
       <use x="455.798828" xlink:href="#ArialMT-34"/>
      </g>
     </g>
    </g>
    <g id="xtick_34">
     <g id="line2d_67">
      <path clip-path="url(#pc792500c06)" d="M 805.237629 480.148273 
L 805.237629 16.2 
" style="fill:none;stroke:#ffffff;stroke-linecap:round;"/>
     </g>
     <g id="line2d_68"/>
     <g id="text_34">
      <!-- 2011-04-05 -->
      <g style="fill:#262626;" transform="translate(784.923501 538.673155)rotate(-45)scale(0.125 -0.125)">
       <use xlink:href="#ArialMT-32"/>
       <use x="55.615234" xlink:href="#ArialMT-30"/>
       <use x="111.230469" xlink:href="#ArialMT-31"/>
       <use x="166.736328" xlink:href="#ArialMT-31"/>
       <use x="222.351562" xlink:href="#ArialMT-2d"/>
       <use x="255.652344" xlink:href="#ArialMT-30"/>
       <use x="311.267578" xlink:href="#ArialMT-34"/>
       <use x="366.882812" xlink:href="#ArialMT-2d"/>
       <use x="400.183594" xlink:href="#ArialMT-30"/>
       <use x="455.798828" xlink:href="#ArialMT-35"/>
      </g>
     </g>
    </g>
    <g id="xtick_35">
     <g id="line2d_69">
      <path clip-path="url(#pc792500c06)" d="M 826.518482 480.148273 
L 826.518482 16.2 
" style="fill:none;stroke:#ffffff;stroke-linecap:round;"/>
     </g>
     <g id="line2d_70"/>
     <g id="text_35">
      <!-- 2011-04-06 -->
      <g style="fill:#262626;" transform="translate(806.204354 538.673155)rotate(-45)scale(0.125 -0.125)">
       <use xlink:href="#ArialMT-32"/>
       <use x="55.615234" xlink:href="#ArialMT-30"/>
       <use x="111.230469" xlink:href="#ArialMT-31"/>
       <use x="166.736328" xlink:href="#ArialMT-31"/>
       <use x="222.351562" xlink:href="#ArialMT-2d"/>
       <use x="255.652344" xlink:href="#ArialMT-30"/>
       <use x="311.267578" xlink:href="#ArialMT-34"/>
       <use x="366.882812" xlink:href="#ArialMT-2d"/>
       <use x="400.183594" xlink:href="#ArialMT-30"/>
       <use x="455.798828" xlink:href="#ArialMT-36"/>
      </g>
     </g>
    </g>
    <g id="xtick_36">
     <g id="line2d_71">
      <path clip-path="url(#pc792500c06)" d="M 847.799336 480.148273 
L 847.799336 16.2 
" style="fill:none;stroke:#ffffff;stroke-linecap:round;"/>
     </g>
     <g id="line2d_72"/>
     <g id="text_36">
      <!-- 2011-04-07 -->
      <g style="fill:#262626;" transform="translate(827.485208 538.673155)rotate(-45)scale(0.125 -0.125)">
       <use xlink:href="#ArialMT-32"/>
       <use x="55.615234" xlink:href="#ArialMT-30"/>
       <use x="111.230469" xlink:href="#ArialMT-31"/>
       <use x="166.736328" xlink:href="#ArialMT-31"/>
       <use x="222.351562" xlink:href="#ArialMT-2d"/>
       <use x="255.652344" xlink:href="#ArialMT-30"/>
       <use x="311.267578" xlink:href="#ArialMT-34"/>
       <use x="366.882812" xlink:href="#ArialMT-2d"/>
       <use x="400.183594" xlink:href="#ArialMT-30"/>
       <use x="455.798828" xlink:href="#ArialMT-37"/>
      </g>
     </g>
    </g>
    <g id="xtick_37">
     <g id="line2d_73">
      <path clip-path="url(#pc792500c06)" d="M 869.08019 480.148273 
L 869.08019 16.2 
" style="fill:none;stroke:#ffffff;stroke-linecap:round;"/>
     </g>
     <g id="line2d_74"/>
     <g id="text_37">
      <!-- 2011-04-08 -->
      <g style="fill:#262626;" transform="translate(848.766061 538.673155)rotate(-45)scale(0.125 -0.125)">
       <use xlink:href="#ArialMT-32"/>
       <use x="55.615234" xlink:href="#ArialMT-30"/>
       <use x="111.230469" xlink:href="#ArialMT-31"/>
       <use x="166.736328" xlink:href="#ArialMT-31"/>
       <use x="222.351562" xlink:href="#ArialMT-2d"/>
       <use x="255.652344" xlink:href="#ArialMT-30"/>
       <use x="311.267578" xlink:href="#ArialMT-34"/>
       <use x="366.882812" xlink:href="#ArialMT-2d"/>
       <use x="400.183594" xlink:href="#ArialMT-30"/>
       <use x="455.798828" xlink:href="#ArialMT-38"/>
      </g>
     </g>
    </g>
    <g id="xtick_38">
     <g id="line2d_75">
      <path clip-path="url(#pc792500c06)" d="M 890.361043 480.148273 
L 890.361043 16.2 
" style="fill:none;stroke:#ffffff;stroke-linecap:round;"/>
     </g>
     <g id="line2d_76"/>
     <g id="text_38">
      <!-- 2011-04-09 -->
      <g style="fill:#262626;" transform="translate(870.046915 538.673155)rotate(-45)scale(0.125 -0.125)">
       <use xlink:href="#ArialMT-32"/>
       <use x="55.615234" xlink:href="#ArialMT-30"/>
       <use x="111.230469" xlink:href="#ArialMT-31"/>
       <use x="166.736328" xlink:href="#ArialMT-31"/>
       <use x="222.351562" xlink:href="#ArialMT-2d"/>
       <use x="255.652344" xlink:href="#ArialMT-30"/>
       <use x="311.267578" xlink:href="#ArialMT-34"/>
       <use x="366.882812" xlink:href="#ArialMT-2d"/>
       <use x="400.183594" xlink:href="#ArialMT-30"/>
       <use x="455.798828" xlink:href="#ArialMT-39"/>
      </g>
     </g>
    </g>
    <g id="xtick_39">
     <g id="line2d_77">
      <path clip-path="url(#pc792500c06)" d="M 911.641897 480.148273 
L 911.641897 16.2 
" style="fill:none;stroke:#ffffff;stroke-linecap:round;"/>
     </g>
     <g id="line2d_78"/>
     <g id="text_39">
      <!-- 2011-04-10 -->
      <g style="fill:#262626;" transform="translate(891.327769 538.673155)rotate(-45)scale(0.125 -0.125)">
       <use xlink:href="#ArialMT-32"/>
       <use x="55.615234" xlink:href="#ArialMT-30"/>
       <use x="111.230469" xlink:href="#ArialMT-31"/>
       <use x="166.736328" xlink:href="#ArialMT-31"/>
       <use x="222.351562" xlink:href="#ArialMT-2d"/>
       <use x="255.652344" xlink:href="#ArialMT-30"/>
       <use x="311.267578" xlink:href="#ArialMT-34"/>
       <use x="366.882812" xlink:href="#ArialMT-2d"/>
       <use x="400.183594" xlink:href="#ArialMT-31"/>
       <use x="455.798828" xlink:href="#ArialMT-30"/>
      </g>
     </g>
    </g>
    <g id="xtick_40">
     <g id="line2d_79">
      <path clip-path="url(#pc792500c06)" d="M 932.92275 480.148273 
L 932.92275 16.2 
" style="fill:none;stroke:#ffffff;stroke-linecap:round;"/>
     </g>
     <g id="line2d_80"/>
     <g id="text_40">
      <!-- 2011-04-11 -->
      <g style="fill:#262626;" transform="translate(912.613456 538.663488)rotate(-45)scale(0.125 -0.125)">
       <use xlink:href="#ArialMT-32"/>
       <use x="55.615234" xlink:href="#ArialMT-30"/>
       <use x="111.230469" xlink:href="#ArialMT-31"/>
       <use x="166.736328" xlink:href="#ArialMT-31"/>
       <use x="222.351562" xlink:href="#ArialMT-2d"/>
       <use x="255.652344" xlink:href="#ArialMT-30"/>
       <use x="311.267578" xlink:href="#ArialMT-34"/>
       <use x="366.882812" xlink:href="#ArialMT-2d"/>
       <use x="400.183594" xlink:href="#ArialMT-31"/>
       <use x="455.689453" xlink:href="#ArialMT-31"/>
      </g>
     </g>
    </g>
    <g id="xtick_41">
     <g id="line2d_81">
      <path clip-path="url(#pc792500c06)" d="M 954.203604 480.148273 
L 954.203604 16.2 
" style="fill:none;stroke:#ffffff;stroke-linecap:round;"/>
     </g>
     <g id="line2d_82"/>
     <g id="text_41">
      <!-- 2011-04-12 -->
      <g style="fill:#262626;" transform="translate(933.889476 538.673155)rotate(-45)scale(0.125 -0.125)">
       <use xlink:href="#ArialMT-32"/>
       <use x="55.615234" xlink:href="#ArialMT-30"/>
       <use x="111.230469" xlink:href="#ArialMT-31"/>
       <use x="166.736328" xlink:href="#ArialMT-31"/>
       <use x="222.351562" xlink:href="#ArialMT-2d"/>
       <use x="255.652344" xlink:href="#ArialMT-30"/>
       <use x="311.267578" xlink:href="#ArialMT-34"/>
       <use x="366.882812" xlink:href="#ArialMT-2d"/>
       <use x="400.183594" xlink:href="#ArialMT-31"/>
       <use x="455.798828" xlink:href="#ArialMT-32"/>
      </g>
     </g>
    </g>
    <g id="xtick_42">
     <g id="line2d_83">
      <path clip-path="url(#pc792500c06)" d="M 975.484458 480.148273 
L 975.484458 16.2 
" style="fill:none;stroke:#ffffff;stroke-linecap:round;"/>
     </g>
     <g id="line2d_84"/>
     <g id="text_42">
      <!-- 2011-04-13 -->
      <g style="fill:#262626;" transform="translate(955.170329 538.673155)rotate(-45)scale(0.125 -0.125)">
       <use xlink:href="#ArialMT-32"/>
       <use x="55.615234" xlink:href="#ArialMT-30"/>
       <use x="111.230469" xlink:href="#ArialMT-31"/>
       <use x="166.736328" xlink:href="#ArialMT-31"/>
       <use x="222.351562" xlink:href="#ArialMT-2d"/>
       <use x="255.652344" xlink:href="#ArialMT-30"/>
       <use x="311.267578" xlink:href="#ArialMT-34"/>
       <use x="366.882812" xlink:href="#ArialMT-2d"/>
       <use x="400.183594" xlink:href="#ArialMT-31"/>
       <use x="455.798828" xlink:href="#ArialMT-33"/>
      </g>
     </g>
    </g>
    <g id="xtick_43">
     <g id="line2d_85">
      <path clip-path="url(#pc792500c06)" d="M 996.765311 480.148273 
L 996.765311 16.2 
" style="fill:none;stroke:#ffffff;stroke-linecap:round;"/>
     </g>
     <g id="line2d_86"/>
     <g id="text_43">
      <!-- 2011-04-14 -->
      <g style="fill:#262626;" transform="translate(976.451183 538.673155)rotate(-45)scale(0.125 -0.125)">
       <use xlink:href="#ArialMT-32"/>
       <use x="55.615234" xlink:href="#ArialMT-30"/>
       <use x="111.230469" xlink:href="#ArialMT-31"/>
       <use x="166.736328" xlink:href="#ArialMT-31"/>
       <use x="222.351562" xlink:href="#ArialMT-2d"/>
       <use x="255.652344" xlink:href="#ArialMT-30"/>
       <use x="311.267578" xlink:href="#ArialMT-34"/>
       <use x="366.882812" xlink:href="#ArialMT-2d"/>
       <use x="400.183594" xlink:href="#ArialMT-31"/>
       <use x="455.798828" xlink:href="#ArialMT-34"/>
      </g>
     </g>
    </g>
    <g id="xtick_44">
     <g id="line2d_87">
      <path clip-path="url(#pc792500c06)" d="M 1018.046165 480.148273 
L 1018.046165 16.2 
" style="fill:none;stroke:#ffffff;stroke-linecap:round;"/>
     </g>
     <g id="line2d_88"/>
     <g id="text_44">
      <!-- 2011-04-15 -->
      <g style="fill:#262626;" transform="translate(997.732037 538.673155)rotate(-45)scale(0.125 -0.125)">
       <use xlink:href="#ArialMT-32"/>
       <use x="55.615234" xlink:href="#ArialMT-30"/>
       <use x="111.230469" xlink:href="#ArialMT-31"/>
       <use x="166.736328" xlink:href="#ArialMT-31"/>
       <use x="222.351562" xlink:href="#ArialMT-2d"/>
       <use x="255.652344" xlink:href="#ArialMT-30"/>
       <use x="311.267578" xlink:href="#ArialMT-34"/>
       <use x="366.882812" xlink:href="#ArialMT-2d"/>
       <use x="400.183594" xlink:href="#ArialMT-31"/>
       <use x="455.798828" xlink:href="#ArialMT-35"/>
      </g>
     </g>
    </g>
    <g id="text_45">
     <!-- Date -->
     <defs>
      <path d="M 7.71875 0 
L 7.71875 71.578125 
L 32.375 71.578125 
Q 40.71875 71.578125 45.125 70.5625 
Q 51.265625 69.140625 55.609375 65.4375 
Q 61.28125 60.640625 64.078125 53.1875 
Q 66.890625 45.75 66.890625 36.1875 
Q 66.890625 28.03125 64.984375 21.734375 
Q 63.09375 15.4375 60.109375 11.296875 
Q 57.125 7.171875 53.578125 4.796875 
Q 50.046875 2.4375 45.046875 1.21875 
Q 40.046875 0 33.546875 0 
z
M 17.1875 8.453125 
L 32.46875 8.453125 
Q 39.546875 8.453125 43.578125 9.765625 
Q 47.609375 11.078125 50 13.484375 
Q 53.375 16.84375 55.25 22.53125 
Q 57.125 28.21875 57.125 36.328125 
Q 57.125 47.5625 53.4375 53.59375 
Q 49.75 59.625 44.484375 61.671875 
Q 40.671875 63.140625 32.234375 63.140625 
L 17.1875 63.140625 
z
" id="ArialMT-44"/>
      <path d="M 40.4375 6.390625 
Q 35.546875 2.25 31.03125 0.53125 
Q 26.515625 -1.171875 21.34375 -1.171875 
Q 12.796875 -1.171875 8.203125 3 
Q 3.609375 7.171875 3.609375 13.671875 
Q 3.609375 17.484375 5.34375 20.625 
Q 7.078125 23.78125 9.890625 25.6875 
Q 12.703125 27.59375 16.21875 28.5625 
Q 18.796875 29.25 24.03125 29.890625 
Q 34.671875 31.15625 39.703125 32.90625 
Q 39.75 34.71875 39.75 35.203125 
Q 39.75 40.578125 37.25 42.78125 
Q 33.890625 45.75 27.25 45.75 
Q 21.046875 45.75 18.09375 43.578125 
Q 15.140625 41.40625 13.71875 35.890625 
L 5.125 37.0625 
Q 6.296875 42.578125 8.984375 45.96875 
Q 11.671875 49.359375 16.75 51.1875 
Q 21.828125 53.03125 28.515625 53.03125 
Q 35.15625 53.03125 39.296875 51.46875 
Q 43.453125 49.90625 45.40625 47.53125 
Q 47.359375 45.171875 48.140625 41.546875 
Q 48.578125 39.3125 48.578125 33.453125 
L 48.578125 21.734375 
Q 48.578125 9.46875 49.140625 6.21875 
Q 49.703125 2.984375 51.375 0 
L 42.1875 0 
Q 40.828125 2.734375 40.4375 6.390625 
z
M 39.703125 26.03125 
Q 34.90625 24.078125 25.34375 22.703125 
Q 19.921875 21.921875 17.671875 20.9375 
Q 15.4375 19.96875 14.203125 18.09375 
Q 12.984375 16.21875 12.984375 13.921875 
Q 12.984375 10.40625 15.640625 8.0625 
Q 18.3125 5.71875 23.4375 5.71875 
Q 28.515625 5.71875 32.46875 7.9375 
Q 36.421875 10.15625 38.28125 14.015625 
Q 39.703125 17 39.703125 22.796875 
z
" id="ArialMT-61"/>
      <path d="M 25.78125 7.859375 
L 27.046875 0.09375 
Q 23.34375 -0.6875 20.40625 -0.6875 
Q 15.625 -0.6875 12.984375 0.828125 
Q 10.359375 2.34375 9.28125 4.8125 
Q 8.203125 7.28125 8.203125 15.1875 
L 8.203125 45.015625 
L 1.765625 45.015625 
L 1.765625 51.859375 
L 8.203125 51.859375 
L 8.203125 64.703125 
L 16.9375 69.96875 
L 16.9375 51.859375 
L 25.78125 51.859375 
L 25.78125 45.015625 
L 16.9375 45.015625 
L 16.9375 14.703125 
Q 16.9375 10.9375 17.40625 9.859375 
Q 17.875 8.796875 18.921875 8.15625 
Q 19.96875 7.515625 21.921875 7.515625 
Q 23.390625 7.515625 25.78125 7.859375 
z
" id="ArialMT-74"/>
      <path d="M 42.09375 16.703125 
L 51.171875 15.578125 
Q 49.03125 7.625 43.21875 3.21875 
Q 37.40625 -1.171875 28.375 -1.171875 
Q 17 -1.171875 10.328125 5.828125 
Q 3.65625 12.84375 3.65625 25.484375 
Q 3.65625 38.578125 10.390625 45.796875 
Q 17.140625 53.03125 27.875 53.03125 
Q 38.28125 53.03125 44.875 45.953125 
Q 51.46875 38.875 51.46875 26.03125 
Q 51.46875 25.25 51.421875 23.6875 
L 12.75 23.6875 
Q 13.234375 15.140625 17.578125 10.59375 
Q 21.921875 6.0625 28.421875 6.0625 
Q 33.25 6.0625 36.671875 8.59375 
Q 40.09375 11.140625 42.09375 16.703125 
z
M 13.234375 30.90625 
L 42.1875 30.90625 
Q 41.609375 37.453125 38.875 40.71875 
Q 34.671875 45.796875 27.984375 45.796875 
Q 21.921875 45.796875 17.796875 41.75 
Q 13.671875 37.703125 13.234375 30.90625 
z
" id="ArialMT-65"/>
     </defs>
     <g style="fill:#262626;" transform="translate(543.610312 555.882374)scale(0.16 -0.16)">
      <use xlink:href="#ArialMT-44"/>
      <use x="72.216797" xlink:href="#ArialMT-61"/>
      <use x="127.832031" xlink:href="#ArialMT-74"/>
      <use x="155.615234" xlink:href="#ArialMT-65"/>
     </g>
    </g>
   </g>
   <g id="matplotlib.axis_2">
    <g id="ytick_1">
     <g id="line2d_89">
      <path clip-path="url(#pc792500c06)" d="M 57.215625 480.148273 
L 1063.8 480.148273 
" style="fill:none;stroke:#ffffff;stroke-linecap:round;"/>
     </g>
     <g id="line2d_90"/>
     <g id="text_46">
      <!-- 0 -->
      <g style="fill:#262626;" transform="translate(43.264453 484.621906)scale(0.125 -0.125)">
       <use xlink:href="#ArialMT-30"/>
      </g>
     </g>
    </g>
    <g id="ytick_2">
     <g id="line2d_91">
      <path clip-path="url(#pc792500c06)" d="M 57.215625 426.263456 
L 1063.8 426.263456 
" style="fill:none;stroke:#ffffff;stroke-linecap:round;"/>
     </g>
     <g id="line2d_92"/>
     <g id="text_47">
      <!-- 10 -->
      <g style="fill:#262626;" transform="translate(36.313281 430.737089)scale(0.125 -0.125)">
       <use xlink:href="#ArialMT-31"/>
       <use x="55.615234" xlink:href="#ArialMT-30"/>
      </g>
     </g>
    </g>
    <g id="ytick_3">
     <g id="line2d_93">
      <path clip-path="url(#pc792500c06)" d="M 57.215625 372.378639 
L 1063.8 372.378639 
" style="fill:none;stroke:#ffffff;stroke-linecap:round;"/>
     </g>
     <g id="line2d_94"/>
     <g id="text_48">
      <!-- 20 -->
      <g style="fill:#262626;" transform="translate(36.313281 376.852272)scale(0.125 -0.125)">
       <use xlink:href="#ArialMT-32"/>
       <use x="55.615234" xlink:href="#ArialMT-30"/>
      </g>
     </g>
    </g>
    <g id="ytick_4">
     <g id="line2d_95">
      <path clip-path="url(#pc792500c06)" d="M 57.215625 318.493822 
L 1063.8 318.493822 
" style="fill:none;stroke:#ffffff;stroke-linecap:round;"/>
     </g>
     <g id="line2d_96"/>
     <g id="text_49">
      <!-- 30 -->
      <g style="fill:#262626;" transform="translate(36.313281 322.967455)scale(0.125 -0.125)">
       <use xlink:href="#ArialMT-33"/>
       <use x="55.615234" xlink:href="#ArialMT-30"/>
      </g>
     </g>
    </g>
    <g id="ytick_5">
     <g id="line2d_97">
      <path clip-path="url(#pc792500c06)" d="M 57.215625 264.609006 
L 1063.8 264.609006 
" style="fill:none;stroke:#ffffff;stroke-linecap:round;"/>
     </g>
     <g id="line2d_98"/>
     <g id="text_50">
      <!-- 40 -->
      <g style="fill:#262626;" transform="translate(36.313281 269.082638)scale(0.125 -0.125)">
       <use xlink:href="#ArialMT-34"/>
       <use x="55.615234" xlink:href="#ArialMT-30"/>
      </g>
     </g>
    </g>
    <g id="ytick_6">
     <g id="line2d_99">
      <path clip-path="url(#pc792500c06)" d="M 57.215625 210.724189 
L 1063.8 210.724189 
" style="fill:none;stroke:#ffffff;stroke-linecap:round;"/>
     </g>
     <g id="line2d_100"/>
     <g id="text_51">
      <!-- 50 -->
      <g style="fill:#262626;" transform="translate(36.313281 215.197822)scale(0.125 -0.125)">
       <use xlink:href="#ArialMT-35"/>
       <use x="55.615234" xlink:href="#ArialMT-30"/>
      </g>
     </g>
    </g>
    <g id="ytick_7">
     <g id="line2d_101">
      <path clip-path="url(#pc792500c06)" d="M 57.215625 156.839372 
L 1063.8 156.839372 
" style="fill:none;stroke:#ffffff;stroke-linecap:round;"/>
     </g>
     <g id="line2d_102"/>
     <g id="text_52">
      <!-- 60 -->
      <g style="fill:#262626;" transform="translate(36.313281 161.313005)scale(0.125 -0.125)">
       <use xlink:href="#ArialMT-36"/>
       <use x="55.615234" xlink:href="#ArialMT-30"/>
      </g>
     </g>
    </g>
    <g id="ytick_8">
     <g id="line2d_103">
      <path clip-path="url(#pc792500c06)" d="M 57.215625 102.954555 
L 1063.8 102.954555 
" style="fill:none;stroke:#ffffff;stroke-linecap:round;"/>
     </g>
     <g id="line2d_104"/>
     <g id="text_53">
      <!-- 70 -->
      <g style="fill:#262626;" transform="translate(36.313281 107.428188)scale(0.125 -0.125)">
       <use xlink:href="#ArialMT-37"/>
       <use x="55.615234" xlink:href="#ArialMT-30"/>
      </g>
     </g>
    </g>
    <g id="ytick_9">
     <g id="line2d_105">
      <path clip-path="url(#pc792500c06)" d="M 57.215625 49.069738 
L 1063.8 49.069738 
" style="fill:none;stroke:#ffffff;stroke-linecap:round;"/>
     </g>
     <g id="line2d_106"/>
     <g id="text_54">
      <!-- 80 -->
      <g style="fill:#262626;" transform="translate(36.313281 53.543371)scale(0.125 -0.125)">
       <use xlink:href="#ArialMT-38"/>
       <use x="55.615234" xlink:href="#ArialMT-30"/>
      </g>
     </g>
    </g>
    <g id="text_55">
     <!-- Temperature (F) -->
     <defs>
      <path d="M 25.921875 0 
L 25.921875 63.140625 
L 2.34375 63.140625 
L 2.34375 71.578125 
L 59.078125 71.578125 
L 59.078125 63.140625 
L 35.40625 63.140625 
L 35.40625 0 
z
" id="ArialMT-54"/>
      <path d="M 6.59375 0 
L 6.59375 51.859375 
L 14.453125 51.859375 
L 14.453125 44.578125 
Q 16.890625 48.390625 20.9375 50.703125 
Q 25 53.03125 30.171875 53.03125 
Q 35.9375 53.03125 39.625 50.640625 
Q 43.3125 48.25 44.828125 43.953125 
Q 50.984375 53.03125 60.84375 53.03125 
Q 68.5625 53.03125 72.703125 48.75 
Q 76.859375 44.484375 76.859375 35.59375 
L 76.859375 0 
L 68.109375 0 
L 68.109375 32.671875 
Q 68.109375 37.9375 67.25 40.25 
Q 66.40625 42.578125 64.15625 43.984375 
Q 61.921875 45.40625 58.890625 45.40625 
Q 53.421875 45.40625 49.796875 41.765625 
Q 46.1875 38.140625 46.1875 30.125 
L 46.1875 0 
L 37.40625 0 
L 37.40625 33.6875 
Q 37.40625 39.546875 35.25 42.46875 
Q 33.109375 45.40625 28.21875 45.40625 
Q 24.515625 45.40625 21.359375 43.453125 
Q 18.21875 41.5 16.796875 37.734375 
Q 15.375 33.984375 15.375 26.90625 
L 15.375 0 
z
" id="ArialMT-6d"/>
      <path d="M 6.59375 -19.875 
L 6.59375 51.859375 
L 14.59375 51.859375 
L 14.59375 45.125 
Q 17.4375 49.078125 21 51.046875 
Q 24.5625 53.03125 29.640625 53.03125 
Q 36.28125 53.03125 41.359375 49.609375 
Q 46.4375 46.1875 49.015625 39.953125 
Q 51.609375 33.734375 51.609375 26.3125 
Q 51.609375 18.359375 48.75 11.984375 
Q 45.90625 5.609375 40.453125 2.21875 
Q 35.015625 -1.171875 29 -1.171875 
Q 24.609375 -1.171875 21.109375 0.6875 
Q 17.625 2.546875 15.375 5.375 
L 15.375 -19.875 
z
M 14.546875 25.640625 
Q 14.546875 15.625 18.59375 10.84375 
Q 22.65625 6.0625 28.421875 6.0625 
Q 34.28125 6.0625 38.453125 11.015625 
Q 42.625 15.96875 42.625 26.375 
Q 42.625 36.28125 38.546875 41.203125 
Q 34.46875 46.140625 28.8125 46.140625 
Q 23.1875 46.140625 18.859375 40.890625 
Q 14.546875 35.640625 14.546875 25.640625 
z
" id="ArialMT-70"/>
      <path d="M 6.5 0 
L 6.5 51.859375 
L 14.40625 51.859375 
L 14.40625 44 
Q 17.4375 49.515625 20 51.265625 
Q 22.5625 53.03125 25.640625 53.03125 
Q 30.078125 53.03125 34.671875 50.203125 
L 31.640625 42.046875 
Q 28.421875 43.953125 25.203125 43.953125 
Q 22.3125 43.953125 20.015625 42.21875 
Q 17.71875 40.484375 16.75 37.40625 
Q 15.28125 32.71875 15.28125 27.15625 
L 15.28125 0 
z
" id="ArialMT-72"/>
      <path d="M 40.578125 0 
L 40.578125 7.625 
Q 34.515625 -1.171875 24.125 -1.171875 
Q 19.53125 -1.171875 15.546875 0.578125 
Q 11.578125 2.34375 9.640625 5 
Q 7.71875 7.671875 6.9375 11.53125 
Q 6.390625 14.109375 6.390625 19.734375 
L 6.390625 51.859375 
L 15.1875 51.859375 
L 15.1875 23.09375 
Q 15.1875 16.21875 15.71875 13.8125 
Q 16.546875 10.359375 19.234375 8.375 
Q 21.921875 6.390625 25.875 6.390625 
Q 29.828125 6.390625 33.296875 8.421875 
Q 36.765625 10.453125 38.203125 13.9375 
Q 39.65625 17.4375 39.65625 24.078125 
L 39.65625 51.859375 
L 48.4375 51.859375 
L 48.4375 0 
z
" id="ArialMT-75"/>
      <path id="ArialMT-20"/>
      <path d="M 23.390625 -21.046875 
Q 16.109375 -11.859375 11.078125 0.4375 
Q 6.0625 12.75 6.0625 25.921875 
Q 6.0625 37.546875 9.8125 48.1875 
Q 14.203125 60.546875 23.390625 72.796875 
L 29.6875 72.796875 
Q 23.78125 62.640625 21.875 58.296875 
Q 18.890625 51.5625 17.1875 44.234375 
Q 15.09375 35.109375 15.09375 25.875 
Q 15.09375 2.390625 29.6875 -21.046875 
z
" id="ArialMT-28"/>
      <path d="M 6.25 59.28125 
Q 6.25 64.890625 10.21875 68.84375 
Q 14.203125 72.796875 19.78125 72.796875 
Q 25.4375 72.796875 29.390625 68.84375 
Q 33.34375 64.890625 33.34375 59.28125 
Q 33.34375 53.65625 29.359375 49.671875 
Q 25.390625 45.703125 19.78125 45.703125 
Q 14.203125 45.703125 10.21875 49.65625 
Q 6.25 53.609375 6.25 59.28125 
z
M 11.578125 59.28125 
Q 11.578125 55.859375 13.984375 53.4375 
Q 16.40625 51.03125 19.828125 51.03125 
Q 23.1875 51.03125 25.609375 53.4375 
Q 28.03125 55.859375 28.03125 59.28125 
Q 28.03125 62.703125 25.609375 65.109375 
Q 23.1875 67.53125 19.828125 67.53125 
Q 16.40625 67.53125 13.984375 65.109375 
Q 11.578125 62.703125 11.578125 59.28125 
z
" id="ArialMT-b0"/>
      <path d="M 8.203125 0 
L 8.203125 71.578125 
L 56.5 71.578125 
L 56.5 63.140625 
L 17.671875 63.140625 
L 17.671875 40.96875 
L 51.265625 40.96875 
L 51.265625 32.515625 
L 17.671875 32.515625 
L 17.671875 0 
z
" id="ArialMT-46"/>
      <path d="M 12.359375 -21.046875 
L 6.0625 -21.046875 
Q 20.65625 2.390625 20.65625 25.875 
Q 20.65625 35.0625 18.5625 44.09375 
Q 16.890625 51.421875 13.921875 58.15625 
Q 12.015625 62.546875 6.0625 72.796875 
L 12.359375 72.796875 
Q 21.53125 60.546875 25.921875 48.1875 
Q 29.6875 37.546875 29.6875 25.921875 
Q 29.6875 12.75 24.625 0.4375 
Q 19.578125 -11.859375 12.359375 -21.046875 
z
" id="ArialMT-29"/>
     </defs>
     <g style="fill:#262626;" transform="translate(28.945781 309.587886)rotate(-90)scale(0.16 -0.16)">
      <use xlink:href="#ArialMT-54"/>
      <use x="60.912109" xlink:href="#ArialMT-65"/>
      <use x="116.527344" xlink:href="#ArialMT-6d"/>
      <use x="199.828125" xlink:href="#ArialMT-70"/>
      <use x="255.443359" xlink:href="#ArialMT-65"/>
      <use x="311.058594" xlink:href="#ArialMT-72"/>
      <use x="344.359375" xlink:href="#ArialMT-61"/>
      <use x="399.974609" xlink:href="#ArialMT-74"/>
      <use x="427.757812" xlink:href="#ArialMT-75"/>
      <use x="483.373047" xlink:href="#ArialMT-72"/>
      <use x="516.673828" xlink:href="#ArialMT-65"/>
      <use x="572.289062" xlink:href="#ArialMT-20"/>
      <use x="600.072266" xlink:href="#ArialMT-28"/>
      <use x="633.373047" xlink:href="#ArialMT-b0"/>
      <use x="673.363281" xlink:href="#ArialMT-46"/>
      <use x="734.447266" xlink:href="#ArialMT-29"/>
     </g>
    </g>
   </g>
   <g id="PolyCollection_1">
    <defs>
     <path d="M 102.96946 -419.160628 
L 102.96946 -95.851727 
L 124.250314 -95.851727 
L 145.531167 -95.851727 
L 166.812021 -95.851727 
L 188.092875 -95.851727 
L 209.373728 -95.851727 
L 230.654582 -95.851727 
L 251.935435 -95.851727 
L 273.216289 -95.851727 
L 294.497143 -95.851727 
L 315.777996 -95.851727 
L 337.05885 -95.851727 
L 358.339703 -95.851727 
L 379.620557 -95.851727 
L 400.901411 -95.851727 
L 422.182264 -95.851727 
L 443.463118 -95.851727 
L 464.743971 -95.851727 
L 486.024825 -95.851727 
L 507.305679 -95.851727 
L 528.586532 -95.851727 
L 549.867386 -95.851727 
L 571.148239 -95.851727 
L 592.429093 -95.851727 
L 613.709946 -95.851727 
L 634.9908 -95.851727 
L 656.271654 -95.851727 
L 677.552507 -95.851727 
L 698.833361 -95.851727 
L 720.114214 -95.851727 
L 741.395068 -95.851727 
L 762.675922 -95.851727 
L 783.956775 -95.851727 
L 805.237629 -95.851727 
L 826.518482 -95.851727 
L 847.799336 -95.851727 
L 869.08019 -95.851727 
L 890.361043 -95.851727 
L 911.641897 -95.851727 
L 932.92275 -95.851727 
L 954.203604 -95.851727 
L 975.484458 -95.851727 
L 996.765311 -95.851727 
L 1018.046165 -95.851727 
L 1018.046165 -424.54911 
L 1018.046165 -424.54911 
L 996.765311 -446.103036 
L 975.484458 -440.714555 
L 954.203604 -446.103036 
L 932.92275 -446.103036 
L 911.641897 -440.714555 
L 890.361043 -429.937591 
L 869.08019 -451.491518 
L 847.799336 -435.326073 
L 826.518482 -456.88 
L 805.237629 -424.54911 
L 783.956775 -408.383665 
L 762.675922 -392.21822 
L 741.395068 -381.441256 
L 720.114214 -419.160628 
L 698.833361 -424.54911 
L 677.552507 -429.937591 
L 656.271654 -408.383665 
L 634.9908 -413.772146 
L 613.709946 -435.326073 
L 592.429093 -440.714555 
L 571.148239 -435.326073 
L 549.867386 -429.937591 
L 528.586532 -435.326073 
L 507.305679 -446.103036 
L 486.024825 -419.160628 
L 464.743971 -429.937591 
L 443.463118 -419.160628 
L 422.182264 -402.995183 
L 400.901411 -402.995183 
L 379.620557 -419.160628 
L 358.339703 -408.383665 
L 337.05885 -429.937591 
L 315.777996 -397.606701 
L 294.497143 -429.937591 
L 273.216289 -419.160628 
L 251.935435 -402.995183 
L 230.654582 -402.995183 
L 209.373728 -413.772146 
L 188.092875 -419.160628 
L 166.812021 -419.160628 
L 145.531167 -419.160628 
L 124.250314 -402.995183 
L 102.96946 -419.160628 
z
" id="m8a9c4a6ab6" style="stroke:#4c72b0;stroke-opacity:0.5;stroke-width:0.3;"/>
    </defs>
    <g clip-path="url(#pc792500c06)">
     <use style="fill:#4c72b0;fill-opacity:0.5;stroke:#4c72b0;stroke-opacity:0.5;stroke-width:0.3;" x="0" xlink:href="#m8a9c4a6ab6" y="576"/>
    </g>
   </g>
   <g id="PolyCollection_2">
    <defs>
     <path d="M 102.96946 -473.417064 
L 102.96946 -95.851727 
L 124.250314 -95.851727 
L 145.531167 -95.851727 
L 166.812021 -95.851727 
L 188.092875 -95.851727 
L 209.373728 -95.851727 
L 230.654582 -95.851727 
L 251.935435 -95.851727 
L 273.216289 -95.851727 
L 294.497143 -95.851727 
L 315.777996 -95.851727 
L 337.05885 -95.851727 
L 358.339703 -95.851727 
L 379.620557 -95.851727 
L 400.901411 -95.851727 
L 422.182264 -95.851727 
L 443.463118 -95.851727 
L 464.743971 -95.851727 
L 486.024825 -95.851727 
L 507.305679 -95.851727 
L 528.586532 -95.851727 
L 549.867386 -95.851727 
L 571.148239 -95.851727 
L 592.429093 -95.851727 
L 613.709946 -95.851727 
L 634.9908 -95.851727 
L 656.271654 -95.851727 
L 677.552507 -95.851727 
L 698.833361 -95.851727 
L 720.114214 -95.851727 
L 741.395068 -95.851727 
L 762.675922 -95.851727 
L 783.956775 -95.851727 
L 805.237629 -95.851727 
L 826.518482 -95.851727 
L 847.799336 -95.851727 
L 869.08019 -95.851727 
L 890.361043 -95.851727 
L 911.641897 -95.851727 
L 932.92275 -95.851727 
L 954.203604 -95.851727 
L 975.484458 -95.851727 
L 996.765311 -95.851727 
L 1018.046165 -95.851727 
L 1018.046165 -482.70755 
L 1018.046165 -482.70755 
L 996.765311 -487.86377 
L 975.484458 -481.265163 
L 954.203604 -485.030171 
L 932.92275 -486.472481 
L 911.641897 -480.608226 
L 890.361043 -481.742643 
L 869.08019 -484.389617 
L 847.799336 -479.001135 
L 826.518482 -481.513059 
L 805.237629 -485.375022 
L 783.956775 -483.910744 
L 762.675922 -485.05136 
L 741.395068 -482.860179 
L 720.114214 -483.172074 
L 698.833361 -483.148848 
L 677.552507 -484.767756 
L 656.271654 -480.358384 
L 634.9908 -481.22439 
L 613.709946 -481.335417 
L 592.429093 -480.48155 
L 571.148239 -481.128167 
L 549.867386 -481.128167 
L 528.586532 -477.336273 
L 507.305679 -482.500705 
L 486.024825 -478.848425 
L 464.743971 -473.679384 
L 443.463118 -468.195811 
L 422.182264 -461.10626 
L 400.901411 -465.178262 
L 379.620557 -471.448858 
L 358.339703 -465.216896 
L 337.05885 -474.810637 
L 315.777996 -469.25355 
L 294.497143 -472.446725 
L 273.216289 -472.468108 
L 251.935435 -468.318707 
L 230.654582 -465.293594 
L 209.373728 -466.170486 
L 188.092875 -468.586012 
L 166.812021 -468.752926 
L 145.531167 -461.680647 
L 124.250314 -469.126549 
L 102.96946 -473.417064 
z
" id="md91d83ee1d" style="stroke:#55a868;stroke-opacity:0.5;stroke-width:0.3;"/>
    </defs>
    <g clip-path="url(#pc792500c06)">
     <use style="fill:#55a868;fill-opacity:0.5;stroke:#55a868;stroke-opacity:0.5;stroke-width:0.3;" x="0" xlink:href="#md91d83ee1d" y="576"/>
    </g>
   </g>
   <g id="PolyCollection_3">
    <defs>
     <path d="M 102.96946 -516.153298 
L 102.96946 -95.851727 
L 124.250314 -95.851727 
L 145.531167 -95.851727 
L 166.812021 -95.851727 
L 188.092875 -95.851727 
L 209.373728 -95.851727 
L 230.654582 -95.851727 
L 251.935435 -95.851727 
L 273.216289 -95.851727 
L 294.497143 -95.851727 
L 315.777996 -95.851727 
L 337.05885 -95.851727 
L 358.339703 -95.851727 
L 379.620557 -95.851727 
L 400.901411 -95.851727 
L 422.182264 -95.851727 
L 443.463118 -95.851727 
L 464.743971 -95.851727 
L 486.024825 -95.851727 
L 507.305679 -95.851727 
L 528.586532 -95.851727 
L 549.867386 -95.851727 
L 571.148239 -95.851727 
L 592.429093 -95.851727 
L 613.709946 -95.851727 
L 634.9908 -95.851727 
L 656.271654 -95.851727 
L 677.552507 -95.851727 
L 698.833361 -95.851727 
L 720.114214 -95.851727 
L 741.395068 -95.851727 
L 762.675922 -95.851727 
L 783.956775 -95.851727 
L 805.237629 -95.851727 
L 826.518482 -95.851727 
L 847.799336 -95.851727 
L 869.08019 -95.851727 
L 890.361043 -95.851727 
L 911.641897 -95.851727 
L 932.92275 -95.851727 
L 954.203604 -95.851727 
L 975.484458 -95.851727 
L 996.765311 -95.851727 
L 1018.046165 -95.851727 
L 1018.046165 -521.54178 
L 1018.046165 -521.54178 
L 996.765311 -532.318743 
L 975.484458 -521.54178 
L 954.203604 -526.930262 
L 932.92275 -537.707225 
L 911.641897 -521.54178 
L 890.361043 -516.153298 
L 869.08019 -510.764817 
L 847.799336 -516.153298 
L 826.518482 -510.764817 
L 805.237629 -526.930262 
L 783.956775 -516.153298 
L 762.675922 -516.153298 
L 741.395068 -521.54178 
L 720.114214 -526.930262 
L 698.833361 -521.54178 
L 677.552507 -521.54178 
L 656.271654 -510.764817 
L 634.9908 -537.707225 
L 613.709946 -526.930262 
L 592.429093 -526.930262 
L 571.148239 -516.153298 
L 549.867386 -510.764817 
L 528.586532 -516.153298 
L 507.305679 -510.764817 
L 486.024825 -510.764817 
L 464.743971 -526.930262 
L 443.463118 -499.987853 
L 422.182264 -505.376335 
L 400.901411 -499.987853 
L 379.620557 -516.153298 
L 358.339703 -505.376335 
L 337.05885 -510.764817 
L 315.777996 -510.764817 
L 294.497143 -526.930262 
L 273.216289 -537.707225 
L 251.935435 -499.987853 
L 230.654582 -499.987853 
L 209.373728 -516.153298 
L 188.092875 -516.153298 
L 166.812021 -505.376335 
L 145.531167 -505.376335 
L 124.250314 -510.764817 
L 102.96946 -516.153298 
z
" id="m3e8302d9fe" style="stroke:#c44e52;stroke-opacity:0.5;stroke-width:0.3;"/>
    </defs>
    <g clip-path="url(#pc792500c06)">
     <use style="fill:#c44e52;fill-opacity:0.5;stroke:#c44e52;stroke-opacity:0.5;stroke-width:0.3;" x="0" xlink:href="#m3e8302d9fe" y="576"/>
    </g>
   </g>
   <g id="line2d_107">
    <path clip-path="url(#pc792500c06)" d="M 102.96946 156.839372 
L 124.250314 173.004817 
L 145.531167 156.839372 
L 166.812021 156.839372 
L 188.092875 156.839372 
L 209.373728 162.227854 
L 230.654582 173.004817 
L 251.935435 173.004817 
L 273.216289 156.839372 
L 294.497143 146.062409 
L 315.777996 178.393299 
L 337.05885 146.062409 
L 358.339703 167.616335 
L 379.620557 156.839372 
L 400.901411 173.004817 
L 422.182264 173.004817 
L 443.463118 156.839372 
L 464.743971 146.062409 
L 486.024825 156.839372 
L 507.305679 129.896964 
L 528.586532 140.673927 
L 549.867386 146.062409 
L 571.148239 140.673927 
L 592.429093 135.285445 
L 613.709946 140.673927 
L 634.9908 162.227854 
L 656.271654 167.616335 
L 677.552507 146.062409 
L 698.833361 151.45089 
L 720.114214 156.839372 
L 741.395068 194.558744 
L 762.675922 183.78178 
L 783.956775 167.616335 
L 805.237629 151.45089 
L 826.518482 119.12 
L 847.799336 140.673927 
L 869.08019 124.508482 
L 890.361043 146.062409 
L 911.641897 135.285445 
L 932.92275 129.896964 
L 954.203604 129.896964 
L 975.484458 135.285445 
L 996.765311 129.896964 
L 1018.046165 151.45089 
" style="fill:none;opacity:0.5;stroke:#4c72b0;stroke-linecap:round;stroke-width:1.75;"/>
   </g>
   <g id="line2d_108">
    <path clip-path="url(#pc792500c06)" d="M 102.96946 102.582936 
L 124.250314 106.873451 
L 145.531167 114.319353 
L 166.812021 107.247074 
L 188.092875 107.413988 
L 209.373728 109.829514 
L 230.654582 110.706406 
L 251.935435 107.681293 
L 273.216289 103.531892 
L 294.497143 103.553275 
L 315.777996 106.74645 
L 337.05885 101.189363 
L 358.339703 110.783104 
L 379.620557 104.551142 
L 400.901411 110.821738 
L 422.182264 114.89374 
L 443.463118 107.804189 
L 464.743971 102.320616 
L 486.024825 97.151575 
L 507.305679 93.499295 
L 528.586532 98.663727 
L 549.867386 94.871833 
L 571.148239 94.871833 
L 592.429093 95.51845 
L 613.709946 94.664583 
L 634.9908 94.77561 
L 656.271654 95.641616 
L 677.552507 91.232244 
L 698.833361 92.851152 
L 720.114214 92.827926 
L 741.395068 93.139821 
L 762.675922 90.94864 
L 783.956775 92.089256 
L 805.237629 90.624978 
L 826.518482 94.486941 
L 847.799336 96.998865 
L 869.08019 91.610383 
L 890.361043 94.257357 
L 911.641897 95.391774 
L 932.92275 89.527519 
L 954.203604 90.969829 
L 975.484458 94.734837 
L 996.765311 88.13623 
L 1018.046165 93.29245 
" style="fill:none;opacity:0.5;stroke:#55a868;stroke-linecap:round;stroke-width:1.75;"/>
   </g>
   <g id="line2d_109">
    <path clip-path="url(#pc792500c06)" d="M 102.96946 59.846702 
L 124.250314 65.235183 
L 145.531167 70.623665 
L 166.812021 70.623665 
L 188.092875 59.846702 
L 209.373728 59.846702 
L 230.654582 76.012147 
L 251.935435 76.012147 
L 273.216289 38.292775 
L 294.497143 49.069738 
L 315.777996 65.235183 
L 337.05885 65.235183 
L 358.339703 70.623665 
L 379.620557 59.846702 
L 400.901411 76.012147 
L 422.182264 70.623665 
L 443.463118 76.012147 
L 464.743971 49.069738 
L 486.024825 65.235183 
L 507.305679 65.235183 
L 528.586532 59.846702 
L 549.867386 65.235183 
L 571.148239 59.846702 
L 592.429093 49.069738 
L 613.709946 49.069738 
L 634.9908 38.292775 
L 656.271654 65.235183 
L 677.552507 54.45822 
L 698.833361 54.45822 
L 720.114214 49.069738 
L 741.395068 54.45822 
L 762.675922 59.846702 
L 783.956775 59.846702 
L 805.237629 49.069738 
L 826.518482 65.235183 
L 847.799336 59.846702 
L 869.08019 65.235183 
L 890.361043 59.846702 
L 911.641897 54.45822 
L 932.92275 38.292775 
L 954.203604 49.069738 
L 975.484458 54.45822 
L 996.765311 43.681257 
L 1018.046165 54.45822 
" style="fill:none;opacity:0.5;stroke:#c44e52;stroke-linecap:round;stroke-width:1.75;"/>
   </g>
   <g id="patch_3">
    <path d="M 57.215625 480.148273 
L 57.215625 16.2 
" style="fill:none;"/>
   </g>
   <g id="patch_4">
    <path d="M 1063.8 480.148273 
L 1063.8 16.2 
" style="fill:none;"/>
   </g>
   <g id="patch_5">
    <path d="M 57.215625 480.148273 
L 1063.8 480.148273 
" style="fill:none;"/>
   </g>
   <g id="patch_6">
    <path d="M 57.215625 16.2 
L 1063.8 16.2 
" style="fill:none;"/>
   </g>
   <g id="legend_1">
    <g id="patch_7">
     <path d="M 71.615625 417.115773 
L 103.615625 417.115773 
L 103.615625 405.915773 
L 71.615625 405.915773 
z
" style="fill:#4c72b0;opacity:0.5;stroke:#4c72b0;stroke-linejoin:miter;stroke-width:0.3;"/>
    </g>
    <g id="text_56">
     <!-- tmin -->
     <defs>
      <path d="M 6.640625 61.46875 
L 6.640625 71.578125 
L 15.4375 71.578125 
L 15.4375 61.46875 
z
M 6.640625 0 
L 6.640625 51.859375 
L 15.4375 51.859375 
L 15.4375 0 
z
" id="ArialMT-69"/>
      <path d="M 6.59375 0 
L 6.59375 51.859375 
L 14.5 51.859375 
L 14.5 44.484375 
Q 20.21875 53.03125 31 53.03125 
Q 35.6875 53.03125 39.625 51.34375 
Q 43.5625 49.65625 45.515625 46.921875 
Q 47.46875 44.1875 48.25 40.4375 
Q 48.734375 37.984375 48.734375 31.890625 
L 48.734375 0 
L 39.9375 0 
L 39.9375 31.546875 
Q 39.9375 36.921875 38.90625 39.578125 
Q 37.890625 42.234375 35.28125 43.8125 
Q 32.671875 45.40625 29.15625 45.40625 
Q 23.53125 45.40625 19.453125 41.84375 
Q 15.375 38.28125 15.375 28.328125 
L 15.375 0 
z
" id="ArialMT-6e"/>
     </defs>
     <g style="fill:#262626;" transform="translate(116.415625 417.115773)scale(0.16 -0.16)">
      <use xlink:href="#ArialMT-74"/>
      <use x="27.783203" xlink:href="#ArialMT-6d"/>
      <use x="111.083984" xlink:href="#ArialMT-69"/>
      <use x="133.300781" xlink:href="#ArialMT-6e"/>
     </g>
    </g>
    <g id="patch_8">
     <path d="M 71.615625 439.748273 
L 103.615625 439.748273 
L 103.615625 428.548273 
L 71.615625 428.548273 
z
" style="fill:#55a868;opacity:0.5;stroke:#55a868;stroke-linejoin:miter;stroke-width:0.3;"/>
    </g>
    <g id="text_57">
     <!-- tavg -->
     <defs>
      <path d="M 21 0 
L 1.265625 51.859375 
L 10.546875 51.859375 
L 21.6875 20.796875 
Q 23.484375 15.765625 25 10.359375 
Q 26.171875 14.453125 28.265625 20.21875 
L 39.796875 51.859375 
L 48.828125 51.859375 
L 29.203125 0 
z
" id="ArialMT-76"/>
      <path d="M 4.984375 -4.296875 
L 13.53125 -5.5625 
Q 14.0625 -9.515625 16.5 -11.328125 
Q 19.78125 -13.765625 25.4375 -13.765625 
Q 31.546875 -13.765625 34.859375 -11.328125 
Q 38.1875 -8.890625 39.359375 -4.5 
Q 40.046875 -1.8125 39.984375 6.78125 
Q 34.234375 0 25.640625 0 
Q 14.9375 0 9.078125 7.71875 
Q 3.21875 15.4375 3.21875 26.21875 
Q 3.21875 33.640625 5.90625 39.90625 
Q 8.59375 46.1875 13.6875 49.609375 
Q 18.796875 53.03125 25.6875 53.03125 
Q 34.859375 53.03125 40.828125 45.609375 
L 40.828125 51.859375 
L 48.921875 51.859375 
L 48.921875 7.03125 
Q 48.921875 -5.078125 46.453125 -10.125 
Q 44 -15.1875 38.640625 -18.109375 
Q 33.296875 -21.046875 25.484375 -21.046875 
Q 16.21875 -21.046875 10.5 -16.875 
Q 4.78125 -12.703125 4.984375 -4.296875 
z
M 12.25 26.859375 
Q 12.25 16.65625 16.296875 11.96875 
Q 20.359375 7.28125 26.46875 7.28125 
Q 32.515625 7.28125 36.609375 11.9375 
Q 40.71875 16.609375 40.71875 26.5625 
Q 40.71875 36.078125 36.5 40.90625 
Q 32.28125 45.75 26.3125 45.75 
Q 20.453125 45.75 16.34375 40.984375 
Q 12.25 36.234375 12.25 26.859375 
z
" id="ArialMT-67"/>
     </defs>
     <g style="fill:#262626;" transform="translate(116.415625 439.748273)scale(0.16 -0.16)">
      <use xlink:href="#ArialMT-74"/>
      <use x="27.783203" xlink:href="#ArialMT-61"/>
      <use x="83.398438" xlink:href="#ArialMT-76"/>
      <use x="133.398438" xlink:href="#ArialMT-67"/>
     </g>
    </g>
    <g id="patch_9">
     <path d="M 71.615625 462.568273 
L 103.615625 462.568273 
L 103.615625 451.368273 
L 71.615625 451.368273 
z
" style="fill:#c44e52;opacity:0.5;stroke:#c44e52;stroke-linejoin:miter;stroke-width:0.3;"/>
    </g>
    <g id="text_58">
     <!-- tmax -->
     <defs>
      <path d="M 0.734375 0 
L 19.671875 26.953125 
L 2.15625 51.859375 
L 13.140625 51.859375 
L 21.09375 39.703125 
Q 23.34375 36.234375 24.703125 33.890625 
Q 26.859375 37.109375 28.65625 39.59375 
L 37.40625 51.859375 
L 47.90625 51.859375 
L 29.984375 27.4375 
L 49.265625 0 
L 38.484375 0 
L 27.828125 16.109375 
L 25 20.453125 
L 11.375 0 
z
" id="ArialMT-78"/>
     </defs>
     <g style="fill:#262626;" transform="translate(116.415625 462.568273)scale(0.16 -0.16)">
      <use xlink:href="#ArialMT-74"/>
      <use x="27.783203" xlink:href="#ArialMT-6d"/>
      <use x="111.083984" xlink:href="#ArialMT-61"/>
      <use x="166.699219" xlink:href="#ArialMT-78"/>
     </g>
    </g>
   </g>
  </g>
 </g>
 <defs>
  <clipPath id="pc792500c06">
   <rect height="463.948273" width="1006.584375" x="57.215625" y="16.2"/>
  </clipPath>
 </defs>
</svg>
