<?xml version="1.0" encoding="utf-8" standalone="no"?>
<!DOCTYPE svg PUBLIC "-//W3C//DTD SVG 1.1//EN"
  "http://www.w3.org/Graphics/SVG/1.1/DTD/svg11.dtd">
<!-- Created with matplotlib (http://matplotlib.org/) -->
<svg height="576pt" version="1.1" viewBox="0 0 1080 576" width="1080pt" xmlns="http://www.w3.org/2000/svg" xmlns:xlink="http://www.w3.org/1999/xlink">
 <defs>
  <style type="text/css">
*{stroke-linecap:butt;stroke-linejoin:round;}
  </style>
 </defs>
 <g id="figure_1">
  <g id="patch_1">
   <path d="M 0 576 
L 1080 576 
L 1080 0 
L 0 0 
z
" style="fill:#ffffff;"/>
  </g>
  <g id="axes_1">
   <g id="patch_2">
    <path d="M 45.753125 524.121875 
L 1069.2 524.121875 
L 1069.2 10.8 
L 45.753125 10.8 
z
" style="fill:#eaeaf2;"/>
   </g>
   <g id="matplotlib.axis_1">
    <g id="xtick_1">
     <g id="line2d_1">
      <path clip-path="url(#pa26cd755e7)" d="M 138.882449 524.121875 
L 138.882449 10.8 
" style="fill:none;stroke:#ffffff;stroke-linecap:round;"/>
     </g>
     <g id="line2d_2"/>
     <g id="text_1">
      <!-- 0.0 -->
      <defs>
       <path d="M 4.15625 35.296875 
Q 4.15625 48 6.765625 55.734375 
Q 9.375 63.484375 14.515625 67.671875 
Q 19.671875 71.875 27.484375 71.875 
Q 33.25 71.875 37.59375 69.546875 
Q 41.9375 67.234375 44.765625 62.859375 
Q 47.609375 58.5 49.21875 52.21875 
Q 50.828125 45.953125 50.828125 35.296875 
Q 50.828125 22.703125 48.234375 14.96875 
Q 45.65625 7.234375 40.5 3 
Q 35.359375 -1.21875 27.484375 -1.21875 
Q 17.140625 -1.21875 11.234375 6.203125 
Q 4.15625 15.140625 4.15625 35.296875 
z
M 13.1875 35.296875 
Q 13.1875 17.671875 17.3125 11.828125 
Q 21.4375 6 27.484375 6 
Q 33.546875 6 37.671875 11.859375 
Q 41.796875 17.71875 41.796875 35.296875 
Q 41.796875 52.984375 37.671875 58.78125 
Q 33.546875 64.59375 27.390625 64.59375 
Q 21.34375 64.59375 17.71875 59.46875 
Q 13.1875 52.9375 13.1875 35.296875 
z
" id="ArialMT-30"/>
       <path d="M 9.078125 0 
L 9.078125 10.015625 
L 19.09375 10.015625 
L 19.09375 0 
z
" id="ArialMT-2e"/>
      </defs>
      <g style="fill:#262626;" transform="translate(127.762449 542.574375)scale(0.16 -0.16)">
       <use xlink:href="#ArialMT-30"/>
       <use x="55.615234" xlink:href="#ArialMT-2e"/>
       <use x="83.398438" xlink:href="#ArialMT-30"/>
      </g>
     </g>
    </g>
    <g id="xtick_2">
     <g id="line2d_3">
      <path clip-path="url(#pa26cd755e7)" d="M 314.762329 524.121875 
L 314.762329 10.8 
" style="fill:none;stroke:#ffffff;stroke-linecap:round;"/>
     </g>
     <g id="line2d_4"/>
     <g id="text_2">
      <!-- 0.5 -->
      <defs>
       <path d="M 4.15625 18.75 
L 13.375 19.53125 
Q 14.40625 12.796875 18.140625 9.390625 
Q 21.875 6 27.15625 6 
Q 33.5 6 37.890625 10.78125 
Q 42.28125 15.578125 42.28125 23.484375 
Q 42.28125 31 38.0625 35.34375 
Q 33.84375 39.703125 27 39.703125 
Q 22.75 39.703125 19.328125 37.765625 
Q 15.921875 35.84375 13.96875 32.765625 
L 5.71875 33.84375 
L 12.640625 70.609375 
L 48.25 70.609375 
L 48.25 62.203125 
L 19.671875 62.203125 
L 15.828125 42.96875 
Q 22.265625 47.46875 29.34375 47.46875 
Q 38.71875 47.46875 45.15625 40.96875 
Q 51.609375 34.46875 51.609375 24.265625 
Q 51.609375 14.546875 45.953125 7.46875 
Q 39.0625 -1.21875 27.15625 -1.21875 
Q 17.390625 -1.21875 11.203125 4.25 
Q 5.03125 9.71875 4.15625 18.75 
z
" id="ArialMT-35"/>
      </defs>
      <g style="fill:#262626;" transform="translate(303.642329 542.574375)scale(0.16 -0.16)">
       <use xlink:href="#ArialMT-30"/>
       <use x="55.615234" xlink:href="#ArialMT-2e"/>
       <use x="83.398438" xlink:href="#ArialMT-35"/>
      </g>
     </g>
    </g>
    <g id="xtick_3">
     <g id="line2d_5">
      <path clip-path="url(#pa26cd755e7)" d="M 490.642208 524.121875 
L 490.642208 10.8 
" style="fill:none;stroke:#ffffff;stroke-linecap:round;"/>
     </g>
     <g id="line2d_6"/>
     <g id="text_3">
      <!-- 1.0 -->
      <defs>
       <path d="M 37.25 0 
L 28.46875 0 
L 28.46875 56 
Q 25.296875 52.984375 20.140625 49.953125 
Q 14.984375 46.921875 10.890625 45.40625 
L 10.890625 53.90625 
Q 18.265625 57.375 23.78125 62.296875 
Q 29.296875 67.234375 31.59375 71.875 
L 37.25 71.875 
z
" id="ArialMT-31"/>
      </defs>
      <g style="fill:#262626;" transform="translate(479.522208 542.574375)scale(0.16 -0.16)">
       <use xlink:href="#ArialMT-31"/>
       <use x="55.615234" xlink:href="#ArialMT-2e"/>
       <use x="83.398438" xlink:href="#ArialMT-30"/>
      </g>
     </g>
    </g>
    <g id="xtick_4">
     <g id="line2d_7">
      <path clip-path="url(#pa26cd755e7)" d="M 666.522088 524.121875 
L 666.522088 10.8 
" style="fill:none;stroke:#ffffff;stroke-linecap:round;"/>
     </g>
     <g id="line2d_8"/>
     <g id="text_4">
      <!-- 1.5 -->
      <g style="fill:#262626;" transform="translate(655.402088 542.574375)scale(0.16 -0.16)">
       <use xlink:href="#ArialMT-31"/>
       <use x="55.615234" xlink:href="#ArialMT-2e"/>
       <use x="83.398438" xlink:href="#ArialMT-35"/>
      </g>
     </g>
    </g>
    <g id="xtick_5">
     <g id="line2d_9">
      <path clip-path="url(#pa26cd755e7)" d="M 842.401967 524.121875 
L 842.401967 10.8 
" style="fill:none;stroke:#ffffff;stroke-linecap:round;"/>
     </g>
     <g id="line2d_10"/>
     <g id="text_5">
      <!-- 2.0 -->
      <defs>
       <path d="M 50.34375 8.453125 
L 50.34375 0 
L 3.03125 0 
Q 2.9375 3.171875 4.046875 6.109375 
Q 5.859375 10.9375 9.828125 15.625 
Q 13.8125 20.3125 21.34375 26.46875 
Q 33.015625 36.03125 37.109375 41.625 
Q 41.21875 47.21875 41.21875 52.203125 
Q 41.21875 57.421875 37.46875 61 
Q 33.734375 64.59375 27.734375 64.59375 
Q 21.390625 64.59375 17.578125 60.78125 
Q 13.765625 56.984375 13.71875 50.25 
L 4.6875 51.171875 
Q 5.609375 61.28125 11.65625 66.578125 
Q 17.71875 71.875 27.9375 71.875 
Q 38.234375 71.875 44.234375 66.15625 
Q 50.25 60.453125 50.25 52 
Q 50.25 47.703125 48.484375 43.546875 
Q 46.734375 39.40625 42.65625 34.8125 
Q 38.578125 30.21875 29.109375 22.21875 
Q 21.1875 15.578125 18.9375 13.203125 
Q 16.703125 10.84375 15.234375 8.453125 
z
" id="ArialMT-32"/>
      </defs>
      <g style="fill:#262626;" transform="translate(831.281967 542.574375)scale(0.16 -0.16)">
       <use xlink:href="#ArialMT-32"/>
       <use x="55.615234" xlink:href="#ArialMT-2e"/>
       <use x="83.398438" xlink:href="#ArialMT-30"/>
      </g>
     </g>
    </g>
    <g id="xtick_6">
     <g id="line2d_11">
      <path clip-path="url(#pa26cd755e7)" d="M 1018.281847 524.121875 
L 1018.281847 10.8 
" style="fill:none;stroke:#ffffff;stroke-linecap:round;"/>
     </g>
     <g id="line2d_12"/>
     <g id="text_6">
      <!-- 2.5 -->
      <g style="fill:#262626;" transform="translate(1007.161847 542.574375)scale(0.16 -0.16)">
       <use xlink:href="#ArialMT-32"/>
       <use x="55.615234" xlink:href="#ArialMT-2e"/>
       <use x="83.398438" xlink:href="#ArialMT-35"/>
      </g>
     </g>
    </g>
    <g id="text_7">
     <!-- Precipitation -->
     <defs>
      <path d="M 7.71875 0 
L 7.71875 71.578125 
L 34.71875 71.578125 
Q 41.84375 71.578125 45.609375 70.90625 
Q 50.875 70.015625 54.4375 67.546875 
Q 58.015625 65.09375 60.1875 60.640625 
Q 62.359375 56.203125 62.359375 50.875 
Q 62.359375 41.75 56.546875 35.421875 
Q 50.734375 29.109375 35.546875 29.109375 
L 17.1875 29.109375 
L 17.1875 0 
z
M 17.1875 37.546875 
L 35.6875 37.546875 
Q 44.875 37.546875 48.734375 40.96875 
Q 52.59375 44.390625 52.59375 50.59375 
Q 52.59375 55.078125 50.3125 58.265625 
Q 48.046875 61.46875 44.34375 62.5 
Q 41.9375 63.140625 35.5 63.140625 
L 17.1875 63.140625 
z
" id="ArialMT-50"/>
      <path d="M 6.5 0 
L 6.5 51.859375 
L 14.40625 51.859375 
L 14.40625 44 
Q 17.4375 49.515625 20 51.265625 
Q 22.5625 53.03125 25.640625 53.03125 
Q 30.078125 53.03125 34.671875 50.203125 
L 31.640625 42.046875 
Q 28.421875 43.953125 25.203125 43.953125 
Q 22.3125 43.953125 20.015625 42.21875 
Q 17.71875 40.484375 16.75 37.40625 
Q 15.28125 32.71875 15.28125 27.15625 
L 15.28125 0 
z
" id="ArialMT-72"/>
      <path d="M 42.09375 16.703125 
L 51.171875 15.578125 
Q 49.03125 7.625 43.21875 3.21875 
Q 37.40625 -1.171875 28.375 -1.171875 
Q 17 -1.171875 10.328125 5.828125 
Q 3.65625 12.84375 3.65625 25.484375 
Q 3.65625 38.578125 10.390625 45.796875 
Q 17.140625 53.03125 27.875 53.03125 
Q 38.28125 53.03125 44.875 45.953125 
Q 51.46875 38.875 51.46875 26.03125 
Q 51.46875 25.25 51.421875 23.6875 
L 12.75 23.6875 
Q 13.234375 15.140625 17.578125 10.59375 
Q 21.921875 6.0625 28.421875 6.0625 
Q 33.25 6.0625 36.671875 8.59375 
Q 40.09375 11.140625 42.09375 16.703125 
z
M 13.234375 30.90625 
L 42.1875 30.90625 
Q 41.609375 37.453125 38.875 40.71875 
Q 34.671875 45.796875 27.984375 45.796875 
Q 21.921875 45.796875 17.796875 41.75 
Q 13.671875 37.703125 13.234375 30.90625 
z
" id="ArialMT-65"/>
      <path d="M 40.4375 19 
L 49.078125 17.875 
Q 47.65625 8.9375 41.8125 3.875 
Q 35.984375 -1.171875 27.484375 -1.171875 
Q 16.84375 -1.171875 10.375 5.78125 
Q 3.90625 12.75 3.90625 25.734375 
Q 3.90625 34.125 6.6875 40.421875 
Q 9.46875 46.734375 15.15625 49.875 
Q 20.84375 53.03125 27.546875 53.03125 
Q 35.984375 53.03125 41.359375 48.75 
Q 46.734375 44.484375 48.25 36.625 
L 39.703125 35.296875 
Q 38.484375 40.53125 35.375 43.15625 
Q 32.28125 45.796875 27.875 45.796875 
Q 21.234375 45.796875 17.078125 41.03125 
Q 12.9375 36.28125 12.9375 25.984375 
Q 12.9375 15.53125 16.9375 10.796875 
Q 20.953125 6.0625 27.390625 6.0625 
Q 32.5625 6.0625 36.03125 9.234375 
Q 39.5 12.40625 40.4375 19 
z
" id="ArialMT-63"/>
      <path d="M 6.640625 61.46875 
L 6.640625 71.578125 
L 15.4375 71.578125 
L 15.4375 61.46875 
z
M 6.640625 0 
L 6.640625 51.859375 
L 15.4375 51.859375 
L 15.4375 0 
z
" id="ArialMT-69"/>
      <path d="M 6.59375 -19.875 
L 6.59375 51.859375 
L 14.59375 51.859375 
L 14.59375 45.125 
Q 17.4375 49.078125 21 51.046875 
Q 24.5625 53.03125 29.640625 53.03125 
Q 36.28125 53.03125 41.359375 49.609375 
Q 46.4375 46.1875 49.015625 39.953125 
Q 51.609375 33.734375 51.609375 26.3125 
Q 51.609375 18.359375 48.75 11.984375 
Q 45.90625 5.609375 40.453125 2.21875 
Q 35.015625 -1.171875 29 -1.171875 
Q 24.609375 -1.171875 21.109375 0.6875 
Q 17.625 2.546875 15.375 5.375 
L 15.375 -19.875 
z
M 14.546875 25.640625 
Q 14.546875 15.625 18.59375 10.84375 
Q 22.65625 6.0625 28.421875 6.0625 
Q 34.28125 6.0625 38.453125 11.015625 
Q 42.625 15.96875 42.625 26.375 
Q 42.625 36.28125 38.546875 41.203125 
Q 34.46875 46.140625 28.8125 46.140625 
Q 23.1875 46.140625 18.859375 40.890625 
Q 14.546875 35.640625 14.546875 25.640625 
z
" id="ArialMT-70"/>
      <path d="M 25.78125 7.859375 
L 27.046875 0.09375 
Q 23.34375 -0.6875 20.40625 -0.6875 
Q 15.625 -0.6875 12.984375 0.828125 
Q 10.359375 2.34375 9.28125 4.8125 
Q 8.203125 7.28125 8.203125 15.1875 
L 8.203125 45.015625 
L 1.765625 45.015625 
L 1.765625 51.859375 
L 8.203125 51.859375 
L 8.203125 64.703125 
L 16.9375 69.96875 
L 16.9375 51.859375 
L 25.78125 51.859375 
L 25.78125 45.015625 
L 16.9375 45.015625 
L 16.9375 14.703125 
Q 16.9375 10.9375 17.40625 9.859375 
Q 17.875 8.796875 18.921875 8.15625 
Q 19.96875 7.515625 21.921875 7.515625 
Q 23.390625 7.515625 25.78125 7.859375 
z
" id="ArialMT-74"/>
      <path d="M 40.4375 6.390625 
Q 35.546875 2.25 31.03125 0.53125 
Q 26.515625 -1.171875 21.34375 -1.171875 
Q 12.796875 -1.171875 8.203125 3 
Q 3.609375 7.171875 3.609375 13.671875 
Q 3.609375 17.484375 5.34375 20.625 
Q 7.078125 23.78125 9.890625 25.6875 
Q 12.703125 27.59375 16.21875 28.5625 
Q 18.796875 29.25 24.03125 29.890625 
Q 34.671875 31.15625 39.703125 32.90625 
Q 39.75 34.71875 39.75 35.203125 
Q 39.75 40.578125 37.25 42.78125 
Q 33.890625 45.75 27.25 45.75 
Q 21.046875 45.75 18.09375 43.578125 
Q 15.140625 41.40625 13.71875 35.890625 
L 5.125 37.0625 
Q 6.296875 42.578125 8.984375 45.96875 
Q 11.671875 49.359375 16.75 51.1875 
Q 21.828125 53.03125 28.515625 53.03125 
Q 35.15625 53.03125 39.296875 51.46875 
Q 43.453125 49.90625 45.40625 47.53125 
Q 47.359375 45.171875 48.140625 41.546875 
Q 48.578125 39.3125 48.578125 33.453125 
L 48.578125 21.734375 
Q 48.578125 9.46875 49.140625 6.21875 
Q 49.703125 2.984375 51.375 0 
L 42.1875 0 
Q 40.828125 2.734375 40.4375 6.390625 
z
M 39.703125 26.03125 
Q 34.90625 24.078125 25.34375 22.703125 
Q 19.921875 21.921875 17.671875 20.9375 
Q 15.4375 19.96875 14.203125 18.09375 
Q 12.984375 16.21875 12.984375 13.921875 
Q 12.984375 10.40625 15.640625 8.0625 
Q 18.3125 5.71875 23.4375 5.71875 
Q 28.515625 5.71875 32.46875 7.9375 
Q 36.421875 10.15625 38.28125 14.015625 
Q 39.703125 17 39.703125 22.796875 
z
" id="ArialMT-61"/>
      <path d="M 3.328125 25.921875 
Q 3.328125 40.328125 11.328125 47.265625 
Q 18.015625 53.03125 27.640625 53.03125 
Q 38.328125 53.03125 45.109375 46.015625 
Q 51.90625 39.015625 51.90625 26.65625 
Q 51.90625 16.65625 48.90625 10.90625 
Q 45.90625 5.171875 40.15625 2 
Q 34.421875 -1.171875 27.640625 -1.171875 
Q 16.75 -1.171875 10.03125 5.8125 
Q 3.328125 12.796875 3.328125 25.921875 
z
M 12.359375 25.921875 
Q 12.359375 15.96875 16.703125 11.015625 
Q 21.046875 6.0625 27.640625 6.0625 
Q 34.1875 6.0625 38.53125 11.03125 
Q 42.875 16.015625 42.875 26.21875 
Q 42.875 35.84375 38.5 40.796875 
Q 34.125 45.75 27.640625 45.75 
Q 21.046875 45.75 16.703125 40.8125 
Q 12.359375 35.890625 12.359375 25.921875 
z
" id="ArialMT-6f"/>
      <path d="M 6.59375 0 
L 6.59375 51.859375 
L 14.5 51.859375 
L 14.5 44.484375 
Q 20.21875 53.03125 31 53.03125 
Q 35.6875 53.03125 39.625 51.34375 
Q 43.5625 49.65625 45.515625 46.921875 
Q 47.46875 44.1875 48.25 40.4375 
Q 48.734375 37.984375 48.734375 31.890625 
L 48.734375 0 
L 39.9375 0 
L 39.9375 31.546875 
Q 39.9375 36.921875 38.90625 39.578125 
Q 37.890625 42.234375 35.28125 43.8125 
Q 32.671875 45.40625 29.15625 45.40625 
Q 23.53125 45.40625 19.453125 41.84375 
Q 15.375 38.28125 15.375 28.328125 
L 15.375 0 
z
" id="ArialMT-6e"/>
     </defs>
     <g style="fill:#262626;" transform="translate(513.455312 561.206875)scale(0.16 -0.16)">
      <use xlink:href="#ArialMT-50"/>
      <use x="66.699219" xlink:href="#ArialMT-72"/>
      <use x="100" xlink:href="#ArialMT-65"/>
      <use x="155.615234" xlink:href="#ArialMT-63"/>
      <use x="205.615234" xlink:href="#ArialMT-69"/>
      <use x="227.832031" xlink:href="#ArialMT-70"/>
      <use x="283.447266" xlink:href="#ArialMT-69"/>
      <use x="305.664062" xlink:href="#ArialMT-74"/>
      <use x="333.447266" xlink:href="#ArialMT-61"/>
      <use x="389.0625" xlink:href="#ArialMT-74"/>
      <use x="416.845703" xlink:href="#ArialMT-69"/>
      <use x="439.0625" xlink:href="#ArialMT-6f"/>
      <use x="494.677734" xlink:href="#ArialMT-6e"/>
     </g>
    </g>
   </g>
   <g id="matplotlib.axis_2">
    <g id="ytick_1">
     <g id="line2d_13">
      <path clip-path="url(#pa26cd755e7)" d="M 45.753125 524.121875 
L 1069.2 524.121875 
" style="fill:none;stroke:#ffffff;stroke-linecap:round;"/>
     </g>
     <g id="line2d_14"/>
     <g id="text_8">
      <!-- 0 -->
      <g style="fill:#262626;" transform="translate(29.855625 529.848125)scale(0.16 -0.16)">
       <use xlink:href="#ArialMT-30"/>
      </g>
     </g>
    </g>
    <g id="ytick_2">
     <g id="line2d_15">
      <path clip-path="url(#pa26cd755e7)" d="M 45.753125 410.153925 
L 1069.2 410.153925 
" style="fill:none;stroke:#ffffff;stroke-linecap:round;"/>
     </g>
     <g id="line2d_16"/>
     <g id="text_9">
      <!-- 1 -->
      <g style="fill:#262626;" transform="translate(29.855625 415.880175)scale(0.16 -0.16)">
       <use xlink:href="#ArialMT-31"/>
      </g>
     </g>
    </g>
    <g id="ytick_3">
     <g id="line2d_17">
      <path clip-path="url(#pa26cd755e7)" d="M 45.753125 296.185975 
L 1069.2 296.185975 
" style="fill:none;stroke:#ffffff;stroke-linecap:round;"/>
     </g>
     <g id="line2d_18"/>
     <g id="text_10">
      <!-- 2 -->
      <g style="fill:#262626;" transform="translate(29.855625 301.912225)scale(0.16 -0.16)">
       <use xlink:href="#ArialMT-32"/>
      </g>
     </g>
    </g>
    <g id="ytick_4">
     <g id="line2d_19">
      <path clip-path="url(#pa26cd755e7)" d="M 45.753125 182.218025 
L 1069.2 182.218025 
" style="fill:none;stroke:#ffffff;stroke-linecap:round;"/>
     </g>
     <g id="line2d_20"/>
     <g id="text_11">
      <!-- 3 -->
      <defs>
       <path d="M 4.203125 18.890625 
L 12.984375 20.0625 
Q 14.5 12.59375 18.140625 9.296875 
Q 21.78125 6 27 6 
Q 33.203125 6 37.46875 10.296875 
Q 41.75 14.59375 41.75 20.953125 
Q 41.75 27 37.796875 30.921875 
Q 33.84375 34.859375 27.734375 34.859375 
Q 25.25 34.859375 21.53125 33.890625 
L 22.515625 41.609375 
Q 23.390625 41.5 23.921875 41.5 
Q 29.546875 41.5 34.03125 44.421875 
Q 38.53125 47.359375 38.53125 53.46875 
Q 38.53125 58.296875 35.25 61.46875 
Q 31.984375 64.65625 26.8125 64.65625 
Q 21.6875 64.65625 18.265625 61.421875 
Q 14.84375 58.203125 13.875 51.765625 
L 5.078125 53.328125 
Q 6.6875 62.15625 12.390625 67.015625 
Q 18.109375 71.875 26.609375 71.875 
Q 32.46875 71.875 37.390625 69.359375 
Q 42.328125 66.84375 44.9375 62.5 
Q 47.5625 58.15625 47.5625 53.265625 
Q 47.5625 48.640625 45.0625 44.828125 
Q 42.578125 41.015625 37.703125 38.765625 
Q 44.046875 37.3125 47.5625 32.6875 
Q 51.078125 28.078125 51.078125 21.140625 
Q 51.078125 11.765625 44.234375 5.25 
Q 37.40625 -1.265625 26.953125 -1.265625 
Q 17.53125 -1.265625 11.296875 4.34375 
Q 5.078125 9.96875 4.203125 18.890625 
z
" id="ArialMT-33"/>
      </defs>
      <g style="fill:#262626;" transform="translate(29.855625 187.944275)scale(0.16 -0.16)">
       <use xlink:href="#ArialMT-33"/>
      </g>
     </g>
    </g>
    <g id="ytick_5">
     <g id="line2d_21">
      <path clip-path="url(#pa26cd755e7)" d="M 45.753125 68.250075 
L 1069.2 68.250075 
" style="fill:none;stroke:#ffffff;stroke-linecap:round;"/>
     </g>
     <g id="line2d_22"/>
     <g id="text_12">
      <!-- 4 -->
      <defs>
       <path d="M 32.328125 0 
L 32.328125 17.140625 
L 1.265625 17.140625 
L 1.265625 25.203125 
L 33.9375 71.578125 
L 41.109375 71.578125 
L 41.109375 25.203125 
L 50.78125 25.203125 
L 50.78125 17.140625 
L 41.109375 17.140625 
L 41.109375 0 
z
M 32.328125 25.203125 
L 32.328125 57.46875 
L 9.90625 25.203125 
z
" id="ArialMT-34"/>
      </defs>
      <g style="fill:#262626;" transform="translate(29.855625 73.976325)scale(0.16 -0.16)">
       <use xlink:href="#ArialMT-34"/>
      </g>
     </g>
    </g>
    <g id="text_13">
     <!-- Density -->
     <defs>
      <path d="M 7.71875 0 
L 7.71875 71.578125 
L 32.375 71.578125 
Q 40.71875 71.578125 45.125 70.5625 
Q 51.265625 69.140625 55.609375 65.4375 
Q 61.28125 60.640625 64.078125 53.1875 
Q 66.890625 45.75 66.890625 36.1875 
Q 66.890625 28.03125 64.984375 21.734375 
Q 63.09375 15.4375 60.109375 11.296875 
Q 57.125 7.171875 53.578125 4.796875 
Q 50.046875 2.4375 45.046875 1.21875 
Q 40.046875 0 33.546875 0 
z
M 17.1875 8.453125 
L 32.46875 8.453125 
Q 39.546875 8.453125 43.578125 9.765625 
Q 47.609375 11.078125 50 13.484375 
Q 53.375 16.84375 55.25 22.53125 
Q 57.125 28.21875 57.125 36.328125 
Q 57.125 47.5625 53.4375 53.59375 
Q 49.75 59.625 44.484375 61.671875 
Q 40.671875 63.140625 32.234375 63.140625 
L 17.1875 63.140625 
z
" id="ArialMT-44"/>
      <path d="M 3.078125 15.484375 
L 11.765625 16.84375 
Q 12.5 11.625 15.84375 8.84375 
Q 19.1875 6.0625 25.203125 6.0625 
Q 31.25 6.0625 34.171875 8.515625 
Q 37.109375 10.984375 37.109375 14.3125 
Q 37.109375 17.28125 34.515625 19 
Q 32.71875 20.171875 25.53125 21.96875 
Q 15.875 24.421875 12.140625 26.203125 
Q 8.40625 27.984375 6.46875 31.125 
Q 4.546875 34.28125 4.546875 38.09375 
Q 4.546875 41.546875 6.125 44.5 
Q 7.71875 47.46875 10.453125 49.421875 
Q 12.5 50.921875 16.03125 51.96875 
Q 19.578125 53.03125 23.640625 53.03125 
Q 29.734375 53.03125 34.34375 51.265625 
Q 38.96875 49.515625 41.15625 46.5 
Q 43.359375 43.5 44.1875 38.484375 
L 35.59375 37.3125 
Q 35.015625 41.3125 32.203125 43.546875 
Q 29.390625 45.796875 24.265625 45.796875 
Q 18.21875 45.796875 15.625 43.796875 
Q 13.03125 41.796875 13.03125 39.109375 
Q 13.03125 37.40625 14.109375 36.03125 
Q 15.1875 34.625 17.484375 33.6875 
Q 18.796875 33.203125 25.25 31.453125 
Q 34.578125 28.953125 38.25 27.359375 
Q 41.9375 25.78125 44.03125 22.75 
Q 46.140625 19.734375 46.140625 15.234375 
Q 46.140625 10.84375 43.578125 6.953125 
Q 41.015625 3.078125 36.171875 0.953125 
Q 31.34375 -1.171875 25.25 -1.171875 
Q 15.140625 -1.171875 9.84375 3.03125 
Q 4.546875 7.234375 3.078125 15.484375 
z
" id="ArialMT-73"/>
      <path d="M 6.203125 -19.96875 
L 5.21875 -11.71875 
Q 8.109375 -12.5 10.25 -12.5 
Q 13.1875 -12.5 14.9375 -11.515625 
Q 16.703125 -10.546875 17.828125 -8.796875 
Q 18.65625 -7.46875 20.515625 -2.25 
Q 20.75 -1.515625 21.296875 -0.09375 
L 1.609375 51.859375 
L 11.078125 51.859375 
L 21.875 21.828125 
Q 23.96875 16.109375 25.640625 9.8125 
Q 27.15625 15.875 29.25 21.625 
L 40.328125 51.859375 
L 49.125 51.859375 
L 29.390625 -0.875 
Q 26.21875 -9.421875 24.46875 -12.640625 
Q 22.125 -17 19.09375 -19.015625 
Q 16.0625 -21.046875 11.859375 -21.046875 
Q 9.328125 -21.046875 6.203125 -19.96875 
z
" id="ArialMT-79"/>
     </defs>
     <g style="fill:#262626;" transform="translate(22.488125 294.135938)rotate(-90)scale(0.16 -0.16)">
      <use xlink:href="#ArialMT-44"/>
      <use x="72.216797" xlink:href="#ArialMT-65"/>
      <use x="127.832031" xlink:href="#ArialMT-6e"/>
      <use x="183.447266" xlink:href="#ArialMT-73"/>
      <use x="233.447266" xlink:href="#ArialMT-69"/>
      <use x="255.664062" xlink:href="#ArialMT-74"/>
      <use x="283.447266" xlink:href="#ArialMT-79"/>
     </g>
    </g>
   </g>
   <g id="PolyCollection_1">
    <path clip-path="url(#pa26cd755e7)" d="M 92.273438 520.824308 
L 92.273438 524.121875 
L 99.599471 524.121875 
L 106.925504 524.121875 
L 114.251538 524.121875 
L 121.577571 524.121875 
L 128.903605 524.121875 
L 136.229638 524.121875 
L 143.555672 524.121875 
L 150.881705 524.121875 
L 158.207739 524.121875 
L 165.533772 524.121875 
L 172.859806 524.121875 
L 180.185839 524.121875 
L 187.511873 524.121875 
L 194.837906 524.121875 
L 202.163939 524.121875 
L 209.489973 524.121875 
L 216.816006 524.121875 
L 224.14204 524.121875 
L 231.468073 524.121875 
L 238.794107 524.121875 
L 246.12014 524.121875 
L 253.446174 524.121875 
L 260.772207 524.121875 
L 268.098241 524.121875 
L 275.424274 524.121875 
L 282.750308 524.121875 
L 290.076341 524.121875 
L 297.402375 524.121875 
L 304.728408 524.121875 
L 312.054441 524.121875 
L 319.380475 524.121875 
L 326.706508 524.121875 
L 334.032542 524.121875 
L 341.358575 524.121875 
L 348.684609 524.121875 
L 356.010642 524.121875 
L 363.336676 524.121875 
L 370.662709 524.121875 
L 377.988743 524.121875 
L 385.314776 524.121875 
L 392.64081 524.121875 
L 399.966843 524.121875 
L 407.292876 524.121875 
L 414.61891 524.121875 
L 421.944943 524.121875 
L 429.270977 524.121875 
L 436.59701 524.121875 
L 443.923044 524.121875 
L 451.249077 524.121875 
L 458.575111 524.121875 
L 465.901144 524.121875 
L 473.227178 524.121875 
L 480.553211 524.121875 
L 487.879245 524.121875 
L 495.205278 524.121875 
L 502.531312 524.121875 
L 509.857345 524.121875 
L 517.183378 524.121875 
L 524.509412 524.121875 
L 531.835445 524.121875 
L 539.161479 524.121875 
L 546.487512 524.121875 
L 553.813546 524.121875 
L 561.139579 524.121875 
L 568.465613 524.121875 
L 575.791646 524.121875 
L 583.11768 524.121875 
L 590.443713 524.121875 
L 597.769747 524.121875 
L 605.09578 524.121875 
L 612.421813 524.121875 
L 619.747847 524.121875 
L 627.07388 524.121875 
L 634.399914 524.121875 
L 641.725947 524.121875 
L 649.051981 524.121875 
L 656.378014 524.121875 
L 663.704048 524.121875 
L 671.030081 524.121875 
L 678.356115 524.121875 
L 685.682148 524.121875 
L 693.008182 524.121875 
L 700.334215 524.121875 
L 707.660249 524.121875 
L 714.986282 524.121875 
L 722.312315 524.121875 
L 729.638349 524.121875 
L 736.964382 524.121875 
L 744.290416 524.121875 
L 751.616449 524.121875 
L 758.942483 524.121875 
L 766.268516 524.121875 
L 773.59455 524.121875 
L 780.920583 524.121875 
L 788.246617 524.121875 
L 795.57265 524.121875 
L 802.898684 524.121875 
L 810.224717 524.121875 
L 817.55075 524.121875 
L 824.876784 524.121875 
L 832.202817 524.121875 
L 839.528851 524.121875 
L 846.854884 524.121875 
L 854.180918 524.121875 
L 861.506951 524.121875 
L 868.832985 524.121875 
L 876.159018 524.121875 
L 883.485052 524.121875 
L 890.811085 524.121875 
L 898.137119 524.121875 
L 905.463152 524.121875 
L 912.789186 524.121875 
L 920.115219 524.121875 
L 927.441252 524.121875 
L 934.767286 524.121875 
L 942.093319 524.121875 
L 949.419353 524.121875 
L 956.745386 524.121875 
L 964.07142 524.121875 
L 971.397453 524.121875 
L 978.723487 524.121875 
L 986.04952 524.121875 
L 993.375554 524.121875 
L 1000.701587 524.121875 
L 1008.027621 524.121875 
L 1015.353654 524.121875 
L 1022.679688 524.121875 
L 1022.679688 523.375054 
L 1022.679688 523.375054 
L 1015.353654 523.873506 
L 1008.027621 523.748784 
L 1000.701587 523.298749 
L 993.375554 522.59658 
L 986.04952 521.842994 
L 978.723487 521.380611 
L 971.397453 521.465262 
L 964.07142 522.046053 
L 956.745386 522.81315 
L 949.419353 523.455749 
L 942.093319 523.848041 
L 934.767286 524.030941 
L 927.441252 524.097482 
L 920.115219 524.11659 
L 912.789186 524.12095 
L 905.463152 524.121744 
L 898.137119 524.12186 
L 890.811085 524.121874 
L 883.485052 524.121875 
L 876.159018 524.121872 
L 868.832985 524.12184 
L 861.506951 524.121579 
L 854.180918 524.119864 
L 846.854884 524.110939 
L 839.528851 524.074291 
L 832.202817 523.956368 
L 824.876784 523.66206 
L 817.55075 523.102092 
L 810.224717 522.316278 
L 802.898684 521.564183 
L 795.57265 521.19737 
L 788.246617 521.338727 
L 780.920583 521.711818 
L 773.59455 521.872261 
L 766.268516 521.620455 
L 758.942483 521.150187 
L 751.616449 520.789789 
L 744.290416 520.653669 
L 736.964382 520.619151 
L 729.638349 520.608266 
L 722.312315 520.720768 
L 714.986282 521.009279 
L 707.660249 521.281132 
L 700.334215 521.297849 
L 693.008182 521.123143 
L 685.682148 521.112489 
L 678.356115 521.522812 
L 671.030081 522.222538 
L 663.704048 522.809443 
L 656.378014 522.929151 
L 649.051981 522.470303 
L 641.725947 521.579629 
L 634.399914 520.57846 
L 627.07388 519.821742 
L 619.747847 519.561373 
L 612.421813 519.883565 
L 605.09578 520.698108 
L 597.769747 521.755464 
L 590.443713 522.743644 
L 583.11768 523.441362 
L 575.791646 523.783596 
L 568.465613 523.774972 
L 561.139579 523.355127 
L 553.813546 522.363465 
L 546.487512 520.668542 
L 539.161479 518.387894 
L 531.835445 515.995472 
L 524.509412 514.144532 
L 517.183378 513.279626 
L 509.857345 513.362831 
L 502.531312 513.99915 
L 495.205278 514.843192 
L 487.879245 515.818405 
L 480.553211 516.947459 
L 473.227178 518.149814 
L 465.901144 519.283889 
L 458.575111 520.223184 
L 451.249077 520.822819 
L 443.923044 520.978694 
L 436.59701 520.784422 
L 429.270977 520.458795 
L 421.944943 520.01558 
L 414.61891 519.149526 
L 407.292876 517.604865 
L 399.966843 515.571864 
L 392.64081 513.528369 
L 385.314776 511.713777 
L 377.988743 509.999113 
L 370.662709 508.352223 
L 363.336676 507.160299 
L 356.010642 506.842226 
L 348.684609 507.251673 
L 341.358575 507.6709 
L 334.032542 507.335177 
L 326.706508 505.820177 
L 319.380475 503.03449 
L 312.054441 499.113323 
L 304.728408 494.40615 
L 297.402375 489.383606 
L 290.076341 484.387793 
L 282.750308 479.533912 
L 275.424274 474.870227 
L 268.098241 470.323321 
L 260.772207 465.284673 
L 253.446174 458.637733 
L 246.12014 449.697341 
L 238.794107 439.04675 
L 231.468073 427.952312 
L 224.14204 416.647553 
L 216.816006 403.328383 
L 209.489973 385.1582 
L 202.163939 360.410552 
L 194.837906 329.626506 
L 187.511873 294.488943 
L 180.185839 254.968224 
L 172.859806 207.519343 
L 165.533772 148.446711 
L 158.207739 83.426104 
L 150.881705 35.243899 
L 143.555672 35.9776 
L 136.229638 102.316919 
L 128.903605 216.867364 
L 121.577571 338.476704 
L 114.251538 431.987352 
L 106.925504 486.787659 
L 99.599471 511.816034 
L 92.273438 520.824308 
z
" style="fill:#4c72b0;fill-opacity:0.25;"/>
   </g>
   <g id="line2d_23">
    <path clip-path="url(#pa26cd755e7)" d="M 92.273438 520.824308 
L 99.599471 511.816034 
L 106.925504 486.787659 
L 114.251538 431.987352 
L 121.577571 338.476704 
L 128.903605 216.867364 
L 136.229638 102.316919 
L 143.555672 35.9776 
L 150.881705 35.243899 
L 158.207739 83.426104 
L 165.533772 148.446711 
L 172.859806 207.519343 
L 180.185839 254.968224 
L 187.511873 294.488943 
L 194.837906 329.626506 
L 202.163939 360.410552 
L 209.489973 385.1582 
L 216.816006 403.328383 
L 224.14204 416.647553 
L 231.468073 427.952312 
L 238.794107 439.04675 
L 246.12014 449.697341 
L 253.446174 458.637733 
L 260.772207 465.284673 
L 268.098241 470.323321 
L 282.750308 479.533912 
L 290.076341 484.387793 
L 304.728408 494.40615 
L 312.054441 499.113323 
L 319.380475 503.03449 
L 326.706508 505.820177 
L 334.032542 507.335177 
L 341.358575 507.6709 
L 356.010642 506.842226 
L 363.336676 507.160299 
L 370.662709 508.352223 
L 385.314776 511.713777 
L 392.64081 513.528369 
L 407.292876 517.604865 
L 414.61891 519.149526 
L 421.944943 520.01558 
L 429.270977 520.458795 
L 436.59701 520.784422 
L 443.923044 520.978694 
L 451.249077 520.822819 
L 458.575111 520.223184 
L 465.901144 519.283889 
L 495.205278 514.843192 
L 502.531312 513.99915 
L 509.857345 513.362831 
L 517.183378 513.279626 
L 524.509412 514.144532 
L 531.835445 515.995472 
L 546.487512 520.668542 
L 553.813546 522.363465 
L 561.139579 523.355127 
L 568.465613 523.774972 
L 575.791646 523.783596 
L 583.11768 523.441362 
L 590.443713 522.743644 
L 612.421813 519.883565 
L 619.747847 519.561373 
L 627.07388 519.821742 
L 634.399914 520.57846 
L 649.051981 522.470303 
L 656.378014 522.929151 
L 663.704048 522.809443 
L 671.030081 522.222538 
L 678.356115 521.522812 
L 685.682148 521.112489 
L 693.008182 521.123143 
L 700.334215 521.297849 
L 707.660249 521.281132 
L 722.312315 520.720768 
L 729.638349 520.608266 
L 744.290416 520.653669 
L 751.616449 520.789789 
L 773.59455 521.872261 
L 780.920583 521.711818 
L 788.246617 521.338727 
L 795.57265 521.19737 
L 802.898684 521.564183 
L 817.55075 523.102092 
L 824.876784 523.66206 
L 832.202817 523.956368 
L 846.854884 524.110939 
L 920.115219 524.11659 
L 934.767286 524.030941 
L 942.093319 523.848041 
L 949.419353 523.455749 
L 956.745386 522.81315 
L 964.07142 522.046053 
L 971.397453 521.465262 
L 978.723487 521.380611 
L 986.04952 521.842994 
L 1000.701587 523.298749 
L 1008.027621 523.748784 
L 1015.353654 523.873506 
L 1022.679688 523.375054 
L 1022.679688 523.375054 
" style="fill:none;stroke:#4c72b0;stroke-linecap:round;stroke-width:3;"/>
   </g>
   <g id="line2d_24">
    <path clip-path="url(#pa26cd755e7)" d="M 685.868874 524.121875 
L 685.868874 498.455781 
" style="fill:none;stroke:#000000;stroke-linecap:round;"/>
   </g>
   <g id="line2d_25">
    <path clip-path="url(#pa26cd755e7)" d="M 166.018202 524.121875 
L 166.018202 498.455781 
" style="fill:none;stroke:#000000;stroke-linecap:round;"/>
   </g>
   <g id="line2d_26">
    <path clip-path="url(#pa26cd755e7)" d="M 144.745112 524.121875 
L 144.745112 498.455781 
" style="fill:none;stroke:#000000;stroke-linecap:round;"/>
   </g>
   <g id="line2d_27">
    <path clip-path="url(#pa26cd755e7)" d="M 161.395074 524.121875 
L 161.395074 498.455781 
" style="fill:none;stroke:#000000;stroke-linecap:round;"/>
   </g>
   <g id="line2d_28">
    <path clip-path="url(#pa26cd755e7)" d="M 320.624992 524.121875 
L 320.624992 498.455781 
" style="fill:none;stroke:#000000;stroke-linecap:round;"/>
   </g>
   <g id="line2d_29">
    <path clip-path="url(#pa26cd755e7)" d="M 224.477324 524.121875 
L 224.477324 498.455781 
" style="fill:none;stroke:#000000;stroke-linecap:round;"/>
   </g>
   <g id="line2d_30">
    <path clip-path="url(#pa26cd755e7)" d="M 142.986313 524.121875 
L 142.986313 498.455781 
" style="fill:none;stroke:#000000;stroke-linecap:round;"/>
   </g>
   <g id="line2d_31">
    <path clip-path="url(#pa26cd755e7)" d="M 362.601656 524.121875 
L 362.601656 498.455781 
" style="fill:none;stroke:#000000;stroke-linecap:round;"/>
   </g>
   <g id="line2d_32">
    <path clip-path="url(#pa26cd755e7)" d="M 140.993008 524.121875 
L 140.993008 498.455781 
" style="fill:none;stroke:#000000;stroke-linecap:round;"/>
   </g>
   <g id="line2d_33">
    <path clip-path="url(#pa26cd755e7)" d="M 156.470437 524.121875 
L 156.470437 498.455781 
" style="fill:none;stroke:#000000;stroke-linecap:round;"/>
   </g>
   <g id="line2d_34">
    <path clip-path="url(#pa26cd755e7)" d="M 228.229428 524.121875 
L 228.229428 498.455781 
" style="fill:none;stroke:#000000;stroke-linecap:round;"/>
   </g>
   <g id="line2d_35">
    <path clip-path="url(#pa26cd755e7)" d="M 235.968143 524.121875 
L 235.968143 498.455781 
" style="fill:none;stroke:#000000;stroke-linecap:round;"/>
   </g>
   <g id="line2d_36">
    <path clip-path="url(#pa26cd755e7)" d="M 168.782029 524.121875 
L 168.782029 498.455781 
" style="fill:none;stroke:#000000;stroke-linecap:round;"/>
   </g>
   <g id="line2d_37">
    <path clip-path="url(#pa26cd755e7)" d="M 225.41535 524.121875 
L 225.41535 498.455781 
" style="fill:none;stroke:#000000;stroke-linecap:round;"/>
   </g>
   <g id="line2d_38">
    <path clip-path="url(#pa26cd755e7)" d="M 256.135702 524.121875 
L 256.135702 498.455781 
" style="fill:none;stroke:#000000;stroke-linecap:round;"/>
   </g>
   <g id="line2d_39">
    <path clip-path="url(#pa26cd755e7)" d="M 165.850698 524.121875 
L 165.850698 498.455781 
" style="fill:none;stroke:#000000;stroke-linecap:round;"/>
   </g>
   <g id="line2d_40">
    <path clip-path="url(#pa26cd755e7)" d="M 201.61294 524.121875 
L 201.61294 498.455781 
" style="fill:none;stroke:#000000;stroke-linecap:round;"/>
   </g>
   <g id="line2d_41">
    <path clip-path="url(#pa26cd755e7)" d="M 237.375182 524.121875 
L 237.375182 498.455781 
" style="fill:none;stroke:#000000;stroke-linecap:round;"/>
   </g>
   <g id="line2d_42">
    <path clip-path="url(#pa26cd755e7)" d="M 226.822389 524.121875 
L 226.822389 498.455781 
" style="fill:none;stroke:#000000;stroke-linecap:round;"/>
   </g>
   <g id="line2d_43">
    <path clip-path="url(#pa26cd755e7)" d="M 247.224455 524.121875 
L 247.224455 498.455781 
" style="fill:none;stroke:#000000;stroke-linecap:round;"/>
   </g>
   <g id="line2d_44">
    <path clip-path="url(#pa26cd755e7)" d="M 297.760607 524.121875 
L 297.760607 498.455781 
" style="fill:none;stroke:#000000;stroke-linecap:round;"/>
   </g>
   <g id="line2d_45">
    <path clip-path="url(#pa26cd755e7)" d="M 976.070676 524.121875 
L 976.070676 498.455781 
" style="fill:none;stroke:#000000;stroke-linecap:round;"/>
   </g>
   <g id="line2d_46">
    <path clip-path="url(#pa26cd755e7)" d="M 429.670517 524.121875 
L 429.670517 498.455781 
" style="fill:none;stroke:#000000;stroke-linecap:round;"/>
   </g>
   <g id="line2d_47">
    <path clip-path="url(#pa26cd755e7)" d="M 180.088593 524.121875 
L 180.088593 498.455781 
" style="fill:none;stroke:#000000;stroke-linecap:round;"/>
   </g>
   <g id="line2d_48">
    <path clip-path="url(#pa26cd755e7)" d="M 186.721777 524.121875 
L 186.721777 498.455781 
" style="fill:none;stroke:#000000;stroke-linecap:round;"/>
   </g>
   <g id="line2d_49">
    <path clip-path="url(#pa26cd755e7)" d="M 176.168984 524.121875 
L 176.168984 498.455781 
" style="fill:none;stroke:#000000;stroke-linecap:round;"/>
   </g>
   <g id="line2d_50">
    <path clip-path="url(#pa26cd755e7)" d="M 161.395074 524.121875 
L 161.395074 498.455781 
" style="fill:none;stroke:#000000;stroke-linecap:round;"/>
   </g>
   <g id="line2d_51">
    <path clip-path="url(#pa26cd755e7)" d="M 190.641385 524.121875 
L 190.641385 498.455781 
" style="fill:none;stroke:#000000;stroke-linecap:round;"/>
   </g>
   <g id="line2d_52">
    <path clip-path="url(#pa26cd755e7)" d="M 207.475602 524.121875 
L 207.475602 498.455781 
" style="fill:none;stroke:#000000;stroke-linecap:round;"/>
   </g>
   <g id="line2d_53">
    <path clip-path="url(#pa26cd755e7)" d="M 211.244457 524.121875 
L 211.244457 498.455781 
" style="fill:none;stroke:#000000;stroke-linecap:round;"/>
   </g>
   <g id="line2d_54">
    <path clip-path="url(#pa26cd755e7)" d="M 217.777138 524.121875 
L 217.777138 498.455781 
" style="fill:none;stroke:#000000;stroke-linecap:round;"/>
   </g>
   <g id="line2d_55">
    <path clip-path="url(#pa26cd755e7)" d="M 155.297905 524.121875 
L 155.297905 498.455781 
" style="fill:none;stroke:#000000;stroke-linecap:round;"/>
   </g>
   <g id="line2d_56">
    <path clip-path="url(#pa26cd755e7)" d="M 144.158846 524.121875 
L 144.158846 498.455781 
" style="fill:none;stroke:#000000;stroke-linecap:round;"/>
   </g>
   <g id="line2d_57">
    <path clip-path="url(#pa26cd755e7)" d="M 236.788916 524.121875 
L 236.788916 498.455781 
" style="fill:none;stroke:#000000;stroke-linecap:round;"/>
   </g>
   <g id="line2d_58">
    <path clip-path="url(#pa26cd755e7)" d="M 218.614661 524.121875 
L 218.614661 498.455781 
" style="fill:none;stroke:#000000;stroke-linecap:round;"/>
   </g>
   <g id="line2d_59">
    <path clip-path="url(#pa26cd755e7)" d="M 145.415131 524.121875 
L 145.415131 498.455781 
" style="fill:none;stroke:#000000;stroke-linecap:round;"/>
   </g>
   <g id="line2d_60">
    <path clip-path="url(#pa26cd755e7)" d="M 289.134118 524.121875 
L 289.134118 498.455781 
" style="fill:none;stroke:#000000;stroke-linecap:round;"/>
   </g>
   <g id="line2d_61">
    <path clip-path="url(#pa26cd755e7)" d="M 206.30307 524.121875 
L 206.30307 498.455781 
" style="fill:none;stroke:#000000;stroke-linecap:round;"/>
   </g>
   <g id="line2d_62">
    <path clip-path="url(#pa26cd755e7)" d="M 223.891058 524.121875 
L 223.891058 498.455781 
" style="fill:none;stroke:#000000;stroke-linecap:round;"/>
   </g>
   <g id="line2d_63">
    <path clip-path="url(#pa26cd755e7)" d="M 181.093621 524.121875 
L 181.093621 498.455781 
" style="fill:none;stroke:#000000;stroke-linecap:round;"/>
   </g>
   <g id="line2d_64">
    <path clip-path="url(#pa26cd755e7)" d="M 179.334822 524.121875 
L 179.334822 498.455781 
" style="fill:none;stroke:#000000;stroke-linecap:round;"/>
   </g>
   <g id="line2d_65">
    <path clip-path="url(#pa26cd755e7)" d="M 343.489376 524.121875 
L 343.489376 498.455781 
" style="fill:none;stroke:#000000;stroke-linecap:round;"/>
   </g>
   <g id="line2d_66">
    <path clip-path="url(#pa26cd755e7)" d="M 186.956283 524.121875 
L 186.956283 498.455781 
" style="fill:none;stroke:#000000;stroke-linecap:round;"/>
   </g>
   <g id="line2d_67">
    <path clip-path="url(#pa26cd755e7)" d="M 146.922673 524.121875 
L 146.922673 498.455781 
" style="fill:none;stroke:#000000;stroke-linecap:round;"/>
   </g>
   <g id="line2d_68">
    <path clip-path="url(#pa26cd755e7)" d="M 139.468716 524.121875 
L 139.468716 498.455781 
" style="fill:none;stroke:#000000;stroke-linecap:round;"/>
   </g>
   <g id="line2d_69">
    <path clip-path="url(#pa26cd755e7)" d="M 141.696528 524.121875 
L 141.696528 498.455781 
" style="fill:none;stroke:#000000;stroke-linecap:round;"/>
   </g>
   <g id="line2d_70">
    <path clip-path="url(#pa26cd755e7)" d="M 138.882449 524.121875 
L 138.882449 498.455781 
" style="fill:none;stroke:#000000;stroke-linecap:round;"/>
   </g>
   <g id="line2d_71">
    <path clip-path="url(#pa26cd755e7)" d="M 138.882449 524.121875 
L 138.882449 498.455781 
" style="fill:none;stroke:#000000;stroke-linecap:round;"/>
   </g>
   <g id="line2d_72">
    <path clip-path="url(#pa26cd755e7)" d="M 179.334822 524.121875 
L 179.334822 498.455781 
" style="fill:none;stroke:#000000;stroke-linecap:round;"/>
   </g>
   <g id="line2d_73">
    <path clip-path="url(#pa26cd755e7)" d="M 143.57258 524.121875 
L 143.57258 498.455781 
" style="fill:none;stroke:#000000;stroke-linecap:round;"/>
   </g>
   <g id="line2d_74">
    <path clip-path="url(#pa26cd755e7)" d="M 143.57258 524.121875 
L 143.57258 498.455781 
" style="fill:none;stroke:#000000;stroke-linecap:round;"/>
   </g>
   <g id="line2d_75">
    <path clip-path="url(#pa26cd755e7)" d="M 138.882449 524.121875 
L 138.882449 498.455781 
" style="fill:none;stroke:#000000;stroke-linecap:round;"/>
   </g>
   <g id="line2d_76">
    <path clip-path="url(#pa26cd755e7)" d="M 161.746834 524.121875 
L 161.746834 498.455781 
" style="fill:none;stroke:#000000;stroke-linecap:round;"/>
   </g>
   <g id="line2d_77">
    <path clip-path="url(#pa26cd755e7)" d="M 138.882449 524.121875 
L 138.882449 498.455781 
" style="fill:none;stroke:#000000;stroke-linecap:round;"/>
   </g>
   <g id="line2d_78">
    <path clip-path="url(#pa26cd755e7)" d="M 177.576023 524.121875 
L 177.576023 498.455781 
" style="fill:none;stroke:#000000;stroke-linecap:round;"/>
   </g>
   <g id="line2d_79">
    <path clip-path="url(#pa26cd755e7)" d="M 174.058425 524.121875 
L 174.058425 498.455781 
" style="fill:none;stroke:#000000;stroke-linecap:round;"/>
   </g>
   <g id="line2d_80">
    <path clip-path="url(#pa26cd755e7)" d="M 148.848976 524.121875 
L 148.848976 498.455781 
" style="fill:none;stroke:#000000;stroke-linecap:round;"/>
   </g>
   <g id="line2d_81">
    <path clip-path="url(#pa26cd755e7)" d="M 209.937921 524.121875 
L 209.937921 498.455781 
" style="fill:none;stroke:#000000;stroke-linecap:round;"/>
   </g>
   <g id="line2d_82">
    <path clip-path="url(#pa26cd755e7)" d="M 161.395074 524.121875 
L 161.395074 498.455781 
" style="fill:none;stroke:#000000;stroke-linecap:round;"/>
   </g>
   <g id="line2d_83">
    <path clip-path="url(#pa26cd755e7)" d="M 263.405404 524.121875 
L 263.405404 498.455781 
" style="fill:none;stroke:#000000;stroke-linecap:round;"/>
   </g>
   <g id="line2d_84">
    <path clip-path="url(#pa26cd755e7)" d="M 158.580996 524.121875 
L 158.580996 498.455781 
" style="fill:none;stroke:#000000;stroke-linecap:round;"/>
   </g>
   <g id="line2d_85">
    <path clip-path="url(#pa26cd755e7)" d="M 185.197484 524.121875 
L 185.197484 498.455781 
" style="fill:none;stroke:#000000;stroke-linecap:round;"/>
   </g>
   <g id="line2d_86">
    <path clip-path="url(#pa26cd755e7)" d="M 194.158983 524.121875 
L 194.158983 498.455781 
" style="fill:none;stroke:#000000;stroke-linecap:round;"/>
   </g>
   <g id="line2d_87">
    <path clip-path="url(#pa26cd755e7)" d="M 155.884171 524.121875 
L 155.884171 498.455781 
" style="fill:none;stroke:#000000;stroke-linecap:round;"/>
   </g>
   <g id="line2d_88">
    <path clip-path="url(#pa26cd755e7)" d="M 247.927975 524.121875 
L 247.927975 498.455781 
" style="fill:none;stroke:#000000;stroke-linecap:round;"/>
   </g>
   <g id="line2d_89">
    <path clip-path="url(#pa26cd755e7)" d="M 172.299627 524.121875 
L 172.299627 498.455781 
" style="fill:none;stroke:#000000;stroke-linecap:round;"/>
   </g>
   <g id="line2d_90">
    <path clip-path="url(#pa26cd755e7)" d="M 176.40349 524.121875 
L 176.40349 498.455781 
" style="fill:none;stroke:#000000;stroke-linecap:round;"/>
   </g>
   <g id="line2d_91">
    <path clip-path="url(#pa26cd755e7)" d="M 232.098786 524.121875 
L 232.098786 498.455781 
" style="fill:none;stroke:#000000;stroke-linecap:round;"/>
   </g>
   <g id="line2d_92">
    <path clip-path="url(#pa26cd755e7)" d="M 233.271318 524.121875 
L 233.271318 498.455781 
" style="fill:none;stroke:#000000;stroke-linecap:round;"/>
   </g>
   <g id="line2d_93">
    <path clip-path="url(#pa26cd755e7)" d="M 151.194041 524.121875 
L 151.194041 498.455781 
" style="fill:none;stroke:#000000;stroke-linecap:round;"/>
   </g>
   <g id="line2d_94">
    <path clip-path="url(#pa26cd755e7)" d="M 141.227515 524.121875 
L 141.227515 498.455781 
" style="fill:none;stroke:#000000;stroke-linecap:round;"/>
   </g>
   <g id="line2d_95">
    <path clip-path="url(#pa26cd755e7)" d="M 140.054982 524.121875 
L 140.054982 498.455781 
" style="fill:none;stroke:#000000;stroke-linecap:round;"/>
   </g>
   <g id="line2d_96">
    <path clip-path="url(#pa26cd755e7)" d="M 142.400047 524.121875 
L 142.400047 498.455781 
" style="fill:none;stroke:#000000;stroke-linecap:round;"/>
   </g>
   <g id="line2d_97">
    <path clip-path="url(#pa26cd755e7)" d="M 165.264431 524.121875 
L 165.264431 498.455781 
" style="fill:none;stroke:#000000;stroke-linecap:round;"/>
   </g>
   <g id="line2d_98">
    <path clip-path="url(#pa26cd755e7)" d="M 143.57258 524.121875 
L 143.57258 498.455781 
" style="fill:none;stroke:#000000;stroke-linecap:round;"/>
   </g>
   <g id="line2d_99">
    <path clip-path="url(#pa26cd755e7)" d="M 149.435242 524.121875 
L 149.435242 498.455781 
" style="fill:none;stroke:#000000;stroke-linecap:round;"/>
   </g>
   <g id="line2d_100">
    <path clip-path="url(#pa26cd755e7)" d="M 204.544271 524.121875 
L 204.544271 498.455781 
" style="fill:none;stroke:#000000;stroke-linecap:round;"/>
   </g>
   <g id="line2d_101">
    <path clip-path="url(#pa26cd755e7)" d="M 158.983007 524.121875 
L 158.983007 498.455781 
" style="fill:none;stroke:#000000;stroke-linecap:round;"/>
   </g>
   <g id="line2d_102">
    <path clip-path="url(#pa26cd755e7)" d="M 139.468716 524.121875 
L 139.468716 498.455781 
" style="fill:none;stroke:#000000;stroke-linecap:round;"/>
   </g>
   <g id="line2d_103">
    <path clip-path="url(#pa26cd755e7)" d="M 138.882449 524.121875 
L 138.882449 498.455781 
" style="fill:none;stroke:#000000;stroke-linecap:round;"/>
   </g>
   <g id="line2d_104">
    <path clip-path="url(#pa26cd755e7)" d="M 138.882449 524.121875 
L 138.882449 498.455781 
" style="fill:none;stroke:#000000;stroke-linecap:round;"/>
   </g>
   <g id="line2d_105">
    <path clip-path="url(#pa26cd755e7)" d="M 138.882449 524.121875 
L 138.882449 498.455781 
" style="fill:none;stroke:#000000;stroke-linecap:round;"/>
   </g>
   <g id="line2d_106">
    <path clip-path="url(#pa26cd755e7)" d="M 146.420159 524.121875 
L 146.420159 498.455781 
" style="fill:none;stroke:#000000;stroke-linecap:round;"/>
   </g>
   <g id="line2d_107">
    <path clip-path="url(#pa26cd755e7)" d="M 141.813781 524.121875 
L 141.813781 498.455781 
" style="fill:none;stroke:#000000;stroke-linecap:round;"/>
   </g>
   <g id="line2d_108">
    <path clip-path="url(#pa26cd755e7)" d="M 229.167454 524.121875 
L 229.167454 498.455781 
" style="fill:none;stroke:#000000;stroke-linecap:round;"/>
   </g>
   <g id="line2d_109">
    <path clip-path="url(#pa26cd755e7)" d="M 142.400047 524.121875 
L 142.400047 498.455781 
" style="fill:none;stroke:#000000;stroke-linecap:round;"/>
   </g>
   <g id="line2d_110">
    <path clip-path="url(#pa26cd755e7)" d="M 141.520648 524.121875 
L 141.520648 498.455781 
" style="fill:none;stroke:#000000;stroke-linecap:round;"/>
   </g>
   <g id="line2d_111">
    <path clip-path="url(#pa26cd755e7)" d="M 172.299627 524.121875 
L 172.299627 498.455781 
" style="fill:none;stroke:#000000;stroke-linecap:round;"/>
   </g>
   <g id="line2d_112">
    <path clip-path="url(#pa26cd755e7)" d="M 222.425392 524.121875 
L 222.425392 498.455781 
" style="fill:none;stroke:#000000;stroke-linecap:round;"/>
   </g>
   <g id="line2d_113">
    <path clip-path="url(#pa26cd755e7)" d="M 355.566461 524.121875 
L 355.566461 498.455781 
" style="fill:none;stroke:#000000;stroke-linecap:round;"/>
   </g>
   <g id="line2d_114">
    <path clip-path="url(#pa26cd755e7)" d="M 491.345728 524.121875 
L 491.345728 498.455781 
" style="fill:none;stroke:#000000;stroke-linecap:round;"/>
   </g>
   <g id="line2d_115">
    <path clip-path="url(#pa26cd755e7)" d="M 186.018257 524.121875 
L 186.018257 498.455781 
" style="fill:none;stroke:#000000;stroke-linecap:round;"/>
   </g>
   <g id="line2d_116">
    <path clip-path="url(#pa26cd755e7)" d="M 243.003338 524.121875 
L 243.003338 498.455781 
" style="fill:none;stroke:#000000;stroke-linecap:round;"/>
   </g>
   <g id="line2d_117">
    <path clip-path="url(#pa26cd755e7)" d="M 231.747026 524.121875 
L 231.747026 498.455781 
" style="fill:none;stroke:#000000;stroke-linecap:round;"/>
   </g>
   <g id="line2d_118">
    <path clip-path="url(#pa26cd755e7)" d="M 168.782029 524.121875 
L 168.782029 498.455781 
" style="fill:none;stroke:#000000;stroke-linecap:round;"/>
   </g>
   <g id="line2d_119">
    <path clip-path="url(#pa26cd755e7)" d="M 171.127094 524.121875 
L 171.127094 498.455781 
" style="fill:none;stroke:#000000;stroke-linecap:round;"/>
   </g>
   <g id="line2d_120">
    <path clip-path="url(#pa26cd755e7)" d="M 181.093621 524.121875 
L 181.093621 498.455781 
" style="fill:none;stroke:#000000;stroke-linecap:round;"/>
   </g>
   <g id="line2d_121">
    <path clip-path="url(#pa26cd755e7)" d="M 164.091899 524.121875 
L 164.091899 498.455781 
" style="fill:none;stroke:#000000;stroke-linecap:round;"/>
   </g>
   <g id="line2d_122">
    <path clip-path="url(#pa26cd755e7)" d="M 201.026674 524.121875 
L 201.026674 498.455781 
" style="fill:none;stroke:#000000;stroke-linecap:round;"/>
   </g>
   <g id="line2d_123">
    <path clip-path="url(#pa26cd755e7)" d="M 242.651578 524.121875 
L 242.651578 498.455781 
" style="fill:none;stroke:#000000;stroke-linecap:round;"/>
   </g>
   <g id="line2d_124">
    <path clip-path="url(#pa26cd755e7)" d="M 277.241288 524.121875 
L 277.241288 498.455781 
" style="fill:none;stroke:#000000;stroke-linecap:round;"/>
   </g>
   <g id="line2d_125">
    <path clip-path="url(#pa26cd755e7)" d="M 297.760607 524.121875 
L 297.760607 498.455781 
" style="fill:none;stroke:#000000;stroke-linecap:round;"/>
   </g>
   <g id="line2d_126">
    <path clip-path="url(#pa26cd755e7)" d="M 185.783751 524.121875 
L 185.783751 498.455781 
" style="fill:none;stroke:#000000;stroke-linecap:round;"/>
   </g>
   <g id="line2d_127">
    <path clip-path="url(#pa26cd755e7)" d="M 328.832719 524.121875 
L 328.832719 498.455781 
" style="fill:none;stroke:#000000;stroke-linecap:round;"/>
   </g>
   <g id="line2d_128">
    <path clip-path="url(#pa26cd755e7)" d="M 141.696528 524.121875 
L 141.696528 498.455781 
" style="fill:none;stroke:#000000;stroke-linecap:round;"/>
   </g>
   <g id="line2d_129">
    <path clip-path="url(#pa26cd755e7)" d="M 165.616191 524.121875 
L 165.616191 498.455781 
" style="fill:none;stroke:#000000;stroke-linecap:round;"/>
   </g>
   <g id="line2d_130">
    <path clip-path="url(#pa26cd755e7)" d="M 161.998091 524.121875 
L 161.998091 498.455781 
" style="fill:none;stroke:#000000;stroke-linecap:round;"/>
   </g>
   <g id="line2d_131">
    <path clip-path="url(#pa26cd755e7)" d="M 269.03356 524.121875 
L 269.03356 498.455781 
" style="fill:none;stroke:#000000;stroke-linecap:round;"/>
   </g>
   <g id="line2d_132">
    <path clip-path="url(#pa26cd755e7)" d="M 148.028203 524.121875 
L 148.028203 498.455781 
" style="fill:none;stroke:#000000;stroke-linecap:round;"/>
   </g>
   <g id="line2d_133">
    <path clip-path="url(#pa26cd755e7)" d="M 156.470437 524.121875 
L 156.470437 498.455781 
" style="fill:none;stroke:#000000;stroke-linecap:round;"/>
   </g>
   <g id="line2d_134">
    <path clip-path="url(#pa26cd755e7)" d="M 141.813781 524.121875 
L 141.813781 498.455781 
" style="fill:none;stroke:#000000;stroke-linecap:round;"/>
   </g>
   <g id="line2d_135">
    <path clip-path="url(#pa26cd755e7)" d="M 184.024952 524.121875 
L 184.024952 498.455781 
" style="fill:none;stroke:#000000;stroke-linecap:round;"/>
   </g>
   <g id="line2d_136">
    <path clip-path="url(#pa26cd755e7)" d="M 226.822389 524.121875 
L 226.822389 498.455781 
" style="fill:none;stroke:#000000;stroke-linecap:round;"/>
   </g>
   <g id="line2d_137">
    <path clip-path="url(#pa26cd755e7)" d="M 154.125372 524.121875 
L 154.125372 498.455781 
" style="fill:none;stroke:#000000;stroke-linecap:round;"/>
   </g>
   <g id="line2d_138">
    <path clip-path="url(#pa26cd755e7)" d="M 141.227515 524.121875 
L 141.227515 498.455781 
" style="fill:none;stroke:#000000;stroke-linecap:round;"/>
   </g>
   <g id="line2d_139">
    <path clip-path="url(#pa26cd755e7)" d="M 163.505633 524.121875 
L 163.505633 498.455781 
" style="fill:none;stroke:#000000;stroke-linecap:round;"/>
   </g>
   <g id="line2d_140">
    <path clip-path="url(#pa26cd755e7)" d="M 201.495687 524.121875 
L 201.495687 498.455781 
" style="fill:none;stroke:#000000;stroke-linecap:round;"/>
   </g>
   <g id="line2d_141">
    <path clip-path="url(#pa26cd755e7)" d="M 163.505633 524.121875 
L 163.505633 498.455781 
" style="fill:none;stroke:#000000;stroke-linecap:round;"/>
   </g>
   <g id="line2d_142">
    <path clip-path="url(#pa26cd755e7)" d="M 140.641248 524.121875 
L 140.641248 498.455781 
" style="fill:none;stroke:#000000;stroke-linecap:round;"/>
   </g>
   <g id="line2d_143">
    <path clip-path="url(#pa26cd755e7)" d="M 184.108704 524.121875 
L 184.108704 498.455781 
" style="fill:none;stroke:#000000;stroke-linecap:round;"/>
   </g>
   <g id="line2d_144">
    <path clip-path="url(#pa26cd755e7)" d="M 283.690217 524.121875 
L 283.690217 498.455781 
" style="fill:none;stroke:#000000;stroke-linecap:round;"/>
   </g>
   <g id="line2d_145">
    <path clip-path="url(#pa26cd755e7)" d="M 210.9932 524.121875 
L 210.9932 498.455781 
" style="fill:none;stroke:#000000;stroke-linecap:round;"/>
   </g>
   <g id="line2d_146">
    <path clip-path="url(#pa26cd755e7)" d="M 233.857584 524.121875 
L 233.857584 498.455781 
" style="fill:none;stroke:#000000;stroke-linecap:round;"/>
   </g>
   <g id="line2d_147">
    <path clip-path="url(#pa26cd755e7)" d="M 169.133789 524.121875 
L 169.133789 498.455781 
" style="fill:none;stroke:#000000;stroke-linecap:round;"/>
   </g>
   <g id="line2d_148">
    <path clip-path="url(#pa26cd755e7)" d="M 282.400431 524.121875 
L 282.400431 498.455781 
" style="fill:none;stroke:#000000;stroke-linecap:round;"/>
   </g>
   <g id="line2d_149">
    <path clip-path="url(#pa26cd755e7)" d="M 152.95284 524.121875 
L 152.95284 498.455781 
" style="fill:none;stroke:#000000;stroke-linecap:round;"/>
   </g>
   <g id="line2d_150">
    <path clip-path="url(#pa26cd755e7)" d="M 162.919366 524.121875 
L 162.919366 498.455781 
" style="fill:none;stroke:#000000;stroke-linecap:round;"/>
   </g>
   <g id="line2d_151">
    <path clip-path="url(#pa26cd755e7)" d="M 278.41382 524.121875 
L 278.41382 498.455781 
" style="fill:none;stroke:#000000;stroke-linecap:round;"/>
   </g>
   <g id="line2d_152">
    <path clip-path="url(#pa26cd755e7)" d="M 335.281648 524.121875 
L 335.281648 498.455781 
" style="fill:none;stroke:#000000;stroke-linecap:round;"/>
   </g>
   <g id="line2d_153">
    <path clip-path="url(#pa26cd755e7)" d="M 289.435626 524.121875 
L 289.435626 498.455781 
" style="fill:none;stroke:#000000;stroke-linecap:round;"/>
   </g>
   <g id="line2d_154">
    <path clip-path="url(#pa26cd755e7)" d="M 163.505633 524.121875 
L 163.505633 498.455781 
" style="fill:none;stroke:#000000;stroke-linecap:round;"/>
   </g>
   <g id="line2d_155">
    <path clip-path="url(#pa26cd755e7)" d="M 140.289488 524.121875 
L 140.289488 498.455781 
" style="fill:none;stroke:#000000;stroke-linecap:round;"/>
   </g>
   <g id="line2d_156">
    <path clip-path="url(#pa26cd755e7)" d="M 138.882449 524.121875 
L 138.882449 498.455781 
" style="fill:none;stroke:#000000;stroke-linecap:round;"/>
   </g>
   <g id="line2d_157">
    <path clip-path="url(#pa26cd755e7)" d="M 149.435242 524.121875 
L 149.435242 498.455781 
" style="fill:none;stroke:#000000;stroke-linecap:round;"/>
   </g>
   <g id="line2d_158">
    <path clip-path="url(#pa26cd755e7)" d="M 194.577745 524.121875 
L 194.577745 498.455781 
" style="fill:none;stroke:#000000;stroke-linecap:round;"/>
   </g>
   <g id="line2d_159">
    <path clip-path="url(#pa26cd755e7)" d="M 185.783751 524.121875 
L 185.783751 498.455781 
" style="fill:none;stroke:#000000;stroke-linecap:round;"/>
   </g>
   <g id="line2d_160">
    <path clip-path="url(#pa26cd755e7)" d="M 142.400047 524.121875 
L 142.400047 498.455781 
" style="fill:none;stroke:#000000;stroke-linecap:round;"/>
   </g>
   <g id="line2d_161">
    <path clip-path="url(#pa26cd755e7)" d="M 142.400047 524.121875 
L 142.400047 498.455781 
" style="fill:none;stroke:#000000;stroke-linecap:round;"/>
   </g>
   <g id="line2d_162">
    <path clip-path="url(#pa26cd755e7)" d="M 138.882449 524.121875 
L 138.882449 498.455781 
" style="fill:none;stroke:#000000;stroke-linecap:round;"/>
   </g>
   <g id="line2d_163">
    <path clip-path="url(#pa26cd755e7)" d="M 138.882449 524.121875 
L 138.882449 498.455781 
" style="fill:none;stroke:#000000;stroke-linecap:round;"/>
   </g>
   <g id="line2d_164">
    <path clip-path="url(#pa26cd755e7)" d="M 138.882449 524.121875 
L 138.882449 498.455781 
" style="fill:none;stroke:#000000;stroke-linecap:round;"/>
   </g>
   <g id="line2d_165">
    <path clip-path="url(#pa26cd755e7)" d="M 138.882449 524.121875 
L 138.882449 498.455781 
" style="fill:none;stroke:#000000;stroke-linecap:round;"/>
   </g>
   <g id="line2d_166">
    <path clip-path="url(#pa26cd755e7)" d="M 138.882449 524.121875 
L 138.882449 498.455781 
" style="fill:none;stroke:#000000;stroke-linecap:round;"/>
   </g>
   <g id="line2d_167">
    <path clip-path="url(#pa26cd755e7)" d="M 139.585969 524.121875 
L 139.585969 498.455781 
" style="fill:none;stroke:#000000;stroke-linecap:round;"/>
   </g>
   <g id="line2d_168">
    <path clip-path="url(#pa26cd755e7)" d="M 139.761849 524.121875 
L 139.761849 498.455781 
" style="fill:none;stroke:#000000;stroke-linecap:round;"/>
   </g>
   <g id="line2d_169">
    <path clip-path="url(#pa26cd755e7)" d="M 138.882449 524.121875 
L 138.882449 498.455781 
" style="fill:none;stroke:#000000;stroke-linecap:round;"/>
   </g>
   <g id="line2d_170">
    <path clip-path="url(#pa26cd755e7)" d="M 138.882449 524.121875 
L 138.882449 498.455781 
" style="fill:none;stroke:#000000;stroke-linecap:round;"/>
   </g>
   <g id="line2d_171">
    <path clip-path="url(#pa26cd755e7)" d="M 142.986313 524.121875 
L 142.986313 498.455781 
" style="fill:none;stroke:#000000;stroke-linecap:round;"/>
   </g>
   <g id="line2d_172">
    <path clip-path="url(#pa26cd755e7)" d="M 140.054982 524.121875 
L 140.054982 498.455781 
" style="fill:none;stroke:#000000;stroke-linecap:round;"/>
   </g>
   <g id="line2d_173">
    <path clip-path="url(#pa26cd755e7)" d="M 138.882449 524.121875 
L 138.882449 498.455781 
" style="fill:none;stroke:#000000;stroke-linecap:round;"/>
   </g>
   <g id="line2d_174">
    <path clip-path="url(#pa26cd755e7)" d="M 155.297905 524.121875 
L 155.297905 498.455781 
" style="fill:none;stroke:#000000;stroke-linecap:round;"/>
   </g>
   <g id="line2d_175">
    <path clip-path="url(#pa26cd755e7)" d="M 210.64144 524.121875 
L 210.64144 498.455781 
" style="fill:none;stroke:#000000;stroke-linecap:round;"/>
   </g>
   <g id="line2d_176">
    <path clip-path="url(#pa26cd755e7)" d="M 205.013284 524.121875 
L 205.013284 498.455781 
" style="fill:none;stroke:#000000;stroke-linecap:round;"/>
   </g>
   <g id="line2d_177">
    <path clip-path="url(#pa26cd755e7)" d="M 297.174341 524.121875 
L 297.174341 498.455781 
" style="fill:none;stroke:#000000;stroke-linecap:round;"/>
   </g>
   <g id="line2d_178">
    <path clip-path="url(#pa26cd755e7)" d="M 390.742437 524.121875 
L 390.742437 498.455781 
" style="fill:none;stroke:#000000;stroke-linecap:round;"/>
   </g>
   <g id="line2d_179">
    <path clip-path="url(#pa26cd755e7)" d="M 144.410103 524.121875 
L 144.410103 498.455781 
" style="fill:none;stroke:#000000;stroke-linecap:round;"/>
   </g>
   <g id="line2d_180">
    <path clip-path="url(#pa26cd755e7)" d="M 141.897533 524.121875 
L 141.897533 498.455781 
" style="fill:none;stroke:#000000;stroke-linecap:round;"/>
   </g>
   <g id="line2d_181">
    <path clip-path="url(#pa26cd755e7)" d="M 148.731723 524.121875 
L 148.731723 498.455781 
" style="fill:none;stroke:#000000;stroke-linecap:round;"/>
   </g>
   <g id="line2d_182">
    <path clip-path="url(#pa26cd755e7)" d="M 225.94299 524.121875 
L 225.94299 498.455781 
" style="fill:none;stroke:#000000;stroke-linecap:round;"/>
   </g>
   <g id="line2d_183">
    <path clip-path="url(#pa26cd755e7)" d="M 141.813781 524.121875 
L 141.813781 498.455781 
" style="fill:none;stroke:#000000;stroke-linecap:round;"/>
   </g>
   <g id="line2d_184">
    <path clip-path="url(#pa26cd755e7)" d="M 138.882449 524.121875 
L 138.882449 498.455781 
" style="fill:none;stroke:#000000;stroke-linecap:round;"/>
   </g>
   <g id="line2d_185">
    <path clip-path="url(#pa26cd755e7)" d="M 138.882449 524.121875 
L 138.882449 498.455781 
" style="fill:none;stroke:#000000;stroke-linecap:round;"/>
   </g>
   <g id="line2d_186">
    <path clip-path="url(#pa26cd755e7)" d="M 138.882449 524.121875 
L 138.882449 498.455781 
" style="fill:none;stroke:#000000;stroke-linecap:round;"/>
   </g>
   <g id="line2d_187">
    <path clip-path="url(#pa26cd755e7)" d="M 138.882449 524.121875 
L 138.882449 498.455781 
" style="fill:none;stroke:#000000;stroke-linecap:round;"/>
   </g>
   <g id="line2d_188">
    <path clip-path="url(#pa26cd755e7)" d="M 138.882449 524.121875 
L 138.882449 498.455781 
" style="fill:none;stroke:#000000;stroke-linecap:round;"/>
   </g>
   <g id="line2d_189">
    <path clip-path="url(#pa26cd755e7)" d="M 138.882449 524.121875 
L 138.882449 498.455781 
" style="fill:none;stroke:#000000;stroke-linecap:round;"/>
   </g>
   <g id="line2d_190">
    <path clip-path="url(#pa26cd755e7)" d="M 161.160568 524.121875 
L 161.160568 498.455781 
" style="fill:none;stroke:#000000;stroke-linecap:round;"/>
   </g>
   <g id="line2d_191">
    <path clip-path="url(#pa26cd755e7)" d="M 510.742766 524.121875 
L 510.742766 498.455781 
" style="fill:none;stroke:#000000;stroke-linecap:round;"/>
   </g>
   <g id="line2d_192">
    <path clip-path="url(#pa26cd755e7)" d="M 193.153955 524.121875 
L 193.153955 498.455781 
" style="fill:none;stroke:#000000;stroke-linecap:round;"/>
   </g>
   <g id="line2d_193">
    <path clip-path="url(#pa26cd755e7)" d="M 139.887477 524.121875 
L 139.887477 498.455781 
" style="fill:none;stroke:#000000;stroke-linecap:round;"/>
   </g>
   <g id="line2d_194">
    <path clip-path="url(#pa26cd755e7)" d="M 138.882449 524.121875 
L 138.882449 498.455781 
" style="fill:none;stroke:#000000;stroke-linecap:round;"/>
   </g>
   <g id="line2d_195">
    <path clip-path="url(#pa26cd755e7)" d="M 795.500666 524.121875 
L 795.500666 498.455781 
" style="fill:none;stroke:#000000;stroke-linecap:round;"/>
   </g>
   <g id="line2d_196">
    <path clip-path="url(#pa26cd755e7)" d="M 753.289495 524.121875 
L 753.289495 498.455781 
" style="fill:none;stroke:#000000;stroke-linecap:round;"/>
   </g>
   <g id="line2d_197">
    <path clip-path="url(#pa26cd755e7)" d="M 310.072199 524.121875 
L 310.072199 498.455781 
" style="fill:none;stroke:#000000;stroke-linecap:round;"/>
   </g>
   <g id="line2d_198">
    <path clip-path="url(#pa26cd755e7)" d="M 139.468716 524.121875 
L 139.468716 498.455781 
" style="fill:none;stroke:#000000;stroke-linecap:round;"/>
   </g>
   <g id="line2d_199">
    <path clip-path="url(#pa26cd755e7)" d="M 144.510606 524.121875 
L 144.510606 498.455781 
" style="fill:none;stroke:#000000;stroke-linecap:round;"/>
   </g>
   <g id="line2d_200">
    <path clip-path="url(#pa26cd755e7)" d="M 269.03356 524.121875 
L 269.03356 498.455781 
" style="fill:none;stroke:#000000;stroke-linecap:round;"/>
   </g>
   <g id="line2d_201">
    <path clip-path="url(#pa26cd755e7)" d="M 200.440407 524.121875 
L 200.440407 498.455781 
" style="fill:none;stroke:#000000;stroke-linecap:round;"/>
   </g>
   <g id="line2d_202">
    <path clip-path="url(#pa26cd755e7)" d="M 139.761849 524.121875 
L 139.761849 498.455781 
" style="fill:none;stroke:#000000;stroke-linecap:round;"/>
   </g>
   <g id="line2d_203">
    <path clip-path="url(#pa26cd755e7)" d="M 155.591038 524.121875 
L 155.591038 498.455781 
" style="fill:none;stroke:#000000;stroke-linecap:round;"/>
   </g>
   <g id="line2d_204">
    <path clip-path="url(#pa26cd755e7)" d="M 138.882449 524.121875 
L 138.882449 498.455781 
" style="fill:none;stroke:#000000;stroke-linecap:round;"/>
   </g>
   <g id="line2d_205">
    <path clip-path="url(#pa26cd755e7)" d="M 148.028203 524.121875 
L 148.028203 498.455781 
" style="fill:none;stroke:#000000;stroke-linecap:round;"/>
   </g>
   <g id="line2d_206">
    <path clip-path="url(#pa26cd755e7)" d="M 184.611218 524.121875 
L 184.611218 498.455781 
" style="fill:none;stroke:#000000;stroke-linecap:round;"/>
   </g>
   <g id="line2d_207">
    <path clip-path="url(#pa26cd755e7)" d="M 139.384963 524.121875 
L 139.384963 498.455781 
" style="fill:none;stroke:#000000;stroke-linecap:round;"/>
   </g>
   <g id="line2d_208">
    <path clip-path="url(#pa26cd755e7)" d="M 138.882449 524.121875 
L 138.882449 498.455781 
" style="fill:none;stroke:#000000;stroke-linecap:round;"/>
   </g>
   <g id="line2d_209">
    <path clip-path="url(#pa26cd755e7)" d="M 152.07344 524.121875 
L 152.07344 498.455781 
" style="fill:none;stroke:#000000;stroke-linecap:round;"/>
   </g>
   <g id="line2d_210">
    <path clip-path="url(#pa26cd755e7)" d="M 138.882449 524.121875 
L 138.882449 498.455781 
" style="fill:none;stroke:#000000;stroke-linecap:round;"/>
   </g>
   <g id="line2d_211">
    <path clip-path="url(#pa26cd755e7)" d="M 138.882449 524.121875 
L 138.882449 498.455781 
" style="fill:none;stroke:#000000;stroke-linecap:round;"/>
   </g>
   <g id="line2d_212">
    <path clip-path="url(#pa26cd755e7)" d="M 186.956283 524.121875 
L 186.956283 498.455781 
" style="fill:none;stroke:#000000;stroke-linecap:round;"/>
   </g>
   <g id="line2d_213">
    <path clip-path="url(#pa26cd755e7)" d="M 722.803649 524.121875 
L 722.803649 498.455781 
" style="fill:none;stroke:#000000;stroke-linecap:round;"/>
   </g>
   <g id="line2d_214">
    <path clip-path="url(#pa26cd755e7)" d="M 523.473119 524.121875 
L 523.473119 498.455781 
" style="fill:none;stroke:#000000;stroke-linecap:round;"/>
   </g>
   <g id="line2d_215">
    <path clip-path="url(#pa26cd755e7)" d="M 269.619826 524.121875 
L 269.619826 498.455781 
" style="fill:none;stroke:#000000;stroke-linecap:round;"/>
   </g>
   <g id="line2d_216">
    <path clip-path="url(#pa26cd755e7)" d="M 138.882449 524.121875 
L 138.882449 498.455781 
" style="fill:none;stroke:#000000;stroke-linecap:round;"/>
   </g>
   <g id="line2d_217">
    <path clip-path="url(#pa26cd755e7)" d="M 245.289777 524.121875 
L 245.289777 498.455781 
" style="fill:none;stroke:#000000;stroke-linecap:round;"/>
   </g>
   <g id="line2d_218">
    <path clip-path="url(#pa26cd755e7)" d="M 186.370017 524.121875 
L 186.370017 498.455781 
" style="fill:none;stroke:#000000;stroke-linecap:round;"/>
   </g>
   <g id="line2d_219">
    <path clip-path="url(#pa26cd755e7)" d="M 138.882449 524.121875 
L 138.882449 498.455781 
" style="fill:none;stroke:#000000;stroke-linecap:round;"/>
   </g>
   <g id="line2d_220">
    <path clip-path="url(#pa26cd755e7)" d="M 138.882449 524.121875 
L 138.882449 498.455781 
" style="fill:none;stroke:#000000;stroke-linecap:round;"/>
   </g>
   <g id="line2d_221">
    <path clip-path="url(#pa26cd755e7)" d="M 253.790637 524.121875 
L 253.790637 498.455781 
" style="fill:none;stroke:#000000;stroke-linecap:round;"/>
   </g>
   <g id="line2d_222">
    <path clip-path="url(#pa26cd755e7)" d="M 153.455354 524.121875 
L 153.455354 498.455781 
" style="fill:none;stroke:#000000;stroke-linecap:round;"/>
   </g>
   <g id="line2d_223">
    <path clip-path="url(#pa26cd755e7)" d="M 141.696528 524.121875 
L 141.696528 498.455781 
" style="fill:none;stroke:#000000;stroke-linecap:round;"/>
   </g>
   <g id="line2d_224">
    <path clip-path="url(#pa26cd755e7)" d="M 138.882449 524.121875 
L 138.882449 498.455781 
" style="fill:none;stroke:#000000;stroke-linecap:round;"/>
   </g>
   <g id="line2d_225">
    <path clip-path="url(#pa26cd755e7)" d="M 138.882449 524.121875 
L 138.882449 498.455781 
" style="fill:none;stroke:#000000;stroke-linecap:round;"/>
   </g>
   <g id="line2d_226">
    <path clip-path="url(#pa26cd755e7)" d="M 141.897533 524.121875 
L 141.897533 498.455781 
" style="fill:none;stroke:#000000;stroke-linecap:round;"/>
   </g>
   <g id="line2d_227">
    <path clip-path="url(#pa26cd755e7)" d="M 142.400047 524.121875 
L 142.400047 498.455781 
" style="fill:none;stroke:#000000;stroke-linecap:round;"/>
   </g>
   <g id="line2d_228">
    <path clip-path="url(#pa26cd755e7)" d="M 138.882449 524.121875 
L 138.882449 498.455781 
" style="fill:none;stroke:#000000;stroke-linecap:round;"/>
   </g>
   <g id="line2d_229">
    <path clip-path="url(#pa26cd755e7)" d="M 189.535855 524.121875 
L 189.535855 498.455781 
" style="fill:none;stroke:#000000;stroke-linecap:round;"/>
   </g>
   <g id="line2d_230">
    <path clip-path="url(#pa26cd755e7)" d="M 138.882449 524.121875 
L 138.882449 498.455781 
" style="fill:none;stroke:#000000;stroke-linecap:round;"/>
   </g>
   <g id="line2d_231">
    <path clip-path="url(#pa26cd755e7)" d="M 138.882449 524.121875 
L 138.882449 498.455781 
" style="fill:none;stroke:#000000;stroke-linecap:round;"/>
   </g>
   <g id="line2d_232">
    <path clip-path="url(#pa26cd755e7)" d="M 140.289488 524.121875 
L 140.289488 498.455781 
" style="fill:none;stroke:#000000;stroke-linecap:round;"/>
   </g>
   <g id="line2d_233">
    <path clip-path="url(#pa26cd755e7)" d="M 144.158846 524.121875 
L 144.158846 498.455781 
" style="fill:none;stroke:#000000;stroke-linecap:round;"/>
   </g>
   <g id="line2d_234">
    <path clip-path="url(#pa26cd755e7)" d="M 138.882449 524.121875 
L 138.882449 498.455781 
" style="fill:none;stroke:#000000;stroke-linecap:round;"/>
   </g>
   <g id="line2d_235">
    <path clip-path="url(#pa26cd755e7)" d="M 141.813781 524.121875 
L 141.813781 498.455781 
" style="fill:none;stroke:#000000;stroke-linecap:round;"/>
   </g>
   <g id="line2d_236">
    <path clip-path="url(#pa26cd755e7)" d="M 205.130537 524.121875 
L 205.130537 498.455781 
" style="fill:none;stroke:#000000;stroke-linecap:round;"/>
   </g>
   <g id="line2d_237">
    <path clip-path="url(#pa26cd755e7)" d="M 277.475794 524.121875 
L 277.475794 498.455781 
" style="fill:none;stroke:#000000;stroke-linecap:round;"/>
   </g>
   <g id="line2d_238">
    <path clip-path="url(#pa26cd755e7)" d="M 138.882449 524.121875 
L 138.882449 498.455781 
" style="fill:none;stroke:#000000;stroke-linecap:round;"/>
   </g>
   <g id="line2d_239">
    <path clip-path="url(#pa26cd755e7)" d="M 139.585969 524.121875 
L 139.585969 498.455781 
" style="fill:none;stroke:#000000;stroke-linecap:round;"/>
   </g>
   <g id="line2d_240">
    <path clip-path="url(#pa26cd755e7)" d="M 180.507354 524.121875 
L 180.507354 498.455781 
" style="fill:none;stroke:#000000;stroke-linecap:round;"/>
   </g>
   <g id="line2d_241">
    <path clip-path="url(#pa26cd755e7)" d="M 150.021508 524.121875 
L 150.021508 498.455781 
" style="fill:none;stroke:#000000;stroke-linecap:round;"/>
   </g>
   <g id="line2d_242">
    <path clip-path="url(#pa26cd755e7)" d="M 149.435242 524.121875 
L 149.435242 498.455781 
" style="fill:none;stroke:#000000;stroke-linecap:round;"/>
   </g>
   <g id="line2d_243">
    <path clip-path="url(#pa26cd755e7)" d="M 139.468716 524.121875 
L 139.468716 498.455781 
" style="fill:none;stroke:#000000;stroke-linecap:round;"/>
   </g>
   <g id="line2d_244">
    <path clip-path="url(#pa26cd755e7)" d="M 162.919366 524.121875 
L 162.919366 498.455781 
" style="fill:none;stroke:#000000;stroke-linecap:round;"/>
   </g>
   <g id="line2d_245">
    <path clip-path="url(#pa26cd755e7)" d="M 138.882449 524.121875 
L 138.882449 498.455781 
" style="fill:none;stroke:#000000;stroke-linecap:round;"/>
   </g>
   <g id="line2d_246">
    <path clip-path="url(#pa26cd755e7)" d="M 177.576023 524.121875 
L 177.576023 498.455781 
" style="fill:none;stroke:#000000;stroke-linecap:round;"/>
   </g>
   <g id="line2d_247">
    <path clip-path="url(#pa26cd755e7)" d="M 146.420159 524.121875 
L 146.420159 498.455781 
" style="fill:none;stroke:#000000;stroke-linecap:round;"/>
   </g>
   <g id="line2d_248">
    <path clip-path="url(#pa26cd755e7)" d="M 172.04837 524.121875 
L 172.04837 498.455781 
" style="fill:none;stroke:#000000;stroke-linecap:round;"/>
   </g>
   <g id="line2d_249">
    <path clip-path="url(#pa26cd755e7)" d="M 141.897533 524.121875 
L 141.897533 498.455781 
" style="fill:none;stroke:#000000;stroke-linecap:round;"/>
   </g>
   <g id="line2d_250">
    <path clip-path="url(#pa26cd755e7)" d="M 138.882449 524.121875 
L 138.882449 498.455781 
" style="fill:none;stroke:#000000;stroke-linecap:round;"/>
   </g>
   <g id="line2d_251">
    <path clip-path="url(#pa26cd755e7)" d="M 138.882449 524.121875 
L 138.882449 498.455781 
" style="fill:none;stroke:#000000;stroke-linecap:round;"/>
   </g>
   <g id="line2d_252">
    <path clip-path="url(#pa26cd755e7)" d="M 138.882449 524.121875 
L 138.882449 498.455781 
" style="fill:none;stroke:#000000;stroke-linecap:round;"/>
   </g>
   <g id="line2d_253">
    <path clip-path="url(#pa26cd755e7)" d="M 140.054982 524.121875 
L 140.054982 498.455781 
" style="fill:none;stroke:#000000;stroke-linecap:round;"/>
   </g>
   <g id="line2d_254">
    <path clip-path="url(#pa26cd755e7)" d="M 166.436964 524.121875 
L 166.436964 498.455781 
" style="fill:none;stroke:#000000;stroke-linecap:round;"/>
   </g>
   <g id="line2d_255">
    <path clip-path="url(#pa26cd755e7)" d="M 202.199206 524.121875 
L 202.199206 498.455781 
" style="fill:none;stroke:#000000;stroke-linecap:round;"/>
   </g>
   <g id="line2d_256">
    <path clip-path="url(#pa26cd755e7)" d="M 202.785472 524.121875 
L 202.785472 498.455781 
" style="fill:none;stroke:#000000;stroke-linecap:round;"/>
   </g>
   <g id="line2d_257">
    <path clip-path="url(#pa26cd755e7)" d="M 532.853379 524.121875 
L 532.853379 498.455781 
" style="fill:none;stroke:#000000;stroke-linecap:round;"/>
   </g>
   <g id="line2d_258">
    <path clip-path="url(#pa26cd755e7)" d="M 261.294846 524.121875 
L 261.294846 498.455781 
" style="fill:none;stroke:#000000;stroke-linecap:round;"/>
   </g>
   <g id="line2d_259">
    <path clip-path="url(#pa26cd755e7)" d="M 214.159038 524.121875 
L 214.159038 498.455781 
" style="fill:none;stroke:#000000;stroke-linecap:round;"/>
   </g>
   <g id="line2d_260">
    <path clip-path="url(#pa26cd755e7)" d="M 354.862941 524.121875 
L 354.862941 498.455781 
" style="fill:none;stroke:#000000;stroke-linecap:round;"/>
   </g>
   <g id="line2d_261">
    <path clip-path="url(#pa26cd755e7)" d="M 307.727134 524.121875 
L 307.727134 498.455781 
" style="fill:none;stroke:#000000;stroke-linecap:round;"/>
   </g>
   <g id="line2d_262">
    <path clip-path="url(#pa26cd755e7)" d="M 150.607775 524.121875 
L 150.607775 498.455781 
" style="fill:none;stroke:#000000;stroke-linecap:round;"/>
   </g>
   <g id="line2d_263">
    <path clip-path="url(#pa26cd755e7)" d="M 184.611218 524.121875 
L 184.611218 498.455781 
" style="fill:none;stroke:#000000;stroke-linecap:round;"/>
   </g>
   <g id="line2d_264">
    <path clip-path="url(#pa26cd755e7)" d="M 630.173579 524.121875 
L 630.173579 498.455781 
" style="fill:none;stroke:#000000;stroke-linecap:round;"/>
   </g>
   <g id="line2d_265">
    <path clip-path="url(#pa26cd755e7)" d="M 487.82813 524.121875 
L 487.82813 498.455781 
" style="fill:none;stroke:#000000;stroke-linecap:round;"/>
   </g>
   <g id="line2d_266">
    <path clip-path="url(#pa26cd755e7)" d="M 179.334822 524.121875 
L 179.334822 498.455781 
" style="fill:none;stroke:#000000;stroke-linecap:round;"/>
   </g>
   <g id="line2d_267">
    <path clip-path="url(#pa26cd755e7)" d="M 144.158846 524.121875 
L 144.158846 498.455781 
" style="fill:none;stroke:#000000;stroke-linecap:round;"/>
   </g>
   <g id="line2d_268">
    <path clip-path="url(#pa26cd755e7)" d="M 138.882449 524.121875 
L 138.882449 498.455781 
" style="fill:none;stroke:#000000;stroke-linecap:round;"/>
   </g>
   <g id="line2d_269">
    <path clip-path="url(#pa26cd755e7)" d="M 161.746834 524.121875 
L 161.746834 498.455781 
" style="fill:none;stroke:#000000;stroke-linecap:round;"/>
   </g>
   <g id="line2d_270">
    <path clip-path="url(#pa26cd755e7)" d="M 163.505633 524.121875 
L 163.505633 498.455781 
" style="fill:none;stroke:#000000;stroke-linecap:round;"/>
   </g>
   <g id="line2d_271">
    <path clip-path="url(#pa26cd755e7)" d="M 387.459346 524.121875 
L 387.459346 498.455781 
" style="fill:none;stroke:#000000;stroke-linecap:round;"/>
   </g>
   <g id="line2d_272">
    <path clip-path="url(#pa26cd755e7)" d="M 610.240526 524.121875 
L 610.240526 498.455781 
" style="fill:none;stroke:#000000;stroke-linecap:round;"/>
   </g>
   <g id="line2d_273">
    <path clip-path="url(#pa26cd755e7)" d="M 515.265391 524.121875 
L 515.265391 498.455781 
" style="fill:none;stroke:#000000;stroke-linecap:round;"/>
   </g>
   <g id="line2d_274">
    <path clip-path="url(#pa26cd755e7)" d="M 186.370017 524.121875 
L 186.370017 498.455781 
" style="fill:none;stroke:#000000;stroke-linecap:round;"/>
   </g>
   <g id="line2d_275">
    <path clip-path="url(#pa26cd755e7)" d="M 141.813781 524.121875 
L 141.813781 498.455781 
" style="fill:none;stroke:#000000;stroke-linecap:round;"/>
   </g>
   <g id="line2d_276">
    <path clip-path="url(#pa26cd755e7)" d="M 140.993008 524.121875 
L 140.993008 498.455781 
" style="fill:none;stroke:#000000;stroke-linecap:round;"/>
   </g>
   <g id="line2d_277">
    <path clip-path="url(#pa26cd755e7)" d="M 144.510606 524.121875 
L 144.510606 498.455781 
" style="fill:none;stroke:#000000;stroke-linecap:round;"/>
   </g>
   <g id="line2d_278">
    <path clip-path="url(#pa26cd755e7)" d="M 161.160568 524.121875 
L 161.160568 498.455781 
" style="fill:none;stroke:#000000;stroke-linecap:round;"/>
   </g>
   <g id="line2d_279">
    <path clip-path="url(#pa26cd755e7)" d="M 142.400047 524.121875 
L 142.400047 498.455781 
" style="fill:none;stroke:#000000;stroke-linecap:round;"/>
   </g>
   <g id="line2d_280">
    <path clip-path="url(#pa26cd755e7)" d="M 147.324684 524.121875 
L 147.324684 498.455781 
" style="fill:none;stroke:#000000;stroke-linecap:round;"/>
   </g>
   <g id="line2d_281">
    <path clip-path="url(#pa26cd755e7)" d="M 315.348595 524.121875 
L 315.348595 498.455781 
" style="fill:none;stroke:#000000;stroke-linecap:round;"/>
   </g>
   <g id="line2d_282">
    <path clip-path="url(#pa26cd755e7)" d="M 464.611986 524.121875 
L 464.611986 498.455781 
" style="fill:none;stroke:#000000;stroke-linecap:round;"/>
   </g>
   <g id="line2d_283">
    <path clip-path="url(#pa26cd755e7)" d="M 189.301348 524.121875 
L 189.301348 498.455781 
" style="fill:none;stroke:#000000;stroke-linecap:round;"/>
   </g>
   <g id="line2d_284">
    <path clip-path="url(#pa26cd755e7)" d="M 181.093621 524.121875 
L 181.093621 498.455781 
" style="fill:none;stroke:#000000;stroke-linecap:round;"/>
   </g>
   <g id="line2d_285">
    <path clip-path="url(#pa26cd755e7)" d="M 150.138762 524.121875 
L 150.138762 498.455781 
" style="fill:none;stroke:#000000;stroke-linecap:round;"/>
   </g>
   <g id="line2d_286">
    <path clip-path="url(#pa26cd755e7)" d="M 155.766918 524.121875 
L 155.766918 498.455781 
" style="fill:none;stroke:#000000;stroke-linecap:round;"/>
   </g>
   <g id="line2d_287">
    <path clip-path="url(#pa26cd755e7)" d="M 224.711831 524.121875 
L 224.711831 498.455781 
" style="fill:none;stroke:#000000;stroke-linecap:round;"/>
   </g>
   <g id="line2d_288">
    <path clip-path="url(#pa26cd755e7)" d="M 200.792167 524.121875 
L 200.792167 498.455781 
" style="fill:none;stroke:#000000;stroke-linecap:round;"/>
   </g>
   <g id="line2d_289">
    <path clip-path="url(#pa26cd755e7)" d="M 163.505633 524.121875 
L 163.505633 498.455781 
" style="fill:none;stroke:#000000;stroke-linecap:round;"/>
   </g>
   <g id="line2d_290">
    <path clip-path="url(#pa26cd755e7)" d="M 147.676443 524.121875 
L 147.676443 498.455781 
" style="fill:none;stroke:#000000;stroke-linecap:round;"/>
   </g>
   <g id="line2d_291">
    <path clip-path="url(#pa26cd755e7)" d="M 188.715082 524.121875 
L 188.715082 498.455781 
" style="fill:none;stroke:#000000;stroke-linecap:round;"/>
   </g>
   <g id="line2d_292">
    <path clip-path="url(#pa26cd755e7)" d="M 142.400047 524.121875 
L 142.400047 498.455781 
" style="fill:none;stroke:#000000;stroke-linecap:round;"/>
   </g>
   <g id="line2d_293">
    <path clip-path="url(#pa26cd755e7)" d="M 141.520648 524.121875 
L 141.520648 498.455781 
" style="fill:none;stroke:#000000;stroke-linecap:round;"/>
   </g>
   <g id="line2d_294">
    <path clip-path="url(#pa26cd755e7)" d="M 139.585969 524.121875 
L 139.585969 498.455781 
" style="fill:none;stroke:#000000;stroke-linecap:round;"/>
   </g>
   <g id="line2d_295">
    <path clip-path="url(#pa26cd755e7)" d="M 164.209152 524.121875 
L 164.209152 498.455781 
" style="fill:none;stroke:#000000;stroke-linecap:round;"/>
   </g>
   <g id="line2d_296">
    <path clip-path="url(#pa26cd755e7)" d="M 180.507354 524.121875 
L 180.507354 498.455781 
" style="fill:none;stroke:#000000;stroke-linecap:round;"/>
   </g>
   <g id="line2d_297">
    <path clip-path="url(#pa26cd755e7)" d="M 366.940026 524.121875 
L 366.940026 498.455781 
" style="fill:none;stroke:#000000;stroke-linecap:round;"/>
   </g>
   <g id="line2d_298">
    <path clip-path="url(#pa26cd755e7)" d="M 269.03356 524.121875 
L 269.03356 498.455781 
" style="fill:none;stroke:#000000;stroke-linecap:round;"/>
   </g>
   <g id="line2d_299">
    <path clip-path="url(#pa26cd755e7)" d="M 140.289488 524.121875 
L 140.289488 498.455781 
" style="fill:none;stroke:#000000;stroke-linecap:round;"/>
   </g>
   <g id="line2d_300">
    <path clip-path="url(#pa26cd755e7)" d="M 168.782029 524.121875 
L 168.782029 498.455781 
" style="fill:none;stroke:#000000;stroke-linecap:round;"/>
   </g>
   <g id="line2d_301">
    <path clip-path="url(#pa26cd755e7)" d="M 162.919366 524.121875 
L 162.919366 498.455781 
" style="fill:none;stroke:#000000;stroke-linecap:round;"/>
   </g>
   <g id="line2d_302">
    <path clip-path="url(#pa26cd755e7)" d="M 168.430269 524.121875 
L 168.430269 498.455781 
" style="fill:none;stroke:#000000;stroke-linecap:round;"/>
   </g>
   <g id="line2d_303">
    <path clip-path="url(#pa26cd755e7)" d="M 260.591326 524.121875 
L 260.591326 498.455781 
" style="fill:none;stroke:#000000;stroke-linecap:round;"/>
   </g>
   <g id="line2d_304">
    <path clip-path="url(#pa26cd755e7)" d="M 164.912672 524.121875 
L 164.912672 498.455781 
" style="fill:none;stroke:#000000;stroke-linecap:round;"/>
   </g>
   <g id="line2d_305">
    <path clip-path="url(#pa26cd755e7)" d="M 141.227515 524.121875 
L 141.227515 498.455781 
" style="fill:none;stroke:#000000;stroke-linecap:round;"/>
   </g>
   <g id="line2d_306">
    <path clip-path="url(#pa26cd755e7)" d="M 162.802113 524.121875 
L 162.802113 498.455781 
" style="fill:none;stroke:#000000;stroke-linecap:round;"/>
   </g>
   <g id="line2d_307">
    <path clip-path="url(#pa26cd755e7)" d="M 181.79714 524.121875 
L 181.79714 498.455781 
" style="fill:none;stroke:#000000;stroke-linecap:round;"/>
   </g>
   <g id="line2d_308">
    <path clip-path="url(#pa26cd755e7)" d="M 206.30307 524.121875 
L 206.30307 498.455781 
" style="fill:none;stroke:#000000;stroke-linecap:round;"/>
   </g>
   <g id="line2d_309">
    <path clip-path="url(#pa26cd755e7)" d="M 143.57258 524.121875 
L 143.57258 498.455781 
" style="fill:none;stroke:#000000;stroke-linecap:round;"/>
   </g>
   <g id="line2d_310">
    <path clip-path="url(#pa26cd755e7)" d="M 138.882449 524.121875 
L 138.882449 498.455781 
" style="fill:none;stroke:#000000;stroke-linecap:round;"/>
   </g>
   <g id="line2d_311">
    <path clip-path="url(#pa26cd755e7)" d="M 139.468716 524.121875 
L 139.468716 498.455781 
" style="fill:none;stroke:#000000;stroke-linecap:round;"/>
   </g>
   <g id="line2d_312">
    <path clip-path="url(#pa26cd755e7)" d="M 140.641248 524.121875 
L 140.641248 498.455781 
" style="fill:none;stroke:#000000;stroke-linecap:round;"/>
   </g>
   <g id="line2d_313">
    <path clip-path="url(#pa26cd755e7)" d="M 141.696528 524.121875 
L 141.696528 498.455781 
" style="fill:none;stroke:#000000;stroke-linecap:round;"/>
   </g>
   <g id="line2d_314">
    <path clip-path="url(#pa26cd755e7)" d="M 246.520936 524.121875 
L 246.520936 498.455781 
" style="fill:none;stroke:#000000;stroke-linecap:round;"/>
   </g>
   <g id="line2d_315">
    <path clip-path="url(#pa26cd755e7)" d="M 264.929696 524.121875 
L 264.929696 498.455781 
" style="fill:none;stroke:#000000;stroke-linecap:round;"/>
   </g>
   <g id="line2d_316">
    <path clip-path="url(#pa26cd755e7)" d="M 241.479046 524.121875 
L 241.479046 498.455781 
" style="fill:none;stroke:#000000;stroke-linecap:round;"/>
   </g>
   <g id="line2d_317">
    <path clip-path="url(#pa26cd755e7)" d="M 219.787194 524.121875 
L 219.787194 498.455781 
" style="fill:none;stroke:#000000;stroke-linecap:round;"/>
   </g>
   <g id="line2d_318">
    <path clip-path="url(#pa26cd755e7)" d="M 230.926253 524.121875 
L 230.926253 498.455781 
" style="fill:none;stroke:#000000;stroke-linecap:round;"/>
   </g>
   <g id="line2d_319">
    <path clip-path="url(#pa26cd755e7)" d="M 297.760607 524.121875 
L 297.760607 498.455781 
" style="fill:none;stroke:#000000;stroke-linecap:round;"/>
   </g>
   <g id="line2d_320">
    <path clip-path="url(#pa26cd755e7)" d="M 150.607775 524.121875 
L 150.607775 498.455781 
" style="fill:none;stroke:#000000;stroke-linecap:round;"/>
   </g>
   <g id="line2d_321">
    <path clip-path="url(#pa26cd755e7)" d="M 170.540828 524.121875 
L 170.540828 498.455781 
" style="fill:none;stroke:#000000;stroke-linecap:round;"/>
   </g>
   <g id="line2d_322">
    <path clip-path="url(#pa26cd755e7)" d="M 222.132259 524.121875 
L 222.132259 498.455781 
" style="fill:none;stroke:#000000;stroke-linecap:round;"/>
   </g>
   <g id="line2d_323">
    <path clip-path="url(#pa26cd755e7)" d="M 181.679887 524.121875 
L 181.679887 498.455781 
" style="fill:none;stroke:#000000;stroke-linecap:round;"/>
   </g>
   <g id="line2d_324">
    <path clip-path="url(#pa26cd755e7)" d="M 177.576023 524.121875 
L 177.576023 498.455781 
" style="fill:none;stroke:#000000;stroke-linecap:round;"/>
   </g>
   <g id="line2d_325">
    <path clip-path="url(#pa26cd755e7)" d="M 183.731819 524.121875 
L 183.731819 498.455781 
" style="fill:none;stroke:#000000;stroke-linecap:round;"/>
   </g>
   <g id="line2d_326">
    <path clip-path="url(#pa26cd755e7)" d="M 164.678165 524.121875 
L 164.678165 498.455781 
" style="fill:none;stroke:#000000;stroke-linecap:round;"/>
   </g>
   <g id="line2d_327">
    <path clip-path="url(#pa26cd755e7)" d="M 178.162289 524.121875 
L 178.162289 498.455781 
" style="fill:none;stroke:#000000;stroke-linecap:round;"/>
   </g>
   <g id="line2d_328">
    <path clip-path="url(#pa26cd755e7)" d="M 183.907699 524.121875 
L 183.907699 498.455781 
" style="fill:none;stroke:#000000;stroke-linecap:round;"/>
   </g>
   <g id="line2d_329">
    <path clip-path="url(#pa26cd755e7)" d="M 181.093621 524.121875 
L 181.093621 498.455781 
" style="fill:none;stroke:#000000;stroke-linecap:round;"/>
   </g>
   <g id="line2d_330">
    <path clip-path="url(#pa26cd755e7)" d="M 145.917645 524.121875 
L 145.917645 498.455781 
" style="fill:none;stroke:#000000;stroke-linecap:round;"/>
   </g>
   <g id="line2d_331">
    <path clip-path="url(#pa26cd755e7)" d="M 145.331378 524.121875 
L 145.331378 498.455781 
" style="fill:none;stroke:#000000;stroke-linecap:round;"/>
   </g>
   <g id="line2d_332">
    <path clip-path="url(#pa26cd755e7)" d="M 140.641248 524.121875 
L 140.641248 498.455781 
" style="fill:none;stroke:#000000;stroke-linecap:round;"/>
   </g>
   <g id="line2d_333">
    <path clip-path="url(#pa26cd755e7)" d="M 142.986313 524.121875 
L 142.986313 498.455781 
" style="fill:none;stroke:#000000;stroke-linecap:round;"/>
   </g>
   <g id="line2d_334">
    <path clip-path="url(#pa26cd755e7)" d="M 165.013174 524.121875 
L 165.013174 498.455781 
" style="fill:none;stroke:#000000;stroke-linecap:round;"/>
   </g>
   <g id="line2d_335">
    <path clip-path="url(#pa26cd755e7)" d="M 161.746834 524.121875 
L 161.746834 498.455781 
" style="fill:none;stroke:#000000;stroke-linecap:round;"/>
   </g>
   <g id="line2d_336">
    <path clip-path="url(#pa26cd755e7)" d="M 202.199206 524.121875 
L 202.199206 498.455781 
" style="fill:none;stroke:#000000;stroke-linecap:round;"/>
   </g>
   <g id="line2d_337">
    <path clip-path="url(#pa26cd755e7)" d="M 190.942894 524.121875 
L 190.942894 498.455781 
" style="fill:none;stroke:#000000;stroke-linecap:round;"/>
   </g>
   <g id="line2d_338">
    <path clip-path="url(#pa26cd755e7)" d="M 152.07344 524.121875 
L 152.07344 498.455781 
" style="fill:none;stroke:#000000;stroke-linecap:round;"/>
   </g>
   <g id="line2d_339">
    <path clip-path="url(#pa26cd755e7)" d="M 138.882449 524.121875 
L 138.882449 498.455781 
" style="fill:none;stroke:#000000;stroke-linecap:round;"/>
   </g>
   <g id="line2d_340">
    <path clip-path="url(#pa26cd755e7)" d="M 140.289488 524.121875 
L 140.289488 498.455781 
" style="fill:none;stroke:#000000;stroke-linecap:round;"/>
   </g>
   <g id="line2d_341">
    <path clip-path="url(#pa26cd755e7)" d="M 174.058425 524.121875 
L 174.058425 498.455781 
" style="fill:none;stroke:#000000;stroke-linecap:round;"/>
   </g>
   <g id="line2d_342">
    <path clip-path="url(#pa26cd755e7)" d="M 144.745112 524.121875 
L 144.745112 498.455781 
" style="fill:none;stroke:#000000;stroke-linecap:round;"/>
   </g>
   <g id="line2d_343">
    <path clip-path="url(#pa26cd755e7)" d="M 150.607775 524.121875 
L 150.607775 498.455781 
" style="fill:none;stroke:#000000;stroke-linecap:round;"/>
   </g>
   <g id="line2d_344">
    <path clip-path="url(#pa26cd755e7)" d="M 141.227515 524.121875 
L 141.227515 498.455781 
" style="fill:none;stroke:#000000;stroke-linecap:round;"/>
   </g>
   <g id="line2d_345">
    <path clip-path="url(#pa26cd755e7)" d="M 140.641248 524.121875 
L 140.641248 498.455781 
" style="fill:none;stroke:#000000;stroke-linecap:round;"/>
   </g>
   <g id="line2d_346">
    <path clip-path="url(#pa26cd755e7)" d="M 159.988035 524.121875 
L 159.988035 498.455781 
" style="fill:none;stroke:#000000;stroke-linecap:round;"/>
   </g>
   <g id="line2d_347">
    <path clip-path="url(#pa26cd755e7)" d="M 244.996643 524.121875 
L 244.996643 498.455781 
" style="fill:none;stroke:#000000;stroke-linecap:round;"/>
   </g>
   <g id="line2d_348">
    <path clip-path="url(#pa26cd755e7)" d="M 194.577745 524.121875 
L 194.577745 498.455781 
" style="fill:none;stroke:#000000;stroke-linecap:round;"/>
   </g>
   <g id="line2d_349">
    <path clip-path="url(#pa26cd755e7)" d="M 150.021508 524.121875 
L 150.021508 498.455781 
" style="fill:none;stroke:#000000;stroke-linecap:round;"/>
   </g>
   <g id="line2d_350">
    <path clip-path="url(#pa26cd755e7)" d="M 186.370017 524.121875 
L 186.370017 498.455781 
" style="fill:none;stroke:#000000;stroke-linecap:round;"/>
   </g>
   <g id="line2d_351">
    <path clip-path="url(#pa26cd755e7)" d="M 192.23268 524.121875 
L 192.23268 498.455781 
" style="fill:none;stroke:#000000;stroke-linecap:round;"/>
   </g>
   <g id="line2d_352">
    <path clip-path="url(#pa26cd755e7)" d="M 266.018477 524.121875 
L 266.018477 498.455781 
" style="fill:none;stroke:#000000;stroke-linecap:round;"/>
   </g>
   <g id="line2d_353">
    <path clip-path="url(#pa26cd755e7)" d="M 162.919366 524.121875 
L 162.919366 498.455781 
" style="fill:none;stroke:#000000;stroke-linecap:round;"/>
   </g>
   <g id="line2d_354">
    <path clip-path="url(#pa26cd755e7)" d="M 201.194178 524.121875 
L 201.194178 498.455781 
" style="fill:none;stroke:#000000;stroke-linecap:round;"/>
   </g>
   <g id="line2d_355">
    <path clip-path="url(#pa26cd755e7)" d="M 145.415131 524.121875 
L 145.415131 498.455781 
" style="fill:none;stroke:#000000;stroke-linecap:round;"/>
   </g>
   <g id="line2d_356">
    <path clip-path="url(#pa26cd755e7)" d="M 398.012138 524.121875 
L 398.012138 498.455781 
" style="fill:none;stroke:#000000;stroke-linecap:round;"/>
   </g>
   <g id="line2d_357">
    <path clip-path="url(#pa26cd755e7)" d="M 218.380155 524.121875 
L 218.380155 498.455781 
" style="fill:none;stroke:#000000;stroke-linecap:round;"/>
   </g>
   <g id="line2d_358">
    <path clip-path="url(#pa26cd755e7)" d="M 368.933332 524.121875 
L 368.933332 498.455781 
" style="fill:none;stroke:#000000;stroke-linecap:round;"/>
   </g>
   <g id="line2d_359">
    <path clip-path="url(#pa26cd755e7)" d="M 169.5358 524.121875 
L 169.5358 498.455781 
" style="fill:none;stroke:#000000;stroke-linecap:round;"/>
   </g>
   <g id="line2d_360">
    <path clip-path="url(#pa26cd755e7)" d="M 168.195763 524.121875 
L 168.195763 498.455781 
" style="fill:none;stroke:#000000;stroke-linecap:round;"/>
   </g>
   <g id="line2d_361">
    <path clip-path="url(#pa26cd755e7)" d="M 139.468716 524.121875 
L 139.468716 498.455781 
" style="fill:none;stroke:#000000;stroke-linecap:round;"/>
   </g>
   <g id="line2d_362">
    <path clip-path="url(#pa26cd755e7)" d="M 177.576023 524.121875 
L 177.576023 498.455781 
" style="fill:none;stroke:#000000;stroke-linecap:round;"/>
   </g>
   <g id="line2d_363">
    <path clip-path="url(#pa26cd755e7)" d="M 174.644692 524.121875 
L 174.644692 498.455781 
" style="fill:none;stroke:#000000;stroke-linecap:round;"/>
   </g>
   <g id="line2d_364">
    <path clip-path="url(#pa26cd755e7)" d="M 159.988035 524.121875 
L 159.988035 498.455781 
" style="fill:none;stroke:#000000;stroke-linecap:round;"/>
   </g>
   <g id="line2d_365">
    <path clip-path="url(#pa26cd755e7)" d="M 138.882449 524.121875 
L 138.882449 498.455781 
" style="fill:none;stroke:#000000;stroke-linecap:round;"/>
   </g>
   <g id="line2d_366">
    <path clip-path="url(#pa26cd755e7)" d="M 155.297905 524.121875 
L 155.297905 498.455781 
" style="fill:none;stroke:#000000;stroke-linecap:round;"/>
   </g>
   <g id="line2d_367">
    <path clip-path="url(#pa26cd755e7)" d="M 165.264431 524.121875 
L 165.264431 498.455781 
" style="fill:none;stroke:#000000;stroke-linecap:round;"/>
   </g>
   <g id="line2d_368">
    <path clip-path="url(#pa26cd755e7)" d="M 145.038245 524.121875 
L 145.038245 498.455781 
" style="fill:none;stroke:#000000;stroke-linecap:round;"/>
   </g>
   <g id="line2d_369">
    <path clip-path="url(#pa26cd755e7)" d="M 144.158846 524.121875 
L 144.158846 498.455781 
" style="fill:none;stroke:#000000;stroke-linecap:round;"/>
   </g>
   <g id="line2d_370">
    <path clip-path="url(#pa26cd755e7)" d="M 149.435242 524.121875 
L 149.435242 498.455781 
" style="fill:none;stroke:#000000;stroke-linecap:round;"/>
   </g>
   <g id="line2d_371">
    <path clip-path="url(#pa26cd755e7)" d="M 138.882449 524.121875 
L 138.882449 498.455781 
" style="fill:none;stroke:#000000;stroke-linecap:round;"/>
   </g>
   <g id="line2d_372">
    <path clip-path="url(#pa26cd755e7)" d="M 143.279446 524.121875 
L 143.279446 498.455781 
" style="fill:none;stroke:#000000;stroke-linecap:round;"/>
   </g>
   <g id="line2d_373">
    <path clip-path="url(#pa26cd755e7)" d="M 177.576023 524.121875 
L 177.576023 498.455781 
" style="fill:none;stroke:#000000;stroke-linecap:round;"/>
   </g>
   <g id="line2d_374">
    <path clip-path="url(#pa26cd755e7)" d="M 156.470437 524.121875 
L 156.470437 498.455781 
" style="fill:none;stroke:#000000;stroke-linecap:round;"/>
   </g>
   <g id="line2d_375">
    <path clip-path="url(#pa26cd755e7)" d="M 145.038245 524.121875 
L 145.038245 498.455781 
" style="fill:none;stroke:#000000;stroke-linecap:round;"/>
   </g>
   <g id="line2d_376">
    <path clip-path="url(#pa26cd755e7)" d="M 138.882449 524.121875 
L 138.882449 498.455781 
" style="fill:none;stroke:#000000;stroke-linecap:round;"/>
   </g>
   <g id="line2d_377">
    <path clip-path="url(#pa26cd755e7)" d="M 155.297905 524.121875 
L 155.297905 498.455781 
" style="fill:none;stroke:#000000;stroke-linecap:round;"/>
   </g>
   <g id="line2d_378">
    <path clip-path="url(#pa26cd755e7)" d="M 138.882449 524.121875 
L 138.882449 498.455781 
" style="fill:none;stroke:#000000;stroke-linecap:round;"/>
   </g>
   <g id="line2d_379">
    <path clip-path="url(#pa26cd755e7)" d="M 160.691555 524.121875 
L 160.691555 498.455781 
" style="fill:none;stroke:#000000;stroke-linecap:round;"/>
   </g>
   <g id="line2d_380">
    <path clip-path="url(#pa26cd755e7)" d="M 196.57105 524.121875 
L 196.57105 498.455781 
" style="fill:none;stroke:#000000;stroke-linecap:round;"/>
   </g>
   <g id="line2d_381">
    <path clip-path="url(#pa26cd755e7)" d="M 192.525813 524.121875 
L 192.525813 498.455781 
" style="fill:none;stroke:#000000;stroke-linecap:round;"/>
   </g>
   <g id="line2d_382">
    <path clip-path="url(#pa26cd755e7)" d="M 155.591038 524.121875 
L 155.591038 498.455781 
" style="fill:none;stroke:#000000;stroke-linecap:round;"/>
   </g>
   <g id="line2d_383">
    <path clip-path="url(#pa26cd755e7)" d="M 145.917645 524.121875 
L 145.917645 498.455781 
" style="fill:none;stroke:#000000;stroke-linecap:round;"/>
   </g>
   <g id="line2d_384">
    <path clip-path="url(#pa26cd755e7)" d="M 149.435242 524.121875 
L 149.435242 498.455781 
" style="fill:none;stroke:#000000;stroke-linecap:round;"/>
   </g>
   <g id="line2d_385">
    <path clip-path="url(#pa26cd755e7)" d="M 140.641248 524.121875 
L 140.641248 498.455781 
" style="fill:none;stroke:#000000;stroke-linecap:round;"/>
   </g>
   <g id="line2d_386">
    <path clip-path="url(#pa26cd755e7)" d="M 206.889336 524.121875 
L 206.889336 498.455781 
" style="fill:none;stroke:#000000;stroke-linecap:round;"/>
   </g>
   <g id="line2d_387">
    <path clip-path="url(#pa26cd755e7)" d="M 197.509076 524.121875 
L 197.509076 498.455781 
" style="fill:none;stroke:#000000;stroke-linecap:round;"/>
   </g>
   <g id="line2d_388">
    <path clip-path="url(#pa26cd755e7)" d="M 185.490618 524.121875 
L 185.490618 498.455781 
" style="fill:none;stroke:#000000;stroke-linecap:round;"/>
   </g>
   <g id="patch_3">
    <path d="M 45.753125 524.121875 
L 45.753125 10.8 
" style="fill:none;"/>
   </g>
   <g id="patch_4">
    <path d="M 1069.2 524.121875 
L 1069.2 10.8 
" style="fill:none;"/>
   </g>
   <g id="patch_5">
    <path d="M 45.753125 524.121875 
L 1069.2 524.121875 
" style="fill:none;"/>
   </g>
   <g id="patch_6">
    <path d="M 45.753125 10.8 
L 1069.2 10.8 
" style="fill:none;"/>
   </g>
  </g>
 </g>
 <defs>
  <clipPath id="pa26cd755e7">
   <rect height="513.321875" width="1023.446875" x="45.753125" y="10.8"/>
  </clipPath>
 </defs>
</svg>
