<?xml version="1.0" encoding="utf-8" standalone="no"?>
<!DOCTYPE svg PUBLIC "-//W3C//DTD SVG 1.1//EN"
  "http://www.w3.org/Graphics/SVG/1.1/DTD/svg11.dtd">
<!-- Created with matplotlib (http://matplotlib.org/) -->
<svg height="576pt" version="1.1" viewBox="0 0 1080 576" width="1080pt" xmlns="http://www.w3.org/2000/svg" xmlns:xlink="http://www.w3.org/1999/xlink">
 <defs>
  <style type="text/css">
*{stroke-linecap:butt;stroke-linejoin:round;}
  </style>
 </defs>
 <g id="figure_1">
  <g id="patch_1">
   <path d="M 0 576 
L 1080 576 
L 1080 0 
L 0 0 
z
" style="fill:#ffffff;"/>
  </g>
  <g id="axes_1">
   <g id="patch_2">
    <path d="M 54.55 523.184375 
L 1060.325 523.184375 
L 1060.325 13.348571 
L 54.55 13.348571 
z
" style="fill:#eaeaf2;"/>
   </g>
   <g id="matplotlib.axis_1">
    <g id="xtick_1">
     <g id="line2d_1">
      <path clip-path="url(#p841998de09)" d="M 54.55 523.184375 
L 54.55 13.348571 
" style="fill:none;stroke:#ffffff;stroke-linecap:round;"/>
     </g>
     <g id="line2d_2"/>
     <g id="text_1">
      <!-- 60 -->
      <defs>
       <path d="M 49.75 54.046875 
L 41.015625 53.375 
Q 39.84375 58.546875 37.703125 60.890625 
Q 34.125 64.65625 28.90625 64.65625 
Q 24.703125 64.65625 21.53125 62.3125 
Q 17.390625 59.28125 14.984375 53.46875 
Q 12.59375 47.65625 12.5 36.921875 
Q 15.671875 41.75 20.265625 44.09375 
Q 24.859375 46.4375 29.890625 46.4375 
Q 38.671875 46.4375 44.84375 39.96875 
Q 51.03125 33.5 51.03125 23.25 
Q 51.03125 16.5 48.125 10.71875 
Q 45.21875 4.9375 40.140625 1.859375 
Q 35.0625 -1.21875 28.609375 -1.21875 
Q 17.625 -1.21875 10.6875 6.859375 
Q 3.765625 14.9375 3.765625 33.5 
Q 3.765625 54.25 11.421875 63.671875 
Q 18.109375 71.875 29.4375 71.875 
Q 37.890625 71.875 43.28125 67.140625 
Q 48.6875 62.40625 49.75 54.046875 
z
M 13.875 23.1875 
Q 13.875 18.65625 15.796875 14.5 
Q 17.71875 10.359375 21.1875 8.171875 
Q 24.65625 6 28.46875 6 
Q 34.03125 6 38.03125 10.484375 
Q 42.046875 14.984375 42.046875 22.703125 
Q 42.046875 30.125 38.078125 34.390625 
Q 34.125 38.671875 28.125 38.671875 
Q 22.171875 38.671875 18.015625 34.390625 
Q 13.875 30.125 13.875 23.1875 
z
" id="ArialMT-36"/>
       <path d="M 4.15625 35.296875 
Q 4.15625 48 6.765625 55.734375 
Q 9.375 63.484375 14.515625 67.671875 
Q 19.671875 71.875 27.484375 71.875 
Q 33.25 71.875 37.59375 69.546875 
Q 41.9375 67.234375 44.765625 62.859375 
Q 47.609375 58.5 49.21875 52.21875 
Q 50.828125 45.953125 50.828125 35.296875 
Q 50.828125 22.703125 48.234375 14.96875 
Q 45.65625 7.234375 40.5 3 
Q 35.359375 -1.21875 27.484375 -1.21875 
Q 17.140625 -1.21875 11.234375 6.203125 
Q 4.15625 15.140625 4.15625 35.296875 
z
M 13.1875 35.296875 
Q 13.1875 17.671875 17.3125 11.828125 
Q 21.4375 6 27.484375 6 
Q 33.546875 6 37.671875 11.859375 
Q 41.796875 17.71875 41.796875 35.296875 
Q 41.796875 52.984375 37.671875 58.78125 
Q 33.546875 64.59375 27.390625 64.59375 
Q 21.34375 64.59375 17.71875 59.46875 
Q 13.1875 52.9375 13.1875 35.296875 
z
" id="ArialMT-30"/>
      </defs>
      <g style="fill:#262626;" transform="translate(45.6525 541.636875)scale(0.16 -0.16)">
       <use xlink:href="#ArialMT-36"/>
       <use x="55.615234" xlink:href="#ArialMT-30"/>
      </g>
     </g>
    </g>
    <g id="xtick_2">
     <g id="line2d_3">
      <path clip-path="url(#p841998de09)" d="M 255.705 523.184375 
L 255.705 13.348571 
" style="fill:none;stroke:#ffffff;stroke-linecap:round;"/>
     </g>
     <g id="line2d_4"/>
     <g id="text_2">
      <!-- 65 -->
      <defs>
       <path d="M 4.15625 18.75 
L 13.375 19.53125 
Q 14.40625 12.796875 18.140625 9.390625 
Q 21.875 6 27.15625 6 
Q 33.5 6 37.890625 10.78125 
Q 42.28125 15.578125 42.28125 23.484375 
Q 42.28125 31 38.0625 35.34375 
Q 33.84375 39.703125 27 39.703125 
Q 22.75 39.703125 19.328125 37.765625 
Q 15.921875 35.84375 13.96875 32.765625 
L 5.71875 33.84375 
L 12.640625 70.609375 
L 48.25 70.609375 
L 48.25 62.203125 
L 19.671875 62.203125 
L 15.828125 42.96875 
Q 22.265625 47.46875 29.34375 47.46875 
Q 38.71875 47.46875 45.15625 40.96875 
Q 51.609375 34.46875 51.609375 24.265625 
Q 51.609375 14.546875 45.953125 7.46875 
Q 39.0625 -1.21875 27.15625 -1.21875 
Q 17.390625 -1.21875 11.203125 4.25 
Q 5.03125 9.71875 4.15625 18.75 
z
" id="ArialMT-35"/>
      </defs>
      <g style="fill:#262626;" transform="translate(246.8075 541.636875)scale(0.16 -0.16)">
       <use xlink:href="#ArialMT-36"/>
       <use x="55.615234" xlink:href="#ArialMT-35"/>
      </g>
     </g>
    </g>
    <g id="xtick_3">
     <g id="line2d_5">
      <path clip-path="url(#p841998de09)" d="M 456.86 523.184375 
L 456.86 13.348571 
" style="fill:none;stroke:#ffffff;stroke-linecap:round;"/>
     </g>
     <g id="line2d_6"/>
     <g id="text_3">
      <!-- 70 -->
      <defs>
       <path d="M 4.734375 62.203125 
L 4.734375 70.65625 
L 51.078125 70.65625 
L 51.078125 63.8125 
Q 44.234375 56.546875 37.515625 44.484375 
Q 30.8125 32.421875 27.15625 19.671875 
Q 24.515625 10.6875 23.78125 0 
L 14.75 0 
Q 14.890625 8.453125 18.0625 20.40625 
Q 21.234375 32.375 27.171875 43.484375 
Q 33.109375 54.59375 39.796875 62.203125 
z
" id="ArialMT-37"/>
      </defs>
      <g style="fill:#262626;" transform="translate(447.9625 541.636875)scale(0.16 -0.16)">
       <use xlink:href="#ArialMT-37"/>
       <use x="55.615234" xlink:href="#ArialMT-30"/>
      </g>
     </g>
    </g>
    <g id="xtick_4">
     <g id="line2d_7">
      <path clip-path="url(#p841998de09)" d="M 658.015 523.184375 
L 658.015 13.348571 
" style="fill:none;stroke:#ffffff;stroke-linecap:round;"/>
     </g>
     <g id="line2d_8"/>
     <g id="text_4">
      <!-- 75 -->
      <g style="fill:#262626;" transform="translate(649.1175 541.636875)scale(0.16 -0.16)">
       <use xlink:href="#ArialMT-37"/>
       <use x="55.615234" xlink:href="#ArialMT-35"/>
      </g>
     </g>
    </g>
    <g id="xtick_5">
     <g id="line2d_9">
      <path clip-path="url(#p841998de09)" d="M 859.17 523.184375 
L 859.17 13.348571 
" style="fill:none;stroke:#ffffff;stroke-linecap:round;"/>
     </g>
     <g id="line2d_10"/>
     <g id="text_5">
      <!-- 80 -->
      <defs>
       <path d="M 17.671875 38.8125 
Q 12.203125 40.828125 9.5625 44.53125 
Q 6.9375 48.25 6.9375 53.421875 
Q 6.9375 61.234375 12.546875 66.546875 
Q 18.171875 71.875 27.484375 71.875 
Q 36.859375 71.875 42.578125 66.421875 
Q 48.296875 60.984375 48.296875 53.171875 
Q 48.296875 48.1875 45.671875 44.5 
Q 43.0625 40.828125 37.75 38.8125 
Q 44.34375 36.671875 47.78125 31.875 
Q 51.21875 27.09375 51.21875 20.453125 
Q 51.21875 11.28125 44.71875 5.03125 
Q 38.234375 -1.21875 27.640625 -1.21875 
Q 17.046875 -1.21875 10.546875 5.046875 
Q 4.046875 11.328125 4.046875 20.703125 
Q 4.046875 27.6875 7.59375 32.390625 
Q 11.140625 37.109375 17.671875 38.8125 
z
M 15.921875 53.71875 
Q 15.921875 48.640625 19.1875 45.40625 
Q 22.46875 42.1875 27.6875 42.1875 
Q 32.765625 42.1875 36.015625 45.375 
Q 39.265625 48.578125 39.265625 53.21875 
Q 39.265625 58.0625 35.90625 61.359375 
Q 32.5625 64.65625 27.59375 64.65625 
Q 22.5625 64.65625 19.234375 61.421875 
Q 15.921875 58.203125 15.921875 53.71875 
z
M 13.09375 20.65625 
Q 13.09375 16.890625 14.875 13.375 
Q 16.65625 9.859375 20.171875 7.921875 
Q 23.6875 6 27.734375 6 
Q 34.03125 6 38.125 10.046875 
Q 42.234375 14.109375 42.234375 20.359375 
Q 42.234375 26.703125 38.015625 30.859375 
Q 33.796875 35.015625 27.4375 35.015625 
Q 21.234375 35.015625 17.15625 30.90625 
Q 13.09375 26.8125 13.09375 20.65625 
z
" id="ArialMT-38"/>
      </defs>
      <g style="fill:#262626;" transform="translate(850.2725 541.636875)scale(0.16 -0.16)">
       <use xlink:href="#ArialMT-38"/>
       <use x="55.615234" xlink:href="#ArialMT-30"/>
      </g>
     </g>
    </g>
    <g id="xtick_6">
     <g id="line2d_11">
      <path clip-path="url(#p841998de09)" d="M 1060.325 523.184375 
L 1060.325 13.348571 
" style="fill:none;stroke:#ffffff;stroke-linecap:round;"/>
     </g>
     <g id="line2d_12"/>
     <g id="text_6">
      <!-- 85 -->
      <g style="fill:#262626;" transform="translate(1051.4275 541.636875)scale(0.16 -0.16)">
       <use xlink:href="#ArialMT-38"/>
       <use x="55.615234" xlink:href="#ArialMT-35"/>
      </g>
     </g>
    </g>
    <g id="text_7">
     <!-- Temperature (°F) -->
     <defs>
      <path d="M 25.921875 0 
L 25.921875 63.140625 
L 2.34375 63.140625 
L 2.34375 71.578125 
L 59.078125 71.578125 
L 59.078125 63.140625 
L 35.40625 63.140625 
L 35.40625 0 
z
" id="ArialMT-54"/>
      <path d="M 42.09375 16.703125 
L 51.171875 15.578125 
Q 49.03125 7.625 43.21875 3.21875 
Q 37.40625 -1.171875 28.375 -1.171875 
Q 17 -1.171875 10.328125 5.828125 
Q 3.65625 12.84375 3.65625 25.484375 
Q 3.65625 38.578125 10.390625 45.796875 
Q 17.140625 53.03125 27.875 53.03125 
Q 38.28125 53.03125 44.875 45.953125 
Q 51.46875 38.875 51.46875 26.03125 
Q 51.46875 25.25 51.421875 23.6875 
L 12.75 23.6875 
Q 13.234375 15.140625 17.578125 10.59375 
Q 21.921875 6.0625 28.421875 6.0625 
Q 33.25 6.0625 36.671875 8.59375 
Q 40.09375 11.140625 42.09375 16.703125 
z
M 13.234375 30.90625 
L 42.1875 30.90625 
Q 41.609375 37.453125 38.875 40.71875 
Q 34.671875 45.796875 27.984375 45.796875 
Q 21.921875 45.796875 17.796875 41.75 
Q 13.671875 37.703125 13.234375 30.90625 
z
" id="ArialMT-65"/>
      <path d="M 6.59375 0 
L 6.59375 51.859375 
L 14.453125 51.859375 
L 14.453125 44.578125 
Q 16.890625 48.390625 20.9375 50.703125 
Q 25 53.03125 30.171875 53.03125 
Q 35.9375 53.03125 39.625 50.640625 
Q 43.3125 48.25 44.828125 43.953125 
Q 50.984375 53.03125 60.84375 53.03125 
Q 68.5625 53.03125 72.703125 48.75 
Q 76.859375 44.484375 76.859375 35.59375 
L 76.859375 0 
L 68.109375 0 
L 68.109375 32.671875 
Q 68.109375 37.9375 67.25 40.25 
Q 66.40625 42.578125 64.15625 43.984375 
Q 61.921875 45.40625 58.890625 45.40625 
Q 53.421875 45.40625 49.796875 41.765625 
Q 46.1875 38.140625 46.1875 30.125 
L 46.1875 0 
L 37.40625 0 
L 37.40625 33.6875 
Q 37.40625 39.546875 35.25 42.46875 
Q 33.109375 45.40625 28.21875 45.40625 
Q 24.515625 45.40625 21.359375 43.453125 
Q 18.21875 41.5 16.796875 37.734375 
Q 15.375 33.984375 15.375 26.90625 
L 15.375 0 
z
" id="ArialMT-6d"/>
      <path d="M 6.59375 -19.875 
L 6.59375 51.859375 
L 14.59375 51.859375 
L 14.59375 45.125 
Q 17.4375 49.078125 21 51.046875 
Q 24.5625 53.03125 29.640625 53.03125 
Q 36.28125 53.03125 41.359375 49.609375 
Q 46.4375 46.1875 49.015625 39.953125 
Q 51.609375 33.734375 51.609375 26.3125 
Q 51.609375 18.359375 48.75 11.984375 
Q 45.90625 5.609375 40.453125 2.21875 
Q 35.015625 -1.171875 29 -1.171875 
Q 24.609375 -1.171875 21.109375 0.6875 
Q 17.625 2.546875 15.375 5.375 
L 15.375 -19.875 
z
M 14.546875 25.640625 
Q 14.546875 15.625 18.59375 10.84375 
Q 22.65625 6.0625 28.421875 6.0625 
Q 34.28125 6.0625 38.453125 11.015625 
Q 42.625 15.96875 42.625 26.375 
Q 42.625 36.28125 38.546875 41.203125 
Q 34.46875 46.140625 28.8125 46.140625 
Q 23.1875 46.140625 18.859375 40.890625 
Q 14.546875 35.640625 14.546875 25.640625 
z
" id="ArialMT-70"/>
      <path d="M 6.5 0 
L 6.5 51.859375 
L 14.40625 51.859375 
L 14.40625 44 
Q 17.4375 49.515625 20 51.265625 
Q 22.5625 53.03125 25.640625 53.03125 
Q 30.078125 53.03125 34.671875 50.203125 
L 31.640625 42.046875 
Q 28.421875 43.953125 25.203125 43.953125 
Q 22.3125 43.953125 20.015625 42.21875 
Q 17.71875 40.484375 16.75 37.40625 
Q 15.28125 32.71875 15.28125 27.15625 
L 15.28125 0 
z
" id="ArialMT-72"/>
      <path d="M 40.4375 6.390625 
Q 35.546875 2.25 31.03125 0.53125 
Q 26.515625 -1.171875 21.34375 -1.171875 
Q 12.796875 -1.171875 8.203125 3 
Q 3.609375 7.171875 3.609375 13.671875 
Q 3.609375 17.484375 5.34375 20.625 
Q 7.078125 23.78125 9.890625 25.6875 
Q 12.703125 27.59375 16.21875 28.5625 
Q 18.796875 29.25 24.03125 29.890625 
Q 34.671875 31.15625 39.703125 32.90625 
Q 39.75 34.71875 39.75 35.203125 
Q 39.75 40.578125 37.25 42.78125 
Q 33.890625 45.75 27.25 45.75 
Q 21.046875 45.75 18.09375 43.578125 
Q 15.140625 41.40625 13.71875 35.890625 
L 5.125 37.0625 
Q 6.296875 42.578125 8.984375 45.96875 
Q 11.671875 49.359375 16.75 51.1875 
Q 21.828125 53.03125 28.515625 53.03125 
Q 35.15625 53.03125 39.296875 51.46875 
Q 43.453125 49.90625 45.40625 47.53125 
Q 47.359375 45.171875 48.140625 41.546875 
Q 48.578125 39.3125 48.578125 33.453125 
L 48.578125 21.734375 
Q 48.578125 9.46875 49.140625 6.21875 
Q 49.703125 2.984375 51.375 0 
L 42.1875 0 
Q 40.828125 2.734375 40.4375 6.390625 
z
M 39.703125 26.03125 
Q 34.90625 24.078125 25.34375 22.703125 
Q 19.921875 21.921875 17.671875 20.9375 
Q 15.4375 19.96875 14.203125 18.09375 
Q 12.984375 16.21875 12.984375 13.921875 
Q 12.984375 10.40625 15.640625 8.0625 
Q 18.3125 5.71875 23.4375 5.71875 
Q 28.515625 5.71875 32.46875 7.9375 
Q 36.421875 10.15625 38.28125 14.015625 
Q 39.703125 17 39.703125 22.796875 
z
" id="ArialMT-61"/>
      <path d="M 25.78125 7.859375 
L 27.046875 0.09375 
Q 23.34375 -0.6875 20.40625 -0.6875 
Q 15.625 -0.6875 12.984375 0.828125 
Q 10.359375 2.34375 9.28125 4.8125 
Q 8.203125 7.28125 8.203125 15.1875 
L 8.203125 45.015625 
L 1.765625 45.015625 
L 1.765625 51.859375 
L 8.203125 51.859375 
L 8.203125 64.703125 
L 16.9375 69.96875 
L 16.9375 51.859375 
L 25.78125 51.859375 
L 25.78125 45.015625 
L 16.9375 45.015625 
L 16.9375 14.703125 
Q 16.9375 10.9375 17.40625 9.859375 
Q 17.875 8.796875 18.921875 8.15625 
Q 19.96875 7.515625 21.921875 7.515625 
Q 23.390625 7.515625 25.78125 7.859375 
z
" id="ArialMT-74"/>
      <path d="M 40.578125 0 
L 40.578125 7.625 
Q 34.515625 -1.171875 24.125 -1.171875 
Q 19.53125 -1.171875 15.546875 0.578125 
Q 11.578125 2.34375 9.640625 5 
Q 7.71875 7.671875 6.9375 11.53125 
Q 6.390625 14.109375 6.390625 19.734375 
L 6.390625 51.859375 
L 15.1875 51.859375 
L 15.1875 23.09375 
Q 15.1875 16.21875 15.71875 13.8125 
Q 16.546875 10.359375 19.234375 8.375 
Q 21.921875 6.390625 25.875 6.390625 
Q 29.828125 6.390625 33.296875 8.421875 
Q 36.765625 10.453125 38.203125 13.9375 
Q 39.65625 17.4375 39.65625 24.078125 
L 39.65625 51.859375 
L 48.4375 51.859375 
L 48.4375 0 
z
" id="ArialMT-75"/>
      <path id="ArialMT-20"/>
      <path d="M 23.390625 -21.046875 
Q 16.109375 -11.859375 11.078125 0.4375 
Q 6.0625 12.75 6.0625 25.921875 
Q 6.0625 37.546875 9.8125 48.1875 
Q 14.203125 60.546875 23.390625 72.796875 
L 29.6875 72.796875 
Q 23.78125 62.640625 21.875 58.296875 
Q 18.890625 51.5625 17.1875 44.234375 
Q 15.09375 35.109375 15.09375 25.875 
Q 15.09375 2.390625 29.6875 -21.046875 
z
" id="ArialMT-28"/>
      <path d="M 6.25 59.28125 
Q 6.25 64.890625 10.21875 68.84375 
Q 14.203125 72.796875 19.78125 72.796875 
Q 25.4375 72.796875 29.390625 68.84375 
Q 33.34375 64.890625 33.34375 59.28125 
Q 33.34375 53.65625 29.359375 49.671875 
Q 25.390625 45.703125 19.78125 45.703125 
Q 14.203125 45.703125 10.21875 49.65625 
Q 6.25 53.609375 6.25 59.28125 
z
M 11.578125 59.28125 
Q 11.578125 55.859375 13.984375 53.4375 
Q 16.40625 51.03125 19.828125 51.03125 
Q 23.1875 51.03125 25.609375 53.4375 
Q 28.03125 55.859375 28.03125 59.28125 
Q 28.03125 62.703125 25.609375 65.109375 
Q 23.1875 67.53125 19.828125 67.53125 
Q 16.40625 67.53125 13.984375 65.109375 
Q 11.578125 62.703125 11.578125 59.28125 
z
" id="ArialMT-b0"/>
      <path d="M 8.203125 0 
L 8.203125 71.578125 
L 56.5 71.578125 
L 56.5 63.140625 
L 17.671875 63.140625 
L 17.671875 40.96875 
L 51.265625 40.96875 
L 51.265625 32.515625 
L 17.671875 32.515625 
L 17.671875 0 
z
" id="ArialMT-46"/>
      <path d="M 12.359375 -21.046875 
L 6.0625 -21.046875 
Q 20.65625 2.390625 20.65625 25.875 
Q 20.65625 35.0625 18.5625 44.09375 
Q 16.890625 51.421875 13.921875 58.15625 
Q 12.015625 62.546875 6.0625 72.796875 
L 12.359375 72.796875 
Q 21.53125 60.546875 25.921875 48.1875 
Q 29.6875 37.546875 29.6875 25.921875 
Q 29.6875 12.75 24.625 0.4375 
Q 19.578125 -11.859375 12.359375 -21.046875 
z
" id="ArialMT-29"/>
     </defs>
     <g style="fill:#262626;" transform="translate(496.02375 560.464375)scale(0.16 -0.16)">
      <use xlink:href="#ArialMT-54"/>
      <use x="60.912109" xlink:href="#ArialMT-65"/>
      <use x="116.527344" xlink:href="#ArialMT-6d"/>
      <use x="199.828125" xlink:href="#ArialMT-70"/>
      <use x="255.443359" xlink:href="#ArialMT-65"/>
      <use x="311.058594" xlink:href="#ArialMT-72"/>
      <use x="344.359375" xlink:href="#ArialMT-61"/>
      <use x="399.974609" xlink:href="#ArialMT-74"/>
      <use x="427.757812" xlink:href="#ArialMT-75"/>
      <use x="483.373047" xlink:href="#ArialMT-72"/>
      <use x="516.673828" xlink:href="#ArialMT-65"/>
      <use x="572.289062" xlink:href="#ArialMT-20"/>
      <use x="600.072266" xlink:href="#ArialMT-28"/>
      <use x="633.373047" xlink:href="#ArialMT-b0"/>
      <use x="673.363281" xlink:href="#ArialMT-46"/>
      <use x="734.447266" xlink:href="#ArialMT-29"/>
     </g>
    </g>
   </g>
   <g id="matplotlib.axis_2">
    <g id="ytick_1">
     <g id="line2d_13">
      <path clip-path="url(#p841998de09)" d="M 54.55 523.184375 
L 1060.325 523.184375 
" style="fill:none;stroke:#ffffff;stroke-linecap:round;"/>
     </g>
     <g id="line2d_14"/>
     <g id="text_8">
      <!-- 0 -->
      <g style="fill:#262626;" transform="translate(38.6525 528.910625)scale(0.16 -0.16)">
       <use xlink:href="#ArialMT-30"/>
      </g>
     </g>
    </g>
    <g id="ytick_2">
     <g id="line2d_15">
      <path clip-path="url(#p841998de09)" d="M 54.55 422.026477 
L 1060.325 422.026477 
" style="fill:none;stroke:#ffffff;stroke-linecap:round;"/>
     </g>
     <g id="line2d_16"/>
     <g id="text_9">
      <!-- 5 -->
      <g style="fill:#262626;" transform="translate(38.6525 427.752727)scale(0.16 -0.16)">
       <use xlink:href="#ArialMT-35"/>
      </g>
     </g>
    </g>
    <g id="ytick_3">
     <g id="line2d_17">
      <path clip-path="url(#p841998de09)" d="M 54.55 320.86858 
L 1060.325 320.86858 
" style="fill:none;stroke:#ffffff;stroke-linecap:round;"/>
     </g>
     <g id="line2d_18"/>
     <g id="text_10">
      <!-- 10 -->
      <defs>
       <path d="M 37.25 0 
L 28.46875 0 
L 28.46875 56 
Q 25.296875 52.984375 20.140625 49.953125 
Q 14.984375 46.921875 10.890625 45.40625 
L 10.890625 53.90625 
Q 18.265625 57.375 23.78125 62.296875 
Q 29.296875 67.234375 31.59375 71.875 
L 37.25 71.875 
z
" id="ArialMT-31"/>
      </defs>
      <g style="fill:#262626;" transform="translate(29.755 326.59483)scale(0.16 -0.16)">
       <use xlink:href="#ArialMT-31"/>
       <use x="55.615234" xlink:href="#ArialMT-30"/>
      </g>
     </g>
    </g>
    <g id="ytick_4">
     <g id="line2d_19">
      <path clip-path="url(#p841998de09)" d="M 54.55 219.710682 
L 1060.325 219.710682 
" style="fill:none;stroke:#ffffff;stroke-linecap:round;"/>
     </g>
     <g id="line2d_20"/>
     <g id="text_11">
      <!-- 15 -->
      <g style="fill:#262626;" transform="translate(29.755 225.436932)scale(0.16 -0.16)">
       <use xlink:href="#ArialMT-31"/>
       <use x="55.615234" xlink:href="#ArialMT-35"/>
      </g>
     </g>
    </g>
    <g id="ytick_5">
     <g id="line2d_21">
      <path clip-path="url(#p841998de09)" d="M 54.55 118.552785 
L 1060.325 118.552785 
" style="fill:none;stroke:#ffffff;stroke-linecap:round;"/>
     </g>
     <g id="line2d_22"/>
     <g id="text_12">
      <!-- 20 -->
      <defs>
       <path d="M 50.34375 8.453125 
L 50.34375 0 
L 3.03125 0 
Q 2.9375 3.171875 4.046875 6.109375 
Q 5.859375 10.9375 9.828125 15.625 
Q 13.8125 20.3125 21.34375 26.46875 
Q 33.015625 36.03125 37.109375 41.625 
Q 41.21875 47.21875 41.21875 52.203125 
Q 41.21875 57.421875 37.46875 61 
Q 33.734375 64.59375 27.734375 64.59375 
Q 21.390625 64.59375 17.578125 60.78125 
Q 13.765625 56.984375 13.71875 50.25 
L 4.6875 51.171875 
Q 5.609375 61.28125 11.65625 66.578125 
Q 17.71875 71.875 27.9375 71.875 
Q 38.234375 71.875 44.234375 66.15625 
Q 50.25 60.453125 50.25 52 
Q 50.25 47.703125 48.484375 43.546875 
Q 46.734375 39.40625 42.65625 34.8125 
Q 38.578125 30.21875 29.109375 22.21875 
Q 21.1875 15.578125 18.9375 13.203125 
Q 16.703125 10.84375 15.234375 8.453125 
z
" id="ArialMT-32"/>
      </defs>
      <g style="fill:#262626;" transform="translate(29.755 124.279035)scale(0.16 -0.16)">
       <use xlink:href="#ArialMT-32"/>
       <use x="55.615234" xlink:href="#ArialMT-30"/>
      </g>
     </g>
    </g>
    <g id="ytick_6">
     <g id="line2d_23">
      <path clip-path="url(#p841998de09)" d="M 54.55 17.394887 
L 1060.325 17.394887 
" style="fill:none;stroke:#ffffff;stroke-linecap:round;"/>
     </g>
     <g id="line2d_24"/>
     <g id="text_13">
      <!-- 25 -->
      <g style="fill:#262626;" transform="translate(29.755 23.121137)scale(0.16 -0.16)">
       <use xlink:href="#ArialMT-32"/>
       <use x="55.615234" xlink:href="#ArialMT-35"/>
      </g>
     </g>
    </g>
    <g id="text_14">
     <!-- Frequency -->
     <defs>
      <path d="M 39.65625 -19.875 
L 39.65625 5.515625 
Q 37.59375 2.640625 33.90625 0.734375 
Q 30.21875 -1.171875 26.078125 -1.171875 
Q 16.84375 -1.171875 10.171875 6.203125 
Q 3.515625 13.578125 3.515625 26.421875 
Q 3.515625 34.234375 6.21875 40.421875 
Q 8.9375 46.625 14.078125 49.828125 
Q 19.234375 53.03125 25.390625 53.03125 
Q 35.015625 53.03125 40.53125 44.921875 
L 40.53125 51.859375 
L 48.4375 51.859375 
L 48.4375 -19.875 
z
M 12.546875 26.078125 
Q 12.546875 16.0625 16.75 11.0625 
Q 20.953125 6.0625 26.8125 6.0625 
Q 32.421875 6.0625 36.46875 10.8125 
Q 40.53125 15.578125 40.53125 25.296875 
Q 40.53125 35.640625 36.25 40.859375 
Q 31.984375 46.09375 26.21875 46.09375 
Q 20.515625 46.09375 16.53125 41.234375 
Q 12.546875 36.375 12.546875 26.078125 
z
" id="ArialMT-71"/>
      <path d="M 6.59375 0 
L 6.59375 51.859375 
L 14.5 51.859375 
L 14.5 44.484375 
Q 20.21875 53.03125 31 53.03125 
Q 35.6875 53.03125 39.625 51.34375 
Q 43.5625 49.65625 45.515625 46.921875 
Q 47.46875 44.1875 48.25 40.4375 
Q 48.734375 37.984375 48.734375 31.890625 
L 48.734375 0 
L 39.9375 0 
L 39.9375 31.546875 
Q 39.9375 36.921875 38.90625 39.578125 
Q 37.890625 42.234375 35.28125 43.8125 
Q 32.671875 45.40625 29.15625 45.40625 
Q 23.53125 45.40625 19.453125 41.84375 
Q 15.375 38.28125 15.375 28.328125 
L 15.375 0 
z
" id="ArialMT-6e"/>
      <path d="M 40.4375 19 
L 49.078125 17.875 
Q 47.65625 8.9375 41.8125 3.875 
Q 35.984375 -1.171875 27.484375 -1.171875 
Q 16.84375 -1.171875 10.375 5.78125 
Q 3.90625 12.75 3.90625 25.734375 
Q 3.90625 34.125 6.6875 40.421875 
Q 9.46875 46.734375 15.15625 49.875 
Q 20.84375 53.03125 27.546875 53.03125 
Q 35.984375 53.03125 41.359375 48.75 
Q 46.734375 44.484375 48.25 36.625 
L 39.703125 35.296875 
Q 38.484375 40.53125 35.375 43.15625 
Q 32.28125 45.796875 27.875 45.796875 
Q 21.234375 45.796875 17.078125 41.03125 
Q 12.9375 36.28125 12.9375 25.984375 
Q 12.9375 15.53125 16.9375 10.796875 
Q 20.953125 6.0625 27.390625 6.0625 
Q 32.5625 6.0625 36.03125 9.234375 
Q 39.5 12.40625 40.4375 19 
z
" id="ArialMT-63"/>
      <path d="M 6.203125 -19.96875 
L 5.21875 -11.71875 
Q 8.109375 -12.5 10.25 -12.5 
Q 13.1875 -12.5 14.9375 -11.515625 
Q 16.703125 -10.546875 17.828125 -8.796875 
Q 18.65625 -7.46875 20.515625 -2.25 
Q 20.75 -1.515625 21.296875 -0.09375 
L 1.609375 51.859375 
L 11.078125 51.859375 
L 21.875 21.828125 
Q 23.96875 16.109375 25.640625 9.8125 
Q 27.15625 15.875 29.25 21.625 
L 40.328125 51.859375 
L 49.125 51.859375 
L 29.390625 -0.875 
Q 26.21875 -9.421875 24.46875 -12.640625 
Q 22.125 -17 19.09375 -19.015625 
Q 16.0625 -21.046875 11.859375 -21.046875 
Q 9.328125 -21.046875 6.203125 -19.96875 
z
" id="ArialMT-79"/>
     </defs>
     <g style="fill:#262626;" transform="translate(22.3875 306.060223)rotate(-90)scale(0.16 -0.16)">
      <use xlink:href="#ArialMT-46"/>
      <use x="61.083984" xlink:href="#ArialMT-72"/>
      <use x="94.384766" xlink:href="#ArialMT-65"/>
      <use x="150" xlink:href="#ArialMT-71"/>
      <use x="205.615234" xlink:href="#ArialMT-75"/>
      <use x="261.230469" xlink:href="#ArialMT-65"/>
      <use x="316.845703" xlink:href="#ArialMT-6e"/>
      <use x="372.460938" xlink:href="#ArialMT-63"/>
      <use x="422.460938" xlink:href="#ArialMT-79"/>
     </g>
    </g>
   </g>
   <g id="patch_3">
    <path clip-path="url(#p841998de09)" d="M 114.8965 523.184375 
L 130.908438 523.184375 
L 130.908438 502.952795 
L 114.8965 502.952795 
z
" style="fill:#4c72b0;stroke:#000000;stroke-linejoin:miter;stroke-width:0.3;"/>
   </g>
   <g id="patch_4">
    <path clip-path="url(#p841998de09)" d="M 130.908438 523.184375 
L 146.920376 523.184375 
L 146.920376 523.184375 
L 130.908438 523.184375 
z
" style="fill:#4c72b0;stroke:#000000;stroke-linejoin:miter;stroke-width:0.3;"/>
   </g>
   <g id="patch_5">
    <path clip-path="url(#p841998de09)" d="M 146.920376 523.184375 
L 162.932314 523.184375 
L 162.932314 523.184375 
L 146.920376 523.184375 
z
" style="fill:#4c72b0;stroke:#000000;stroke-linejoin:miter;stroke-width:0.3;"/>
   </g>
   <g id="patch_6">
    <path clip-path="url(#p841998de09)" d="M 162.932314 523.184375 
L 178.944252 523.184375 
L 178.944252 523.184375 
L 162.932314 523.184375 
z
" style="fill:#4c72b0;stroke:#000000;stroke-linejoin:miter;stroke-width:0.3;"/>
   </g>
   <g id="patch_7">
    <path clip-path="url(#p841998de09)" d="M 178.944252 523.184375 
L 194.95619 523.184375 
L 194.95619 502.952795 
L 178.944252 502.952795 
z
" style="fill:#4c72b0;stroke:#000000;stroke-linejoin:miter;stroke-width:0.3;"/>
   </g>
   <g id="patch_8">
    <path clip-path="url(#p841998de09)" d="M 194.95619 523.184375 
L 210.968128 523.184375 
L 210.968128 502.952795 
L 194.95619 502.952795 
z
" style="fill:#4c72b0;stroke:#000000;stroke-linejoin:miter;stroke-width:0.3;"/>
   </g>
   <g id="patch_9">
    <path clip-path="url(#p841998de09)" d="M 210.968128 523.184375 
L 226.980066 523.184375 
L 226.980066 502.952795 
L 210.968128 502.952795 
z
" style="fill:#4c72b0;stroke:#000000;stroke-linejoin:miter;stroke-width:0.3;"/>
   </g>
   <g id="patch_10">
    <path clip-path="url(#p841998de09)" d="M 226.980066 523.184375 
L 242.992004 523.184375 
L 242.992004 523.184375 
L 226.980066 523.184375 
z
" style="fill:#4c72b0;stroke:#000000;stroke-linejoin:miter;stroke-width:0.3;"/>
   </g>
   <g id="patch_11">
    <path clip-path="url(#p841998de09)" d="M 242.992004 523.184375 
L 259.003942 523.184375 
L 259.003942 523.184375 
L 242.992004 523.184375 
z
" style="fill:#4c72b0;stroke:#000000;stroke-linejoin:miter;stroke-width:0.3;"/>
   </g>
   <g id="patch_12">
    <path clip-path="url(#p841998de09)" d="M 259.003942 523.184375 
L 275.01588 523.184375 
L 275.01588 502.952795 
L 259.003942 502.952795 
z
" style="fill:#4c72b0;stroke:#000000;stroke-linejoin:miter;stroke-width:0.3;"/>
   </g>
   <g id="patch_13">
    <path clip-path="url(#p841998de09)" d="M 275.01588 523.184375 
L 291.027818 523.184375 
L 291.027818 502.952795 
L 275.01588 502.952795 
z
" style="fill:#4c72b0;stroke:#000000;stroke-linejoin:miter;stroke-width:0.3;"/>
   </g>
   <g id="patch_14">
    <path clip-path="url(#p841998de09)" d="M 291.027818 523.184375 
L 307.039756 523.184375 
L 307.039756 502.952795 
L 291.027818 502.952795 
z
" style="fill:#4c72b0;stroke:#000000;stroke-linejoin:miter;stroke-width:0.3;"/>
   </g>
   <g id="patch_15">
    <path clip-path="url(#p841998de09)" d="M 307.039756 523.184375 
L 323.051694 523.184375 
L 323.051694 523.184375 
L 307.039756 523.184375 
z
" style="fill:#4c72b0;stroke:#000000;stroke-linejoin:miter;stroke-width:0.3;"/>
   </g>
   <g id="patch_16">
    <path clip-path="url(#p841998de09)" d="M 323.051694 523.184375 
L 339.063632 523.184375 
L 339.063632 482.721216 
L 323.051694 482.721216 
z
" style="fill:#4c72b0;stroke:#000000;stroke-linejoin:miter;stroke-width:0.3;"/>
   </g>
   <g id="patch_17">
    <path clip-path="url(#p841998de09)" d="M 339.063632 523.184375 
L 355.07557 523.184375 
L 355.07557 502.952795 
L 339.063632 502.952795 
z
" style="fill:#4c72b0;stroke:#000000;stroke-linejoin:miter;stroke-width:0.3;"/>
   </g>
   <g id="patch_18">
    <path clip-path="url(#p841998de09)" d="M 355.07557 523.184375 
L 371.087508 523.184375 
L 371.087508 401.794898 
L 355.07557 401.794898 
z
" style="fill:#4c72b0;stroke:#000000;stroke-linejoin:miter;stroke-width:0.3;"/>
   </g>
   <g id="patch_19">
    <path clip-path="url(#p841998de09)" d="M 371.087508 523.184375 
L 387.099446 523.184375 
L 387.099446 401.794898 
L 371.087508 401.794898 
z
" style="fill:#4c72b0;stroke:#000000;stroke-linejoin:miter;stroke-width:0.3;"/>
   </g>
   <g id="patch_20">
    <path clip-path="url(#p841998de09)" d="M 387.099446 523.184375 
L 403.111384 523.184375 
L 403.111384 381.563318 
L 387.099446 381.563318 
z
" style="fill:#4c72b0;stroke:#000000;stroke-linejoin:miter;stroke-width:0.3;"/>
   </g>
   <g id="patch_21">
    <path clip-path="url(#p841998de09)" d="M 403.111384 523.184375 
L 419.123322 523.184375 
L 419.123322 462.489636 
L 403.111384 462.489636 
z
" style="fill:#4c72b0;stroke:#000000;stroke-linejoin:miter;stroke-width:0.3;"/>
   </g>
   <g id="patch_22">
    <path clip-path="url(#p841998de09)" d="M 419.123322 523.184375 
L 435.13526 523.184375 
L 435.13526 300.637 
L 419.123322 300.637 
z
" style="fill:#4c72b0;stroke:#000000;stroke-linejoin:miter;stroke-width:0.3;"/>
   </g>
   <g id="patch_23">
    <path clip-path="url(#p841998de09)" d="M 435.13526 523.184375 
L 451.147198 523.184375 
L 451.147198 361.331739 
L 435.13526 361.331739 
z
" style="fill:#4c72b0;stroke:#000000;stroke-linejoin:miter;stroke-width:0.3;"/>
   </g>
   <g id="patch_24">
    <path clip-path="url(#p841998de09)" d="M 451.147198 523.184375 
L 467.159136 523.184375 
L 467.159136 422.026477 
L 451.147198 422.026477 
z
" style="fill:#4c72b0;stroke:#000000;stroke-linejoin:miter;stroke-width:0.3;"/>
   </g>
   <g id="patch_25">
    <path clip-path="url(#p841998de09)" d="M 467.159136 523.184375 
L 483.171074 523.184375 
L 483.171074 401.794898 
L 467.159136 401.794898 
z
" style="fill:#4c72b0;stroke:#000000;stroke-linejoin:miter;stroke-width:0.3;"/>
   </g>
   <g id="patch_26">
    <path clip-path="url(#p841998de09)" d="M 483.171074 523.184375 
L 499.183012 523.184375 
L 499.183012 300.637 
L 483.171074 300.637 
z
" style="fill:#4c72b0;stroke:#000000;stroke-linejoin:miter;stroke-width:0.3;"/>
   </g>
   <g id="patch_27">
    <path clip-path="url(#p841998de09)" d="M 499.183012 523.184375 
L 515.19495 523.184375 
L 515.19495 422.026477 
L 499.183012 422.026477 
z
" style="fill:#4c72b0;stroke:#000000;stroke-linejoin:miter;stroke-width:0.3;"/>
   </g>
   <g id="patch_28">
    <path clip-path="url(#p841998de09)" d="M 515.19495 523.184375 
L 531.206888 523.184375 
L 531.206888 381.563318 
L 515.19495 381.563318 
z
" style="fill:#4c72b0;stroke:#000000;stroke-linejoin:miter;stroke-width:0.3;"/>
   </g>
   <g id="patch_29">
    <path clip-path="url(#p841998de09)" d="M 531.206888 523.184375 
L 547.218826 523.184375 
L 547.218826 422.026477 
L 531.206888 422.026477 
z
" style="fill:#4c72b0;stroke:#000000;stroke-linejoin:miter;stroke-width:0.3;"/>
   </g>
   <g id="patch_30">
    <path clip-path="url(#p841998de09)" d="M 547.218826 523.184375 
L 563.230764 523.184375 
L 563.230764 361.331739 
L 547.218826 361.331739 
z
" style="fill:#4c72b0;stroke:#000000;stroke-linejoin:miter;stroke-width:0.3;"/>
   </g>
   <g id="patch_31">
    <path clip-path="url(#p841998de09)" d="M 563.230764 523.184375 
L 579.242702 523.184375 
L 579.242702 300.637 
L 563.230764 300.637 
z
" style="fill:#4c72b0;stroke:#000000;stroke-linejoin:miter;stroke-width:0.3;"/>
   </g>
   <g id="patch_32">
    <path clip-path="url(#p841998de09)" d="M 579.242702 523.184375 
L 595.25464 523.184375 
L 595.25464 280.405421 
L 579.242702 280.405421 
z
" style="fill:#4c72b0;stroke:#000000;stroke-linejoin:miter;stroke-width:0.3;"/>
   </g>
   <g id="patch_33">
    <path clip-path="url(#p841998de09)" d="M 595.25464 523.184375 
L 611.266578 523.184375 
L 611.266578 260.173841 
L 595.25464 260.173841 
z
" style="fill:#4c72b0;stroke:#000000;stroke-linejoin:miter;stroke-width:0.3;"/>
   </g>
   <g id="patch_34">
    <path clip-path="url(#p841998de09)" d="M 611.266578 523.184375 
L 627.278516 523.184375 
L 627.278516 361.331739 
L 611.266578 361.331739 
z
" style="fill:#4c72b0;stroke:#000000;stroke-linejoin:miter;stroke-width:0.3;"/>
   </g>
   <g id="patch_35">
    <path clip-path="url(#p841998de09)" d="M 627.278516 523.184375 
L 643.290454 523.184375 
L 643.290454 260.173841 
L 627.278516 260.173841 
z
" style="fill:#4c72b0;stroke:#000000;stroke-linejoin:miter;stroke-width:0.3;"/>
   </g>
   <g id="patch_36">
    <path clip-path="url(#p841998de09)" d="M 643.290454 523.184375 
L 659.302392 523.184375 
L 659.302392 341.100159 
L 643.290454 341.100159 
z
" style="fill:#4c72b0;stroke:#000000;stroke-linejoin:miter;stroke-width:0.3;"/>
   </g>
   <g id="patch_37">
    <path clip-path="url(#p841998de09)" d="M 659.302392 523.184375 
L 675.31433 523.184375 
L 675.31433 219.710682 
L 659.302392 219.710682 
z
" style="fill:#4c72b0;stroke:#000000;stroke-linejoin:miter;stroke-width:0.3;"/>
   </g>
   <g id="patch_38">
    <path clip-path="url(#p841998de09)" d="M 675.31433 523.184375 
L 691.326268 523.184375 
L 691.326268 118.552785 
L 675.31433 118.552785 
z
" style="fill:#4c72b0;stroke:#000000;stroke-linejoin:miter;stroke-width:0.3;"/>
   </g>
   <g id="patch_39">
    <path clip-path="url(#p841998de09)" d="M 691.326268 523.184375 
L 707.338206 523.184375 
L 707.338206 179.247523 
L 691.326268 179.247523 
z
" style="fill:#4c72b0;stroke:#000000;stroke-linejoin:miter;stroke-width:0.3;"/>
   </g>
   <g id="patch_40">
    <path clip-path="url(#p841998de09)" d="M 707.338206 523.184375 
L 723.350144 523.184375 
L 723.350144 239.942262 
L 707.338206 239.942262 
z
" style="fill:#4c72b0;stroke:#000000;stroke-linejoin:miter;stroke-width:0.3;"/>
   </g>
   <g id="patch_41">
    <path clip-path="url(#p841998de09)" d="M 723.350144 523.184375 
L 739.362082 523.184375 
L 739.362082 199.479103 
L 723.350144 199.479103 
z
" style="fill:#4c72b0;stroke:#000000;stroke-linejoin:miter;stroke-width:0.3;"/>
   </g>
   <g id="patch_42">
    <path clip-path="url(#p841998de09)" d="M 739.362082 523.184375 
L 755.37402 523.184375 
L 755.37402 98.321205 
L 739.362082 98.321205 
z
" style="fill:#4c72b0;stroke:#000000;stroke-linejoin:miter;stroke-width:0.3;"/>
   </g>
   <g id="patch_43">
    <path clip-path="url(#p841998de09)" d="M 755.37402 523.184375 
L 771.385958 523.184375 
L 771.385958 159.015944 
L 755.37402 159.015944 
z
" style="fill:#4c72b0;stroke:#000000;stroke-linejoin:miter;stroke-width:0.3;"/>
   </g>
   <g id="patch_44">
    <path clip-path="url(#p841998de09)" d="M 771.385958 523.184375 
L 787.397896 523.184375 
L 787.397896 37.626467 
L 771.385958 37.626467 
z
" style="fill:#4c72b0;stroke:#000000;stroke-linejoin:miter;stroke-width:0.3;"/>
   </g>
   <g id="patch_45">
    <path clip-path="url(#p841998de09)" d="M 787.397896 523.184375 
L 803.409834 523.184375 
L 803.409834 159.015944 
L 787.397896 159.015944 
z
" style="fill:#4c72b0;stroke:#000000;stroke-linejoin:miter;stroke-width:0.3;"/>
   </g>
   <g id="patch_46">
    <path clip-path="url(#p841998de09)" d="M 803.409834 523.184375 
L 819.421772 523.184375 
L 819.421772 260.173841 
L 803.409834 260.173841 
z
" style="fill:#4c72b0;stroke:#000000;stroke-linejoin:miter;stroke-width:0.3;"/>
   </g>
   <g id="patch_47">
    <path clip-path="url(#p841998de09)" d="M 819.421772 523.184375 
L 835.43371 523.184375 
L 835.43371 401.794898 
L 819.421772 401.794898 
z
" style="fill:#4c72b0;stroke:#000000;stroke-linejoin:miter;stroke-width:0.3;"/>
   </g>
   <g id="patch_48">
    <path clip-path="url(#p841998de09)" d="M 835.43371 523.184375 
L 851.445648 523.184375 
L 851.445648 381.563318 
L 835.43371 381.563318 
z
" style="fill:#4c72b0;stroke:#000000;stroke-linejoin:miter;stroke-width:0.3;"/>
   </g>
   <g id="patch_49">
    <path clip-path="url(#p841998de09)" d="M 851.445648 523.184375 
L 867.457586 523.184375 
L 867.457586 401.794898 
L 851.445648 401.794898 
z
" style="fill:#4c72b0;stroke:#000000;stroke-linejoin:miter;stroke-width:0.3;"/>
   </g>
   <g id="patch_50">
    <path clip-path="url(#p841998de09)" d="M 867.457586 523.184375 
L 883.469524 523.184375 
L 883.469524 401.794898 
L 867.457586 401.794898 
z
" style="fill:#4c72b0;stroke:#000000;stroke-linejoin:miter;stroke-width:0.3;"/>
   </g>
   <g id="patch_51">
    <path clip-path="url(#p841998de09)" d="M 883.469524 523.184375 
L 899.481462 523.184375 
L 899.481462 523.184375 
L 883.469524 523.184375 
z
" style="fill:#4c72b0;stroke:#000000;stroke-linejoin:miter;stroke-width:0.3;"/>
   </g>
   <g id="patch_52">
    <path clip-path="url(#p841998de09)" d="M 899.481462 523.184375 
L 915.4934 523.184375 
L 915.4934 502.952795 
L 899.481462 502.952795 
z
" style="fill:#4c72b0;stroke:#000000;stroke-linejoin:miter;stroke-width:0.3;"/>
   </g>
   <g id="patch_53">
    <path d="M 54.55 523.184375 
L 54.55 13.348571 
" style="fill:none;"/>
   </g>
   <g id="patch_54">
    <path d="M 1060.325 523.184375 
L 1060.325 13.348571 
" style="fill:none;"/>
   </g>
   <g id="patch_55">
    <path d="M 54.55 523.184375 
L 1060.325 523.184375 
" style="fill:none;"/>
   </g>
   <g id="patch_56">
    <path d="M 54.55 13.348571 
L 1060.325 13.348571 
" style="fill:none;"/>
   </g>
  </g>
 </g>
 <defs>
  <clipPath id="p841998de09">
   <rect height="509.835804" width="1005.775" x="54.55" y="13.348571"/>
  </clipPath>
 </defs>
</svg>
