<?xml version="1.0" encoding="utf-8" standalone="no"?>
<!DOCTYPE svg PUBLIC "-//W3C//DTD SVG 1.1//EN"
  "http://www.w3.org/Graphics/SVG/1.1/DTD/svg11.dtd">
<!-- Created with matplotlib (http://matplotlib.org/) -->
<svg height="576pt" version="1.1" viewBox="0 0 1080 576" width="1080pt" xmlns="http://www.w3.org/2000/svg" xmlns:xlink="http://www.w3.org/1999/xlink">
 <defs>
  <style type="text/css">
*{stroke-linecap:butt;stroke-linejoin:round;}
  </style>
 </defs>
 <g id="figure_1">
  <g id="patch_1">
   <path d="M 0 576 
L 1080 576 
L 1080 0 
L 0 0 
z
" style="fill:#ffffff;"/>
  </g>
  <g id="axes_1">
   <g id="patch_2">
    <path d="M 135 504 
L 972 504 
L 972 69.12 
L 135 69.12 
z
" style="fill:#eaeaf2;"/>
   </g>
   <g id="matplotlib.axis_1">
    <g id="xtick_1">
     <g id="line2d_1">
      <path clip-path="url(#p1bcfec2182)" d="M 189.768731 504 
L 189.768731 69.12 
" style="fill:none;stroke:#ffffff;stroke-linecap:round;"/>
     </g>
     <g id="line2d_2"/>
     <g id="text_1">
      <!-- Sep -->
      <defs>
       <path d="M 4.5 23 
L 13.421875 23.78125 
Q 14.0625 18.40625 16.375 14.96875 
Q 18.703125 11.53125 23.578125 9.40625 
Q 28.46875 7.28125 34.578125 7.28125 
Q 39.984375 7.28125 44.140625 8.890625 
Q 48.296875 10.5 50.3125 13.296875 
Q 52.34375 16.109375 52.34375 19.4375 
Q 52.34375 22.796875 50.390625 25.3125 
Q 48.4375 27.828125 43.953125 29.546875 
Q 41.0625 30.671875 31.203125 33.03125 
Q 21.34375 35.40625 17.390625 37.5 
Q 12.25 40.1875 9.734375 44.15625 
Q 7.234375 48.140625 7.234375 53.078125 
Q 7.234375 58.5 10.296875 63.203125 
Q 13.375 67.921875 19.28125 70.359375 
Q 25.203125 72.796875 32.421875 72.796875 
Q 40.375 72.796875 46.453125 70.234375 
Q 52.546875 67.671875 55.8125 62.6875 
Q 59.078125 57.71875 59.328125 51.421875 
L 50.25 50.734375 
Q 49.515625 57.515625 45.28125 60.984375 
Q 41.0625 64.453125 32.8125 64.453125 
Q 24.21875 64.453125 20.28125 61.296875 
Q 16.359375 58.15625 16.359375 53.71875 
Q 16.359375 49.859375 19.140625 47.359375 
Q 21.875 44.875 33.421875 42.265625 
Q 44.96875 39.65625 49.265625 37.703125 
Q 55.515625 34.8125 58.484375 30.390625 
Q 61.46875 25.984375 61.46875 20.21875 
Q 61.46875 14.5 58.203125 9.4375 
Q 54.9375 4.390625 48.796875 1.578125 
Q 42.671875 -1.21875 35.015625 -1.21875 
Q 25.296875 -1.21875 18.71875 1.609375 
Q 12.15625 4.4375 8.421875 10.125 
Q 4.6875 15.828125 4.5 23 
z
" id="ArialMT-53"/>
       <path d="M 42.09375 16.703125 
L 51.171875 15.578125 
Q 49.03125 7.625 43.21875 3.21875 
Q 37.40625 -1.171875 28.375 -1.171875 
Q 17 -1.171875 10.328125 5.828125 
Q 3.65625 12.84375 3.65625 25.484375 
Q 3.65625 38.578125 10.390625 45.796875 
Q 17.140625 53.03125 27.875 53.03125 
Q 38.28125 53.03125 44.875 45.953125 
Q 51.46875 38.875 51.46875 26.03125 
Q 51.46875 25.25 51.421875 23.6875 
L 12.75 23.6875 
Q 13.234375 15.140625 17.578125 10.59375 
Q 21.921875 6.0625 28.421875 6.0625 
Q 33.25 6.0625 36.671875 8.59375 
Q 40.09375 11.140625 42.09375 16.703125 
z
M 13.234375 30.90625 
L 42.1875 30.90625 
Q 41.609375 37.453125 38.875 40.71875 
Q 34.671875 45.796875 27.984375 45.796875 
Q 21.921875 45.796875 17.796875 41.75 
Q 13.671875 37.703125 13.234375 30.90625 
z
" id="ArialMT-65"/>
       <path d="M 6.59375 -19.875 
L 6.59375 51.859375 
L 14.59375 51.859375 
L 14.59375 45.125 
Q 17.4375 49.078125 21 51.046875 
Q 24.5625 53.03125 29.640625 53.03125 
Q 36.28125 53.03125 41.359375 49.609375 
Q 46.4375 46.1875 49.015625 39.953125 
Q 51.609375 33.734375 51.609375 26.3125 
Q 51.609375 18.359375 48.75 11.984375 
Q 45.90625 5.609375 40.453125 2.21875 
Q 35.015625 -1.171875 29 -1.171875 
Q 24.609375 -1.171875 21.109375 0.6875 
Q 17.625 2.546875 15.375 5.375 
L 15.375 -19.875 
z
M 14.546875 25.640625 
Q 14.546875 15.625 18.59375 10.84375 
Q 22.65625 6.0625 28.421875 6.0625 
Q 34.28125 6.0625 38.453125 11.015625 
Q 42.625 15.96875 42.625 26.375 
Q 42.625 36.28125 38.546875 41.203125 
Q 34.46875 46.140625 28.8125 46.140625 
Q 23.1875 46.140625 18.859375 40.890625 
Q 14.546875 35.640625 14.546875 25.640625 
z
" id="ArialMT-70"/>
      </defs>
      <g style="fill:#262626;" transform="translate(175.534981 522.6475)scale(0.16 -0.16)">
       <use xlink:href="#ArialMT-53"/>
       <use x="66.699219" xlink:href="#ArialMT-65"/>
       <use x="122.314453" xlink:href="#ArialMT-70"/>
      </g>
     </g>
    </g>
    <g id="xtick_2">
     <g id="line2d_3">
      <path clip-path="url(#p1bcfec2182)" d="M 252.481019 504 
L 252.481019 69.12 
" style="fill:none;stroke:#ffffff;stroke-linecap:round;"/>
     </g>
     <g id="line2d_4"/>
     <g id="text_2">
      <!-- Oct -->
      <defs>
       <path d="M 4.828125 34.859375 
Q 4.828125 52.6875 14.390625 62.765625 
Q 23.96875 72.859375 39.109375 72.859375 
Q 49.03125 72.859375 56.984375 68.109375 
Q 64.9375 63.375 69.109375 54.90625 
Q 73.296875 46.4375 73.296875 35.6875 
Q 73.296875 24.8125 68.890625 16.21875 
Q 64.5 7.625 56.4375 3.203125 
Q 48.390625 -1.21875 39.0625 -1.21875 
Q 28.953125 -1.21875 20.984375 3.65625 
Q 13.03125 8.546875 8.921875 16.984375 
Q 4.828125 25.4375 4.828125 34.859375 
z
M 14.59375 34.71875 
Q 14.59375 21.78125 21.546875 14.328125 
Q 28.515625 6.890625 39.015625 6.890625 
Q 49.703125 6.890625 56.609375 14.40625 
Q 63.53125 21.921875 63.53125 35.75 
Q 63.53125 44.484375 60.578125 51 
Q 57.625 57.515625 51.921875 61.109375 
Q 46.234375 64.703125 39.15625 64.703125 
Q 29.109375 64.703125 21.84375 57.78125 
Q 14.59375 50.875 14.59375 34.71875 
z
" id="ArialMT-4f"/>
       <path d="M 40.4375 19 
L 49.078125 17.875 
Q 47.65625 8.9375 41.8125 3.875 
Q 35.984375 -1.171875 27.484375 -1.171875 
Q 16.84375 -1.171875 10.375 5.78125 
Q 3.90625 12.75 3.90625 25.734375 
Q 3.90625 34.125 6.6875 40.421875 
Q 9.46875 46.734375 15.15625 49.875 
Q 20.84375 53.03125 27.546875 53.03125 
Q 35.984375 53.03125 41.359375 48.75 
Q 46.734375 44.484375 48.25 36.625 
L 39.703125 35.296875 
Q 38.484375 40.53125 35.375 43.15625 
Q 32.28125 45.796875 27.875 45.796875 
Q 21.234375 45.796875 17.078125 41.03125 
Q 12.9375 36.28125 12.9375 25.984375 
Q 12.9375 15.53125 16.9375 10.796875 
Q 20.953125 6.0625 27.390625 6.0625 
Q 32.5625 6.0625 36.03125 9.234375 
Q 39.5 12.40625 40.4375 19 
z
" id="ArialMT-63"/>
       <path d="M 25.78125 7.859375 
L 27.046875 0.09375 
Q 23.34375 -0.6875 20.40625 -0.6875 
Q 15.625 -0.6875 12.984375 0.828125 
Q 10.359375 2.34375 9.28125 4.8125 
Q 8.203125 7.28125 8.203125 15.1875 
L 8.203125 45.015625 
L 1.765625 45.015625 
L 1.765625 51.859375 
L 8.203125 51.859375 
L 8.203125 64.703125 
L 16.9375 69.96875 
L 16.9375 51.859375 
L 25.78125 51.859375 
L 25.78125 45.015625 
L 16.9375 45.015625 
L 16.9375 14.703125 
Q 16.9375 10.9375 17.40625 9.859375 
Q 17.875 8.796875 18.921875 8.15625 
Q 19.96875 7.515625 21.921875 7.515625 
Q 23.390625 7.515625 25.78125 7.859375 
z
" id="ArialMT-74"/>
      </defs>
      <g style="fill:#262626;" transform="translate(240.036019 522.4525)scale(0.16 -0.16)">
       <use xlink:href="#ArialMT-4f"/>
       <use x="77.783203" xlink:href="#ArialMT-63"/>
       <use x="127.783203" xlink:href="#ArialMT-74"/>
      </g>
     </g>
    </g>
    <g id="xtick_3">
     <g id="line2d_5">
      <path clip-path="url(#p1bcfec2182)" d="M 317.283716 504 
L 317.283716 69.12 
" style="fill:none;stroke:#ffffff;stroke-linecap:round;"/>
     </g>
     <g id="line2d_6"/>
     <g id="text_3">
      <!-- Nov -->
      <defs>
       <path d="M 7.625 0 
L 7.625 71.578125 
L 17.328125 71.578125 
L 54.9375 15.375 
L 54.9375 71.578125 
L 64.015625 71.578125 
L 64.015625 0 
L 54.296875 0 
L 16.703125 56.25 
L 16.703125 0 
z
" id="ArialMT-4e"/>
       <path d="M 3.328125 25.921875 
Q 3.328125 40.328125 11.328125 47.265625 
Q 18.015625 53.03125 27.640625 53.03125 
Q 38.328125 53.03125 45.109375 46.015625 
Q 51.90625 39.015625 51.90625 26.65625 
Q 51.90625 16.65625 48.90625 10.90625 
Q 45.90625 5.171875 40.15625 2 
Q 34.421875 -1.171875 27.640625 -1.171875 
Q 16.75 -1.171875 10.03125 5.8125 
Q 3.328125 12.796875 3.328125 25.921875 
z
M 12.359375 25.921875 
Q 12.359375 15.96875 16.703125 11.015625 
Q 21.046875 6.0625 27.640625 6.0625 
Q 34.1875 6.0625 38.53125 11.03125 
Q 42.875 16.015625 42.875 26.21875 
Q 42.875 35.84375 38.5 40.796875 
Q 34.125 45.75 27.640625 45.75 
Q 21.046875 45.75 16.703125 40.8125 
Q 12.359375 35.890625 12.359375 25.921875 
z
" id="ArialMT-6f"/>
       <path d="M 21 0 
L 1.265625 51.859375 
L 10.546875 51.859375 
L 21.6875 20.796875 
Q 23.484375 15.765625 25 10.359375 
Q 26.171875 14.453125 28.265625 20.21875 
L 39.796875 51.859375 
L 48.828125 51.859375 
L 29.203125 0 
z
" id="ArialMT-76"/>
      </defs>
      <g style="fill:#262626;" transform="translate(303.057466 522.4525)scale(0.16 -0.16)">
       <use xlink:href="#ArialMT-4e"/>
       <use x="72.216797" xlink:href="#ArialMT-6f"/>
       <use x="127.832031" xlink:href="#ArialMT-76"/>
      </g>
     </g>
    </g>
    <g id="xtick_4">
     <g id="line2d_7">
      <path clip-path="url(#p1bcfec2182)" d="M 379.996004 504 
L 379.996004 69.12 
" style="fill:none;stroke:#ffffff;stroke-linecap:round;"/>
     </g>
     <g id="line2d_8"/>
     <g id="text_4">
      <!-- Dec -->
      <defs>
       <path d="M 7.71875 0 
L 7.71875 71.578125 
L 32.375 71.578125 
Q 40.71875 71.578125 45.125 70.5625 
Q 51.265625 69.140625 55.609375 65.4375 
Q 61.28125 60.640625 64.078125 53.1875 
Q 66.890625 45.75 66.890625 36.1875 
Q 66.890625 28.03125 64.984375 21.734375 
Q 63.09375 15.4375 60.109375 11.296875 
Q 57.125 7.171875 53.578125 4.796875 
Q 50.046875 2.4375 45.046875 1.21875 
Q 40.046875 0 33.546875 0 
z
M 17.1875 8.453125 
L 32.46875 8.453125 
Q 39.546875 8.453125 43.578125 9.765625 
Q 47.609375 11.078125 50 13.484375 
Q 53.375 16.84375 55.25 22.53125 
Q 57.125 28.21875 57.125 36.328125 
Q 57.125 47.5625 53.4375 53.59375 
Q 49.75 59.625 44.484375 61.671875 
Q 40.671875 63.140625 32.234375 63.140625 
L 17.1875 63.140625 
z
" id="ArialMT-44"/>
      </defs>
      <g style="fill:#262626;" transform="translate(365.769754 522.4525)scale(0.16 -0.16)">
       <use xlink:href="#ArialMT-44"/>
       <use x="72.216797" xlink:href="#ArialMT-65"/>
       <use x="127.832031" xlink:href="#ArialMT-63"/>
      </g>
     </g>
    </g>
    <g id="xtick_5">
     <g id="line2d_9">
      <path clip-path="url(#p1bcfec2182)" d="M 444.798701 504 
L 444.798701 69.12 
" style="fill:none;stroke:#ffffff;stroke-linecap:round;"/>
     </g>
     <g id="line2d_10"/>
     <g id="text_5">
      <!-- Jan -->
      <defs>
       <path d="M 2.875 20.3125 
L 11.421875 21.484375 
Q 11.765625 13.28125 14.5 10.25 
Q 17.234375 7.234375 22.078125 7.234375 
Q 25.640625 7.234375 28.21875 8.859375 
Q 30.8125 10.5 31.78125 13.296875 
Q 32.765625 16.109375 32.765625 22.265625 
L 32.765625 71.578125 
L 42.234375 71.578125 
L 42.234375 22.796875 
Q 42.234375 13.8125 40.0625 8.875 
Q 37.890625 3.953125 33.171875 1.359375 
Q 28.46875 -1.21875 22.125 -1.21875 
Q 12.703125 -1.21875 7.6875 4.203125 
Q 2.6875 9.625 2.875 20.3125 
z
" id="ArialMT-4a"/>
       <path d="M 40.4375 6.390625 
Q 35.546875 2.25 31.03125 0.53125 
Q 26.515625 -1.171875 21.34375 -1.171875 
Q 12.796875 -1.171875 8.203125 3 
Q 3.609375 7.171875 3.609375 13.671875 
Q 3.609375 17.484375 5.34375 20.625 
Q 7.078125 23.78125 9.890625 25.6875 
Q 12.703125 27.59375 16.21875 28.5625 
Q 18.796875 29.25 24.03125 29.890625 
Q 34.671875 31.15625 39.703125 32.90625 
Q 39.75 34.71875 39.75 35.203125 
Q 39.75 40.578125 37.25 42.78125 
Q 33.890625 45.75 27.25 45.75 
Q 21.046875 45.75 18.09375 43.578125 
Q 15.140625 41.40625 13.71875 35.890625 
L 5.125 37.0625 
Q 6.296875 42.578125 8.984375 45.96875 
Q 11.671875 49.359375 16.75 51.1875 
Q 21.828125 53.03125 28.515625 53.03125 
Q 35.15625 53.03125 39.296875 51.46875 
Q 43.453125 49.90625 45.40625 47.53125 
Q 47.359375 45.171875 48.140625 41.546875 
Q 48.578125 39.3125 48.578125 33.453125 
L 48.578125 21.734375 
Q 48.578125 9.46875 49.140625 6.21875 
Q 49.703125 2.984375 51.375 0 
L 42.1875 0 
Q 40.828125 2.734375 40.4375 6.390625 
z
M 39.703125 26.03125 
Q 34.90625 24.078125 25.34375 22.703125 
Q 19.921875 21.921875 17.671875 20.9375 
Q 15.4375 19.96875 14.203125 18.09375 
Q 12.984375 16.21875 12.984375 13.921875 
Q 12.984375 10.40625 15.640625 8.0625 
Q 18.3125 5.71875 23.4375 5.71875 
Q 28.515625 5.71875 32.46875 7.9375 
Q 36.421875 10.15625 38.28125 14.015625 
Q 39.703125 17 39.703125 22.796875 
z
" id="ArialMT-61"/>
       <path d="M 6.59375 0 
L 6.59375 51.859375 
L 14.5 51.859375 
L 14.5 44.484375 
Q 20.21875 53.03125 31 53.03125 
Q 35.6875 53.03125 39.625 51.34375 
Q 43.5625 49.65625 45.515625 46.921875 
Q 47.46875 44.1875 48.25 40.4375 
Q 48.734375 37.984375 48.734375 31.890625 
L 48.734375 0 
L 39.9375 0 
L 39.9375 31.546875 
Q 39.9375 36.921875 38.90625 39.578125 
Q 37.890625 42.234375 35.28125 43.8125 
Q 32.671875 45.40625 29.15625 45.40625 
Q 23.53125 45.40625 19.453125 41.84375 
Q 15.375 38.28125 15.375 28.328125 
L 15.375 0 
z
" id="ArialMT-6e"/>
      </defs>
      <g style="fill:#262626;" transform="translate(431.901201 522.4525)scale(0.16 -0.16)">
       <use xlink:href="#ArialMT-4a"/>
       <use x="50" xlink:href="#ArialMT-61"/>
       <use x="105.615234" xlink:href="#ArialMT-6e"/>
      </g>
      <!-- 2017 -->
      <defs>
       <path d="M 50.34375 8.453125 
L 50.34375 0 
L 3.03125 0 
Q 2.9375 3.171875 4.046875 6.109375 
Q 5.859375 10.9375 9.828125 15.625 
Q 13.8125 20.3125 21.34375 26.46875 
Q 33.015625 36.03125 37.109375 41.625 
Q 41.21875 47.21875 41.21875 52.203125 
Q 41.21875 57.421875 37.46875 61 
Q 33.734375 64.59375 27.734375 64.59375 
Q 21.390625 64.59375 17.578125 60.78125 
Q 13.765625 56.984375 13.71875 50.25 
L 4.6875 51.171875 
Q 5.609375 61.28125 11.65625 66.578125 
Q 17.71875 71.875 27.9375 71.875 
Q 38.234375 71.875 44.234375 66.15625 
Q 50.25 60.453125 50.25 52 
Q 50.25 47.703125 48.484375 43.546875 
Q 46.734375 39.40625 42.65625 34.8125 
Q 38.578125 30.21875 29.109375 22.21875 
Q 21.1875 15.578125 18.9375 13.203125 
Q 16.703125 10.84375 15.234375 8.453125 
z
" id="ArialMT-32"/>
       <path d="M 4.15625 35.296875 
Q 4.15625 48 6.765625 55.734375 
Q 9.375 63.484375 14.515625 67.671875 
Q 19.671875 71.875 27.484375 71.875 
Q 33.25 71.875 37.59375 69.546875 
Q 41.9375 67.234375 44.765625 62.859375 
Q 47.609375 58.5 49.21875 52.21875 
Q 50.828125 45.953125 50.828125 35.296875 
Q 50.828125 22.703125 48.234375 14.96875 
Q 45.65625 7.234375 40.5 3 
Q 35.359375 -1.21875 27.484375 -1.21875 
Q 17.140625 -1.21875 11.234375 6.203125 
Q 4.15625 15.140625 4.15625 35.296875 
z
M 13.1875 35.296875 
Q 13.1875 17.671875 17.3125 11.828125 
Q 21.4375 6 27.484375 6 
Q 33.546875 6 37.671875 11.859375 
Q 41.796875 17.71875 41.796875 35.296875 
Q 41.796875 52.984375 37.671875 58.78125 
Q 33.546875 64.59375 27.390625 64.59375 
Q 21.34375 64.59375 17.71875 59.46875 
Q 13.1875 52.9375 13.1875 35.296875 
z
" id="ArialMT-30"/>
       <path d="M 37.25 0 
L 28.46875 0 
L 28.46875 56 
Q 25.296875 52.984375 20.140625 49.953125 
Q 14.984375 46.921875 10.890625 45.40625 
L 10.890625 53.90625 
Q 18.265625 57.375 23.78125 62.296875 
Q 29.296875 67.234375 31.59375 71.875 
L 37.25 71.875 
z
" id="ArialMT-31"/>
       <path d="M 4.734375 62.203125 
L 4.734375 70.65625 
L 51.078125 70.65625 
L 51.078125 63.8125 
Q 44.234375 56.546875 37.515625 44.484375 
Q 30.8125 32.421875 27.15625 19.671875 
Q 24.515625 10.6875 23.78125 0 
L 14.75 0 
Q 14.890625 8.453125 18.0625 20.40625 
Q 21.234375 32.375 27.171875 43.484375 
Q 33.109375 54.59375 39.796875 62.203125 
z
" id="ArialMT-37"/>
      </defs>
      <g style="fill:#262626;" transform="translate(427.003701 539.3755)scale(0.16 -0.16)">
       <use xlink:href="#ArialMT-32"/>
       <use x="55.615234" xlink:href="#ArialMT-30"/>
       <use x="111.230469" xlink:href="#ArialMT-31"/>
       <use x="166.845703" xlink:href="#ArialMT-37"/>
      </g>
     </g>
    </g>
    <g id="xtick_6">
     <g id="line2d_11">
      <path clip-path="url(#p1bcfec2182)" d="M 509.601399 504 
L 509.601399 69.12 
" style="fill:none;stroke:#ffffff;stroke-linecap:round;"/>
     </g>
     <g id="line2d_12"/>
     <g id="text_6">
      <!-- Feb -->
      <defs>
       <path d="M 8.203125 0 
L 8.203125 71.578125 
L 56.5 71.578125 
L 56.5 63.140625 
L 17.671875 63.140625 
L 17.671875 40.96875 
L 51.265625 40.96875 
L 51.265625 32.515625 
L 17.671875 32.515625 
L 17.671875 0 
z
" id="ArialMT-46"/>
       <path d="M 14.703125 0 
L 6.546875 0 
L 6.546875 71.578125 
L 15.328125 71.578125 
L 15.328125 46.046875 
Q 20.90625 53.03125 29.546875 53.03125 
Q 34.328125 53.03125 38.59375 51.09375 
Q 42.875 49.171875 45.625 45.671875 
Q 48.390625 42.1875 49.953125 37.25 
Q 51.515625 32.328125 51.515625 26.703125 
Q 51.515625 13.375 44.921875 6.09375 
Q 38.328125 -1.171875 29.109375 -1.171875 
Q 19.921875 -1.171875 14.703125 6.5 
z
M 14.59375 26.3125 
Q 14.59375 17 17.140625 12.84375 
Q 21.296875 6.0625 28.375 6.0625 
Q 34.125 6.0625 38.328125 11.0625 
Q 42.53125 16.0625 42.53125 25.984375 
Q 42.53125 36.140625 38.5 40.96875 
Q 34.46875 45.796875 28.765625 45.796875 
Q 23 45.796875 18.796875 40.796875 
Q 14.59375 35.796875 14.59375 26.3125 
z
" id="ArialMT-62"/>
      </defs>
      <g style="fill:#262626;" transform="translate(495.817649 522.4525)scale(0.16 -0.16)">
       <use xlink:href="#ArialMT-46"/>
       <use x="61.083984" xlink:href="#ArialMT-65"/>
       <use x="116.699219" xlink:href="#ArialMT-62"/>
      </g>
     </g>
    </g>
    <g id="xtick_7">
     <g id="line2d_13">
      <path clip-path="url(#p1bcfec2182)" d="M 568.132867 504 
L 568.132867 69.12 
" style="fill:none;stroke:#ffffff;stroke-linecap:round;"/>
     </g>
     <g id="line2d_14"/>
     <g id="text_7">
      <!-- Mar -->
      <defs>
       <path d="M 7.421875 0 
L 7.421875 71.578125 
L 21.6875 71.578125 
L 38.625 20.90625 
Q 40.96875 13.8125 42.046875 10.296875 
Q 43.265625 14.203125 45.84375 21.78125 
L 62.984375 71.578125 
L 75.734375 71.578125 
L 75.734375 0 
L 66.609375 0 
L 66.609375 59.90625 
L 45.796875 0 
L 37.25 0 
L 16.546875 60.9375 
L 16.546875 0 
z
" id="ArialMT-4d"/>
       <path d="M 6.5 0 
L 6.5 51.859375 
L 14.40625 51.859375 
L 14.40625 44 
Q 17.4375 49.515625 20 51.265625 
Q 22.5625 53.03125 25.640625 53.03125 
Q 30.078125 53.03125 34.671875 50.203125 
L 31.640625 42.046875 
Q 28.421875 43.953125 25.203125 43.953125 
Q 22.3125 43.953125 20.015625 42.21875 
Q 17.71875 40.484375 16.75 37.40625 
Q 15.28125 32.71875 15.28125 27.15625 
L 15.28125 0 
z
" id="ArialMT-72"/>
      </defs>
      <g style="fill:#262626;" transform="translate(554.356617 522.4525)scale(0.16 -0.16)">
       <use xlink:href="#ArialMT-4d"/>
       <use x="83.300781" xlink:href="#ArialMT-61"/>
       <use x="138.916016" xlink:href="#ArialMT-72"/>
      </g>
     </g>
    </g>
    <g id="xtick_8">
     <g id="line2d_15">
      <path clip-path="url(#p1bcfec2182)" d="M 632.935564 504 
L 632.935564 69.12 
" style="fill:none;stroke:#ffffff;stroke-linecap:round;"/>
     </g>
     <g id="line2d_16"/>
     <g id="text_8">
      <!-- Apr -->
      <defs>
       <path d="M -0.140625 0 
L 27.34375 71.578125 
L 37.546875 71.578125 
L 66.84375 0 
L 56.0625 0 
L 47.703125 21.6875 
L 17.78125 21.6875 
L 9.90625 0 
z
M 20.515625 29.390625 
L 44.78125 29.390625 
L 37.3125 49.21875 
Q 33.890625 58.25 32.234375 64.0625 
Q 30.859375 57.171875 28.375 50.390625 
z
" id="ArialMT-41"/>
      </defs>
      <g style="fill:#262626;" transform="translate(620.486814 522.4525)scale(0.16 -0.16)">
       <use xlink:href="#ArialMT-41"/>
       <use x="66.699219" xlink:href="#ArialMT-70"/>
       <use x="122.314453" xlink:href="#ArialMT-72"/>
      </g>
     </g>
    </g>
    <g id="xtick_9">
     <g id="line2d_17">
      <path clip-path="url(#p1bcfec2182)" d="M 695.647852 504 
L 695.647852 69.12 
" style="fill:none;stroke:#ffffff;stroke-linecap:round;"/>
     </g>
     <g id="line2d_18"/>
     <g id="text_9">
      <!-- May -->
      <defs>
       <path d="M 6.203125 -19.96875 
L 5.21875 -11.71875 
Q 8.109375 -12.5 10.25 -12.5 
Q 13.1875 -12.5 14.9375 -11.515625 
Q 16.703125 -10.546875 17.828125 -8.796875 
Q 18.65625 -7.46875 20.515625 -2.25 
Q 20.75 -1.515625 21.296875 -0.09375 
L 1.609375 51.859375 
L 11.078125 51.859375 
L 21.875 21.828125 
Q 23.96875 16.109375 25.640625 9.8125 
Q 27.15625 15.875 29.25 21.625 
L 40.328125 51.859375 
L 49.125 51.859375 
L 29.390625 -0.875 
Q 26.21875 -9.421875 24.46875 -12.640625 
Q 22.125 -17 19.09375 -19.015625 
Q 16.0625 -21.046875 11.859375 -21.046875 
Q 9.328125 -21.046875 6.203125 -19.96875 
z
" id="ArialMT-79"/>
      </defs>
      <g style="fill:#262626;" transform="translate(680.535352 522.4525)scale(0.16 -0.16)">
       <use xlink:href="#ArialMT-4d"/>
       <use x="83.300781" xlink:href="#ArialMT-61"/>
       <use x="138.916016" xlink:href="#ArialMT-79"/>
      </g>
     </g>
    </g>
    <g id="xtick_10">
     <g id="line2d_19">
      <path clip-path="url(#p1bcfec2182)" d="M 760.450549 504 
L 760.450549 69.12 
" style="fill:none;stroke:#ffffff;stroke-linecap:round;"/>
     </g>
     <g id="line2d_20"/>
     <g id="text_10">
      <!-- Jun -->
      <defs>
       <path d="M 40.578125 0 
L 40.578125 7.625 
Q 34.515625 -1.171875 24.125 -1.171875 
Q 19.53125 -1.171875 15.546875 0.578125 
Q 11.578125 2.34375 9.640625 5 
Q 7.71875 7.671875 6.9375 11.53125 
Q 6.390625 14.109375 6.390625 19.734375 
L 6.390625 51.859375 
L 15.1875 51.859375 
L 15.1875 23.09375 
Q 15.1875 16.21875 15.71875 13.8125 
Q 16.546875 10.359375 19.234375 8.375 
Q 21.921875 6.390625 25.875 6.390625 
Q 29.828125 6.390625 33.296875 8.421875 
Q 36.765625 10.453125 38.203125 13.9375 
Q 39.65625 17.4375 39.65625 24.078125 
L 39.65625 51.859375 
L 48.4375 51.859375 
L 48.4375 0 
z
" id="ArialMT-75"/>
      </defs>
      <g style="fill:#262626;" transform="translate(747.553049 522.4525)scale(0.16 -0.16)">
       <use xlink:href="#ArialMT-4a"/>
       <use x="50" xlink:href="#ArialMT-75"/>
       <use x="105.615234" xlink:href="#ArialMT-6e"/>
      </g>
     </g>
    </g>
    <g id="xtick_11">
     <g id="line2d_21">
      <path clip-path="url(#p1bcfec2182)" d="M 823.162837 504 
L 823.162837 69.12 
" style="fill:none;stroke:#ffffff;stroke-linecap:round;"/>
     </g>
     <g id="line2d_22"/>
     <g id="text_11">
      <!-- Jul -->
      <defs>
       <path d="M 6.390625 0 
L 6.390625 71.578125 
L 15.1875 71.578125 
L 15.1875 0 
z
" id="ArialMT-6c"/>
      </defs>
      <g style="fill:#262626;" transform="translate(812.936587 522.4525)scale(0.16 -0.16)">
       <use xlink:href="#ArialMT-4a"/>
       <use x="50" xlink:href="#ArialMT-75"/>
       <use x="105.615234" xlink:href="#ArialMT-6c"/>
      </g>
     </g>
    </g>
    <g id="xtick_12">
     <g id="line2d_23">
      <path clip-path="url(#p1bcfec2182)" d="M 887.965534 504 
L 887.965534 69.12 
" style="fill:none;stroke:#ffffff;stroke-linecap:round;"/>
     </g>
     <g id="line2d_24"/>
     <g id="text_12">
      <!-- Aug -->
      <defs>
       <path d="M 4.984375 -4.296875 
L 13.53125 -5.5625 
Q 14.0625 -9.515625 16.5 -11.328125 
Q 19.78125 -13.765625 25.4375 -13.765625 
Q 31.546875 -13.765625 34.859375 -11.328125 
Q 38.1875 -8.890625 39.359375 -4.5 
Q 40.046875 -1.8125 39.984375 6.78125 
Q 34.234375 0 25.640625 0 
Q 14.9375 0 9.078125 7.71875 
Q 3.21875 15.4375 3.21875 26.21875 
Q 3.21875 33.640625 5.90625 39.90625 
Q 8.59375 46.1875 13.6875 49.609375 
Q 18.796875 53.03125 25.6875 53.03125 
Q 34.859375 53.03125 40.828125 45.609375 
L 40.828125 51.859375 
L 48.921875 51.859375 
L 48.921875 7.03125 
Q 48.921875 -5.078125 46.453125 -10.125 
Q 44 -15.1875 38.640625 -18.109375 
Q 33.296875 -21.046875 25.484375 -21.046875 
Q 16.21875 -21.046875 10.5 -16.875 
Q 4.78125 -12.703125 4.984375 -4.296875 
z
M 12.25 26.859375 
Q 12.25 16.65625 16.296875 11.96875 
Q 20.359375 7.28125 26.46875 7.28125 
Q 32.515625 7.28125 36.609375 11.9375 
Q 40.71875 16.609375 40.71875 26.5625 
Q 40.71875 36.078125 36.5 40.90625 
Q 32.28125 45.75 26.3125 45.75 
Q 20.453125 45.75 16.34375 40.984375 
Q 12.25 36.234375 12.25 26.859375 
z
" id="ArialMT-67"/>
      </defs>
      <g style="fill:#262626;" transform="translate(873.731784 522.4525)scale(0.16 -0.16)">
       <use xlink:href="#ArialMT-41"/>
       <use x="66.699219" xlink:href="#ArialMT-75"/>
       <use x="122.314453" xlink:href="#ArialMT-67"/>
      </g>
     </g>
    </g>
    <g id="xtick_13">
     <g id="line2d_25">
      <path clip-path="url(#p1bcfec2182)" d="M 952.768232 504 
L 952.768232 69.12 
" style="fill:none;stroke:#ffffff;stroke-linecap:round;"/>
     </g>
     <g id="line2d_26"/>
     <g id="text_13">
      <!-- Sep -->
      <g style="fill:#262626;" transform="translate(938.534482 522.6475)scale(0.16 -0.16)">
       <use xlink:href="#ArialMT-53"/>
       <use x="66.699219" xlink:href="#ArialMT-65"/>
       <use x="122.314453" xlink:href="#ArialMT-70"/>
      </g>
     </g>
    </g>
    <g id="xtick_14">
     <g id="line2d_27">
      <path clip-path="url(#p1bcfec2182)" d="M 971.581918 504 
L 971.581918 69.12 
" style="fill:none;stroke:#ffffff;stroke-linecap:round;"/>
     </g>
     <g id="line2d_28"/>
    </g>
    <g id="xtick_15">
     <g id="line2d_29"/>
    </g>
    <g id="xtick_16">
     <g id="line2d_30"/>
    </g>
    <g id="xtick_17">
     <g id="line2d_31"/>
    </g>
    <g id="xtick_18">
     <g id="line2d_32"/>
    </g>
    <g id="xtick_19">
     <g id="line2d_33"/>
    </g>
    <g id="xtick_20">
     <g id="line2d_34"/>
    </g>
    <g id="xtick_21">
     <g id="line2d_35"/>
    </g>
    <g id="xtick_22">
     <g id="line2d_36"/>
    </g>
    <g id="xtick_23">
     <g id="line2d_37"/>
    </g>
    <g id="xtick_24">
     <g id="line2d_38"/>
    </g>
    <g id="xtick_25">
     <g id="line2d_39"/>
    </g>
    <g id="xtick_26">
     <g id="line2d_40"/>
    </g>
    <g id="xtick_27">
     <g id="line2d_41"/>
    </g>
    <g id="xtick_28">
     <g id="line2d_42"/>
    </g>
    <g id="xtick_29">
     <g id="line2d_43"/>
    </g>
    <g id="xtick_30">
     <g id="line2d_44"/>
    </g>
    <g id="xtick_31">
     <g id="line2d_45"/>
    </g>
    <g id="xtick_32">
     <g id="line2d_46"/>
    </g>
    <g id="xtick_33">
     <g id="line2d_47"/>
    </g>
    <g id="xtick_34">
     <g id="line2d_48"/>
    </g>
    <g id="xtick_35">
     <g id="line2d_49"/>
    </g>
    <g id="xtick_36">
     <g id="line2d_50"/>
    </g>
    <g id="xtick_37">
     <g id="line2d_51"/>
    </g>
    <g id="xtick_38">
     <g id="line2d_52"/>
    </g>
    <g id="xtick_39">
     <g id="line2d_53"/>
    </g>
    <g id="xtick_40">
     <g id="line2d_54"/>
    </g>
    <g id="xtick_41">
     <g id="line2d_55"/>
    </g>
    <g id="xtick_42">
     <g id="line2d_56"/>
    </g>
    <g id="xtick_43">
     <g id="line2d_57"/>
    </g>
    <g id="xtick_44">
     <g id="line2d_58"/>
    </g>
    <g id="xtick_45">
     <g id="line2d_59"/>
    </g>
    <g id="xtick_46">
     <g id="line2d_60"/>
    </g>
    <g id="xtick_47">
     <g id="line2d_61"/>
    </g>
    <g id="xtick_48">
     <g id="line2d_62"/>
    </g>
    <g id="xtick_49">
     <g id="line2d_63"/>
    </g>
    <g id="xtick_50">
     <g id="line2d_64"/>
    </g>
    <g id="xtick_51">
     <g id="line2d_65"/>
    </g>
    <g id="xtick_52">
     <g id="line2d_66"/>
    </g>
    <g id="xtick_53">
     <g id="line2d_67"/>
    </g>
    <g id="xtick_54">
     <g id="line2d_68"/>
    </g>
    <g id="xtick_55">
     <g id="line2d_69"/>
    </g>
    <g id="xtick_56">
     <g id="line2d_70"/>
    </g>
    <g id="xtick_57">
     <g id="line2d_71"/>
    </g>
    <g id="xtick_58">
     <g id="line2d_72"/>
    </g>
    <g id="xtick_59">
     <g id="line2d_73"/>
    </g>
    <g id="xtick_60">
     <g id="line2d_74"/>
    </g>
    <g id="xtick_61">
     <g id="line2d_75"/>
    </g>
    <g id="xtick_62">
     <g id="line2d_76"/>
    </g>
    <g id="xtick_63">
     <g id="line2d_77"/>
    </g>
    <g id="xtick_64">
     <g id="line2d_78"/>
    </g>
    <g id="xtick_65">
     <g id="line2d_79"/>
    </g>
    <g id="xtick_66">
     <g id="line2d_80"/>
    </g>
    <g id="xtick_67">
     <g id="line2d_81"/>
    </g>
    <g id="xtick_68">
     <g id="line2d_82"/>
    </g>
    <g id="xtick_69">
     <g id="line2d_83"/>
    </g>
    <g id="xtick_70">
     <g id="line2d_84"/>
    </g>
    <g id="text_14">
     <!-- Date -->
     <g style="fill:#262626;" transform="translate(536.6025 558.008)scale(0.16 -0.16)">
      <use xlink:href="#ArialMT-44"/>
      <use x="72.216797" xlink:href="#ArialMT-61"/>
      <use x="127.832031" xlink:href="#ArialMT-74"/>
      <use x="155.615234" xlink:href="#ArialMT-65"/>
     </g>
    </g>
   </g>
   <g id="matplotlib.axis_2">
    <g id="ytick_1">
     <g id="line2d_85">
      <path clip-path="url(#p1bcfec2182)" d="M 135 484.232727 
L 972 484.232727 
" style="fill:none;stroke:#ffffff;stroke-linecap:round;"/>
     </g>
     <g id="line2d_86"/>
     <g id="text_15">
      <!-- 0.0 -->
      <defs>
       <path d="M 9.078125 0 
L 9.078125 10.015625 
L 19.09375 10.015625 
L 19.09375 0 
z
" id="ArialMT-2e"/>
      </defs>
      <g style="fill:#262626;" transform="translate(105.76 489.958977)scale(0.16 -0.16)">
       <use xlink:href="#ArialMT-30"/>
       <use x="55.615234" xlink:href="#ArialMT-2e"/>
       <use x="83.398438" xlink:href="#ArialMT-30"/>
      </g>
     </g>
    </g>
    <g id="ytick_2">
     <g id="line2d_87">
      <path clip-path="url(#p1bcfec2182)" d="M 135 401.17696 
L 972 401.17696 
" style="fill:none;stroke:#ffffff;stroke-linecap:round;"/>
     </g>
     <g id="line2d_88"/>
     <g id="text_16">
      <!-- 0.5 -->
      <defs>
       <path d="M 4.15625 18.75 
L 13.375 19.53125 
Q 14.40625 12.796875 18.140625 9.390625 
Q 21.875 6 27.15625 6 
Q 33.5 6 37.890625 10.78125 
Q 42.28125 15.578125 42.28125 23.484375 
Q 42.28125 31 38.0625 35.34375 
Q 33.84375 39.703125 27 39.703125 
Q 22.75 39.703125 19.328125 37.765625 
Q 15.921875 35.84375 13.96875 32.765625 
L 5.71875 33.84375 
L 12.640625 70.609375 
L 48.25 70.609375 
L 48.25 62.203125 
L 19.671875 62.203125 
L 15.828125 42.96875 
Q 22.265625 47.46875 29.34375 47.46875 
Q 38.71875 47.46875 45.15625 40.96875 
Q 51.609375 34.46875 51.609375 24.265625 
Q 51.609375 14.546875 45.953125 7.46875 
Q 39.0625 -1.21875 27.15625 -1.21875 
Q 17.390625 -1.21875 11.203125 4.25 
Q 5.03125 9.71875 4.15625 18.75 
z
" id="ArialMT-35"/>
      </defs>
      <g style="fill:#262626;" transform="translate(105.76 406.90321)scale(0.16 -0.16)">
       <use xlink:href="#ArialMT-30"/>
       <use x="55.615234" xlink:href="#ArialMT-2e"/>
       <use x="83.398438" xlink:href="#ArialMT-35"/>
      </g>
     </g>
    </g>
    <g id="ytick_3">
     <g id="line2d_89">
      <path clip-path="url(#p1bcfec2182)" d="M 135 318.121192 
L 972 318.121192 
" style="fill:none;stroke:#ffffff;stroke-linecap:round;"/>
     </g>
     <g id="line2d_90"/>
     <g id="text_17">
      <!-- 1.0 -->
      <g style="fill:#262626;" transform="translate(105.76 323.847442)scale(0.16 -0.16)">
       <use xlink:href="#ArialMT-31"/>
       <use x="55.615234" xlink:href="#ArialMT-2e"/>
       <use x="83.398438" xlink:href="#ArialMT-30"/>
      </g>
     </g>
    </g>
    <g id="ytick_4">
     <g id="line2d_91">
      <path clip-path="url(#p1bcfec2182)" d="M 135 235.065424 
L 972 235.065424 
" style="fill:none;stroke:#ffffff;stroke-linecap:round;"/>
     </g>
     <g id="line2d_92"/>
     <g id="text_18">
      <!-- 1.5 -->
      <g style="fill:#262626;" transform="translate(105.76 240.791674)scale(0.16 -0.16)">
       <use xlink:href="#ArialMT-31"/>
       <use x="55.615234" xlink:href="#ArialMT-2e"/>
       <use x="83.398438" xlink:href="#ArialMT-35"/>
      </g>
     </g>
    </g>
    <g id="ytick_5">
     <g id="line2d_93">
      <path clip-path="url(#p1bcfec2182)" d="M 135 152.009656 
L 972 152.009656 
" style="fill:none;stroke:#ffffff;stroke-linecap:round;"/>
     </g>
     <g id="line2d_94"/>
     <g id="text_19">
      <!-- 2.0 -->
      <g style="fill:#262626;" transform="translate(105.76 157.735906)scale(0.16 -0.16)">
       <use xlink:href="#ArialMT-32"/>
       <use x="55.615234" xlink:href="#ArialMT-2e"/>
       <use x="83.398438" xlink:href="#ArialMT-30"/>
      </g>
     </g>
    </g>
    <g id="ytick_6">
     <g id="line2d_95">
      <path clip-path="url(#p1bcfec2182)" d="M 135 68.953888 
L 972 68.953888 
" style="fill:none;stroke:#ffffff;stroke-linecap:round;"/>
     </g>
     <g id="line2d_96"/>
     <g id="text_20">
      <!-- 2.5 -->
      <g style="fill:#262626;" transform="translate(105.76 74.680138)scale(0.16 -0.16)">
       <use xlink:href="#ArialMT-32"/>
       <use x="55.615234" xlink:href="#ArialMT-2e"/>
       <use x="83.398438" xlink:href="#ArialMT-35"/>
      </g>
     </g>
    </g>
    <g id="text_21">
     <!-- Average Precipitation -->
     <defs>
      <path id="ArialMT-20"/>
      <path d="M 7.71875 0 
L 7.71875 71.578125 
L 34.71875 71.578125 
Q 41.84375 71.578125 45.609375 70.90625 
Q 50.875 70.015625 54.4375 67.546875 
Q 58.015625 65.09375 60.1875 60.640625 
Q 62.359375 56.203125 62.359375 50.875 
Q 62.359375 41.75 56.546875 35.421875 
Q 50.734375 29.109375 35.546875 29.109375 
L 17.1875 29.109375 
L 17.1875 0 
z
M 17.1875 37.546875 
L 35.6875 37.546875 
Q 44.875 37.546875 48.734375 40.96875 
Q 52.59375 44.390625 52.59375 50.59375 
Q 52.59375 55.078125 50.3125 58.265625 
Q 48.046875 61.46875 44.34375 62.5 
Q 41.9375 63.140625 35.5 63.140625 
L 17.1875 63.140625 
z
" id="ArialMT-50"/>
      <path d="M 6.640625 61.46875 
L 6.640625 71.578125 
L 15.4375 71.578125 
L 15.4375 61.46875 
z
M 6.640625 0 
L 6.640625 51.859375 
L 15.4375 51.859375 
L 15.4375 0 
z
" id="ArialMT-69"/>
     </defs>
     <g style="fill:#262626;" transform="translate(98.3925 362.5975)rotate(-90)scale(0.16 -0.16)">
      <use xlink:href="#ArialMT-41"/>
      <use x="66.683594" xlink:href="#ArialMT-76"/>
      <use x="116.683594" xlink:href="#ArialMT-65"/>
      <use x="172.298828" xlink:href="#ArialMT-72"/>
      <use x="205.599609" xlink:href="#ArialMT-61"/>
      <use x="261.214844" xlink:href="#ArialMT-67"/>
      <use x="316.830078" xlink:href="#ArialMT-65"/>
      <use x="372.445312" xlink:href="#ArialMT-20"/>
      <use x="400.228516" xlink:href="#ArialMT-50"/>
      <use x="466.927734" xlink:href="#ArialMT-72"/>
      <use x="500.228516" xlink:href="#ArialMT-65"/>
      <use x="555.84375" xlink:href="#ArialMT-63"/>
      <use x="605.84375" xlink:href="#ArialMT-69"/>
      <use x="628.060547" xlink:href="#ArialMT-70"/>
      <use x="683.675781" xlink:href="#ArialMT-69"/>
      <use x="705.892578" xlink:href="#ArialMT-74"/>
      <use x="733.675781" xlink:href="#ArialMT-61"/>
      <use x="789.291016" xlink:href="#ArialMT-74"/>
      <use x="817.074219" xlink:href="#ArialMT-69"/>
      <use x="839.291016" xlink:href="#ArialMT-6f"/>
      <use x="894.90625" xlink:href="#ArialMT-6e"/>
     </g>
    </g>
   </g>
   <g id="line2d_97">
    <path clip-path="url(#p1bcfec2182)" d="M 173.045455 225.92929 
L 175.135864 471.418409 
L 177.226274 481.464202 
L 179.316683 473.601589 
L 181.407093 398.408434 
L 183.497502 443.812254 
L 185.587912 482.294759 
L 187.678322 378.585791 
L 189.768731 483.236058 
L 191.859141 475.92715 
L 193.94955 442.040397 
L 196.03996 438.385943 
L 198.13037 470.113247 
L 200.220779 443.36929 
L 202.311189 428.862215 
L 204.401598 471.49751 
L 208.582418 437.721497 
L 210.672827 442.704843 
L 212.763237 433.070374 
L 214.853646 409.205684 
L 216.944056 88.887273 
L 219.034466 346.913858 
L 221.124875 464.773947 
L 223.215285 461.641558 
L 225.305694 466.624905 
L 227.396104 473.601589 
L 229.486513 459.790601 
L 231.576923 451.840978 
L 233.667333 450.061211 
L 235.757742 446.976283 
L 237.848152 476.480856 
L 239.938561 481.741054 
L 242.028971 437.99835 
L 244.119381 446.580779 
L 246.20979 481.147799 
L 248.3002 413.279371 
L 250.390609 452.394683 
L 252.481019 444.089106 
L 254.571429 464.299343 
L 256.661838 465.129901 
L 258.752248 387.611184 
L 260.842657 461.530817 
L 262.933067 480.435892 
L 265.023477 483.955875 
L 267.113886 482.903835 
L 269.204296 484.232727 
L 271.294705 484.232727 
L 273.385115 465.129901 
L 275.475524 482.017907 
L 277.565934 482.017907 
L 279.656344 484.232727 
L 281.746753 473.435477 
L 283.837163 484.232727 
L 285.927572 465.960458 
L 288.017982 467.621574 
L 290.108392 479.526234 
L 292.198801 450.678197 
L 294.289211 473.601589 
L 296.37962 425.429244 
L 298.47003 474.930481 
L 300.56044 462.361375 
L 302.650849 458.129486 
L 304.741259 476.204003 
L 306.831668 432.738151 
L 308.922078 468.452131 
L 311.012488 466.514163 
L 313.102897 440.21317 
L 315.193307 439.659465 
L 317.283716 478.418824 
L 319.374126 483.125317 
L 321.464535 483.679022 
L 323.554945 482.571612 
L 325.645355 471.774362 
L 327.735764 482.017907 
L 329.826174 479.249381 
L 331.916583 453.225241 
L 334.006993 474.74064 
L 336.097403 483.955875 
L 338.187812 484.232727 
L 342.368631 484.232727 
L 344.459041 480.673194 
L 346.549451 482.848464 
L 348.63986 441.597433 
L 350.73027 482.571612 
L 352.820679 482.986891 
L 354.911089 468.452131 
L 357.001499 444.781238 
L 361.182318 317.788969 
L 363.272727 461.973782 
L 365.363137 435.063713 
L 367.453546 440.379282 
L 369.543956 470.113247 
L 371.634366 469.005837 
L 373.724775 464.299343 
L 375.815185 472.328067 
L 377.905594 454.886356 
L 379.996004 435.229824 
L 382.086414 418.895523 
L 384.176823 409.205684 
L 386.267233 462.084523 
L 388.357642 394.532498 
L 390.448052 482.903835 
L 392.538462 471.608251 
L 394.628871 473.316826 
L 396.719281 422.771459 
L 398.80969 479.913827 
L 400.9001 475.92715 
L 402.990509 482.848464 
L 407.171329 442.704843 
L 409.261738 477.034561 
L 411.352148 483.125317 
L 413.442557 472.60492 
L 415.532967 454.664874 
L 417.623377 472.60492 
L 419.713786 483.40217 
L 421.804196 462.87553 
L 423.894605 415.850145 
L 425.985015 450.179862 
L 428.075425 439.382613 
L 430.165834 469.947135 
L 432.256244 416.459221 
L 434.346653 477.588266 
L 436.437063 472.881772 
L 438.527473 418.341818 
L 440.617882 391.48712 
L 442.708292 413.13699 
L 444.798701 472.60492 
L 446.889111 483.568281 
L 448.97952 484.232727 
L 451.06993 479.249381 
L 453.16034 457.931734 
L 455.250749 462.084523 
L 457.341159 482.571612 
L 459.431568 482.571612 
L 461.521978 484.232727 
L 469.883616 484.232727 
L 471.974026 483.900504 
L 474.064436 483.817448 
L 476.154845 484.232727 
L 478.245255 484.232727 
L 480.335664 482.294759 
L 482.426074 483.679022 
L 484.516484 484.232727 
L 486.606893 476.480856 
L 488.697303 450.345974 
L 490.787712 453.003759 
L 494.968531 365.296868 
L 497.058941 481.622403 
L 499.149351 482.808914 
L 501.23976 479.581604 
L 503.33017 443.120122 
L 505.420579 482.848464 
L 507.510989 484.232727 
L 517.963037 484.232727 
L 520.053447 473.71233 
L 522.143856 308.629104 
L 524.234266 458.60409 
L 526.324675 483.758123 
L 528.415085 484.232727 
L 530.505495 174.157861 
L 532.595904 194.091245 
L 534.686314 403.39178 
L 536.776723 483.955875 
L 538.867133 481.574943 
L 540.957542 422.771459 
L 543.047952 455.163209 
L 545.138362 483.817448 
L 547.228771 476.342429 
L 549.319181 484.232727 
L 551.40959 479.913827 
L 553.5 462.638228 
L 555.59041 483.995425 
L 557.680819 484.232727 
L 559.771229 478.003545 
L 561.861638 484.232727 
L 563.952048 484.232727 
L 566.042458 461.530817 
L 568.132867 208.487578 
L 570.223277 302.617448 
L 572.313686 422.494607 
L 574.404096 484.232727 
L 576.494505 433.983988 
L 578.584915 461.80767 
L 580.675325 484.232727 
L 582.765734 484.232727 
L 584.856144 429.969626 
L 586.946553 477.350964 
L 589.036963 482.903835 
L 591.127373 484.232727 
L 593.217782 484.232727 
L 595.308192 482.808914 
L 597.398601 482.571612 
L 599.489011 484.232727 
L 601.579421 460.312666 
L 603.66983 484.232727 
L 605.76024 484.232727 
L 607.850649 483.568281 
L 609.941059 481.741054 
L 612.031469 484.232727 
L 614.121878 482.848464 
L 616.212288 452.948388 
L 618.302697 418.784782 
L 620.393107 484.232727 
L 622.483516 483.900504 
L 624.573926 464.576196 
L 626.664336 478.972529 
L 628.754745 479.249381 
L 630.845155 483.955875 
L 632.935564 472.881772 
L 635.025974 484.232727 
L 637.116384 465.960458 
L 639.206793 480.673194 
L 641.297203 468.570782 
L 643.387612 482.808914 
L 645.478022 484.232727 
L 649.658841 484.232727 
L 651.749251 483.679022 
L 653.83966 471.220657 
L 655.93007 454.332651 
L 658.02048 454.055798 
L 660.110889 298.187807 
L 662.201299 426.425913 
L 664.291708 448.684859 
L 666.382118 382.240244 
L 668.472527 404.49919 
L 670.562937 478.695676 
L 672.653347 462.638228 
L 674.743756 252.230283 
L 676.834166 319.450084 
L 678.924575 465.129901 
L 681.014985 481.741054 
L 683.105395 484.232727 
L 685.195804 473.435477 
L 687.286214 472.60492 
L 691.467033 261.64327 
L 693.557443 306.493384 
L 695.647852 461.80767 
L 697.738262 482.848464 
L 699.828671 483.236058 
L 701.919081 481.574943 
L 704.009491 473.71233 
L 706.0999 482.571612 
L 708.19031 480.24605 
L 710.280719 400.900107 
L 712.371129 330.413445 
L 714.461538 460.423407 
L 716.551948 464.299343 
L 718.642358 478.917158 
L 720.732767 476.259374 
L 722.823177 443.701513 
L 724.913586 454.997097 
L 727.003996 472.60492 
L 729.094406 480.079939 
L 731.184815 460.70026 
L 733.275225 482.571612 
L 735.365634 482.986891 
L 737.456044 483.900504 
L 739.546454 472.272697 
L 741.636863 464.576196 
L 743.727273 376.537082 
L 745.817682 422.771459 
L 747.908092 483.568281 
L 749.998501 470.113247 
L 752.088911 472.881772 
L 754.179321 470.279358 
L 756.26973 426.758136 
L 758.36014 471.940474 
L 760.450549 483.125317 
L 762.540959 472.937143 
L 764.631369 463.96712 
L 766.721778 452.394683 
L 768.812188 482.017907 
L 770.902597 484.232727 
L 772.993007 483.955875 
L 777.173826 482.903835 
L 779.264236 433.402597 
L 781.354645 424.709427 
L 783.445055 435.783529 
L 785.535465 446.027074 
L 787.625874 440.766875 
L 789.716284 409.205684 
L 791.806693 478.695676 
L 793.897103 469.282689 
L 795.987512 444.919664 
L 798.077922 464.02249 
L 800.168332 465.960458 
L 802.258741 463.053506 
L 804.349151 472.051215 
L 806.43956 465.683606 
L 808.52997 462.970451 
L 810.62038 464.299343 
L 812.710789 480.910497 
L 814.801199 481.187349 
L 816.891608 483.40217 
L 818.982018 482.294759 
L 821.072428 471.893013 
L 823.162837 473.435477 
L 825.253247 454.332651 
L 827.343656 459.64822 
L 829.434066 478.003545 
L 831.524476 484.232727 
L 833.614885 483.568281 
L 835.705295 467.621574 
L 837.795704 481.464202 
L 839.886114 478.695676 
L 841.976523 483.125317 
L 844.066933 483.40217 
L 846.157343 474.266035 
L 848.247752 434.122414 
L 850.338162 457.931734 
L 852.428571 478.972529 
L 854.518981 461.80767 
L 856.609391 459.039144 
L 858.6998 424.195272 
L 860.79021 472.881772 
L 862.880619 454.807255 
L 864.971029 481.147799 
L 867.061439 361.863896 
L 869.151848 446.69152 
L 871.242258 375.595783 
L 873.332667 469.757293 
L 875.423077 470.390099 
L 877.513487 483.955875 
L 879.603896 465.960458 
L 881.694306 467.344721 
L 883.784715 474.266035 
L 885.875125 484.232727 
L 887.965534 476.480856 
L 890.055944 471.774362 
L 892.146354 481.325775 
L 894.236763 481.741054 
L 896.327173 479.249381 
L 898.417582 484.232727 
L 900.507992 482.156333 
L 902.598402 465.960458 
L 904.688811 475.92715 
L 906.779221 481.325775 
L 908.86963 484.232727 
L 910.96004 476.480856 
L 913.05045 484.232727 
L 915.140859 473.933812 
L 917.231269 456.990435 
L 919.321678 458.900718 
L 921.412088 476.342429 
L 923.502498 480.910497 
L 925.592907 479.249381 
L 927.683317 483.40217 
L 929.773726 452.11783 
L 931.864136 456.547471 
L 933.954545 462.222949 
L 933.954545 462.222949 
" style="fill:none;stroke:#4c72b0;stroke-linecap:round;stroke-width:1.75;"/>
   </g>
   <g id="patch_3">
    <path d="M 135 504 
L 135 69.12 
" style="fill:none;"/>
   </g>
   <g id="patch_4">
    <path d="M 972 504 
L 972 69.12 
" style="fill:none;"/>
   </g>
   <g id="patch_5">
    <path d="M 135 504 
L 972 504 
" style="fill:none;"/>
   </g>
   <g id="patch_6">
    <path d="M 135 69.12 
L 972 69.12 
" style="fill:none;"/>
   </g>
  </g>
 </g>
 <defs>
  <clipPath id="p1bcfec2182">
   <rect height="434.88" width="837" x="135" y="69.12"/>
  </clipPath>
 </defs>
</svg>
