<?xml version="1.0" encoding="utf-8" standalone="no"?>
<!DOCTYPE svg PUBLIC "-//W3C//DTD SVG 1.1//EN"
  "http://www.w3.org/Graphics/SVG/1.1/DTD/svg11.dtd">
<!-- Created with matplotlib (http://matplotlib.org/) -->
<svg height="576pt" version="1.1" viewBox="0 0 1080 576" width="1080pt" xmlns="http://www.w3.org/2000/svg" xmlns:xlink="http://www.w3.org/1999/xlink">
 <defs>
  <style type="text/css">
*{stroke-linecap:butt;stroke-linejoin:round;}
  </style>
 </defs>
 <g id="figure_1">
  <g id="patch_1">
   <path d="M 0 576 
L 1080 576 
L 1080 0 
L 0 0 
z
" style="fill:#ffffff;"/>
  </g>
  <g id="axes_1">
   <g id="patch_2">
    <path d="M 54.628125 506.8 
L 1069.2 506.8 
L 1069.2 10.8 
L 54.628125 10.8 
z
" style="fill:#eaeaf2;"/>
   </g>
   <g id="matplotlib.axis_1">
    <g id="xtick_1">
     <g id="line2d_1">
      <path clip-path="url(#pc3880d1c81)" d="M 121.016195 506.8 
L 121.016195 10.8 
" style="fill:none;stroke:#ffffff;stroke-linecap:round;"/>
     </g>
     <g id="line2d_2"/>
     <g id="text_1">
      <!-- Sep -->
      <defs>
       <path d="M 4.5 23 
L 13.421875 23.78125 
Q 14.0625 18.40625 16.375 14.96875 
Q 18.703125 11.53125 23.578125 9.40625 
Q 28.46875 7.28125 34.578125 7.28125 
Q 39.984375 7.28125 44.140625 8.890625 
Q 48.296875 10.5 50.3125 13.296875 
Q 52.34375 16.109375 52.34375 19.4375 
Q 52.34375 22.796875 50.390625 25.3125 
Q 48.4375 27.828125 43.953125 29.546875 
Q 41.0625 30.671875 31.203125 33.03125 
Q 21.34375 35.40625 17.390625 37.5 
Q 12.25 40.1875 9.734375 44.15625 
Q 7.234375 48.140625 7.234375 53.078125 
Q 7.234375 58.5 10.296875 63.203125 
Q 13.375 67.921875 19.28125 70.359375 
Q 25.203125 72.796875 32.421875 72.796875 
Q 40.375 72.796875 46.453125 70.234375 
Q 52.546875 67.671875 55.8125 62.6875 
Q 59.078125 57.71875 59.328125 51.421875 
L 50.25 50.734375 
Q 49.515625 57.515625 45.28125 60.984375 
Q 41.0625 64.453125 32.8125 64.453125 
Q 24.21875 64.453125 20.28125 61.296875 
Q 16.359375 58.15625 16.359375 53.71875 
Q 16.359375 49.859375 19.140625 47.359375 
Q 21.875 44.875 33.421875 42.265625 
Q 44.96875 39.65625 49.265625 37.703125 
Q 55.515625 34.8125 58.484375 30.390625 
Q 61.46875 25.984375 61.46875 20.21875 
Q 61.46875 14.5 58.203125 9.4375 
Q 54.9375 4.390625 48.796875 1.578125 
Q 42.671875 -1.21875 35.015625 -1.21875 
Q 25.296875 -1.21875 18.71875 1.609375 
Q 12.15625 4.4375 8.421875 10.125 
Q 4.6875 15.828125 4.5 23 
z
" id="ArialMT-53"/>
       <path d="M 42.09375 16.703125 
L 51.171875 15.578125 
Q 49.03125 7.625 43.21875 3.21875 
Q 37.40625 -1.171875 28.375 -1.171875 
Q 17 -1.171875 10.328125 5.828125 
Q 3.65625 12.84375 3.65625 25.484375 
Q 3.65625 38.578125 10.390625 45.796875 
Q 17.140625 53.03125 27.875 53.03125 
Q 38.28125 53.03125 44.875 45.953125 
Q 51.46875 38.875 51.46875 26.03125 
Q 51.46875 25.25 51.421875 23.6875 
L 12.75 23.6875 
Q 13.234375 15.140625 17.578125 10.59375 
Q 21.921875 6.0625 28.421875 6.0625 
Q 33.25 6.0625 36.671875 8.59375 
Q 40.09375 11.140625 42.09375 16.703125 
z
M 13.234375 30.90625 
L 42.1875 30.90625 
Q 41.609375 37.453125 38.875 40.71875 
Q 34.671875 45.796875 27.984375 45.796875 
Q 21.921875 45.796875 17.796875 41.75 
Q 13.671875 37.703125 13.234375 30.90625 
z
" id="ArialMT-65"/>
       <path d="M 6.59375 -19.875 
L 6.59375 51.859375 
L 14.59375 51.859375 
L 14.59375 45.125 
Q 17.4375 49.078125 21 51.046875 
Q 24.5625 53.03125 29.640625 53.03125 
Q 36.28125 53.03125 41.359375 49.609375 
Q 46.4375 46.1875 49.015625 39.953125 
Q 51.609375 33.734375 51.609375 26.3125 
Q 51.609375 18.359375 48.75 11.984375 
Q 45.90625 5.609375 40.453125 2.21875 
Q 35.015625 -1.171875 29 -1.171875 
Q 24.609375 -1.171875 21.109375 0.6875 
Q 17.625 2.546875 15.375 5.375 
L 15.375 -19.875 
z
M 14.546875 25.640625 
Q 14.546875 15.625 18.59375 10.84375 
Q 22.65625 6.0625 28.421875 6.0625 
Q 34.28125 6.0625 38.453125 11.015625 
Q 42.625 15.96875 42.625 26.375 
Q 42.625 36.28125 38.546875 41.203125 
Q 34.46875 46.140625 28.8125 46.140625 
Q 23.1875 46.140625 18.859375 40.890625 
Q 14.546875 35.640625 14.546875 25.640625 
z
" id="ArialMT-70"/>
      </defs>
      <g style="fill:#262626;" transform="translate(106.782445 525.4475)scale(0.16 -0.16)">
       <use xlink:href="#ArialMT-53"/>
       <use x="66.699219" xlink:href="#ArialMT-65"/>
       <use x="122.314453" xlink:href="#ArialMT-70"/>
      </g>
     </g>
    </g>
    <g id="xtick_2">
     <g id="line2d_3">
      <path clip-path="url(#pc3880d1c81)" d="M 197.033068 506.8 
L 197.033068 10.8 
" style="fill:none;stroke:#ffffff;stroke-linecap:round;"/>
     </g>
     <g id="line2d_4"/>
     <g id="text_2">
      <!-- Oct -->
      <defs>
       <path d="M 4.828125 34.859375 
Q 4.828125 52.6875 14.390625 62.765625 
Q 23.96875 72.859375 39.109375 72.859375 
Q 49.03125 72.859375 56.984375 68.109375 
Q 64.9375 63.375 69.109375 54.90625 
Q 73.296875 46.4375 73.296875 35.6875 
Q 73.296875 24.8125 68.890625 16.21875 
Q 64.5 7.625 56.4375 3.203125 
Q 48.390625 -1.21875 39.0625 -1.21875 
Q 28.953125 -1.21875 20.984375 3.65625 
Q 13.03125 8.546875 8.921875 16.984375 
Q 4.828125 25.4375 4.828125 34.859375 
z
M 14.59375 34.71875 
Q 14.59375 21.78125 21.546875 14.328125 
Q 28.515625 6.890625 39.015625 6.890625 
Q 49.703125 6.890625 56.609375 14.40625 
Q 63.53125 21.921875 63.53125 35.75 
Q 63.53125 44.484375 60.578125 51 
Q 57.625 57.515625 51.921875 61.109375 
Q 46.234375 64.703125 39.15625 64.703125 
Q 29.109375 64.703125 21.84375 57.78125 
Q 14.59375 50.875 14.59375 34.71875 
z
" id="ArialMT-4f"/>
       <path d="M 40.4375 19 
L 49.078125 17.875 
Q 47.65625 8.9375 41.8125 3.875 
Q 35.984375 -1.171875 27.484375 -1.171875 
Q 16.84375 -1.171875 10.375 5.78125 
Q 3.90625 12.75 3.90625 25.734375 
Q 3.90625 34.125 6.6875 40.421875 
Q 9.46875 46.734375 15.15625 49.875 
Q 20.84375 53.03125 27.546875 53.03125 
Q 35.984375 53.03125 41.359375 48.75 
Q 46.734375 44.484375 48.25 36.625 
L 39.703125 35.296875 
Q 38.484375 40.53125 35.375 43.15625 
Q 32.28125 45.796875 27.875 45.796875 
Q 21.234375 45.796875 17.078125 41.03125 
Q 12.9375 36.28125 12.9375 25.984375 
Q 12.9375 15.53125 16.9375 10.796875 
Q 20.953125 6.0625 27.390625 6.0625 
Q 32.5625 6.0625 36.03125 9.234375 
Q 39.5 12.40625 40.4375 19 
z
" id="ArialMT-63"/>
       <path d="M 25.78125 7.859375 
L 27.046875 0.09375 
Q 23.34375 -0.6875 20.40625 -0.6875 
Q 15.625 -0.6875 12.984375 0.828125 
Q 10.359375 2.34375 9.28125 4.8125 
Q 8.203125 7.28125 8.203125 15.1875 
L 8.203125 45.015625 
L 1.765625 45.015625 
L 1.765625 51.859375 
L 8.203125 51.859375 
L 8.203125 64.703125 
L 16.9375 69.96875 
L 16.9375 51.859375 
L 25.78125 51.859375 
L 25.78125 45.015625 
L 16.9375 45.015625 
L 16.9375 14.703125 
Q 16.9375 10.9375 17.40625 9.859375 
Q 17.875 8.796875 18.921875 8.15625 
Q 19.96875 7.515625 21.921875 7.515625 
Q 23.390625 7.515625 25.78125 7.859375 
z
" id="ArialMT-74"/>
      </defs>
      <g style="fill:#262626;" transform="translate(184.588068 525.2525)scale(0.16 -0.16)">
       <use xlink:href="#ArialMT-4f"/>
       <use x="77.783203" xlink:href="#ArialMT-63"/>
       <use x="127.783203" xlink:href="#ArialMT-74"/>
      </g>
     </g>
    </g>
    <g id="xtick_3">
     <g id="line2d_5">
      <path clip-path="url(#pc3880d1c81)" d="M 275.583838 506.8 
L 275.583838 10.8 
" style="fill:none;stroke:#ffffff;stroke-linecap:round;"/>
     </g>
     <g id="line2d_6"/>
     <g id="text_3">
      <!-- Nov -->
      <defs>
       <path d="M 7.625 0 
L 7.625 71.578125 
L 17.328125 71.578125 
L 54.9375 15.375 
L 54.9375 71.578125 
L 64.015625 71.578125 
L 64.015625 0 
L 54.296875 0 
L 16.703125 56.25 
L 16.703125 0 
z
" id="ArialMT-4e"/>
       <path d="M 3.328125 25.921875 
Q 3.328125 40.328125 11.328125 47.265625 
Q 18.015625 53.03125 27.640625 53.03125 
Q 38.328125 53.03125 45.109375 46.015625 
Q 51.90625 39.015625 51.90625 26.65625 
Q 51.90625 16.65625 48.90625 10.90625 
Q 45.90625 5.171875 40.15625 2 
Q 34.421875 -1.171875 27.640625 -1.171875 
Q 16.75 -1.171875 10.03125 5.8125 
Q 3.328125 12.796875 3.328125 25.921875 
z
M 12.359375 25.921875 
Q 12.359375 15.96875 16.703125 11.015625 
Q 21.046875 6.0625 27.640625 6.0625 
Q 34.1875 6.0625 38.53125 11.03125 
Q 42.875 16.015625 42.875 26.21875 
Q 42.875 35.84375 38.5 40.796875 
Q 34.125 45.75 27.640625 45.75 
Q 21.046875 45.75 16.703125 40.8125 
Q 12.359375 35.890625 12.359375 25.921875 
z
" id="ArialMT-6f"/>
       <path d="M 21 0 
L 1.265625 51.859375 
L 10.546875 51.859375 
L 21.6875 20.796875 
Q 23.484375 15.765625 25 10.359375 
Q 26.171875 14.453125 28.265625 20.21875 
L 39.796875 51.859375 
L 48.828125 51.859375 
L 29.203125 0 
z
" id="ArialMT-76"/>
      </defs>
      <g style="fill:#262626;" transform="translate(261.357588 525.2525)scale(0.16 -0.16)">
       <use xlink:href="#ArialMT-4e"/>
       <use x="72.216797" xlink:href="#ArialMT-6f"/>
       <use x="127.832031" xlink:href="#ArialMT-76"/>
      </g>
     </g>
    </g>
    <g id="xtick_4">
     <g id="line2d_7">
      <path clip-path="url(#pc3880d1c81)" d="M 351.600712 506.8 
L 351.600712 10.8 
" style="fill:none;stroke:#ffffff;stroke-linecap:round;"/>
     </g>
     <g id="line2d_8"/>
     <g id="text_4">
      <!-- Dec -->
      <defs>
       <path d="M 7.71875 0 
L 7.71875 71.578125 
L 32.375 71.578125 
Q 40.71875 71.578125 45.125 70.5625 
Q 51.265625 69.140625 55.609375 65.4375 
Q 61.28125 60.640625 64.078125 53.1875 
Q 66.890625 45.75 66.890625 36.1875 
Q 66.890625 28.03125 64.984375 21.734375 
Q 63.09375 15.4375 60.109375 11.296875 
Q 57.125 7.171875 53.578125 4.796875 
Q 50.046875 2.4375 45.046875 1.21875 
Q 40.046875 0 33.546875 0 
z
M 17.1875 8.453125 
L 32.46875 8.453125 
Q 39.546875 8.453125 43.578125 9.765625 
Q 47.609375 11.078125 50 13.484375 
Q 53.375 16.84375 55.25 22.53125 
Q 57.125 28.21875 57.125 36.328125 
Q 57.125 47.5625 53.4375 53.59375 
Q 49.75 59.625 44.484375 61.671875 
Q 40.671875 63.140625 32.234375 63.140625 
L 17.1875 63.140625 
z
" id="ArialMT-44"/>
      </defs>
      <g style="fill:#262626;" transform="translate(337.374462 525.2525)scale(0.16 -0.16)">
       <use xlink:href="#ArialMT-44"/>
       <use x="72.216797" xlink:href="#ArialMT-65"/>
       <use x="127.832031" xlink:href="#ArialMT-63"/>
      </g>
     </g>
    </g>
    <g id="xtick_5">
     <g id="line2d_9">
      <path clip-path="url(#pc3880d1c81)" d="M 430.151481 506.8 
L 430.151481 10.8 
" style="fill:none;stroke:#ffffff;stroke-linecap:round;"/>
     </g>
     <g id="line2d_10"/>
     <g id="text_5">
      <!-- Jan -->
      <defs>
       <path d="M 2.875 20.3125 
L 11.421875 21.484375 
Q 11.765625 13.28125 14.5 10.25 
Q 17.234375 7.234375 22.078125 7.234375 
Q 25.640625 7.234375 28.21875 8.859375 
Q 30.8125 10.5 31.78125 13.296875 
Q 32.765625 16.109375 32.765625 22.265625 
L 32.765625 71.578125 
L 42.234375 71.578125 
L 42.234375 22.796875 
Q 42.234375 13.8125 40.0625 8.875 
Q 37.890625 3.953125 33.171875 1.359375 
Q 28.46875 -1.21875 22.125 -1.21875 
Q 12.703125 -1.21875 7.6875 4.203125 
Q 2.6875 9.625 2.875 20.3125 
z
" id="ArialMT-4a"/>
       <path d="M 40.4375 6.390625 
Q 35.546875 2.25 31.03125 0.53125 
Q 26.515625 -1.171875 21.34375 -1.171875 
Q 12.796875 -1.171875 8.203125 3 
Q 3.609375 7.171875 3.609375 13.671875 
Q 3.609375 17.484375 5.34375 20.625 
Q 7.078125 23.78125 9.890625 25.6875 
Q 12.703125 27.59375 16.21875 28.5625 
Q 18.796875 29.25 24.03125 29.890625 
Q 34.671875 31.15625 39.703125 32.90625 
Q 39.75 34.71875 39.75 35.203125 
Q 39.75 40.578125 37.25 42.78125 
Q 33.890625 45.75 27.25 45.75 
Q 21.046875 45.75 18.09375 43.578125 
Q 15.140625 41.40625 13.71875 35.890625 
L 5.125 37.0625 
Q 6.296875 42.578125 8.984375 45.96875 
Q 11.671875 49.359375 16.75 51.1875 
Q 21.828125 53.03125 28.515625 53.03125 
Q 35.15625 53.03125 39.296875 51.46875 
Q 43.453125 49.90625 45.40625 47.53125 
Q 47.359375 45.171875 48.140625 41.546875 
Q 48.578125 39.3125 48.578125 33.453125 
L 48.578125 21.734375 
Q 48.578125 9.46875 49.140625 6.21875 
Q 49.703125 2.984375 51.375 0 
L 42.1875 0 
Q 40.828125 2.734375 40.4375 6.390625 
z
M 39.703125 26.03125 
Q 34.90625 24.078125 25.34375 22.703125 
Q 19.921875 21.921875 17.671875 20.9375 
Q 15.4375 19.96875 14.203125 18.09375 
Q 12.984375 16.21875 12.984375 13.921875 
Q 12.984375 10.40625 15.640625 8.0625 
Q 18.3125 5.71875 23.4375 5.71875 
Q 28.515625 5.71875 32.46875 7.9375 
Q 36.421875 10.15625 38.28125 14.015625 
Q 39.703125 17 39.703125 22.796875 
z
" id="ArialMT-61"/>
       <path d="M 6.59375 0 
L 6.59375 51.859375 
L 14.5 51.859375 
L 14.5 44.484375 
Q 20.21875 53.03125 31 53.03125 
Q 35.6875 53.03125 39.625 51.34375 
Q 43.5625 49.65625 45.515625 46.921875 
Q 47.46875 44.1875 48.25 40.4375 
Q 48.734375 37.984375 48.734375 31.890625 
L 48.734375 0 
L 39.9375 0 
L 39.9375 31.546875 
Q 39.9375 36.921875 38.90625 39.578125 
Q 37.890625 42.234375 35.28125 43.8125 
Q 32.671875 45.40625 29.15625 45.40625 
Q 23.53125 45.40625 19.453125 41.84375 
Q 15.375 38.28125 15.375 28.328125 
L 15.375 0 
z
" id="ArialMT-6e"/>
      </defs>
      <g style="fill:#262626;" transform="translate(417.253981 525.2525)scale(0.16 -0.16)">
       <use xlink:href="#ArialMT-4a"/>
       <use x="50" xlink:href="#ArialMT-61"/>
       <use x="105.615234" xlink:href="#ArialMT-6e"/>
      </g>
      <!-- 2017 -->
      <defs>
       <path d="M 50.34375 8.453125 
L 50.34375 0 
L 3.03125 0 
Q 2.9375 3.171875 4.046875 6.109375 
Q 5.859375 10.9375 9.828125 15.625 
Q 13.8125 20.3125 21.34375 26.46875 
Q 33.015625 36.03125 37.109375 41.625 
Q 41.21875 47.21875 41.21875 52.203125 
Q 41.21875 57.421875 37.46875 61 
Q 33.734375 64.59375 27.734375 64.59375 
Q 21.390625 64.59375 17.578125 60.78125 
Q 13.765625 56.984375 13.71875 50.25 
L 4.6875 51.171875 
Q 5.609375 61.28125 11.65625 66.578125 
Q 17.71875 71.875 27.9375 71.875 
Q 38.234375 71.875 44.234375 66.15625 
Q 50.25 60.453125 50.25 52 
Q 50.25 47.703125 48.484375 43.546875 
Q 46.734375 39.40625 42.65625 34.8125 
Q 38.578125 30.21875 29.109375 22.21875 
Q 21.1875 15.578125 18.9375 13.203125 
Q 16.703125 10.84375 15.234375 8.453125 
z
" id="ArialMT-32"/>
       <path d="M 4.15625 35.296875 
Q 4.15625 48 6.765625 55.734375 
Q 9.375 63.484375 14.515625 67.671875 
Q 19.671875 71.875 27.484375 71.875 
Q 33.25 71.875 37.59375 69.546875 
Q 41.9375 67.234375 44.765625 62.859375 
Q 47.609375 58.5 49.21875 52.21875 
Q 50.828125 45.953125 50.828125 35.296875 
Q 50.828125 22.703125 48.234375 14.96875 
Q 45.65625 7.234375 40.5 3 
Q 35.359375 -1.21875 27.484375 -1.21875 
Q 17.140625 -1.21875 11.234375 6.203125 
Q 4.15625 15.140625 4.15625 35.296875 
z
M 13.1875 35.296875 
Q 13.1875 17.671875 17.3125 11.828125 
Q 21.4375 6 27.484375 6 
Q 33.546875 6 37.671875 11.859375 
Q 41.796875 17.71875 41.796875 35.296875 
Q 41.796875 52.984375 37.671875 58.78125 
Q 33.546875 64.59375 27.390625 64.59375 
Q 21.34375 64.59375 17.71875 59.46875 
Q 13.1875 52.9375 13.1875 35.296875 
z
" id="ArialMT-30"/>
       <path d="M 37.25 0 
L 28.46875 0 
L 28.46875 56 
Q 25.296875 52.984375 20.140625 49.953125 
Q 14.984375 46.921875 10.890625 45.40625 
L 10.890625 53.90625 
Q 18.265625 57.375 23.78125 62.296875 
Q 29.296875 67.234375 31.59375 71.875 
L 37.25 71.875 
z
" id="ArialMT-31"/>
       <path d="M 4.734375 62.203125 
L 4.734375 70.65625 
L 51.078125 70.65625 
L 51.078125 63.8125 
Q 44.234375 56.546875 37.515625 44.484375 
Q 30.8125 32.421875 27.15625 19.671875 
Q 24.515625 10.6875 23.78125 0 
L 14.75 0 
Q 14.890625 8.453125 18.0625 20.40625 
Q 21.234375 32.375 27.171875 43.484375 
Q 33.109375 54.59375 39.796875 62.203125 
z
" id="ArialMT-37"/>
      </defs>
      <g style="fill:#262626;" transform="translate(412.356481 542.1755)scale(0.16 -0.16)">
       <use xlink:href="#ArialMT-32"/>
       <use x="55.615234" xlink:href="#ArialMT-30"/>
       <use x="111.230469" xlink:href="#ArialMT-31"/>
       <use x="166.845703" xlink:href="#ArialMT-37"/>
      </g>
     </g>
    </g>
    <g id="xtick_6">
     <g id="line2d_11">
      <path clip-path="url(#pc3880d1c81)" d="M 508.702251 506.8 
L 508.702251 10.8 
" style="fill:none;stroke:#ffffff;stroke-linecap:round;"/>
     </g>
     <g id="line2d_12"/>
     <g id="text_6">
      <!-- Feb -->
      <defs>
       <path d="M 8.203125 0 
L 8.203125 71.578125 
L 56.5 71.578125 
L 56.5 63.140625 
L 17.671875 63.140625 
L 17.671875 40.96875 
L 51.265625 40.96875 
L 51.265625 32.515625 
L 17.671875 32.515625 
L 17.671875 0 
z
" id="ArialMT-46"/>
       <path d="M 14.703125 0 
L 6.546875 0 
L 6.546875 71.578125 
L 15.328125 71.578125 
L 15.328125 46.046875 
Q 20.90625 53.03125 29.546875 53.03125 
Q 34.328125 53.03125 38.59375 51.09375 
Q 42.875 49.171875 45.625 45.671875 
Q 48.390625 42.1875 49.953125 37.25 
Q 51.515625 32.328125 51.515625 26.703125 
Q 51.515625 13.375 44.921875 6.09375 
Q 38.328125 -1.171875 29.109375 -1.171875 
Q 19.921875 -1.171875 14.703125 6.5 
z
M 14.59375 26.3125 
Q 14.59375 17 17.140625 12.84375 
Q 21.296875 6.0625 28.375 6.0625 
Q 34.125 6.0625 38.328125 11.0625 
Q 42.53125 16.0625 42.53125 25.984375 
Q 42.53125 36.140625 38.5 40.96875 
Q 34.46875 45.796875 28.765625 45.796875 
Q 23 45.796875 18.796875 40.796875 
Q 14.59375 35.796875 14.59375 26.3125 
z
" id="ArialMT-62"/>
      </defs>
      <g style="fill:#262626;" transform="translate(494.918501 525.2525)scale(0.16 -0.16)">
       <use xlink:href="#ArialMT-46"/>
       <use x="61.083984" xlink:href="#ArialMT-65"/>
       <use x="116.699219" xlink:href="#ArialMT-62"/>
      </g>
     </g>
    </g>
    <g id="xtick_7">
     <g id="line2d_13">
      <path clip-path="url(#pc3880d1c81)" d="M 579.651333 506.8 
L 579.651333 10.8 
" style="fill:none;stroke:#ffffff;stroke-linecap:round;"/>
     </g>
     <g id="line2d_14"/>
     <g id="text_7">
      <!-- Mar -->
      <defs>
       <path d="M 7.421875 0 
L 7.421875 71.578125 
L 21.6875 71.578125 
L 38.625 20.90625 
Q 40.96875 13.8125 42.046875 10.296875 
Q 43.265625 14.203125 45.84375 21.78125 
L 62.984375 71.578125 
L 75.734375 71.578125 
L 75.734375 0 
L 66.609375 0 
L 66.609375 59.90625 
L 45.796875 0 
L 37.25 0 
L 16.546875 60.9375 
L 16.546875 0 
z
" id="ArialMT-4d"/>
       <path d="M 6.5 0 
L 6.5 51.859375 
L 14.40625 51.859375 
L 14.40625 44 
Q 17.4375 49.515625 20 51.265625 
Q 22.5625 53.03125 25.640625 53.03125 
Q 30.078125 53.03125 34.671875 50.203125 
L 31.640625 42.046875 
Q 28.421875 43.953125 25.203125 43.953125 
Q 22.3125 43.953125 20.015625 42.21875 
Q 17.71875 40.484375 16.75 37.40625 
Q 15.28125 32.71875 15.28125 27.15625 
L 15.28125 0 
z
" id="ArialMT-72"/>
      </defs>
      <g style="fill:#262626;" transform="translate(565.875083 525.2525)scale(0.16 -0.16)">
       <use xlink:href="#ArialMT-4d"/>
       <use x="83.300781" xlink:href="#ArialMT-61"/>
       <use x="138.916016" xlink:href="#ArialMT-72"/>
      </g>
     </g>
    </g>
    <g id="xtick_8">
     <g id="line2d_15">
      <path clip-path="url(#pc3880d1c81)" d="M 658.202103 506.8 
L 658.202103 10.8 
" style="fill:none;stroke:#ffffff;stroke-linecap:round;"/>
     </g>
     <g id="line2d_16"/>
     <g id="text_8">
      <!-- Apr -->
      <defs>
       <path d="M -0.140625 0 
L 27.34375 71.578125 
L 37.546875 71.578125 
L 66.84375 0 
L 56.0625 0 
L 47.703125 21.6875 
L 17.78125 21.6875 
L 9.90625 0 
z
M 20.515625 29.390625 
L 44.78125 29.390625 
L 37.3125 49.21875 
Q 33.890625 58.25 32.234375 64.0625 
Q 30.859375 57.171875 28.375 50.390625 
z
" id="ArialMT-41"/>
      </defs>
      <g style="fill:#262626;" transform="translate(645.753353 525.2525)scale(0.16 -0.16)">
       <use xlink:href="#ArialMT-41"/>
       <use x="66.699219" xlink:href="#ArialMT-70"/>
       <use x="122.314453" xlink:href="#ArialMT-72"/>
      </g>
     </g>
    </g>
    <g id="xtick_9">
     <g id="line2d_17">
      <path clip-path="url(#pc3880d1c81)" d="M 734.218976 506.8 
L 734.218976 10.8 
" style="fill:none;stroke:#ffffff;stroke-linecap:round;"/>
     </g>
     <g id="line2d_18"/>
     <g id="text_9">
      <!-- May -->
      <defs>
       <path d="M 6.203125 -19.96875 
L 5.21875 -11.71875 
Q 8.109375 -12.5 10.25 -12.5 
Q 13.1875 -12.5 14.9375 -11.515625 
Q 16.703125 -10.546875 17.828125 -8.796875 
Q 18.65625 -7.46875 20.515625 -2.25 
Q 20.75 -1.515625 21.296875 -0.09375 
L 1.609375 51.859375 
L 11.078125 51.859375 
L 21.875 21.828125 
Q 23.96875 16.109375 25.640625 9.8125 
Q 27.15625 15.875 29.25 21.625 
L 40.328125 51.859375 
L 49.125 51.859375 
L 29.390625 -0.875 
Q 26.21875 -9.421875 24.46875 -12.640625 
Q 22.125 -17 19.09375 -19.015625 
Q 16.0625 -21.046875 11.859375 -21.046875 
Q 9.328125 -21.046875 6.203125 -19.96875 
z
" id="ArialMT-79"/>
      </defs>
      <g style="fill:#262626;" transform="translate(719.106476 525.2525)scale(0.16 -0.16)">
       <use xlink:href="#ArialMT-4d"/>
       <use x="83.300781" xlink:href="#ArialMT-61"/>
       <use x="138.916016" xlink:href="#ArialMT-79"/>
      </g>
     </g>
    </g>
    <g id="xtick_10">
     <g id="line2d_19">
      <path clip-path="url(#pc3880d1c81)" d="M 812.769746 506.8 
L 812.769746 10.8 
" style="fill:none;stroke:#ffffff;stroke-linecap:round;"/>
     </g>
     <g id="line2d_20"/>
     <g id="text_10">
      <!-- Jun -->
      <defs>
       <path d="M 40.578125 0 
L 40.578125 7.625 
Q 34.515625 -1.171875 24.125 -1.171875 
Q 19.53125 -1.171875 15.546875 0.578125 
Q 11.578125 2.34375 9.640625 5 
Q 7.71875 7.671875 6.9375 11.53125 
Q 6.390625 14.109375 6.390625 19.734375 
L 6.390625 51.859375 
L 15.1875 51.859375 
L 15.1875 23.09375 
Q 15.1875 16.21875 15.71875 13.8125 
Q 16.546875 10.359375 19.234375 8.375 
Q 21.921875 6.390625 25.875 6.390625 
Q 29.828125 6.390625 33.296875 8.421875 
Q 36.765625 10.453125 38.203125 13.9375 
Q 39.65625 17.4375 39.65625 24.078125 
L 39.65625 51.859375 
L 48.4375 51.859375 
L 48.4375 0 
z
" id="ArialMT-75"/>
      </defs>
      <g style="fill:#262626;" transform="translate(799.872246 525.2525)scale(0.16 -0.16)">
       <use xlink:href="#ArialMT-4a"/>
       <use x="50" xlink:href="#ArialMT-75"/>
       <use x="105.615234" xlink:href="#ArialMT-6e"/>
      </g>
     </g>
    </g>
    <g id="xtick_11">
     <g id="line2d_21">
      <path clip-path="url(#pc3880d1c81)" d="M 888.78662 506.8 
L 888.78662 10.8 
" style="fill:none;stroke:#ffffff;stroke-linecap:round;"/>
     </g>
     <g id="line2d_22"/>
     <g id="text_11">
      <!-- Jul -->
      <defs>
       <path d="M 6.390625 0 
L 6.390625 71.578125 
L 15.1875 71.578125 
L 15.1875 0 
z
" id="ArialMT-6c"/>
      </defs>
      <g style="fill:#262626;" transform="translate(878.56037 525.2525)scale(0.16 -0.16)">
       <use xlink:href="#ArialMT-4a"/>
       <use x="50" xlink:href="#ArialMT-75"/>
       <use x="105.615234" xlink:href="#ArialMT-6c"/>
      </g>
     </g>
    </g>
    <g id="xtick_12">
     <g id="line2d_23">
      <path clip-path="url(#pc3880d1c81)" d="M 967.337389 506.8 
L 967.337389 10.8 
" style="fill:none;stroke:#ffffff;stroke-linecap:round;"/>
     </g>
     <g id="line2d_24"/>
     <g id="text_12">
      <!-- Aug -->
      <defs>
       <path d="M 4.984375 -4.296875 
L 13.53125 -5.5625 
Q 14.0625 -9.515625 16.5 -11.328125 
Q 19.78125 -13.765625 25.4375 -13.765625 
Q 31.546875 -13.765625 34.859375 -11.328125 
Q 38.1875 -8.890625 39.359375 -4.5 
Q 40.046875 -1.8125 39.984375 6.78125 
Q 34.234375 0 25.640625 0 
Q 14.9375 0 9.078125 7.71875 
Q 3.21875 15.4375 3.21875 26.21875 
Q 3.21875 33.640625 5.90625 39.90625 
Q 8.59375 46.1875 13.6875 49.609375 
Q 18.796875 53.03125 25.6875 53.03125 
Q 34.859375 53.03125 40.828125 45.609375 
L 40.828125 51.859375 
L 48.921875 51.859375 
L 48.921875 7.03125 
Q 48.921875 -5.078125 46.453125 -10.125 
Q 44 -15.1875 38.640625 -18.109375 
Q 33.296875 -21.046875 25.484375 -21.046875 
Q 16.21875 -21.046875 10.5 -16.875 
Q 4.78125 -12.703125 4.984375 -4.296875 
z
M 12.25 26.859375 
Q 12.25 16.65625 16.296875 11.96875 
Q 20.359375 7.28125 26.46875 7.28125 
Q 32.515625 7.28125 36.609375 11.9375 
Q 40.71875 16.609375 40.71875 26.5625 
Q 40.71875 36.078125 36.5 40.90625 
Q 32.28125 45.75 26.3125 45.75 
Q 20.453125 45.75 16.34375 40.984375 
Q 12.25 36.234375 12.25 26.859375 
z
" id="ArialMT-67"/>
      </defs>
      <g style="fill:#262626;" transform="translate(953.103639 525.2525)scale(0.16 -0.16)">
       <use xlink:href="#ArialMT-41"/>
       <use x="66.699219" xlink:href="#ArialMT-75"/>
       <use x="122.314453" xlink:href="#ArialMT-67"/>
      </g>
     </g>
    </g>
    <g id="xtick_13">
     <g id="line2d_25">
      <path clip-path="url(#pc3880d1c81)" d="M 1045.888159 506.8 
L 1045.888159 10.8 
" style="fill:none;stroke:#ffffff;stroke-linecap:round;"/>
     </g>
     <g id="line2d_26"/>
     <g id="text_13">
      <!-- Sep -->
      <g style="fill:#262626;" transform="translate(1031.654409 525.4475)scale(0.16 -0.16)">
       <use xlink:href="#ArialMT-53"/>
       <use x="66.699219" xlink:href="#ArialMT-65"/>
       <use x="122.314453" xlink:href="#ArialMT-70"/>
      </g>
     </g>
    </g>
    <g id="xtick_14">
     <g id="line2d_27">
      <path clip-path="url(#pc3880d1c81)" d="M 1068.693221 506.8 
L 1068.693221 10.8 
" style="fill:none;stroke:#ffffff;stroke-linecap:round;"/>
     </g>
     <g id="line2d_28"/>
    </g>
    <g id="xtick_15">
     <g id="line2d_29"/>
    </g>
    <g id="xtick_16">
     <g id="line2d_30"/>
    </g>
    <g id="xtick_17">
     <g id="line2d_31"/>
    </g>
    <g id="xtick_18">
     <g id="line2d_32"/>
    </g>
    <g id="xtick_19">
     <g id="line2d_33"/>
    </g>
    <g id="xtick_20">
     <g id="line2d_34"/>
    </g>
    <g id="xtick_21">
     <g id="line2d_35"/>
    </g>
    <g id="xtick_22">
     <g id="line2d_36"/>
    </g>
    <g id="xtick_23">
     <g id="line2d_37"/>
    </g>
    <g id="xtick_24">
     <g id="line2d_38"/>
    </g>
    <g id="xtick_25">
     <g id="line2d_39"/>
    </g>
    <g id="xtick_26">
     <g id="line2d_40"/>
    </g>
    <g id="xtick_27">
     <g id="line2d_41"/>
    </g>
    <g id="xtick_28">
     <g id="line2d_42"/>
    </g>
    <g id="xtick_29">
     <g id="line2d_43"/>
    </g>
    <g id="xtick_30">
     <g id="line2d_44"/>
    </g>
    <g id="xtick_31">
     <g id="line2d_45"/>
    </g>
    <g id="xtick_32">
     <g id="line2d_46"/>
    </g>
    <g id="xtick_33">
     <g id="line2d_47"/>
    </g>
    <g id="xtick_34">
     <g id="line2d_48"/>
    </g>
    <g id="xtick_35">
     <g id="line2d_49"/>
    </g>
    <g id="xtick_36">
     <g id="line2d_50"/>
    </g>
    <g id="xtick_37">
     <g id="line2d_51"/>
    </g>
    <g id="xtick_38">
     <g id="line2d_52"/>
    </g>
    <g id="xtick_39">
     <g id="line2d_53"/>
    </g>
    <g id="xtick_40">
     <g id="line2d_54"/>
    </g>
    <g id="xtick_41">
     <g id="line2d_55"/>
    </g>
    <g id="xtick_42">
     <g id="line2d_56"/>
    </g>
    <g id="xtick_43">
     <g id="line2d_57"/>
    </g>
    <g id="xtick_44">
     <g id="line2d_58"/>
    </g>
    <g id="xtick_45">
     <g id="line2d_59"/>
    </g>
    <g id="xtick_46">
     <g id="line2d_60"/>
    </g>
    <g id="xtick_47">
     <g id="line2d_61"/>
    </g>
    <g id="xtick_48">
     <g id="line2d_62"/>
    </g>
    <g id="xtick_49">
     <g id="line2d_63"/>
    </g>
    <g id="xtick_50">
     <g id="line2d_64"/>
    </g>
    <g id="xtick_51">
     <g id="line2d_65"/>
    </g>
    <g id="xtick_52">
     <g id="line2d_66"/>
    </g>
    <g id="xtick_53">
     <g id="line2d_67"/>
    </g>
    <g id="xtick_54">
     <g id="line2d_68"/>
    </g>
    <g id="xtick_55">
     <g id="line2d_69"/>
    </g>
    <g id="xtick_56">
     <g id="line2d_70"/>
    </g>
    <g id="xtick_57">
     <g id="line2d_71"/>
    </g>
    <g id="xtick_58">
     <g id="line2d_72"/>
    </g>
    <g id="xtick_59">
     <g id="line2d_73"/>
    </g>
    <g id="xtick_60">
     <g id="line2d_74"/>
    </g>
    <g id="xtick_61">
     <g id="line2d_75"/>
    </g>
    <g id="xtick_62">
     <g id="line2d_76"/>
    </g>
    <g id="xtick_63">
     <g id="line2d_77"/>
    </g>
    <g id="xtick_64">
     <g id="line2d_78"/>
    </g>
    <g id="xtick_65">
     <g id="line2d_79"/>
    </g>
    <g id="xtick_66">
     <g id="line2d_80"/>
    </g>
    <g id="xtick_67">
     <g id="line2d_81"/>
    </g>
    <g id="xtick_68">
     <g id="line2d_82"/>
    </g>
    <g id="xtick_69">
     <g id="line2d_83"/>
    </g>
    <g id="xtick_70">
     <g id="line2d_84"/>
    </g>
    <g id="text_14">
     <!-- Date -->
     <g style="fill:#262626;" transform="translate(545.016562 560.808)scale(0.16 -0.16)">
      <use xlink:href="#ArialMT-44"/>
      <use x="72.216797" xlink:href="#ArialMT-61"/>
      <use x="127.832031" xlink:href="#ArialMT-74"/>
      <use x="155.615234" xlink:href="#ArialMT-65"/>
     </g>
    </g>
   </g>
   <g id="matplotlib.axis_2">
    <g id="ytick_1">
     <g id="line2d_85">
      <path clip-path="url(#pc3880d1c81)" d="M 54.628125 484.254545 
L 1069.2 484.254545 
" style="fill:none;stroke:#ffffff;stroke-linecap:round;"/>
     </g>
     <g id="line2d_86"/>
     <g id="text_15">
      <!-- 0 -->
      <g style="fill:#262626;" transform="translate(38.730625 489.980795)scale(0.16 -0.16)">
       <use xlink:href="#ArialMT-30"/>
      </g>
     </g>
    </g>
    <g id="ytick_2">
     <g id="line2d_87">
      <path clip-path="url(#pc3880d1c81)" d="M 54.628125 421.102012 
L 1069.2 421.102012 
" style="fill:none;stroke:#ffffff;stroke-linecap:round;"/>
     </g>
     <g id="line2d_88"/>
     <g id="text_16">
      <!-- 2 -->
      <g style="fill:#262626;" transform="translate(38.730625 426.828262)scale(0.16 -0.16)">
       <use xlink:href="#ArialMT-32"/>
      </g>
     </g>
    </g>
    <g id="ytick_3">
     <g id="line2d_89">
      <path clip-path="url(#pc3880d1c81)" d="M 54.628125 357.949478 
L 1069.2 357.949478 
" style="fill:none;stroke:#ffffff;stroke-linecap:round;"/>
     </g>
     <g id="line2d_90"/>
     <g id="text_17">
      <!-- 4 -->
      <defs>
       <path d="M 32.328125 0 
L 32.328125 17.140625 
L 1.265625 17.140625 
L 1.265625 25.203125 
L 33.9375 71.578125 
L 41.109375 71.578125 
L 41.109375 25.203125 
L 50.78125 25.203125 
L 50.78125 17.140625 
L 41.109375 17.140625 
L 41.109375 0 
z
M 32.328125 25.203125 
L 32.328125 57.46875 
L 9.90625 25.203125 
z
" id="ArialMT-34"/>
      </defs>
      <g style="fill:#262626;" transform="translate(38.730625 363.675728)scale(0.16 -0.16)">
       <use xlink:href="#ArialMT-34"/>
      </g>
     </g>
    </g>
    <g id="ytick_4">
     <g id="line2d_91">
      <path clip-path="url(#pc3880d1c81)" d="M 54.628125 294.796944 
L 1069.2 294.796944 
" style="fill:none;stroke:#ffffff;stroke-linecap:round;"/>
     </g>
     <g id="line2d_92"/>
     <g id="text_18">
      <!-- 6 -->
      <defs>
       <path d="M 49.75 54.046875 
L 41.015625 53.375 
Q 39.84375 58.546875 37.703125 60.890625 
Q 34.125 64.65625 28.90625 64.65625 
Q 24.703125 64.65625 21.53125 62.3125 
Q 17.390625 59.28125 14.984375 53.46875 
Q 12.59375 47.65625 12.5 36.921875 
Q 15.671875 41.75 20.265625 44.09375 
Q 24.859375 46.4375 29.890625 46.4375 
Q 38.671875 46.4375 44.84375 39.96875 
Q 51.03125 33.5 51.03125 23.25 
Q 51.03125 16.5 48.125 10.71875 
Q 45.21875 4.9375 40.140625 1.859375 
Q 35.0625 -1.21875 28.609375 -1.21875 
Q 17.625 -1.21875 10.6875 6.859375 
Q 3.765625 14.9375 3.765625 33.5 
Q 3.765625 54.25 11.421875 63.671875 
Q 18.109375 71.875 29.4375 71.875 
Q 37.890625 71.875 43.28125 67.140625 
Q 48.6875 62.40625 49.75 54.046875 
z
M 13.875 23.1875 
Q 13.875 18.65625 15.796875 14.5 
Q 17.71875 10.359375 21.1875 8.171875 
Q 24.65625 6 28.46875 6 
Q 34.03125 6 38.03125 10.484375 
Q 42.046875 14.984375 42.046875 22.703125 
Q 42.046875 30.125 38.078125 34.390625 
Q 34.125 38.671875 28.125 38.671875 
Q 22.171875 38.671875 18.015625 34.390625 
Q 13.875 30.125 13.875 23.1875 
z
" id="ArialMT-36"/>
      </defs>
      <g style="fill:#262626;" transform="translate(38.730625 300.523194)scale(0.16 -0.16)">
       <use xlink:href="#ArialMT-36"/>
      </g>
     </g>
    </g>
    <g id="ytick_5">
     <g id="line2d_93">
      <path clip-path="url(#pc3880d1c81)" d="M 54.628125 231.64441 
L 1069.2 231.64441 
" style="fill:none;stroke:#ffffff;stroke-linecap:round;"/>
     </g>
     <g id="line2d_94"/>
     <g id="text_19">
      <!-- 8 -->
      <defs>
       <path d="M 17.671875 38.8125 
Q 12.203125 40.828125 9.5625 44.53125 
Q 6.9375 48.25 6.9375 53.421875 
Q 6.9375 61.234375 12.546875 66.546875 
Q 18.171875 71.875 27.484375 71.875 
Q 36.859375 71.875 42.578125 66.421875 
Q 48.296875 60.984375 48.296875 53.171875 
Q 48.296875 48.1875 45.671875 44.5 
Q 43.0625 40.828125 37.75 38.8125 
Q 44.34375 36.671875 47.78125 31.875 
Q 51.21875 27.09375 51.21875 20.453125 
Q 51.21875 11.28125 44.71875 5.03125 
Q 38.234375 -1.21875 27.640625 -1.21875 
Q 17.046875 -1.21875 10.546875 5.046875 
Q 4.046875 11.328125 4.046875 20.703125 
Q 4.046875 27.6875 7.59375 32.390625 
Q 11.140625 37.109375 17.671875 38.8125 
z
M 15.921875 53.71875 
Q 15.921875 48.640625 19.1875 45.40625 
Q 22.46875 42.1875 27.6875 42.1875 
Q 32.765625 42.1875 36.015625 45.375 
Q 39.265625 48.578125 39.265625 53.21875 
Q 39.265625 58.0625 35.90625 61.359375 
Q 32.5625 64.65625 27.59375 64.65625 
Q 22.5625 64.65625 19.234375 61.421875 
Q 15.921875 58.203125 15.921875 53.71875 
z
M 13.09375 20.65625 
Q 13.09375 16.890625 14.875 13.375 
Q 16.65625 9.859375 20.171875 7.921875 
Q 23.6875 6 27.734375 6 
Q 34.03125 6 38.125 10.046875 
Q 42.234375 14.109375 42.234375 20.359375 
Q 42.234375 26.703125 38.015625 30.859375 
Q 33.796875 35.015625 27.4375 35.015625 
Q 21.234375 35.015625 17.15625 30.90625 
Q 13.09375 26.8125 13.09375 20.65625 
z
" id="ArialMT-38"/>
      </defs>
      <g style="fill:#262626;" transform="translate(38.730625 237.37066)scale(0.16 -0.16)">
       <use xlink:href="#ArialMT-38"/>
      </g>
     </g>
    </g>
    <g id="ytick_6">
     <g id="line2d_95">
      <path clip-path="url(#pc3880d1c81)" d="M 54.628125 168.491877 
L 1069.2 168.491877 
" style="fill:none;stroke:#ffffff;stroke-linecap:round;"/>
     </g>
     <g id="line2d_96"/>
     <g id="text_20">
      <!-- 10 -->
      <g style="fill:#262626;" transform="translate(29.833125 174.218127)scale(0.16 -0.16)">
       <use xlink:href="#ArialMT-31"/>
       <use x="55.615234" xlink:href="#ArialMT-30"/>
      </g>
     </g>
    </g>
    <g id="ytick_7">
     <g id="line2d_97">
      <path clip-path="url(#pc3880d1c81)" d="M 54.628125 105.339343 
L 1069.2 105.339343 
" style="fill:none;stroke:#ffffff;stroke-linecap:round;"/>
     </g>
     <g id="line2d_98"/>
     <g id="text_21">
      <!-- 12 -->
      <g style="fill:#262626;" transform="translate(29.833125 111.065593)scale(0.16 -0.16)">
       <use xlink:href="#ArialMT-31"/>
       <use x="55.615234" xlink:href="#ArialMT-32"/>
      </g>
     </g>
    </g>
    <g id="ytick_8">
     <g id="line2d_99">
      <path clip-path="url(#pc3880d1c81)" d="M 54.628125 42.186809 
L 1069.2 42.186809 
" style="fill:none;stroke:#ffffff;stroke-linecap:round;"/>
     </g>
     <g id="line2d_100"/>
     <g id="text_22">
      <!-- 14 -->
      <g style="fill:#262626;" transform="translate(29.833125 47.913059)scale(0.16 -0.16)">
       <use xlink:href="#ArialMT-31"/>
       <use x="55.615234" xlink:href="#ArialMT-34"/>
      </g>
     </g>
    </g>
    <g id="text_23">
     <!-- Daily Precipitation (in) -->
     <defs>
      <path d="M 6.640625 61.46875 
L 6.640625 71.578125 
L 15.4375 71.578125 
L 15.4375 61.46875 
z
M 6.640625 0 
L 6.640625 51.859375 
L 15.4375 51.859375 
L 15.4375 0 
z
" id="ArialMT-69"/>
      <path id="ArialMT-20"/>
      <path d="M 7.71875 0 
L 7.71875 71.578125 
L 34.71875 71.578125 
Q 41.84375 71.578125 45.609375 70.90625 
Q 50.875 70.015625 54.4375 67.546875 
Q 58.015625 65.09375 60.1875 60.640625 
Q 62.359375 56.203125 62.359375 50.875 
Q 62.359375 41.75 56.546875 35.421875 
Q 50.734375 29.109375 35.546875 29.109375 
L 17.1875 29.109375 
L 17.1875 0 
z
M 17.1875 37.546875 
L 35.6875 37.546875 
Q 44.875 37.546875 48.734375 40.96875 
Q 52.59375 44.390625 52.59375 50.59375 
Q 52.59375 55.078125 50.3125 58.265625 
Q 48.046875 61.46875 44.34375 62.5 
Q 41.9375 63.140625 35.5 63.140625 
L 17.1875 63.140625 
z
" id="ArialMT-50"/>
      <path d="M 23.390625 -21.046875 
Q 16.109375 -11.859375 11.078125 0.4375 
Q 6.0625 12.75 6.0625 25.921875 
Q 6.0625 37.546875 9.8125 48.1875 
Q 14.203125 60.546875 23.390625 72.796875 
L 29.6875 72.796875 
Q 23.78125 62.640625 21.875 58.296875 
Q 18.890625 51.5625 17.1875 44.234375 
Q 15.09375 35.109375 15.09375 25.875 
Q 15.09375 2.390625 29.6875 -21.046875 
z
" id="ArialMT-28"/>
      <path d="M 12.359375 -21.046875 
L 6.0625 -21.046875 
Q 20.65625 2.390625 20.65625 25.875 
Q 20.65625 35.0625 18.5625 44.09375 
Q 16.890625 51.421875 13.921875 58.15625 
Q 12.015625 62.546875 6.0625 72.796875 
L 12.359375 72.796875 
Q 21.53125 60.546875 25.921875 48.1875 
Q 29.6875 37.546875 29.6875 25.921875 
Q 29.6875 12.75 24.625 0.4375 
Q 19.578125 -11.859375 12.359375 -21.046875 
z
" id="ArialMT-29"/>
     </defs>
     <g style="fill:#262626;" transform="translate(22.465625 336.60125)rotate(-90)scale(0.16 -0.16)">
      <use xlink:href="#ArialMT-44"/>
      <use x="72.216797" xlink:href="#ArialMT-61"/>
      <use x="127.832031" xlink:href="#ArialMT-69"/>
      <use x="150.048828" xlink:href="#ArialMT-6c"/>
      <use x="172.265625" xlink:href="#ArialMT-79"/>
      <use x="222.265625" xlink:href="#ArialMT-20"/>
      <use x="250.048828" xlink:href="#ArialMT-50"/>
      <use x="316.748047" xlink:href="#ArialMT-72"/>
      <use x="350.048828" xlink:href="#ArialMT-65"/>
      <use x="405.664062" xlink:href="#ArialMT-63"/>
      <use x="455.664062" xlink:href="#ArialMT-69"/>
      <use x="477.880859" xlink:href="#ArialMT-70"/>
      <use x="533.496094" xlink:href="#ArialMT-69"/>
      <use x="555.712891" xlink:href="#ArialMT-74"/>
      <use x="583.496094" xlink:href="#ArialMT-61"/>
      <use x="639.111328" xlink:href="#ArialMT-74"/>
      <use x="666.894531" xlink:href="#ArialMT-69"/>
      <use x="689.111328" xlink:href="#ArialMT-6f"/>
      <use x="744.726562" xlink:href="#ArialMT-6e"/>
      <use x="800.341797" xlink:href="#ArialMT-20"/>
      <use x="828.125" xlink:href="#ArialMT-28"/>
      <use x="861.425781" xlink:href="#ArialMT-69"/>
      <use x="883.642578" xlink:href="#ArialMT-6e"/>
      <use x="939.257812" xlink:href="#ArialMT-29"/>
     </g>
    </g>
   </g>
   <g id="line2d_101">
    <path clip-path="url(#pc3880d1c81)" d="M 100.745028 189.647976 
L 103.278924 467.203361 
L 105.81282 481.096919 
L 108.346716 474.15014 
L 110.880612 386.368118 
L 113.414507 438.153196 
L 115.948403 482.044207 
L 118.482299 383.842017 
L 121.016195 483.307257 
L 123.550091 476.360479 
L 126.083986 444.152687 
L 128.617882 440.679297 
L 131.151778 473.518615 
L 133.685674 445.415737 
L 136.219569 421.102012 
L 138.753465 469.729463 
L 141.287361 450.46794 
L 143.821257 440.047772 
L 146.355153 444.784212 
L 148.889048 435.627094 
L 151.422944 398.682862 
L 153.95684 33.345455 
L 156.490736 327.636262 
L 159.024632 458.362007 
L 161.558527 462.782684 
L 164.092423 467.519124 
L 166.626319 474.15014 
L 169.160215 451.730991 
L 171.694111 447.310313 
L 174.228006 438.784721 
L 176.761902 434.679806 
L 179.295798 475.413191 
L 181.829694 481.412681 
L 184.36359 431.52218 
L 186.897485 441.310823 
L 189.431381 480.149631 
L 191.965277 389.841508 
L 194.499173 447.941839 
L 197.033068 438.468958 
L 199.566964 461.519633 
L 202.10086 462.466921 
L 204.634756 374.053374 
L 207.168652 458.362007 
L 209.702547 479.202343 
L 212.236443 483.938783 
L 214.770339 482.991495 
L 217.304235 484.254545 
L 219.838131 484.254545 
L 222.372026 462.466921 
L 224.905922 481.728444 
L 227.439818 481.728444 
L 229.973714 484.254545 
L 232.50761 471.939801 
L 235.041505 484.254545 
L 237.575401 466.887599 
L 240.109297 465.308785 
L 242.643193 478.88658 
L 245.177089 452.362516 
L 247.710984 474.15014 
L 250.24488 428.364553 
L 252.778776 475.413191 
L 255.312672 459.309295 
L 257.846567 449.520652 
L 260.380463 475.097428 
L 262.914359 425.522689 
L 265.448255 466.256073 
L 267.982151 464.045735 
L 270.516046 434.048281 
L 273.049942 433.416756 
L 275.583838 477.623529 
L 278.117734 482.991495 
L 280.65163 483.62302 
L 283.185525 482.359969 
L 285.719421 470.045225 
L 288.253317 481.728444 
L 290.787213 478.570817 
L 293.321109 448.889127 
L 295.855004 471.624039 
L 298.3889 483.938783 
L 300.922796 484.254545 
L 305.990588 484.254545 
L 308.524483 479.518105 
L 311.058379 482.675732 
L 313.592275 435.627094 
L 316.126171 482.359969 
L 318.660066 483.307257 
L 321.193962 472.255564 
L 323.727858 454.257092 
L 326.261754 386.999643 
L 328.79565 326.057448 
L 331.329545 463.098447 
L 333.863441 437.52167 
L 336.397337 442.573873 
L 338.931233 468.150649 
L 341.465129 466.887599 
L 343.999024 461.519633 
L 346.53292 470.676751 
L 349.066816 450.783703 
L 351.600712 428.364553 
L 354.134608 409.734556 
L 356.668503 398.682862 
L 359.202399 458.993532 
L 361.736295 381.947441 
L 364.270191 482.991495 
L 366.804087 472.255564 
L 369.337982 469.729463 
L 371.871878 425.838452 
L 374.405774 480.149631 
L 376.93967 476.360479 
L 379.473565 482.675732 
L 384.541357 436.890145 
L 387.075253 476.044716 
L 389.609149 482.991495 
L 392.143044 473.202852 
L 394.67694 456.151668 
L 397.210836 470.992513 
L 399.744732 483.307257 
L 402.278628 455.835905 
L 404.812523 406.261166 
L 407.346419 445.415737 
L 409.880315 433.100993 
L 412.414211 470.676751 
L 414.948107 419.838961 
L 417.482002 476.676241 
L 420.015898 471.308276 
L 422.549794 409.10303 
L 425.08369 378.474051 
L 427.617586 416.681334 
L 430.151481 473.202852 
L 432.685377 483.62302 
L 435.219273 484.254545 
L 437.753169 478.570817 
L 440.287064 454.257092 
L 442.82096 458.993532 
L 445.354856 482.359969 
L 447.888752 482.359969 
L 450.422648 484.254545 
L 460.558231 484.254545 
L 463.092127 483.938783 
L 465.626022 483.938783 
L 468.159918 484.254545 
L 470.693814 484.254545 
L 473.22771 482.044207 
L 475.761606 483.62302 
L 478.295501 484.254545 
L 480.829397 475.413191 
L 483.363293 452.046753 
L 485.897189 454.572855 
L 490.96498 371.21151 
L 493.498876 480.781156 
L 496.032772 482.359969 
L 498.566668 479.833868 
L 501.100563 452.994041 
L 503.634459 482.675732 
L 506.168355 484.254545 
L 518.837834 484.254545 
L 521.37173 472.255564 
L 523.905626 250.590171 
L 526.439521 450.152177 
L 528.973417 483.62302 
L 531.507313 484.254545 
L 534.041209 130.600357 
L 536.575105 153.335269 
L 539.109 392.051846 
L 541.642896 483.938783 
L 544.176792 481.728444 
L 546.710688 414.155233 
L 549.244584 451.099465 
L 551.778479 483.938783 
L 554.312375 478.255055 
L 556.846271 484.254545 
L 559.380167 480.149631 
L 561.914063 455.520143 
L 564.447958 483.938783 
L 566.981854 484.254545 
L 569.51575 479.518105 
L 572.049646 484.254545 
L 574.583541 484.254545 
L 577.117437 458.362007 
L 579.651333 117.338324 
L 582.185229 277.114235 
L 584.719125 413.83947 
L 587.25302 484.254545 
L 589.786916 446.047263 
L 592.320812 467.203361 
L 594.854708 484.254545 
L 597.388604 484.254545 
L 599.922499 422.365062 
L 602.456395 475.097428 
L 604.990291 482.991495 
L 607.524187 484.254545 
L 610.058083 484.254545 
L 612.591978 482.359969 
L 615.125874 482.359969 
L 617.65977 484.254545 
L 620.193666 461.519633 
L 622.727562 484.254545 
L 625.261457 484.254545 
L 627.795353 483.62302 
L 630.329249 481.412681 
L 632.863145 484.254545 
L 635.39704 482.675732 
L 637.930936 448.573364 
L 640.464832 422.0493 
L 642.998728 484.254545 
L 645.532624 483.938783 
L 648.066519 461.835396 
L 650.600415 478.255055 
L 653.134311 479.518105 
L 655.668207 483.938783 
L 658.202103 471.308276 
L 660.735998 484.254545 
L 663.269894 463.414209 
L 665.80379 479.518105 
L 668.337686 463.414209 
L 670.871582 482.359969 
L 673.405477 484.254545 
L 678.473269 484.254545 
L 681.007165 483.62302 
L 683.541061 469.4137 
L 686.074956 450.152177 
L 688.608852 449.836415 
L 691.142748 272.062032 
L 693.676644 429.311841 
L 696.210539 450.46794 
L 698.744435 387.315406 
L 701.278331 378.158289 
L 703.812227 477.939292 
L 706.346123 459.625057 
L 708.880018 219.645429 
L 711.413914 327.636262 
L 713.94781 469.729463 
L 716.481706 482.359969 
L 719.015602 484.254545 
L 721.549497 471.939801 
L 724.083393 470.992513 
L 729.151185 230.38136 
L 731.685081 281.534912 
L 734.218976 458.677769 
L 736.752872 482.675732 
L 739.286768 483.307257 
L 741.820664 481.728444 
L 744.35456 472.255564 
L 746.888455 482.359969 
L 749.422351 480.465393 
L 751.956247 389.209982 
L 754.490143 338.05643 
L 757.024038 457.098956 
L 759.557934 465.308785 
L 762.09183 479.202343 
L 764.625726 476.676241 
L 767.159622 445.7315 
L 769.693517 456.467431 
L 772.227413 470.992513 
L 774.761309 479.518105 
L 777.295205 457.414719 
L 779.829101 482.991495 
L 782.362996 483.307257 
L 784.896892 483.938783 
L 789.964684 461.835396 
L 792.49858 361.422867 
L 795.032475 414.155233 
L 797.566371 483.62302 
L 800.100267 468.150649 
L 802.634163 471.308276 
L 805.168059 470.992513 
L 807.701954 429.627604 
L 810.23585 472.571327 
L 812.769746 482.991495 
L 815.303642 473.518615 
L 817.837537 464.993023 
L 820.371433 447.941839 
L 822.905329 481.728444 
L 825.439225 484.254545 
L 827.973121 483.938783 
L 830.507016 483.307257 
L 833.040912 482.991495 
L 835.574808 435.942857 
L 838.108704 416.365572 
L 840.6426 428.996078 
L 843.176495 440.679297 
L 845.710391 434.679806 
L 848.244287 398.682862 
L 850.778183 477.939292 
L 853.312079 467.203361 
L 855.845974 439.416246 
L 858.37987 461.203871 
L 860.913766 466.887599 
L 863.447662 468.150649 
L 865.981558 470.360988 
L 868.515453 463.098447 
L 871.049349 464.045735 
L 873.583245 465.308785 
L 876.117141 481.096919 
L 878.651036 480.781156 
L 881.184932 483.307257 
L 883.718828 482.044207 
L 886.252724 467.834887 
L 888.78662 476.044716 
L 891.320515 461.519633 
L 893.854411 460.888108 
L 896.388307 479.518105 
L 898.922203 484.254545 
L 901.456099 483.62302 
L 903.989994 468.466412 
L 906.52389 481.096919 
L 909.057786 477.939292 
L 911.591682 482.991495 
L 914.125578 483.307257 
L 916.659473 472.887089 
L 919.193369 427.101502 
L 921.727265 454.257092 
L 924.261161 478.255055 
L 926.795057 458.677769 
L 929.328952 455.520143 
L 931.862848 404.36659 
L 934.396744 471.308276 
L 936.93064 445.099975 
L 939.464535 480.149631 
L 941.998431 344.687446 
L 944.532327 448.573364 
L 947.066223 381.000153 
L 949.600119 464.993023 
L 952.134014 468.466412 
L 954.66791 483.938783 
L 957.201806 459.94082 
L 959.735702 464.993023 
L 964.803493 484.254545 
L 967.337389 479.833868 
L 969.871285 474.781665 
L 972.405181 482.044207 
L 974.939077 482.359969 
L 977.472972 482.359969 
L 980.006868 484.254545 
L 982.540764 482.675732 
L 985.07466 470.360988 
L 987.608556 479.518105 
L 990.142451 482.044207 
L 992.676347 484.254545 
L 995.210243 479.833868 
L 997.744139 484.254545 
L 1000.278034 474.465903 
L 1002.81193 458.362007 
L 1005.345826 464.993023 
L 1007.879722 478.255055 
L 1010.413618 482.359969 
L 1012.947513 481.412681 
L 1015.481409 483.938783 
L 1018.015305 465.940311 
L 1020.549201 468.466412 
L 1023.083097 467.519124 
L 1023.083097 467.519124 
" style="fill:none;stroke:#4c72b0;stroke-linecap:round;stroke-width:1.75;"/>
   </g>
   <g id="patch_3">
    <path d="M 54.628125 506.8 
L 54.628125 10.8 
" style="fill:none;"/>
   </g>
   <g id="patch_4">
    <path d="M 1069.2 506.8 
L 1069.2 10.8 
" style="fill:none;"/>
   </g>
   <g id="patch_5">
    <path d="M 54.628125 506.8 
L 1069.2 506.8 
" style="fill:none;"/>
   </g>
   <g id="patch_6">
    <path d="M 54.628125 10.8 
L 1069.2 10.8 
" style="fill:none;"/>
   </g>
  </g>
 </g>
 <defs>
  <clipPath id="pc3880d1c81">
   <rect height="496" width="1014.571875" x="54.628125" y="10.8"/>
  </clipPath>
 </defs>
</svg>
