<?xml version="1.0" encoding="utf-8" standalone="no"?>
<!DOCTYPE svg PUBLIC "-//W3C//DTD SVG 1.1//EN"
  "http://www.w3.org/Graphics/SVG/1.1/DTD/svg11.dtd">
<!-- Created with matplotlib (http://matplotlib.org/) -->
<svg height="576pt" version="1.1" viewBox="0 0 1080 576" width="1080pt" xmlns="http://www.w3.org/2000/svg" xmlns:xlink="http://www.w3.org/1999/xlink">
 <defs>
  <style type="text/css">
*{stroke-linecap:butt;stroke-linejoin:round;}
  </style>
 </defs>
 <g id="figure_1">
  <g id="patch_1">
   <path d="M 0 576 
L 1080 576 
L 1080 0 
L 0 0 
z
" style="fill:#ffffff;"/>
  </g>
  <g id="axes_1">
   <g id="patch_2">
    <path d="M 59.128125 506.8 
L 1069.2 506.8 
L 1069.2 16.966112 
L 59.128125 16.966112 
z
" style="fill:#eaeaf2;"/>
   </g>
   <g id="matplotlib.axis_1">
    <g id="xtick_1">
     <g id="line2d_1">
      <path clip-path="url(#p29dc09cd2c)" d="M 125.221739 506.8 
L 125.221739 16.966112 
" style="fill:none;stroke:#ffffff;stroke-linecap:round;"/>
     </g>
     <g id="line2d_2"/>
     <g id="text_1">
      <!-- Sep -->
      <defs>
       <path d="M 4.5 23 
L 13.421875 23.78125 
Q 14.0625 18.40625 16.375 14.96875 
Q 18.703125 11.53125 23.578125 9.40625 
Q 28.46875 7.28125 34.578125 7.28125 
Q 39.984375 7.28125 44.140625 8.890625 
Q 48.296875 10.5 50.3125 13.296875 
Q 52.34375 16.109375 52.34375 19.4375 
Q 52.34375 22.796875 50.390625 25.3125 
Q 48.4375 27.828125 43.953125 29.546875 
Q 41.0625 30.671875 31.203125 33.03125 
Q 21.34375 35.40625 17.390625 37.5 
Q 12.25 40.1875 9.734375 44.15625 
Q 7.234375 48.140625 7.234375 53.078125 
Q 7.234375 58.5 10.296875 63.203125 
Q 13.375 67.921875 19.28125 70.359375 
Q 25.203125 72.796875 32.421875 72.796875 
Q 40.375 72.796875 46.453125 70.234375 
Q 52.546875 67.671875 55.8125 62.6875 
Q 59.078125 57.71875 59.328125 51.421875 
L 50.25 50.734375 
Q 49.515625 57.515625 45.28125 60.984375 
Q 41.0625 64.453125 32.8125 64.453125 
Q 24.21875 64.453125 20.28125 61.296875 
Q 16.359375 58.15625 16.359375 53.71875 
Q 16.359375 49.859375 19.140625 47.359375 
Q 21.875 44.875 33.421875 42.265625 
Q 44.96875 39.65625 49.265625 37.703125 
Q 55.515625 34.8125 58.484375 30.390625 
Q 61.46875 25.984375 61.46875 20.21875 
Q 61.46875 14.5 58.203125 9.4375 
Q 54.9375 4.390625 48.796875 1.578125 
Q 42.671875 -1.21875 35.015625 -1.21875 
Q 25.296875 -1.21875 18.71875 1.609375 
Q 12.15625 4.4375 8.421875 10.125 
Q 4.6875 15.828125 4.5 23 
z
" id="ArialMT-53"/>
       <path d="M 42.09375 16.703125 
L 51.171875 15.578125 
Q 49.03125 7.625 43.21875 3.21875 
Q 37.40625 -1.171875 28.375 -1.171875 
Q 17 -1.171875 10.328125 5.828125 
Q 3.65625 12.84375 3.65625 25.484375 
Q 3.65625 38.578125 10.390625 45.796875 
Q 17.140625 53.03125 27.875 53.03125 
Q 38.28125 53.03125 44.875 45.953125 
Q 51.46875 38.875 51.46875 26.03125 
Q 51.46875 25.25 51.421875 23.6875 
L 12.75 23.6875 
Q 13.234375 15.140625 17.578125 10.59375 
Q 21.921875 6.0625 28.421875 6.0625 
Q 33.25 6.0625 36.671875 8.59375 
Q 40.09375 11.140625 42.09375 16.703125 
z
M 13.234375 30.90625 
L 42.1875 30.90625 
Q 41.609375 37.453125 38.875 40.71875 
Q 34.671875 45.796875 27.984375 45.796875 
Q 21.921875 45.796875 17.796875 41.75 
Q 13.671875 37.703125 13.234375 30.90625 
z
" id="ArialMT-65"/>
       <path d="M 6.59375 -19.875 
L 6.59375 51.859375 
L 14.59375 51.859375 
L 14.59375 45.125 
Q 17.4375 49.078125 21 51.046875 
Q 24.5625 53.03125 29.640625 53.03125 
Q 36.28125 53.03125 41.359375 49.609375 
Q 46.4375 46.1875 49.015625 39.953125 
Q 51.609375 33.734375 51.609375 26.3125 
Q 51.609375 18.359375 48.75 11.984375 
Q 45.90625 5.609375 40.453125 2.21875 
Q 35.015625 -1.171875 29 -1.171875 
Q 24.609375 -1.171875 21.109375 0.6875 
Q 17.625 2.546875 15.375 5.375 
L 15.375 -19.875 
z
M 14.546875 25.640625 
Q 14.546875 15.625 18.59375 10.84375 
Q 22.65625 6.0625 28.421875 6.0625 
Q 34.28125 6.0625 38.453125 11.015625 
Q 42.625 15.96875 42.625 26.375 
Q 42.625 36.28125 38.546875 41.203125 
Q 34.46875 46.140625 28.8125 46.140625 
Q 23.1875 46.140625 18.859375 40.890625 
Q 14.546875 35.640625 14.546875 25.640625 
z
" id="ArialMT-70"/>
      </defs>
      <g style="fill:#262626;" transform="translate(110.987989 525.4475)scale(0.16 -0.16)">
       <use xlink:href="#ArialMT-53"/>
       <use x="66.699219" xlink:href="#ArialMT-65"/>
       <use x="122.314453" xlink:href="#ArialMT-70"/>
      </g>
     </g>
    </g>
    <g id="xtick_2">
     <g id="line2d_3">
      <path clip-path="url(#p29dc09cd2c)" d="M 200.90145 506.8 
L 200.90145 16.966112 
" style="fill:none;stroke:#ffffff;stroke-linecap:round;"/>
     </g>
     <g id="line2d_4"/>
     <g id="text_2">
      <!-- Oct -->
      <defs>
       <path d="M 4.828125 34.859375 
Q 4.828125 52.6875 14.390625 62.765625 
Q 23.96875 72.859375 39.109375 72.859375 
Q 49.03125 72.859375 56.984375 68.109375 
Q 64.9375 63.375 69.109375 54.90625 
Q 73.296875 46.4375 73.296875 35.6875 
Q 73.296875 24.8125 68.890625 16.21875 
Q 64.5 7.625 56.4375 3.203125 
Q 48.390625 -1.21875 39.0625 -1.21875 
Q 28.953125 -1.21875 20.984375 3.65625 
Q 13.03125 8.546875 8.921875 16.984375 
Q 4.828125 25.4375 4.828125 34.859375 
z
M 14.59375 34.71875 
Q 14.59375 21.78125 21.546875 14.328125 
Q 28.515625 6.890625 39.015625 6.890625 
Q 49.703125 6.890625 56.609375 14.40625 
Q 63.53125 21.921875 63.53125 35.75 
Q 63.53125 44.484375 60.578125 51 
Q 57.625 57.515625 51.921875 61.109375 
Q 46.234375 64.703125 39.15625 64.703125 
Q 29.109375 64.703125 21.84375 57.78125 
Q 14.59375 50.875 14.59375 34.71875 
z
" id="ArialMT-4f"/>
       <path d="M 40.4375 19 
L 49.078125 17.875 
Q 47.65625 8.9375 41.8125 3.875 
Q 35.984375 -1.171875 27.484375 -1.171875 
Q 16.84375 -1.171875 10.375 5.78125 
Q 3.90625 12.75 3.90625 25.734375 
Q 3.90625 34.125 6.6875 40.421875 
Q 9.46875 46.734375 15.15625 49.875 
Q 20.84375 53.03125 27.546875 53.03125 
Q 35.984375 53.03125 41.359375 48.75 
Q 46.734375 44.484375 48.25 36.625 
L 39.703125 35.296875 
Q 38.484375 40.53125 35.375 43.15625 
Q 32.28125 45.796875 27.875 45.796875 
Q 21.234375 45.796875 17.078125 41.03125 
Q 12.9375 36.28125 12.9375 25.984375 
Q 12.9375 15.53125 16.9375 10.796875 
Q 20.953125 6.0625 27.390625 6.0625 
Q 32.5625 6.0625 36.03125 9.234375 
Q 39.5 12.40625 40.4375 19 
z
" id="ArialMT-63"/>
       <path d="M 25.78125 7.859375 
L 27.046875 0.09375 
Q 23.34375 -0.6875 20.40625 -0.6875 
Q 15.625 -0.6875 12.984375 0.828125 
Q 10.359375 2.34375 9.28125 4.8125 
Q 8.203125 7.28125 8.203125 15.1875 
L 8.203125 45.015625 
L 1.765625 45.015625 
L 1.765625 51.859375 
L 8.203125 51.859375 
L 8.203125 64.703125 
L 16.9375 69.96875 
L 16.9375 51.859375 
L 25.78125 51.859375 
L 25.78125 45.015625 
L 16.9375 45.015625 
L 16.9375 14.703125 
Q 16.9375 10.9375 17.40625 9.859375 
Q 17.875 8.796875 18.921875 8.15625 
Q 19.96875 7.515625 21.921875 7.515625 
Q 23.390625 7.515625 25.78125 7.859375 
z
" id="ArialMT-74"/>
      </defs>
      <g style="fill:#262626;" transform="translate(188.45645 525.2525)scale(0.16 -0.16)">
       <use xlink:href="#ArialMT-4f"/>
       <use x="77.783203" xlink:href="#ArialMT-63"/>
       <use x="127.783203" xlink:href="#ArialMT-74"/>
      </g>
     </g>
    </g>
    <g id="xtick_3">
     <g id="line2d_5">
      <path clip-path="url(#p29dc09cd2c)" d="M 279.103818 506.8 
L 279.103818 16.966112 
" style="fill:none;stroke:#ffffff;stroke-linecap:round;"/>
     </g>
     <g id="line2d_6"/>
     <g id="text_3">
      <!-- Nov -->
      <defs>
       <path d="M 7.625 0 
L 7.625 71.578125 
L 17.328125 71.578125 
L 54.9375 15.375 
L 54.9375 71.578125 
L 64.015625 71.578125 
L 64.015625 0 
L 54.296875 0 
L 16.703125 56.25 
L 16.703125 0 
z
" id="ArialMT-4e"/>
       <path d="M 3.328125 25.921875 
Q 3.328125 40.328125 11.328125 47.265625 
Q 18.015625 53.03125 27.640625 53.03125 
Q 38.328125 53.03125 45.109375 46.015625 
Q 51.90625 39.015625 51.90625 26.65625 
Q 51.90625 16.65625 48.90625 10.90625 
Q 45.90625 5.171875 40.15625 2 
Q 34.421875 -1.171875 27.640625 -1.171875 
Q 16.75 -1.171875 10.03125 5.8125 
Q 3.328125 12.796875 3.328125 25.921875 
z
M 12.359375 25.921875 
Q 12.359375 15.96875 16.703125 11.015625 
Q 21.046875 6.0625 27.640625 6.0625 
Q 34.1875 6.0625 38.53125 11.03125 
Q 42.875 16.015625 42.875 26.21875 
Q 42.875 35.84375 38.5 40.796875 
Q 34.125 45.75 27.640625 45.75 
Q 21.046875 45.75 16.703125 40.8125 
Q 12.359375 35.890625 12.359375 25.921875 
z
" id="ArialMT-6f"/>
       <path d="M 21 0 
L 1.265625 51.859375 
L 10.546875 51.859375 
L 21.6875 20.796875 
Q 23.484375 15.765625 25 10.359375 
Q 26.171875 14.453125 28.265625 20.21875 
L 39.796875 51.859375 
L 48.828125 51.859375 
L 29.203125 0 
z
" id="ArialMT-76"/>
      </defs>
      <g style="fill:#262626;" transform="translate(264.877568 525.2525)scale(0.16 -0.16)">
       <use xlink:href="#ArialMT-4e"/>
       <use x="72.216797" xlink:href="#ArialMT-6f"/>
       <use x="127.832031" xlink:href="#ArialMT-76"/>
      </g>
     </g>
    </g>
    <g id="xtick_4">
     <g id="line2d_7">
      <path clip-path="url(#p29dc09cd2c)" d="M 354.783529 506.8 
L 354.783529 16.966112 
" style="fill:none;stroke:#ffffff;stroke-linecap:round;"/>
     </g>
     <g id="line2d_8"/>
     <g id="text_4">
      <!-- Dec -->
      <defs>
       <path d="M 7.71875 0 
L 7.71875 71.578125 
L 32.375 71.578125 
Q 40.71875 71.578125 45.125 70.5625 
Q 51.265625 69.140625 55.609375 65.4375 
Q 61.28125 60.640625 64.078125 53.1875 
Q 66.890625 45.75 66.890625 36.1875 
Q 66.890625 28.03125 64.984375 21.734375 
Q 63.09375 15.4375 60.109375 11.296875 
Q 57.125 7.171875 53.578125 4.796875 
Q 50.046875 2.4375 45.046875 1.21875 
Q 40.046875 0 33.546875 0 
z
M 17.1875 8.453125 
L 32.46875 8.453125 
Q 39.546875 8.453125 43.578125 9.765625 
Q 47.609375 11.078125 50 13.484375 
Q 53.375 16.84375 55.25 22.53125 
Q 57.125 28.21875 57.125 36.328125 
Q 57.125 47.5625 53.4375 53.59375 
Q 49.75 59.625 44.484375 61.671875 
Q 40.671875 63.140625 32.234375 63.140625 
L 17.1875 63.140625 
z
" id="ArialMT-44"/>
      </defs>
      <g style="fill:#262626;" transform="translate(340.557279 525.2525)scale(0.16 -0.16)">
       <use xlink:href="#ArialMT-44"/>
       <use x="72.216797" xlink:href="#ArialMT-65"/>
       <use x="127.832031" xlink:href="#ArialMT-63"/>
      </g>
     </g>
    </g>
    <g id="xtick_5">
     <g id="line2d_9">
      <path clip-path="url(#p29dc09cd2c)" d="M 432.985897 506.8 
L 432.985897 16.966112 
" style="fill:none;stroke:#ffffff;stroke-linecap:round;"/>
     </g>
     <g id="line2d_10"/>
     <g id="text_5">
      <!-- Jan -->
      <defs>
       <path d="M 2.875 20.3125 
L 11.421875 21.484375 
Q 11.765625 13.28125 14.5 10.25 
Q 17.234375 7.234375 22.078125 7.234375 
Q 25.640625 7.234375 28.21875 8.859375 
Q 30.8125 10.5 31.78125 13.296875 
Q 32.765625 16.109375 32.765625 22.265625 
L 32.765625 71.578125 
L 42.234375 71.578125 
L 42.234375 22.796875 
Q 42.234375 13.8125 40.0625 8.875 
Q 37.890625 3.953125 33.171875 1.359375 
Q 28.46875 -1.21875 22.125 -1.21875 
Q 12.703125 -1.21875 7.6875 4.203125 
Q 2.6875 9.625 2.875 20.3125 
z
" id="ArialMT-4a"/>
       <path d="M 40.4375 6.390625 
Q 35.546875 2.25 31.03125 0.53125 
Q 26.515625 -1.171875 21.34375 -1.171875 
Q 12.796875 -1.171875 8.203125 3 
Q 3.609375 7.171875 3.609375 13.671875 
Q 3.609375 17.484375 5.34375 20.625 
Q 7.078125 23.78125 9.890625 25.6875 
Q 12.703125 27.59375 16.21875 28.5625 
Q 18.796875 29.25 24.03125 29.890625 
Q 34.671875 31.15625 39.703125 32.90625 
Q 39.75 34.71875 39.75 35.203125 
Q 39.75 40.578125 37.25 42.78125 
Q 33.890625 45.75 27.25 45.75 
Q 21.046875 45.75 18.09375 43.578125 
Q 15.140625 41.40625 13.71875 35.890625 
L 5.125 37.0625 
Q 6.296875 42.578125 8.984375 45.96875 
Q 11.671875 49.359375 16.75 51.1875 
Q 21.828125 53.03125 28.515625 53.03125 
Q 35.15625 53.03125 39.296875 51.46875 
Q 43.453125 49.90625 45.40625 47.53125 
Q 47.359375 45.171875 48.140625 41.546875 
Q 48.578125 39.3125 48.578125 33.453125 
L 48.578125 21.734375 
Q 48.578125 9.46875 49.140625 6.21875 
Q 49.703125 2.984375 51.375 0 
L 42.1875 0 
Q 40.828125 2.734375 40.4375 6.390625 
z
M 39.703125 26.03125 
Q 34.90625 24.078125 25.34375 22.703125 
Q 19.921875 21.921875 17.671875 20.9375 
Q 15.4375 19.96875 14.203125 18.09375 
Q 12.984375 16.21875 12.984375 13.921875 
Q 12.984375 10.40625 15.640625 8.0625 
Q 18.3125 5.71875 23.4375 5.71875 
Q 28.515625 5.71875 32.46875 7.9375 
Q 36.421875 10.15625 38.28125 14.015625 
Q 39.703125 17 39.703125 22.796875 
z
" id="ArialMT-61"/>
       <path d="M 6.59375 0 
L 6.59375 51.859375 
L 14.5 51.859375 
L 14.5 44.484375 
Q 20.21875 53.03125 31 53.03125 
Q 35.6875 53.03125 39.625 51.34375 
Q 43.5625 49.65625 45.515625 46.921875 
Q 47.46875 44.1875 48.25 40.4375 
Q 48.734375 37.984375 48.734375 31.890625 
L 48.734375 0 
L 39.9375 0 
L 39.9375 31.546875 
Q 39.9375 36.921875 38.90625 39.578125 
Q 37.890625 42.234375 35.28125 43.8125 
Q 32.671875 45.40625 29.15625 45.40625 
Q 23.53125 45.40625 19.453125 41.84375 
Q 15.375 38.28125 15.375 28.328125 
L 15.375 0 
z
" id="ArialMT-6e"/>
      </defs>
      <g style="fill:#262626;" transform="translate(420.088397 525.2525)scale(0.16 -0.16)">
       <use xlink:href="#ArialMT-4a"/>
       <use x="50" xlink:href="#ArialMT-61"/>
       <use x="105.615234" xlink:href="#ArialMT-6e"/>
      </g>
      <!-- 2017 -->
      <defs>
       <path d="M 50.34375 8.453125 
L 50.34375 0 
L 3.03125 0 
Q 2.9375 3.171875 4.046875 6.109375 
Q 5.859375 10.9375 9.828125 15.625 
Q 13.8125 20.3125 21.34375 26.46875 
Q 33.015625 36.03125 37.109375 41.625 
Q 41.21875 47.21875 41.21875 52.203125 
Q 41.21875 57.421875 37.46875 61 
Q 33.734375 64.59375 27.734375 64.59375 
Q 21.390625 64.59375 17.578125 60.78125 
Q 13.765625 56.984375 13.71875 50.25 
L 4.6875 51.171875 
Q 5.609375 61.28125 11.65625 66.578125 
Q 17.71875 71.875 27.9375 71.875 
Q 38.234375 71.875 44.234375 66.15625 
Q 50.25 60.453125 50.25 52 
Q 50.25 47.703125 48.484375 43.546875 
Q 46.734375 39.40625 42.65625 34.8125 
Q 38.578125 30.21875 29.109375 22.21875 
Q 21.1875 15.578125 18.9375 13.203125 
Q 16.703125 10.84375 15.234375 8.453125 
z
" id="ArialMT-32"/>
       <path d="M 4.15625 35.296875 
Q 4.15625 48 6.765625 55.734375 
Q 9.375 63.484375 14.515625 67.671875 
Q 19.671875 71.875 27.484375 71.875 
Q 33.25 71.875 37.59375 69.546875 
Q 41.9375 67.234375 44.765625 62.859375 
Q 47.609375 58.5 49.21875 52.21875 
Q 50.828125 45.953125 50.828125 35.296875 
Q 50.828125 22.703125 48.234375 14.96875 
Q 45.65625 7.234375 40.5 3 
Q 35.359375 -1.21875 27.484375 -1.21875 
Q 17.140625 -1.21875 11.234375 6.203125 
Q 4.15625 15.140625 4.15625 35.296875 
z
M 13.1875 35.296875 
Q 13.1875 17.671875 17.3125 11.828125 
Q 21.4375 6 27.484375 6 
Q 33.546875 6 37.671875 11.859375 
Q 41.796875 17.71875 41.796875 35.296875 
Q 41.796875 52.984375 37.671875 58.78125 
Q 33.546875 64.59375 27.390625 64.59375 
Q 21.34375 64.59375 17.71875 59.46875 
Q 13.1875 52.9375 13.1875 35.296875 
z
" id="ArialMT-30"/>
       <path d="M 37.25 0 
L 28.46875 0 
L 28.46875 56 
Q 25.296875 52.984375 20.140625 49.953125 
Q 14.984375 46.921875 10.890625 45.40625 
L 10.890625 53.90625 
Q 18.265625 57.375 23.78125 62.296875 
Q 29.296875 67.234375 31.59375 71.875 
L 37.25 71.875 
z
" id="ArialMT-31"/>
       <path d="M 4.734375 62.203125 
L 4.734375 70.65625 
L 51.078125 70.65625 
L 51.078125 63.8125 
Q 44.234375 56.546875 37.515625 44.484375 
Q 30.8125 32.421875 27.15625 19.671875 
Q 24.515625 10.6875 23.78125 0 
L 14.75 0 
Q 14.890625 8.453125 18.0625 20.40625 
Q 21.234375 32.375 27.171875 43.484375 
Q 33.109375 54.59375 39.796875 62.203125 
z
" id="ArialMT-37"/>
      </defs>
      <g style="fill:#262626;" transform="translate(415.190897 542.1755)scale(0.16 -0.16)">
       <use xlink:href="#ArialMT-32"/>
       <use x="55.615234" xlink:href="#ArialMT-30"/>
       <use x="111.230469" xlink:href="#ArialMT-31"/>
       <use x="166.845703" xlink:href="#ArialMT-37"/>
      </g>
     </g>
    </g>
    <g id="xtick_6">
     <g id="line2d_11">
      <path clip-path="url(#p29dc09cd2c)" d="M 511.188265 506.8 
L 511.188265 16.966112 
" style="fill:none;stroke:#ffffff;stroke-linecap:round;"/>
     </g>
     <g id="line2d_12"/>
     <g id="text_6">
      <!-- Feb -->
      <defs>
       <path d="M 8.203125 0 
L 8.203125 71.578125 
L 56.5 71.578125 
L 56.5 63.140625 
L 17.671875 63.140625 
L 17.671875 40.96875 
L 51.265625 40.96875 
L 51.265625 32.515625 
L 17.671875 32.515625 
L 17.671875 0 
z
" id="ArialMT-46"/>
       <path d="M 14.703125 0 
L 6.546875 0 
L 6.546875 71.578125 
L 15.328125 71.578125 
L 15.328125 46.046875 
Q 20.90625 53.03125 29.546875 53.03125 
Q 34.328125 53.03125 38.59375 51.09375 
Q 42.875 49.171875 45.625 45.671875 
Q 48.390625 42.1875 49.953125 37.25 
Q 51.515625 32.328125 51.515625 26.703125 
Q 51.515625 13.375 44.921875 6.09375 
Q 38.328125 -1.171875 29.109375 -1.171875 
Q 19.921875 -1.171875 14.703125 6.5 
z
M 14.59375 26.3125 
Q 14.59375 17 17.140625 12.84375 
Q 21.296875 6.0625 28.375 6.0625 
Q 34.125 6.0625 38.328125 11.0625 
Q 42.53125 16.0625 42.53125 25.984375 
Q 42.53125 36.140625 38.5 40.96875 
Q 34.46875 45.796875 28.765625 45.796875 
Q 23 45.796875 18.796875 40.796875 
Q 14.59375 35.796875 14.59375 26.3125 
z
" id="ArialMT-62"/>
      </defs>
      <g style="fill:#262626;" transform="translate(497.404515 525.2525)scale(0.16 -0.16)">
       <use xlink:href="#ArialMT-46"/>
       <use x="61.083984" xlink:href="#ArialMT-65"/>
       <use x="116.699219" xlink:href="#ArialMT-62"/>
      </g>
     </g>
    </g>
    <g id="xtick_7">
     <g id="line2d_13">
      <path clip-path="url(#p29dc09cd2c)" d="M 581.822662 506.8 
L 581.822662 16.966112 
" style="fill:none;stroke:#ffffff;stroke-linecap:round;"/>
     </g>
     <g id="line2d_14"/>
     <g id="text_7">
      <!-- Mar -->
      <defs>
       <path d="M 7.421875 0 
L 7.421875 71.578125 
L 21.6875 71.578125 
L 38.625 20.90625 
Q 40.96875 13.8125 42.046875 10.296875 
Q 43.265625 14.203125 45.84375 21.78125 
L 62.984375 71.578125 
L 75.734375 71.578125 
L 75.734375 0 
L 66.609375 0 
L 66.609375 59.90625 
L 45.796875 0 
L 37.25 0 
L 16.546875 60.9375 
L 16.546875 0 
z
" id="ArialMT-4d"/>
       <path d="M 6.5 0 
L 6.5 51.859375 
L 14.40625 51.859375 
L 14.40625 44 
Q 17.4375 49.515625 20 51.265625 
Q 22.5625 53.03125 25.640625 53.03125 
Q 30.078125 53.03125 34.671875 50.203125 
L 31.640625 42.046875 
Q 28.421875 43.953125 25.203125 43.953125 
Q 22.3125 43.953125 20.015625 42.21875 
Q 17.71875 40.484375 16.75 37.40625 
Q 15.28125 32.71875 15.28125 27.15625 
L 15.28125 0 
z
" id="ArialMT-72"/>
      </defs>
      <g style="fill:#262626;" transform="translate(568.046412 525.2525)scale(0.16 -0.16)">
       <use xlink:href="#ArialMT-4d"/>
       <use x="83.300781" xlink:href="#ArialMT-61"/>
       <use x="138.916016" xlink:href="#ArialMT-72"/>
      </g>
     </g>
    </g>
    <g id="xtick_8">
     <g id="line2d_15">
      <path clip-path="url(#p29dc09cd2c)" d="M 660.02503 506.8 
L 660.02503 16.966112 
" style="fill:none;stroke:#ffffff;stroke-linecap:round;"/>
     </g>
     <g id="line2d_16"/>
     <g id="text_8">
      <!-- Apr -->
      <defs>
       <path d="M -0.140625 0 
L 27.34375 71.578125 
L 37.546875 71.578125 
L 66.84375 0 
L 56.0625 0 
L 47.703125 21.6875 
L 17.78125 21.6875 
L 9.90625 0 
z
M 20.515625 29.390625 
L 44.78125 29.390625 
L 37.3125 49.21875 
Q 33.890625 58.25 32.234375 64.0625 
Q 30.859375 57.171875 28.375 50.390625 
z
" id="ArialMT-41"/>
      </defs>
      <g style="fill:#262626;" transform="translate(647.57628 525.2525)scale(0.16 -0.16)">
       <use xlink:href="#ArialMT-41"/>
       <use x="66.699219" xlink:href="#ArialMT-70"/>
       <use x="122.314453" xlink:href="#ArialMT-72"/>
      </g>
     </g>
    </g>
    <g id="xtick_9">
     <g id="line2d_17">
      <path clip-path="url(#p29dc09cd2c)" d="M 735.704741 506.8 
L 735.704741 16.966112 
" style="fill:none;stroke:#ffffff;stroke-linecap:round;"/>
     </g>
     <g id="line2d_18"/>
     <g id="text_9">
      <!-- May -->
      <defs>
       <path d="M 6.203125 -19.96875 
L 5.21875 -11.71875 
Q 8.109375 -12.5 10.25 -12.5 
Q 13.1875 -12.5 14.9375 -11.515625 
Q 16.703125 -10.546875 17.828125 -8.796875 
Q 18.65625 -7.46875 20.515625 -2.25 
Q 20.75 -1.515625 21.296875 -0.09375 
L 1.609375 51.859375 
L 11.078125 51.859375 
L 21.875 21.828125 
Q 23.96875 16.109375 25.640625 9.8125 
Q 27.15625 15.875 29.25 21.625 
L 40.328125 51.859375 
L 49.125 51.859375 
L 29.390625 -0.875 
Q 26.21875 -9.421875 24.46875 -12.640625 
Q 22.125 -17 19.09375 -19.015625 
Q 16.0625 -21.046875 11.859375 -21.046875 
Q 9.328125 -21.046875 6.203125 -19.96875 
z
" id="ArialMT-79"/>
      </defs>
      <g style="fill:#262626;" transform="translate(720.592241 525.2525)scale(0.16 -0.16)">
       <use xlink:href="#ArialMT-4d"/>
       <use x="83.300781" xlink:href="#ArialMT-61"/>
       <use x="138.916016" xlink:href="#ArialMT-79"/>
      </g>
     </g>
    </g>
    <g id="xtick_10">
     <g id="line2d_19">
      <path clip-path="url(#p29dc09cd2c)" d="M 813.907109 506.8 
L 813.907109 16.966112 
" style="fill:none;stroke:#ffffff;stroke-linecap:round;"/>
     </g>
     <g id="line2d_20"/>
     <g id="text_10">
      <!-- Jun -->
      <defs>
       <path d="M 40.578125 0 
L 40.578125 7.625 
Q 34.515625 -1.171875 24.125 -1.171875 
Q 19.53125 -1.171875 15.546875 0.578125 
Q 11.578125 2.34375 9.640625 5 
Q 7.71875 7.671875 6.9375 11.53125 
Q 6.390625 14.109375 6.390625 19.734375 
L 6.390625 51.859375 
L 15.1875 51.859375 
L 15.1875 23.09375 
Q 15.1875 16.21875 15.71875 13.8125 
Q 16.546875 10.359375 19.234375 8.375 
Q 21.921875 6.390625 25.875 6.390625 
Q 29.828125 6.390625 33.296875 8.421875 
Q 36.765625 10.453125 38.203125 13.9375 
Q 39.65625 17.4375 39.65625 24.078125 
L 39.65625 51.859375 
L 48.4375 51.859375 
L 48.4375 0 
z
" id="ArialMT-75"/>
      </defs>
      <g style="fill:#262626;" transform="translate(801.009609 525.2525)scale(0.16 -0.16)">
       <use xlink:href="#ArialMT-4a"/>
       <use x="50" xlink:href="#ArialMT-75"/>
       <use x="105.615234" xlink:href="#ArialMT-6e"/>
      </g>
     </g>
    </g>
    <g id="xtick_11">
     <g id="line2d_21">
      <path clip-path="url(#p29dc09cd2c)" d="M 889.586819 506.8 
L 889.586819 16.966112 
" style="fill:none;stroke:#ffffff;stroke-linecap:round;"/>
     </g>
     <g id="line2d_22"/>
     <g id="text_11">
      <!-- Jul -->
      <defs>
       <path d="M 6.390625 0 
L 6.390625 71.578125 
L 15.1875 71.578125 
L 15.1875 0 
z
" id="ArialMT-6c"/>
      </defs>
      <g style="fill:#262626;" transform="translate(879.360569 525.2525)scale(0.16 -0.16)">
       <use xlink:href="#ArialMT-4a"/>
       <use x="50" xlink:href="#ArialMT-75"/>
       <use x="105.615234" xlink:href="#ArialMT-6c"/>
      </g>
     </g>
    </g>
    <g id="xtick_12">
     <g id="line2d_23">
      <path clip-path="url(#p29dc09cd2c)" d="M 967.789187 506.8 
L 967.789187 16.966112 
" style="fill:none;stroke:#ffffff;stroke-linecap:round;"/>
     </g>
     <g id="line2d_24"/>
     <g id="text_12">
      <!-- Aug -->
      <defs>
       <path d="M 4.984375 -4.296875 
L 13.53125 -5.5625 
Q 14.0625 -9.515625 16.5 -11.328125 
Q 19.78125 -13.765625 25.4375 -13.765625 
Q 31.546875 -13.765625 34.859375 -11.328125 
Q 38.1875 -8.890625 39.359375 -4.5 
Q 40.046875 -1.8125 39.984375 6.78125 
Q 34.234375 0 25.640625 0 
Q 14.9375 0 9.078125 7.71875 
Q 3.21875 15.4375 3.21875 26.21875 
Q 3.21875 33.640625 5.90625 39.90625 
Q 8.59375 46.1875 13.6875 49.609375 
Q 18.796875 53.03125 25.6875 53.03125 
Q 34.859375 53.03125 40.828125 45.609375 
L 40.828125 51.859375 
L 48.921875 51.859375 
L 48.921875 7.03125 
Q 48.921875 -5.078125 46.453125 -10.125 
Q 44 -15.1875 38.640625 -18.109375 
Q 33.296875 -21.046875 25.484375 -21.046875 
Q 16.21875 -21.046875 10.5 -16.875 
Q 4.78125 -12.703125 4.984375 -4.296875 
z
M 12.25 26.859375 
Q 12.25 16.65625 16.296875 11.96875 
Q 20.359375 7.28125 26.46875 7.28125 
Q 32.515625 7.28125 36.609375 11.9375 
Q 40.71875 16.609375 40.71875 26.5625 
Q 40.71875 36.078125 36.5 40.90625 
Q 32.28125 45.75 26.3125 45.75 
Q 20.453125 45.75 16.34375 40.984375 
Q 12.25 36.234375 12.25 26.859375 
z
" id="ArialMT-67"/>
      </defs>
      <g style="fill:#262626;" transform="translate(953.555437 525.2525)scale(0.16 -0.16)">
       <use xlink:href="#ArialMT-41"/>
       <use x="66.699219" xlink:href="#ArialMT-75"/>
       <use x="122.314453" xlink:href="#ArialMT-67"/>
      </g>
     </g>
    </g>
    <g id="xtick_13">
     <g id="line2d_25">
      <path clip-path="url(#p29dc09cd2c)" d="M 1045.991555 506.8 
L 1045.991555 16.966112 
" style="fill:none;stroke:#ffffff;stroke-linecap:round;"/>
     </g>
     <g id="line2d_26"/>
     <g id="text_13">
      <!-- Sep -->
      <g style="fill:#262626;" transform="translate(1031.757805 525.4475)scale(0.16 -0.16)">
       <use xlink:href="#ArialMT-53"/>
       <use x="66.699219" xlink:href="#ArialMT-65"/>
       <use x="122.314453" xlink:href="#ArialMT-70"/>
      </g>
     </g>
    </g>
    <g id="xtick_14">
     <g id="line2d_27">
      <path clip-path="url(#p29dc09cd2c)" d="M 1068.695469 506.8 
L 1068.695469 16.966112 
" style="fill:none;stroke:#ffffff;stroke-linecap:round;"/>
     </g>
     <g id="line2d_28"/>
    </g>
    <g id="xtick_15">
     <g id="line2d_29"/>
    </g>
    <g id="xtick_16">
     <g id="line2d_30"/>
    </g>
    <g id="xtick_17">
     <g id="line2d_31"/>
    </g>
    <g id="xtick_18">
     <g id="line2d_32"/>
    </g>
    <g id="xtick_19">
     <g id="line2d_33"/>
    </g>
    <g id="xtick_20">
     <g id="line2d_34"/>
    </g>
    <g id="xtick_21">
     <g id="line2d_35"/>
    </g>
    <g id="xtick_22">
     <g id="line2d_36"/>
    </g>
    <g id="xtick_23">
     <g id="line2d_37"/>
    </g>
    <g id="xtick_24">
     <g id="line2d_38"/>
    </g>
    <g id="xtick_25">
     <g id="line2d_39"/>
    </g>
    <g id="xtick_26">
     <g id="line2d_40"/>
    </g>
    <g id="xtick_27">
     <g id="line2d_41"/>
    </g>
    <g id="xtick_28">
     <g id="line2d_42"/>
    </g>
    <g id="xtick_29">
     <g id="line2d_43"/>
    </g>
    <g id="xtick_30">
     <g id="line2d_44"/>
    </g>
    <g id="xtick_31">
     <g id="line2d_45"/>
    </g>
    <g id="xtick_32">
     <g id="line2d_46"/>
    </g>
    <g id="xtick_33">
     <g id="line2d_47"/>
    </g>
    <g id="xtick_34">
     <g id="line2d_48"/>
    </g>
    <g id="xtick_35">
     <g id="line2d_49"/>
    </g>
    <g id="xtick_36">
     <g id="line2d_50"/>
    </g>
    <g id="xtick_37">
     <g id="line2d_51"/>
    </g>
    <g id="xtick_38">
     <g id="line2d_52"/>
    </g>
    <g id="xtick_39">
     <g id="line2d_53"/>
    </g>
    <g id="xtick_40">
     <g id="line2d_54"/>
    </g>
    <g id="xtick_41">
     <g id="line2d_55"/>
    </g>
    <g id="xtick_42">
     <g id="line2d_56"/>
    </g>
    <g id="xtick_43">
     <g id="line2d_57"/>
    </g>
    <g id="xtick_44">
     <g id="line2d_58"/>
    </g>
    <g id="xtick_45">
     <g id="line2d_59"/>
    </g>
    <g id="xtick_46">
     <g id="line2d_60"/>
    </g>
    <g id="xtick_47">
     <g id="line2d_61"/>
    </g>
    <g id="xtick_48">
     <g id="line2d_62"/>
    </g>
    <g id="xtick_49">
     <g id="line2d_63"/>
    </g>
    <g id="xtick_50">
     <g id="line2d_64"/>
    </g>
    <g id="xtick_51">
     <g id="line2d_65"/>
    </g>
    <g id="xtick_52">
     <g id="line2d_66"/>
    </g>
    <g id="xtick_53">
     <g id="line2d_67"/>
    </g>
    <g id="xtick_54">
     <g id="line2d_68"/>
    </g>
    <g id="xtick_55">
     <g id="line2d_69"/>
    </g>
    <g id="xtick_56">
     <g id="line2d_70"/>
    </g>
    <g id="xtick_57">
     <g id="line2d_71"/>
    </g>
    <g id="xtick_58">
     <g id="line2d_72"/>
    </g>
    <g id="xtick_59">
     <g id="line2d_73"/>
    </g>
    <g id="xtick_60">
     <g id="line2d_74"/>
    </g>
    <g id="xtick_61">
     <g id="line2d_75"/>
    </g>
    <g id="xtick_62">
     <g id="line2d_76"/>
    </g>
    <g id="xtick_63">
     <g id="line2d_77"/>
    </g>
    <g id="xtick_64">
     <g id="line2d_78"/>
    </g>
    <g id="xtick_65">
     <g id="line2d_79"/>
    </g>
    <g id="xtick_66">
     <g id="line2d_80"/>
    </g>
    <g id="xtick_67">
     <g id="line2d_81"/>
    </g>
    <g id="xtick_68">
     <g id="line2d_82"/>
    </g>
    <g id="xtick_69">
     <g id="line2d_83"/>
    </g>
    <g id="xtick_70">
     <g id="line2d_84"/>
    </g>
    <g id="text_14">
     <!-- Date -->
     <g style="fill:#262626;" transform="translate(547.266562 560.808)scale(0.16 -0.16)">
      <use xlink:href="#ArialMT-44"/>
      <use x="72.216797" xlink:href="#ArialMT-61"/>
      <use x="127.832031" xlink:href="#ArialMT-74"/>
      <use x="155.615234" xlink:href="#ArialMT-65"/>
     </g>
    </g>
   </g>
   <g id="matplotlib.axis_2">
    <g id="ytick_1">
     <g id="line2d_85">
      <path clip-path="url(#p29dc09cd2c)" d="M 59.128125 484.534823 
L 1069.2 484.534823 
" style="fill:none;stroke:#ffffff;stroke-linecap:round;"/>
     </g>
     <g id="line2d_86"/>
     <g id="text_15">
      <!-- 0.0 -->
      <defs>
       <path d="M 9.078125 0 
L 9.078125 10.015625 
L 19.09375 10.015625 
L 19.09375 0 
z
" id="ArialMT-2e"/>
      </defs>
      <g style="fill:#262626;" transform="translate(29.888125 490.261073)scale(0.16 -0.16)">
       <use xlink:href="#ArialMT-30"/>
       <use x="55.615234" xlink:href="#ArialMT-2e"/>
       <use x="83.398438" xlink:href="#ArialMT-30"/>
      </g>
     </g>
    </g>
    <g id="ytick_2">
     <g id="line2d_87">
      <path clip-path="url(#p29dc09cd2c)" d="M 59.128125 390.98366 
L 1069.2 390.98366 
" style="fill:none;stroke:#ffffff;stroke-linecap:round;"/>
     </g>
     <g id="line2d_88"/>
     <g id="text_16">
      <!-- 0.5 -->
      <defs>
       <path d="M 4.15625 18.75 
L 13.375 19.53125 
Q 14.40625 12.796875 18.140625 9.390625 
Q 21.875 6 27.15625 6 
Q 33.5 6 37.890625 10.78125 
Q 42.28125 15.578125 42.28125 23.484375 
Q 42.28125 31 38.0625 35.34375 
Q 33.84375 39.703125 27 39.703125 
Q 22.75 39.703125 19.328125 37.765625 
Q 15.921875 35.84375 13.96875 32.765625 
L 5.71875 33.84375 
L 12.640625 70.609375 
L 48.25 70.609375 
L 48.25 62.203125 
L 19.671875 62.203125 
L 15.828125 42.96875 
Q 22.265625 47.46875 29.34375 47.46875 
Q 38.71875 47.46875 45.15625 40.96875 
Q 51.609375 34.46875 51.609375 24.265625 
Q 51.609375 14.546875 45.953125 7.46875 
Q 39.0625 -1.21875 27.15625 -1.21875 
Q 17.390625 -1.21875 11.203125 4.25 
Q 5.03125 9.71875 4.15625 18.75 
z
" id="ArialMT-35"/>
      </defs>
      <g style="fill:#262626;" transform="translate(29.888125 396.70991)scale(0.16 -0.16)">
       <use xlink:href="#ArialMT-30"/>
       <use x="55.615234" xlink:href="#ArialMT-2e"/>
       <use x="83.398438" xlink:href="#ArialMT-35"/>
      </g>
     </g>
    </g>
    <g id="ytick_3">
     <g id="line2d_89">
      <path clip-path="url(#p29dc09cd2c)" d="M 59.128125 297.432498 
L 1069.2 297.432498 
" style="fill:none;stroke:#ffffff;stroke-linecap:round;"/>
     </g>
     <g id="line2d_90"/>
     <g id="text_17">
      <!-- 1.0 -->
      <g style="fill:#262626;" transform="translate(29.888125 303.158748)scale(0.16 -0.16)">
       <use xlink:href="#ArialMT-31"/>
       <use x="55.615234" xlink:href="#ArialMT-2e"/>
       <use x="83.398438" xlink:href="#ArialMT-30"/>
      </g>
     </g>
    </g>
    <g id="ytick_4">
     <g id="line2d_91">
      <path clip-path="url(#p29dc09cd2c)" d="M 59.128125 203.881335 
L 1069.2 203.881335 
" style="fill:none;stroke:#ffffff;stroke-linecap:round;"/>
     </g>
     <g id="line2d_92"/>
     <g id="text_18">
      <!-- 1.5 -->
      <g style="fill:#262626;" transform="translate(29.888125 209.607585)scale(0.16 -0.16)">
       <use xlink:href="#ArialMT-31"/>
       <use x="55.615234" xlink:href="#ArialMT-2e"/>
       <use x="83.398438" xlink:href="#ArialMT-35"/>
      </g>
     </g>
    </g>
    <g id="ytick_5">
     <g id="line2d_93">
      <path clip-path="url(#p29dc09cd2c)" d="M 59.128125 110.330172 
L 1069.2 110.330172 
" style="fill:none;stroke:#ffffff;stroke-linecap:round;"/>
     </g>
     <g id="line2d_94"/>
     <g id="text_19">
      <!-- 2.0 -->
      <g style="fill:#262626;" transform="translate(29.888125 116.056422)scale(0.16 -0.16)">
       <use xlink:href="#ArialMT-32"/>
       <use x="55.615234" xlink:href="#ArialMT-2e"/>
       <use x="83.398438" xlink:href="#ArialMT-30"/>
      </g>
     </g>
    </g>
    <g id="ytick_6">
     <g id="line2d_95">
      <path clip-path="url(#p29dc09cd2c)" d="M 59.128125 16.779009 
L 1069.2 16.779009 
" style="fill:none;stroke:#ffffff;stroke-linecap:round;"/>
     </g>
     <g id="line2d_96"/>
     <g id="text_20">
      <!-- 2.5 -->
      <g style="fill:#262626;" transform="translate(29.888125 22.505259)scale(0.16 -0.16)">
       <use xlink:href="#ArialMT-32"/>
       <use x="55.615234" xlink:href="#ArialMT-2e"/>
       <use x="83.398438" xlink:href="#ArialMT-35"/>
      </g>
     </g>
    </g>
    <g id="text_21">
     <!-- Average Precipitation -->
     <defs>
      <path id="ArialMT-20"/>
      <path d="M 7.71875 0 
L 7.71875 71.578125 
L 34.71875 71.578125 
Q 41.84375 71.578125 45.609375 70.90625 
Q 50.875 70.015625 54.4375 67.546875 
Q 58.015625 65.09375 60.1875 60.640625 
Q 62.359375 56.203125 62.359375 50.875 
Q 62.359375 41.75 56.546875 35.421875 
Q 50.734375 29.109375 35.546875 29.109375 
L 17.1875 29.109375 
L 17.1875 0 
z
M 17.1875 37.546875 
L 35.6875 37.546875 
Q 44.875 37.546875 48.734375 40.96875 
Q 52.59375 44.390625 52.59375 50.59375 
Q 52.59375 55.078125 50.3125 58.265625 
Q 48.046875 61.46875 44.34375 62.5 
Q 41.9375 63.140625 35.5 63.140625 
L 17.1875 63.140625 
z
" id="ArialMT-50"/>
      <path d="M 6.640625 61.46875 
L 6.640625 71.578125 
L 15.4375 71.578125 
L 15.4375 61.46875 
z
M 6.640625 0 
L 6.640625 51.859375 
L 15.4375 51.859375 
L 15.4375 0 
z
" id="ArialMT-69"/>
     </defs>
     <g style="fill:#262626;" transform="translate(22.520625 337.920556)rotate(-90)scale(0.16 -0.16)">
      <use xlink:href="#ArialMT-41"/>
      <use x="66.683594" xlink:href="#ArialMT-76"/>
      <use x="116.683594" xlink:href="#ArialMT-65"/>
      <use x="172.298828" xlink:href="#ArialMT-72"/>
      <use x="205.599609" xlink:href="#ArialMT-61"/>
      <use x="261.214844" xlink:href="#ArialMT-67"/>
      <use x="316.830078" xlink:href="#ArialMT-65"/>
      <use x="372.445312" xlink:href="#ArialMT-20"/>
      <use x="400.228516" xlink:href="#ArialMT-50"/>
      <use x="466.927734" xlink:href="#ArialMT-72"/>
      <use x="500.228516" xlink:href="#ArialMT-65"/>
      <use x="555.84375" xlink:href="#ArialMT-63"/>
      <use x="605.84375" xlink:href="#ArialMT-69"/>
      <use x="628.060547" xlink:href="#ArialMT-70"/>
      <use x="683.675781" xlink:href="#ArialMT-69"/>
      <use x="705.892578" xlink:href="#ArialMT-74"/>
      <use x="733.675781" xlink:href="#ArialMT-61"/>
      <use x="789.291016" xlink:href="#ArialMT-74"/>
      <use x="817.074219" xlink:href="#ArialMT-69"/>
      <use x="839.291016" xlink:href="#ArialMT-6f"/>
      <use x="894.90625" xlink:href="#ArialMT-6e"/>
     </g>
    </g>
   </g>
   <g id="line2d_97">
    <path clip-path="url(#p29dc09cd2c)" d="M 105.040483 193.590707 
L 107.56314 470.101215 
L 110.085797 481.416451 
L 112.608454 472.560274 
L 115.131111 387.865288 
L 117.653768 439.006591 
L 120.176425 482.351963 
L 122.699082 365.537744 
L 125.221739 483.412209 
L 127.744396 475.179707 
L 130.267053 437.010833 
L 132.78971 432.894581 
L 135.312367 468.631126 
L 137.835024 438.507651 
L 140.357681 422.167381 
L 142.880338 470.190312 
L 147.925652 432.146172 
L 150.44831 437.759242 
L 152.970967 426.907307 
L 155.493624 400.02694 
L 158.016281 39.231288 
L 160.538938 329.863567 
L 163.061595 462.617122 
L 165.584252 459.088907 
L 168.106909 464.701977 
L 170.629566 472.560274 
L 173.152223 457.004052 
L 175.67488 448.04987 
L 178.197537 446.045202 
L 180.720194 442.570445 
L 183.242851 475.803381 
L 185.765508 481.728288 
L 188.288165 432.458009 
L 190.810822 442.124963 
L 193.333479 481.060066 
L 195.856136 404.615401 
L 198.378793 448.673544 
L 200.90145 439.318428 
L 203.424107 462.082544 
L 205.946764 463.018056 
L 208.469421 375.703637 
L 210.992078 458.964172 
L 213.514735 480.258199 
L 216.037392 484.222986 
L 218.560049 483.038005 
L 221.082706 484.534823 
L 223.605363 484.534823 
L 226.12802 463.018056 
L 228.650677 482.040126 
L 231.173334 482.040126 
L 233.695992 484.534823 
L 236.218649 472.373172 
L 238.741306 484.534823 
L 241.263963 463.953567 
L 243.78662 465.824591 
L 246.309277 479.233591 
L 248.831934 446.740153 
L 251.354591 472.560274 
L 253.877248 418.3006 
L 256.399905 474.057093 
L 258.922562 459.899684 
L 261.445219 455.133029 
L 263.967876 475.491544 
L 266.490533 426.533102 
L 269.01319 466.760102 
L 271.535847 464.577242 
L 274.058504 434.952707 
L 276.581161 434.329033 
L 279.103818 477.986242 
L 281.626475 483.287474 
L 284.149132 483.911149 
L 286.671789 482.6638 
L 289.194446 470.502149 
L 291.717103 482.040126 
L 294.23976 478.921753 
L 296.762417 449.609056 
L 299.285074 473.843262 
L 301.807731 484.222986 
L 304.330388 484.534823 
L 309.375702 484.534823 
L 311.898359 480.525488 
L 314.421016 482.975637 
L 316.943674 436.511893 
L 319.466331 482.6638 
L 321.988988 483.131556 
L 324.511645 466.760102 
L 327.034302 440.098021 
L 332.079616 297.058293 
L 334.602273 459.463112 
L 337.12493 429.152535 
L 339.647587 435.139809 
L 342.170244 468.631126 
L 344.692901 467.383777 
L 347.215558 462.082544 
L 349.738215 471.125823 
L 352.260872 451.480079 
L 354.783529 429.339637 
L 357.306186 410.941242 
L 359.828843 400.02694 
L 362.3515 459.587847 
L 364.874157 383.499567 
L 367.396814 483.038005 
L 369.919471 470.315047 
L 372.442128 472.239528 
L 374.964785 415.306963 
L 377.487442 479.670163 
L 380.010099 475.179707 
L 382.532756 482.975637 
L 387.57807 437.759242 
L 390.100727 476.427056 
L 392.623384 483.287474 
L 395.146041 471.43766 
L 397.668698 451.230609 
L 400.191356 471.43766 
L 402.714013 483.599312 
L 405.23667 460.47881 
L 407.759327 407.511033 
L 410.281984 446.178847 
L 412.804641 434.017195 
L 415.327298 468.444023 
L 417.849955 408.197074 
L 420.372612 477.05073 
L 422.895269 471.749498 
L 425.417926 410.317567 
L 427.940583 380.069358 
L 430.46324 404.455028 
L 432.985897 471.43766 
L 435.508554 483.786414 
L 438.031211 484.534823 
L 440.553868 478.921753 
L 443.076525 454.910288 
L 445.599182 459.587847 
L 448.121839 482.6638 
L 450.644496 482.6638 
L 453.167153 484.534823 
L 463.257781 484.534823 
L 465.780438 484.160619 
L 468.303095 484.067067 
L 470.825752 484.534823 
L 473.348409 484.534823 
L 475.871066 482.351963 
L 478.393723 483.911149 
L 480.91638 484.534823 
L 483.439038 475.803381 
L 485.961695 446.365949 
L 488.484352 449.359586 
L 493.529666 350.569558 
L 496.052323 481.594644 
L 498.57498 482.931089 
L 501.097637 479.295958 
L 503.620294 438.226998 
L 506.142951 482.975637 
L 508.665608 484.534823 
L 521.278893 484.534823 
L 523.80155 472.685009 
L 526.324207 286.740936 
L 528.846864 455.667607 
L 531.369521 484.000245 
L 533.892178 484.534823 
L 536.414835 135.277149 
L 538.937492 157.729428 
L 541.460149 393.478358 
L 543.982806 484.222986 
L 546.505463 481.541186 
L 549.02812 415.306963 
L 551.550777 451.791916 
L 554.073434 484.067067 
L 556.596091 475.647463 
L 559.118748 484.534823 
L 561.641405 479.670163 
L 564.164062 460.211521 
L 566.68672 484.267534 
L 569.209377 484.534823 
L 571.732034 477.518486 
L 574.254691 484.534823 
L 576.777348 484.534823 
L 579.300005 458.964172 
L 581.822662 173.944963 
L 584.345319 279.969614 
L 586.867976 414.995126 
L 589.390633 484.534823 
L 591.91329 427.93637 
L 594.435947 459.276009 
L 596.958604 484.534823 
L 599.481261 484.534823 
L 602.003918 423.41473 
L 604.526575 476.783441 
L 607.049232 483.038005 
L 609.571889 484.534823 
L 612.094546 484.534823 
L 614.617203 482.931089 
L 617.13986 482.6638 
L 619.662517 484.534823 
L 622.185174 457.592088 
L 624.707831 484.534823 
L 627.230488 484.534823 
L 629.753145 483.786414 
L 632.275802 481.728288 
L 634.798459 484.534823 
L 637.321116 482.975637 
L 639.843773 449.297219 
L 642.36643 410.816507 
L 644.889087 484.534823 
L 647.411745 484.160619 
L 649.934402 462.394381 
L 652.457059 478.609916 
L 654.979716 478.921753 
L 657.502373 484.222986 
L 660.02503 471.749498 
L 662.547687 484.534823 
L 665.070344 463.953567 
L 667.593001 480.525488 
L 670.115658 466.893747 
L 672.638315 482.931089 
L 675.160972 484.534823 
L 680.206286 484.534823 
L 682.728943 483.911149 
L 685.2516 469.878474 
L 687.774257 450.856405 
L 690.296914 450.544567 
L 692.819571 274.980219 
L 695.342228 419.423214 
L 697.864885 444.494926 
L 700.387542 369.653995 
L 702.910199 394.725707 
L 705.432856 478.298079 
L 707.955513 460.211521 
L 710.47817 223.215242 
L 713.000827 298.929316 
L 715.523484 463.018056 
L 718.046141 481.728288 
L 720.568798 484.534823 
L 723.091455 472.373172 
L 725.614112 471.43766 
L 730.659427 233.817707 
L 733.182084 284.335335 
L 735.704741 459.276009 
L 738.227398 482.975637 
L 740.750055 483.412209 
L 743.272712 481.541186 
L 745.795369 472.685009 
L 748.318026 482.6638 
L 750.840683 480.044367 
L 753.36334 390.671823 
L 755.885997 311.27807 
L 758.408654 457.716823 
L 760.931311 462.082544 
L 763.453968 478.547549 
L 765.976625 475.553912 
L 768.499282 438.881856 
L 771.021939 451.604814 
L 773.544596 471.43766 
L 776.067253 479.857265 
L 778.58991 458.02866 
L 781.112567 482.6638 
L 783.635224 483.131556 
L 786.157881 484.160619 
L 788.680538 471.063456 
L 791.203195 462.394381 
L 793.725852 363.230149 
L 796.248509 415.306963 
L 798.771166 483.786414 
L 801.293823 468.631126 
L 803.81648 471.749498 
L 806.339137 468.818228 
L 808.861794 419.797419 
L 811.384451 470.689251 
L 813.907109 483.287474 
L 816.429766 471.811865 
L 818.952423 461.70834 
L 821.47508 448.673544 
L 823.997737 482.040126 
L 826.520394 484.534823 
L 829.043051 484.222986 
L 834.088365 483.038005 
L 836.611022 427.281512 
L 839.133679 417.489823 
L 841.656336 429.963312 
L 844.178993 441.501288 
L 846.70165 435.576381 
L 849.224307 400.02694 
L 851.746964 478.298079 
L 854.269621 467.695614 
L 856.792278 440.25394 
L 859.314935 461.770707 
L 861.837592 463.953567 
L 864.360249 460.679277 
L 866.882906 470.813986 
L 869.405563 463.64173 
L 871.92822 460.585726 
L 874.450877 462.082544 
L 876.973534 480.792777 
L 879.496191 481.104614 
L 882.018848 483.599312 
L 884.541505 482.351963 
L 887.064162 470.635793 
L 889.586819 472.373172 
L 892.109476 450.856405 
L 894.632133 456.843679 
L 897.154791 477.518486 
L 899.677448 484.534823 
L 902.200105 483.786414 
L 904.722762 465.824591 
L 907.245419 481.416451 
L 909.768076 478.298079 
L 912.290733 483.287474 
L 914.81339 483.599312 
L 917.336047 473.308684 
L 919.858704 428.092288 
L 922.381361 454.910288 
L 924.904018 478.609916 
L 927.426675 459.276009 
L 929.949332 456.157637 
L 932.471989 416.910697 
L 934.994646 471.749498 
L 937.517303 451.390983 
L 940.03996 481.060066 
L 942.562617 346.702777 
L 945.085274 442.249698 
L 947.607931 362.169902 
L 950.130588 468.230192 
L 952.653245 468.942963 
L 955.175902 484.222986 
L 957.698559 463.953567 
L 960.221216 465.512753 
L 962.743873 473.308684 
L 965.26653 484.534823 
L 967.789187 475.803381 
L 970.311844 470.502149 
L 972.834501 481.260533 
L 975.357158 481.728288 
L 977.879815 478.921753 
L 980.402473 484.534823 
L 982.92513 482.196044 
L 985.447787 463.953567 
L 987.970444 475.179707 
L 990.493101 481.260533 
L 993.015758 484.534823 
L 995.538415 475.803381 
L 998.061072 484.534823 
L 1000.583729 472.934479 
L 1003.106386 453.850042 
L 1005.629043 456.001719 
L 1008.1517 475.647463 
L 1010.674357 480.792777 
L 1013.197014 478.921753 
L 1015.719671 483.599312 
L 1018.242328 448.361707 
L 1020.764985 453.351102 
L 1023.287642 459.743765 
L 1023.287642 459.743765 
" style="fill:none;stroke:#4c72b0;stroke-linecap:round;stroke-width:1.75;"/>
   </g>
   <g id="patch_3">
    <path d="M 59.128125 506.8 
L 59.128125 16.966112 
" style="fill:none;"/>
   </g>
   <g id="patch_4">
    <path d="M 1069.2 506.8 
L 1069.2 16.966112 
" style="fill:none;"/>
   </g>
   <g id="patch_5">
    <path d="M 59.128125 506.8 
L 1069.2 506.8 
" style="fill:none;"/>
   </g>
   <g id="patch_6">
    <path d="M 59.128125 16.966112 
L 1069.2 16.966112 
" style="fill:none;"/>
   </g>
  </g>
 </g>
 <defs>
  <clipPath id="p29dc09cd2c">
   <rect height="489.833888" width="1010.071875" x="59.128125" y="16.966112"/>
  </clipPath>
 </defs>
</svg>
